<svg width="200" height="280" viewBox="0 0 200 280" fill="none" xmlns="http://www.w3.org/2000/svg">
<g clip-path="url(#clip0_582_6746)">
<path d="M174.322 199.263V169.604C174.322 134.621 167.223 108 162.328 108H162.309C157.414 108 150.315 134.621 150.315 169.604V199.263H174.315" fill="#148664"/>
<path d="M162.638 198.044L160.345 174.448C157.636 146.615 149.198 126.057 144.79 126.486H144.777C140.368 126.916 136.048 148.718 138.752 176.545L141.044 200.141L162.638 198.044Z" fill="#7EAE7E"/>
<path d="M132 195.158H180V236.842C180 240.328 177.171 243.158 173.684 243.158H138.316C134.829 243.158 132 240.328 132 236.842V195.158Z" fill="#523AB1"/>
</g>
<g clip-path="url(#clip1_582_6746)">
<path d="M118 47.7998H20V156.689H118V47.7998Z" fill="#D8DBFD"/>
<path d="M110.922 128.378H95.6777V136H110.922V128.378Z" fill="white"/>
<path d="M88.056 81.0112H72.8115V88.6334H88.056V81.0112Z" fill="white"/>
<path d="M88.056 96.8003H72.8115V104.423H88.056V96.8003Z" fill="white"/>
<path d="M88.056 112.589H72.8115V120.211H88.056V112.589Z" fill="white"/>
<path d="M88.056 128.378H72.8115V136H88.056V128.378Z" fill="white"/>
<path d="M110.922 81.0112H95.6777V88.6334H110.922V81.0112Z" fill="white"/>
<path d="M110.922 96.8003H95.6777V104.423H110.922V96.8003Z" fill="white"/>
<path d="M110.922 112.589H95.6777V120.211H110.922V112.589Z" fill="white"/>
<path d="M56.4778 55.4224H44.5V64.1335H56.4778V55.4224Z" fill="white"/>
<path d="M93.5002 55.4224H81.5225V64.1335H93.5002V55.4224Z" fill="white"/>
<path d="M50.7615 38H50.2171C48.5633 38 47.2227 39.3407 47.2227 40.9944V57.8722C47.2227 59.526 48.5633 60.8667 50.2171 60.8667H50.7615C52.4153 60.8667 53.756 59.526 53.756 57.8722V40.9944C53.756 39.3407 52.4153 38 50.7615 38Z" fill="#F2614E"/>
<path d="M87.784 38H87.2396C85.5858 38 84.2451 39.3407 84.2451 40.9944V57.8722C84.2451 59.526 85.5858 60.8667 87.2396 60.8667H87.784C89.4378 60.8667 90.7785 59.526 90.7785 57.8722V40.9944C90.7785 39.3407 89.4378 38 87.784 38Z" fill="#F2614E"/>
<path d="M55.0679 96.027H58.2202V101.226H55.0679V106.6H48.7578V101.226H36.1484V96.86L46.1281 80.4668H55.0679V96.027ZM48.7578 96.027V85.7316L42.7634 96.027H48.7578Z" fill="#523AB1"/>
</g>
<defs>
<clipPath id="clip0_582_6746">
<rect width="48" height="135.158" fill="white" transform="translate(132 108)"/>
</clipPath>
<clipPath id="clip1_582_6746">
<rect width="98" height="118.689" fill="white" transform="translate(20 38)"/>
</clipPath>
</defs>
</svg>
