<svg width="578" height="630" viewBox="0 0 578 630" fill="none" xmlns="http://www.w3.org/2000/svg">
<rect x="151" y="31" width="2" height="38" fill="white" fill-opacity="0.2"/>
<rect x="151" y="97" width="2" height="38" fill="white" fill-opacity="0.2"/>
<rect x="151" y="363" width="2" height="38" fill="white" fill-opacity="0.2"/>
<rect x="151" y="429" width="2" height="38" fill="white" fill-opacity="0.2"/>
<rect x="151" y="495" width="2" height="38" fill="white" fill-opacity="0.2"/>
<rect x="151" y="561" width="2" height="38" fill="white" fill-opacity="0.2"/>
<rect x="151" y="163" width="2" height="72" fill="white" fill-opacity="0.2"/>
<rect x="151" y="263" width="2" height="72" fill="white" fill-opacity="0.2"/>
<path d="M1.375 25H11.8379V22.9805H4.66211V22.8516L7.82031 19.6504C10.7422 16.7822 11.5586 15.3965 11.5801 13.6562C11.5586 11.1318 9.48535 9.23047 6.48828 9.23047C3.52344 9.23047 1.35352 11.1104 1.375 13.957H3.60938C3.62012 12.3027 4.71582 11.207 6.44531 11.207C8.07812 11.207 9.32422 12.1846 9.32422 13.7207C9.32422 15.085 8.47559 16.0732 6.76758 17.8457L1.375 23.2812V25ZM19.873 25.2148C23.4717 25.2148 25.5771 22.3145 25.5879 17.2227C25.5771 12.1631 23.4395 9.23047 19.873 9.23047C16.2959 9.23047 14.1582 12.1631 14.1582 17.2227C14.1582 22.3145 16.2744 25.2148 19.873 25.2148ZM16.5215 17.2227C16.5215 13.3555 17.7783 11.2393 19.873 11.2285C21.957 11.2393 23.2246 13.3555 23.2246 17.2227C23.2246 21.1006 21.9678 23.1738 19.873 23.1738C17.7676 23.1738 16.5107 21.1006 16.5215 17.2227ZM33.9453 9.44531H31.625L27.7578 11.9805V14.2363L31.4746 11.8086H31.5605V25H33.9453V9.44531ZM43.334 25.2148C46.6641 25.2148 49.0381 23.3887 49.0488 20.8535C49.0381 18.8555 47.5986 17.2227 45.7832 16.9434V16.8574C47.3516 16.4922 48.4365 15.0742 48.4473 13.377C48.4365 10.9814 46.2666 9.23047 43.334 9.23047C40.3584 9.23047 38.1992 10.9814 38.1992 13.377C38.1992 15.0742 39.2627 16.4922 40.8633 16.8574V16.9434C39.0264 17.2227 37.5977 18.8555 37.6191 20.8535C37.5977 23.3887 39.9502 25.2148 43.334 25.2148ZM40.0254 20.6816C39.9932 19.0811 41.4004 17.9102 43.334 17.9102C45.2461 17.9102 46.6426 19.0811 46.6426 20.6816C46.6426 22.207 45.3535 23.2598 43.334 23.2598C41.2822 23.2598 39.9932 22.207 40.0254 20.6816ZM40.498 13.5918C40.5088 12.1416 41.626 11.1533 43.334 11.1641C44.999 11.1533 46.1377 12.1416 46.127 13.5918C46.1377 15.0527 44.9561 16.0518 43.334 16.041C41.6689 16.0518 40.5088 15.042 40.498 13.5918ZM52.5508 25.1504C53.3779 25.1396 54.0654 24.4629 54.0762 23.625C54.0654 22.7871 53.3779 22.0996 52.5508 22.0996C51.7129 22.0996 51.0146 22.7871 51.0254 23.625C51.0146 24.4629 51.7129 25.1396 52.5508 25.1504ZM61.6602 25.2148C65.2588 25.2148 67.3643 22.3145 67.375 17.2227C67.3643 12.1631 65.2266 9.23047 61.6602 9.23047C58.083 9.23047 55.9453 12.1631 55.9453 17.2227C55.9453 22.3145 58.0615 25.2148 61.6602 25.2148ZM58.3086 17.2227C58.3086 13.3555 59.5654 11.2393 61.6602 11.2285C63.7441 11.2393 65.0117 13.3555 65.0117 17.2227C65.0117 21.1006 63.7549 23.1738 61.6602 23.1738C59.5547 23.1738 58.2979 21.1006 58.3086 17.2227ZM75.1738 9.23047C71.79 9.20898 69.5879 11.5293 69.5879 14.4941C69.5879 17.4697 71.8223 19.6074 74.6152 19.6074C76.291 19.6074 77.752 18.8125 78.5898 17.502H78.7832C78.7617 21.0576 77.3545 23.1416 74.959 23.1523C73.3906 23.1416 72.3809 22.2285 72.0586 20.918H69.7168C70.0928 23.4424 72.0908 25.2148 74.959 25.2148C78.6865 25.2148 81.0391 22.1211 81.0391 16.6641C81.0283 10.9707 78.0312 9.25195 75.1738 9.23047ZM71.8867 14.4512C71.876 12.668 73.2939 11.207 75.1738 11.207C77.0752 11.207 78.4609 12.7432 78.4609 14.4297C78.4609 16.1484 77.0107 17.6846 75.1309 17.6738C73.2402 17.6846 71.8975 16.2559 71.8867 14.4512Z" fill="white"/>
<path d="M188.326 22.7871H180.463V18.6836H186.65V17.0723H183.771V11.0137H186.715V9.35938H172.213V11.0137H175.135V17.0723H172.256V18.6836H178.443V22.7871H170.709V24.5273H188.326V22.7871ZM177.154 17.0723V11.0137H181.773V17.0723H177.154ZM199.498 10.3047V8.84375H197.35V10.3047C197.339 13.4414 194.02 16.3848 190.367 17.0723L191.27 18.7695C194.353 18.082 197.178 16.0732 198.445 13.377C199.691 16.084 202.517 18.1035 205.6 18.7695L206.545 17.0723C202.839 16.4062 199.498 13.4414 199.498 10.3047ZM189.723 24.291H207.34V22.5938H189.723V24.291ZM219.672 9.1875H209.273V10.8633H211.1V16.4814C210.262 16.4922 209.467 16.4922 208.736 16.4922L208.973 18.2109C212.195 18.2109 216.707 18.1143 220.639 17.416L220.51 15.8906C219.65 16.0195 218.759 16.1162 217.846 16.1914V10.8633H219.672V9.1875ZM210.541 25.1289L211.336 26.7402C214.269 26.2354 216.739 24.8174 217.921 22.7549C219.081 24.8174 221.552 26.2354 224.484 26.7402L225.301 25.1289C221.659 24.5703 218.898 22.5293 218.92 19.9727V19.5645H216.9V19.9727C216.89 22.5293 214.15 24.5703 210.541 25.1289ZM213.076 16.4492V10.8633H215.848V16.3311C214.913 16.3848 213.979 16.417 213.076 16.4492ZM221.82 20.5312H223.861V14.4941H226.654V12.7969H223.861V7.57617H221.82V20.5312ZM249.17 7.57617H247.129V10.8848H243.068V12.5391H247.129V17.4805H249.17V7.57617ZM233.057 15.9336L234.152 17.5664C236.43 16.7822 238.073 15.1709 238.911 13.0977C239.76 14.9346 241.36 16.3848 243.477 17.1152L244.551 15.5254C241.65 14.6016 239.889 12.3242 239.889 9.875V8.19922H237.869V9.875C237.858 12.582 236.064 14.9775 233.057 15.9336ZM236.58 19.9941H247.15V21.627H236.623V26.5898H249.836V24.957H238.621V23.1738H249.17V18.3828H236.58V19.9941ZM268.098 7.59766H266.057V18.2109H268.098V7.59766ZM253.102 10.1543H259.934V12.2812H253.145V17.8457H254.756C258.397 17.8242 261.019 17.7383 264.166 17.2227L263.908 15.5684C260.976 16.0518 258.516 16.1377 255.143 16.1484V13.8711H261.953V8.5H253.102V10.1543ZM255.465 26.5898H268.098V19.1133H266.078V21.1973H257.506V19.1133H255.465V26.5898ZM257.506 24.9355V22.8086H266.078V24.9355H257.506ZM274.607 23.5176H272.201L271.062 29.4473H272.889L274.607 23.5176ZM288.873 11.1211V10.6055H293.02V8.95117H282.6V10.6055H286.832V11.1426C286.821 13.8174 285.006 16.2988 281.998 17.2871L283.051 18.9199C285.36 18.1143 287.047 16.4492 287.885 14.3438C288.733 16.1699 290.334 17.6201 292.525 18.3184L293.492 16.7285C290.57 15.8047 288.862 13.5703 288.873 11.1211ZM284.598 23.1738C284.598 25.4619 287.058 26.7939 291.064 26.7832C295.028 26.7939 297.445 25.4619 297.445 23.1738C297.445 20.918 295.028 19.5967 291.064 19.6074C287.058 19.5967 284.598 20.918 284.598 23.1738ZM286.639 23.1738C286.628 21.917 288.282 21.208 291.064 21.2188C293.825 21.208 295.458 21.917 295.447 23.1738C295.458 24.4629 293.825 25.1826 291.064 25.1719C288.282 25.1826 286.628 24.4629 286.639 23.1738ZM295.232 19.1348H297.273V14.0215H300.066V12.3457H297.273V7.57617H295.232V19.1348ZM305.523 9.12305C303.01 9.1123 301.377 11.7227 301.377 15.8906C301.377 20.0693 303.01 22.6904 305.523 22.6797C308.059 22.6904 309.702 20.0693 309.713 15.8906C309.702 11.7227 308.059 9.1123 305.523 9.12305ZM303.268 15.8906C303.268 12.8184 304.138 11.0244 305.523 11.0352C306.941 11.0244 307.822 12.8184 307.822 15.8906C307.822 18.9521 306.941 20.7568 305.523 20.7461C304.138 20.7568 303.268 18.9521 303.268 15.8906ZM311.453 25.8809H313.387V16.793H315.771V26.8262H317.727V7.57617H315.771V15.1172H313.387V7.94141H311.453V25.8809ZM336.139 7.59766H334.098V21.584H336.139V7.59766ZM320.562 13.6562C320.573 16.4814 322.786 18.4473 325.697 18.4473C328.598 18.4473 330.811 16.4814 330.811 13.6562C330.811 10.874 328.598 8.89746 325.697 8.88672C322.786 8.89746 320.573 10.874 320.562 13.6562ZM322.561 13.6562C322.55 11.8838 323.903 10.6699 325.697 10.6699C327.459 10.6699 328.812 11.8838 328.812 13.6562C328.812 15.4717 327.459 16.6641 325.697 16.6641C323.903 16.6641 322.55 15.4717 322.561 13.6562ZM323.549 26.418H336.719V24.7637H325.611V20.166H323.549V26.418ZM355.195 7.57617H353.133V26.8262H355.195V7.57617ZM339.383 21.6699L340.457 23.3242C347.063 20.1553 349.459 15.2783 349.459 9.63867H340.307V11.2715H347.396C346.999 15.7617 344.496 19.2314 339.383 21.6699ZM363.531 8.45703C360.588 8.43555 358.472 10.3047 358.482 12.9258C358.472 15.5791 360.588 17.4375 363.531 17.4375C366.088 17.4375 368.064 15.9551 368.462 13.7422H372.211V17.9102H374.252V7.57617H372.211V12.0664H368.451C368.032 9.90723 366.066 8.43555 363.531 8.45703ZM360.438 12.9258C360.427 11.2715 361.716 10.1436 363.531 10.1543C365.314 10.1436 366.582 11.2715 366.582 12.9258C366.582 14.5693 365.314 15.7188 363.531 15.7188C361.716 15.7188 360.427 14.5693 360.438 12.9258ZM361.705 26.5898H374.252V18.834H372.211V21.0684H363.725V18.834H361.705V26.5898ZM363.725 24.9141V22.6797H372.211V24.9141H363.725ZM400.162 16.6211H382.588V18.2969H400.162V16.6211ZM384.672 23.3027C384.672 25.5371 387.175 26.7939 391.354 26.7832C395.5 26.7939 397.981 25.5371 397.992 23.3027C397.981 21.0684 395.5 19.8008 391.354 19.8008C387.175 19.8008 384.672 21.0684 384.672 23.3027ZM384.779 14.9453H398.121V13.291H386.799V9.93945H397.992V8.26367H384.779V14.9453ZM386.734 23.3027C386.724 22.0781 388.41 21.3906 391.354 21.3691C394.254 21.3906 395.951 22.0781 395.951 23.3027C395.951 24.5381 394.254 25.2041 391.354 25.2148C388.41 25.2041 386.724 24.5381 386.734 23.3027ZM419.197 18.082H411.398V16.2559H417.371V14.666H405.855V12.8613H416.984V8.02734H403.793V9.63867H414.943V11.3574H403.836V16.2559H409.379V18.082H401.58V19.7363H419.197V18.082ZM403.557 22.7227H415.029V26.6758H417.092V21.0898H403.557V22.7227Z" fill="white"/>
<circle cx="152" cy="17" r="5" stroke="white" stroke-width="2"/>
<path d="M1.375 157H11.8379V154.98H4.66211V154.852L7.82031 151.65C10.7422 148.782 11.5586 147.396 11.5801 145.656C11.5586 143.132 9.48535 141.23 6.48828 141.23C3.52344 141.23 1.35352 143.11 1.375 145.957H3.60938C3.62012 144.303 4.71582 143.207 6.44531 143.207C8.07812 143.207 9.32422 144.185 9.32422 145.721C9.32422 147.085 8.47559 148.073 6.76758 149.846L1.375 155.281V157ZM19.873 157.215C23.4717 157.215 25.5771 154.314 25.5879 149.223C25.5771 144.163 23.4395 141.23 19.873 141.23C16.2959 141.23 14.1582 144.163 14.1582 149.223C14.1582 154.314 16.2744 157.215 19.873 157.215ZM16.5215 149.223C16.5215 145.355 17.7783 143.239 19.873 143.229C21.957 143.239 23.2246 145.355 23.2246 149.223C23.2246 153.101 21.9678 155.174 19.873 155.174C17.7676 155.174 16.5107 153.101 16.5215 149.223ZM33.9453 141.445H31.625L27.7578 143.98V146.236L31.4746 143.809H31.5605V157H33.9453V141.445ZM43.248 141.23C39.8643 141.209 37.6621 143.529 37.6621 146.494C37.6621 149.47 39.8965 151.607 42.6895 151.607C44.3652 151.607 45.8262 150.812 46.6641 149.502H46.8574C46.8359 153.058 45.4287 155.142 43.0332 155.152C41.4648 155.142 40.4551 154.229 40.1328 152.918H37.791C38.167 155.442 40.165 157.215 43.0332 157.215C46.7607 157.215 49.1133 154.121 49.1133 148.664C49.1025 142.971 46.1055 141.252 43.248 141.23ZM39.9609 146.451C39.9502 144.668 41.3682 143.207 43.248 143.207C45.1494 143.207 46.5352 144.743 46.5352 146.43C46.5352 148.148 45.085 149.685 43.2051 149.674C41.3145 149.685 39.9717 148.256 39.9609 146.451ZM52.5508 157.15C53.3779 157.14 54.0654 156.463 54.0762 155.625C54.0654 154.787 53.3779 154.1 52.5508 154.1C51.7129 154.1 51.0146 154.787 51.0254 155.625C51.0146 156.463 51.7129 157.14 52.5508 157.15ZM61.6602 157.215C65.2588 157.215 67.3643 154.314 67.375 149.223C67.3643 144.163 65.2266 141.23 61.6602 141.23C58.083 141.23 55.9453 144.163 55.9453 149.223C55.9453 154.314 58.0615 157.215 61.6602 157.215ZM58.3086 149.223C58.3086 145.355 59.5654 143.239 61.6602 143.229C63.7441 143.239 65.0117 145.355 65.0117 149.223C65.0117 153.101 63.7549 155.174 61.6602 155.174C59.5547 155.174 58.2979 153.101 58.3086 149.223ZM69.4805 153.971H77.043V157H79.2773V153.971H81.4043V151.973H79.2773V141.445H76.3555L69.4805 152.059V153.971ZM71.9727 151.973V151.844L76.8711 144.26H77.043V151.973H71.9727Z" fill="white"/>
<path d="M186.092 140.479H172.922V142.133H184.072C184.072 143.508 184.051 145.108 183.6 147.268H170.709V148.922H178.465V152.209H172.514V153.842H184.137V158.826H186.178V152.209H180.506V148.922H188.326V147.268H185.651C186.103 145.033 186.103 143.336 186.092 141.918V140.479ZM206.201 139.576H204.246V147.289H201.775V139.963H199.863V157.838H201.775V148.965H204.246V158.826H206.201V139.576ZM190.625 153.928H191.871C193.944 153.938 196.146 153.799 198.789 153.326L198.574 151.543C196.383 151.973 194.438 152.112 192.666 152.134V141.854H190.625V153.928ZM215.01 140.801C211.98 140.801 209.757 142.67 209.768 145.377C209.757 147.762 211.486 149.502 213.979 149.878V153.004C212.12 153.058 210.358 153.068 208.844 153.068L209.102 154.744C212.539 154.733 217.212 154.712 221.562 153.906L221.412 152.424C219.683 152.671 217.835 152.832 216.02 152.918V149.878C218.522 149.513 220.241 147.772 220.252 145.377C220.241 142.67 218.05 140.801 215.01 140.801ZM211.787 145.377C211.766 143.658 213.141 142.562 215.01 142.562C216.879 142.562 218.254 143.658 218.254 145.377C218.254 147.063 216.879 148.213 215.01 148.191C213.141 148.213 211.766 147.063 211.787 145.377ZM222.615 158.869H224.656V139.576H222.615V158.869ZM240.211 145.248V143.207H244.594V141.51H233.744V143.207H238.148V145.248C238.127 148.567 235.979 152.177 233.078 153.541L234.26 155.152C236.505 154.057 238.31 151.715 239.201 148.965C240.093 151.532 241.897 153.659 244.164 154.658L245.281 153.068C242.316 151.801 240.2 148.471 240.211 145.248ZM247.021 158.826H249.062V139.576H247.021V158.826ZM259.139 142.348V140.5H257.055V142.348C257.044 145.098 255.239 147.708 252.242 148.771L253.273 150.361C255.551 149.545 257.248 147.837 258.107 145.688C258.978 147.697 260.643 149.266 262.877 150.039L263.908 148.428C260.933 147.45 259.128 145.012 259.139 142.348ZM255.057 153.713H266.057V158.826H268.098V152.059H255.057V153.713ZM266.057 151.135H268.098V139.576H266.057V151.135ZM287.777 139.576H285.822V147.225H283.523V139.941H281.59V157.881H283.523V148.943H285.822V158.826H287.777V139.576ZM270.891 153.391L272.158 154.938C274.124 153.777 275.392 151.758 276.047 149.233C276.734 151.446 278.002 153.24 279.893 154.271L281.096 152.703C278.292 151.264 276.992 148.127 276.992 144.668V143.422H280.344V141.768H271.406V143.422H275.016V144.668C275.016 148.492 273.705 151.812 270.891 153.391ZM296.844 143.1V140.758H294.824V143.035C294.813 145.903 293.062 148.503 290.012 149.545L291.15 151.156C293.406 150.318 295.061 148.643 295.898 146.473C296.747 148.417 298.358 149.953 300.518 150.705L301.57 149.094C298.638 148.105 296.844 145.678 296.844 143.1ZM293.105 158.418H306.125V156.764H295.189V152.381H293.105V158.418ZM303.246 153.756H305.287V147.096H308.08V145.355H305.287V139.555H303.246V153.756ZM325.289 139.598H323.227V149.975H319.145V151.607H323.227V154.121H325.289V139.598ZM309.047 147.096L309.326 148.75C310.841 148.75 312.581 148.729 314.418 148.643V152.875H316.459V148.535C318.221 148.417 320.015 148.224 321.744 147.934L321.594 146.451C320.917 146.548 320.219 146.623 319.51 146.698C319.907 144.249 319.907 142.466 319.918 141.424V140.672H310.787V142.326H317.866C317.855 143.4 317.77 144.904 317.447 146.859C314.472 147.053 311.464 147.085 309.047 147.096ZM311.861 158.418H325.762V156.764H313.902V152.553H311.861V158.418ZM351.092 148.02H333.582V149.545H341.316V151.156H335.666V152.639H346.881V154.078H335.688V158.633H349.438V157.086H337.686V155.496H348.9V151.156H343.336V149.545H351.092V148.02ZM334.441 145.721L335.021 147.268C338.395 147.021 341.123 146.043 342.326 144.356C343.529 146.043 346.258 147.021 349.609 147.268L350.232 145.721C346.505 145.517 343.905 144.389 343.497 142.756H349.352V141.188H343.336V139.49H341.316V141.188H335.322V142.756H341.145C340.726 144.389 338.126 145.517 334.441 145.721ZM368.58 139.598H366.539V150.898H362.672V152.338H366.539V154.186H368.58V139.598ZM352.488 148.385L352.746 150.018C354.304 150.018 356.098 150.018 357.967 149.942V153.584H360.008V149.835C361.705 149.717 363.435 149.545 365.078 149.266L364.949 147.805C360.846 148.32 356.044 148.353 352.488 148.385ZM353.992 143.723C353.981 145.774 355.937 147.074 358.783 147.074C361.598 147.074 363.553 145.774 363.553 143.723C363.553 141.682 361.598 140.328 358.783 140.328C355.926 140.328 353.981 141.682 353.992 143.723ZM355.152 158.418H369.053V156.764H357.172V152.768H355.152V158.418ZM355.926 143.723C355.915 142.573 357.075 141.832 358.783 141.854C360.427 141.832 361.608 142.573 361.619 143.723C361.608 144.861 360.427 145.57 358.783 145.57C357.075 145.57 355.915 144.861 355.926 143.723ZM378.678 145.248V143.207H383.061V141.51H372.211V143.207H376.615V145.248C376.594 148.567 374.445 152.177 371.545 153.541L372.727 155.152C374.972 154.057 376.776 151.715 377.668 148.965C378.56 151.532 380.364 153.659 382.631 154.658L383.748 153.068C380.783 151.801 378.667 148.471 378.678 145.248ZM385.488 158.826H387.529V139.576H385.488V158.826ZM406.607 139.598H404.566V150.898H400.699V152.338H404.566V154.186H406.607V139.598ZM390.516 148.385L390.773 150.018C392.331 150.018 394.125 150.018 395.994 149.942V153.584H398.035V149.835C399.732 149.717 401.462 149.545 403.105 149.266L402.977 147.805C398.873 148.32 394.071 148.353 390.516 148.385ZM392.02 143.723C392.009 145.774 393.964 147.074 396.811 147.074C399.625 147.074 401.58 145.774 401.58 143.723C401.58 141.682 399.625 140.328 396.811 140.328C393.953 140.328 392.009 141.682 392.02 143.723ZM393.18 158.418H407.08V156.764H395.199V152.768H393.18V158.418ZM393.953 143.723C393.942 142.573 395.103 141.832 396.811 141.854C398.454 141.832 399.636 142.573 399.646 143.723C399.636 144.861 398.454 145.57 396.811 145.57C395.103 145.57 393.942 144.861 393.953 143.723ZM416.297 144.475V141.188H414.256V144.475C414.245 147.998 412.247 151.693 409.293 153.111L410.561 154.766C412.752 153.627 414.438 151.317 415.298 148.589C416.146 151.156 417.769 153.305 419.863 154.4L421.131 152.768C418.263 151.371 416.275 147.88 416.297 144.475ZM422.57 158.826H424.611V148.986H427.705V147.246H424.611V139.576H422.57V158.826ZM433.957 140.457C431.014 140.436 428.897 142.305 428.908 144.926C428.897 147.579 431.014 149.438 433.957 149.438C436.514 149.438 438.49 147.955 438.888 145.742H442.637V149.91H444.678V139.576H442.637V144.066H438.877C438.458 141.907 436.492 140.436 433.957 140.457ZM430.863 144.926C430.853 143.271 432.142 142.144 433.957 142.154C435.74 142.144 437.008 143.271 437.008 144.926C437.008 146.569 435.74 147.719 433.957 147.719C432.142 147.719 430.853 146.569 430.863 144.926ZM432.131 158.59H444.678V150.834H442.637V153.068H434.15V150.834H432.131V158.59ZM434.15 156.914V154.68H442.637V156.914H434.15ZM459.803 143.1V140.758H457.783V143.035C457.772 145.936 455.989 148.61 452.992 149.674L454.088 151.285C456.354 150.415 457.998 148.664 458.825 146.451C459.652 148.438 461.231 150.028 463.326 150.834L464.443 149.244C461.543 148.224 459.813 145.71 459.803 143.1ZM456.494 158.418H469.492V156.764H458.557V152.338H456.494V158.418ZM462.961 145.656H467.021V153.949H469.062V139.598H467.021V143.98H462.961V145.656ZM488.076 139.576H486.035V144.475H482.447V146.15H486.035V151.027H488.076V139.576ZM472.027 149.287L473.102 150.92C475.4 150.071 477.087 148.342 477.925 146.193C478.763 148.095 480.353 149.642 482.512 150.383L483.564 148.771C480.653 147.783 478.913 145.409 478.924 142.971V142.562H483.049V140.908H472.672V142.562H476.84V142.992C476.851 145.646 475.014 148.245 472.027 149.287ZM475.121 155.195C475.11 157.483 477.581 158.815 481.631 158.826C485.659 158.815 488.13 157.483 488.141 155.195C488.13 152.907 485.659 151.575 481.631 151.564C477.581 151.575 475.11 152.907 475.121 155.195ZM477.141 155.195C477.13 153.885 478.806 153.144 481.631 153.154C484.435 153.144 486.11 153.885 486.121 155.195C486.11 156.495 484.435 157.236 481.631 157.215C478.806 157.236 477.13 156.495 477.141 155.195ZM177.434 177.121V176.605H181.58V174.951H171.16V176.605H175.393V177.143C175.382 179.817 173.566 182.299 170.559 183.287L171.611 184.92C173.921 184.114 175.607 182.449 176.445 180.344C177.294 182.17 178.895 183.62 181.086 184.318L182.053 182.729C179.131 181.805 177.423 179.57 177.434 177.121ZM173.158 189.174C173.158 191.462 175.618 192.794 179.625 192.783C183.589 192.794 186.006 191.462 186.006 189.174C186.006 186.918 183.589 185.597 179.625 185.607C175.618 185.597 173.158 186.918 173.158 189.174ZM175.199 189.174C175.188 187.917 176.843 187.208 179.625 187.219C182.386 187.208 184.019 187.917 184.008 189.174C184.019 190.463 182.386 191.183 179.625 191.172C176.843 191.183 175.188 190.463 175.199 189.174ZM183.793 185.135H185.834V180.021H188.627V178.346H185.834V173.576H183.793V185.135ZM194.084 175.123C191.57 175.112 189.938 177.723 189.938 181.891C189.938 186.069 191.57 188.69 194.084 188.68C196.619 188.69 198.263 186.069 198.273 181.891C198.263 177.723 196.619 175.112 194.084 175.123ZM191.828 181.891C191.828 178.818 192.698 177.024 194.084 177.035C195.502 177.024 196.383 178.818 196.383 181.891C196.383 184.952 195.502 186.757 194.084 186.746C192.698 186.757 191.828 184.952 191.828 181.891ZM200.014 191.881H201.947V182.793H204.332V192.826H206.287V173.576H204.332V181.117H201.947V173.941H200.014V191.881ZM224.699 173.598H222.658V187.584H224.699V173.598ZM209.123 179.656C209.134 182.481 211.347 184.447 214.258 184.447C217.158 184.447 219.371 182.481 219.371 179.656C219.371 176.874 217.158 174.897 214.258 174.887C211.347 174.897 209.134 176.874 209.123 179.656ZM211.121 179.656C211.11 177.884 212.464 176.67 214.258 176.67C216.02 176.67 217.373 177.884 217.373 179.656C217.373 181.472 216.02 182.664 214.258 182.664C212.464 182.664 211.11 181.472 211.121 179.656ZM212.109 192.418H225.279V190.764H214.172V186.166H212.109V192.418ZM243.756 173.576H241.693V192.826H243.756V173.576ZM227.943 187.67L229.018 189.324C235.624 186.155 238.02 181.278 238.02 175.639H228.867V177.271H235.957C235.56 181.762 233.057 185.231 227.943 187.67ZM252.092 174.457C249.148 174.436 247.032 176.305 247.043 178.926C247.032 181.579 249.148 183.438 252.092 183.438C254.648 183.438 256.625 181.955 257.022 179.742H260.771V183.91H262.812V173.576H260.771V178.066H257.012C256.593 175.907 254.627 174.436 252.092 174.457ZM248.998 178.926C248.987 177.271 250.276 176.144 252.092 176.154C253.875 176.144 255.143 177.271 255.143 178.926C255.143 180.569 253.875 181.719 252.092 181.719C250.276 181.719 248.987 180.569 248.998 178.926ZM250.266 192.59H262.812V184.834H260.771V187.068H252.285V184.834H250.266V192.59ZM252.285 190.914V188.68H260.771V190.914H252.285ZM275.553 180.43H273.533V183.029H265.777V184.705H283.33V183.029H275.553V180.43ZM266.68 179.828L267.41 181.439C270.751 181.053 273.49 179.678 274.543 177.647C275.596 179.678 278.356 181.053 281.697 181.439L282.428 179.828C278.937 179.474 276.208 177.938 275.918 176.09H281.762V174.457H267.389V176.09H273.168C272.889 177.948 270.16 179.474 266.68 179.828ZM267.861 189.453C267.861 191.602 270.354 192.794 274.543 192.783C278.7 192.794 281.171 191.602 281.182 189.453C281.171 187.294 278.7 186.102 274.543 186.102C270.354 186.102 267.861 187.294 267.861 189.453ZM269.924 189.453C269.913 188.304 271.567 187.681 274.543 187.67C277.476 187.681 279.141 188.304 279.141 189.453C279.141 190.603 277.476 191.236 274.543 191.236C271.567 191.236 269.913 190.603 269.924 189.453ZM299.916 173.576H297.875V184.791H299.916V180.129H302.709V178.41H299.916V173.576ZM284.812 177.1H296.285V175.467H291.58V173.404H289.539V175.467H284.812V177.1ZM285.865 181.268C285.854 183.319 287.745 184.662 290.549 184.641C293.32 184.662 295.211 183.319 295.211 181.268C295.211 179.216 293.32 177.884 290.549 177.895C287.745 177.884 285.854 179.216 285.865 181.268ZM287.605 192.59H299.916V185.586H297.875V187.455H289.625V185.586H287.605V192.59ZM287.842 181.268C287.82 180.14 288.916 179.409 290.549 179.42C292.182 179.409 293.277 180.14 293.299 181.268C293.277 182.417 292.182 183.126 290.549 183.137C288.916 183.126 287.82 182.417 287.842 181.268ZM289.625 190.957V189.045H297.875V190.957H289.625ZM310.895 179.248V177.207H315.277V175.51H304.428V177.207H308.832V179.248C308.811 182.567 306.662 186.177 303.762 187.541L304.943 189.152C307.188 188.057 308.993 185.715 309.885 182.965C310.776 185.532 312.581 187.659 314.848 188.658L315.965 187.068C313 185.801 310.884 182.471 310.895 179.248ZM317.705 192.826H319.746V173.576H317.705V192.826ZM338.824 173.598H336.783V184.898H332.916V186.338H336.783V188.186H338.824V173.598ZM322.732 182.385L322.99 184.018C324.548 184.018 326.342 184.018 328.211 183.942V187.584H330.252V183.835C331.949 183.717 333.679 183.545 335.322 183.266L335.193 181.805C331.09 182.32 326.288 182.353 322.732 182.385ZM324.236 177.723C324.226 179.774 326.181 181.074 329.027 181.074C331.842 181.074 333.797 179.774 333.797 177.723C333.797 175.682 331.842 174.328 329.027 174.328C326.17 174.328 324.226 175.682 324.236 177.723ZM325.396 192.418H339.297V190.764H327.416V186.768H325.396V192.418ZM326.17 177.723C326.159 176.573 327.319 175.832 329.027 175.854C330.671 175.832 331.853 176.573 331.863 177.723C331.853 178.861 330.671 179.57 329.027 179.57C327.319 179.57 326.159 178.861 326.17 177.723ZM358.246 173.576H356.312V188.014H358.246V173.576ZM341.789 183.76L342.928 185.328C344.732 184.469 346 182.857 346.698 181.01C347.343 182.675 348.524 184.05 350.232 184.834L351.371 183.266C348.911 182.191 347.654 179.914 347.654 177.658V174.908H345.678V177.658C345.688 179.936 344.324 182.557 341.789 183.76ZM345.484 192.418H358.805V190.764H347.504V186.252H345.484V192.418ZM349.652 179.979H352.467V187.455H354.422V173.92H352.467V178.303H349.652V179.979ZM376.895 173.576H374.875V180.688H371.051V182.363H374.875V192.869H376.895V173.576ZM361.727 188.314H363.23C366.797 188.304 369.214 188.186 372.018 187.734L371.803 186.08C369.246 186.521 367.012 186.617 363.789 186.617V182.32H369.912V180.688H363.789V176.949H370.729V175.295H361.727V188.314Z" fill="white"/>
<circle cx="152" cy="149" r="5" stroke="white" stroke-width="2"/>
<path d="M1.375 423H11.8379V420.98H4.66211V420.852L7.82031 417.65C10.7422 414.782 11.5586 413.396 11.5801 411.656C11.5586 409.132 9.48535 407.23 6.48828 407.23C3.52344 407.23 1.35352 409.11 1.375 411.957H3.60938C3.62012 410.303 4.71582 409.207 6.44531 409.207C8.07812 409.207 9.32422 410.185 9.32422 411.721C9.32422 413.085 8.47559 414.073 6.76758 415.846L1.375 421.281V423ZM19.873 423.215C23.4717 423.215 25.5771 420.314 25.5879 415.223C25.5771 410.163 23.4395 407.23 19.873 407.23C16.2959 407.23 14.1582 410.163 14.1582 415.223C14.1582 420.314 16.2744 423.215 19.873 423.215ZM16.5215 415.223C16.5215 411.355 17.7783 409.239 19.873 409.229C21.957 409.239 23.2246 411.355 23.2246 415.223C23.2246 419.101 21.9678 421.174 19.873 421.174C17.7676 421.174 16.5107 419.101 16.5215 415.223ZM28.0371 423H38.5V420.98H31.3242V420.852L34.4824 417.65C37.4043 414.782 38.2207 413.396 38.2422 411.656C38.2207 409.132 36.1475 407.23 33.1504 407.23C30.1855 407.23 28.0156 409.11 28.0371 411.957H30.2715C30.2822 410.303 31.3779 409.207 33.1074 409.207C34.7402 409.207 35.9863 410.185 35.9863 411.721C35.9863 413.085 35.1377 414.073 33.4297 415.846L28.0371 421.281V423ZM47.0293 407.445H44.709L40.8418 409.98V412.236L44.5586 409.809H44.6445V423H47.0293V407.445ZM51.627 423.15C52.4541 423.14 53.1416 422.463 53.1523 421.625C53.1416 420.787 52.4541 420.1 51.627 420.1C50.7891 420.1 50.0908 420.787 50.1016 421.625C50.0908 422.463 50.7891 423.14 51.627 423.15ZM60.7363 423.215C64.335 423.215 66.4404 420.314 66.4512 415.223C66.4404 410.163 64.3027 407.23 60.7363 407.23C57.1592 407.23 55.0215 410.163 55.0215 415.223C55.0215 420.314 57.1377 423.215 60.7363 423.215ZM57.3848 415.223C57.3848 411.355 58.6416 409.239 60.7363 409.229C62.8203 409.239 64.0879 411.355 64.0879 415.223C64.0879 419.101 62.8311 421.174 60.7363 421.174C58.6309 421.174 57.374 419.101 57.3848 415.223ZM68.5566 419.971H76.1191V423H78.3535V419.971H80.4805V417.973H78.3535V407.445H75.4316L68.5566 418.059V419.971ZM71.0488 417.973V417.844L75.9473 410.26H76.1191V417.973H71.0488Z" fill="white"/>
<path d="M185.834 405.576H183.793V417.006H185.834V412.086H188.627V410.432H185.834V405.576ZM170.688 415.502L171.525 417.156C177.165 415.523 180.549 411.925 180.549 406.951H171.547V408.605H178.336C177.96 411.721 175.199 414.234 170.688 415.502ZM173.309 421.002C173.287 423.365 175.822 424.794 179.689 424.805C183.567 424.794 186.049 423.365 186.049 421.002C186.049 418.66 183.567 417.21 179.689 417.221C175.822 417.21 173.287 418.66 173.309 421.002ZM175.328 421.002C175.317 419.648 176.993 418.821 179.689 418.832C182.364 418.821 184.051 419.648 184.051 421.002C184.051 422.355 182.364 423.183 179.689 423.193C176.993 423.183 175.317 422.355 175.328 421.002ZM207.34 420.701H199.455V416.125H197.436V420.701H189.723V422.377H207.34V420.701ZM190.324 414.793L191.227 416.469C194.331 415.856 197.167 413.912 198.435 411.291C199.702 413.923 202.56 415.856 205.686 416.469L206.566 414.793C202.85 414.17 199.498 411.312 199.498 408.262V406.801H197.35V408.262C197.339 411.312 194.03 414.17 190.324 414.793ZM219.586 407.596H215.289V405.404H213.27V407.596H208.758V409.229H219.586V407.596ZM209.832 413.697C209.832 415.846 211.637 417.264 214.258 417.264C216.847 417.264 218.694 415.846 218.705 413.697C218.694 411.549 216.847 410.12 214.258 410.109C211.637 410.12 209.832 411.549 209.832 413.697ZM211.744 413.697C211.733 412.451 212.732 411.656 214.258 411.656C215.762 411.656 216.793 412.451 216.814 413.697C216.793 414.943 215.762 415.728 214.258 415.717C212.732 415.728 211.733 414.943 211.744 413.697ZM211.852 421.475C211.841 423.569 214.312 424.794 218.383 424.783C222.411 424.794 224.893 423.569 224.893 421.475C224.893 419.38 222.411 418.166 218.383 418.166C214.312 418.166 211.841 419.38 211.852 421.475ZM213.979 421.475C213.968 420.347 215.611 419.734 218.383 419.734C221.101 419.734 222.723 420.347 222.723 421.475C222.723 422.592 221.101 423.236 218.383 423.215C215.611 423.236 213.968 422.592 213.979 421.475ZM219.629 415.502H222.744V417.973H224.785V405.576H222.744V410.066H219.65V411.721H222.744V413.848H219.629V415.502ZM249.127 405.576H247.064V424.826H249.127V405.576ZM233.314 419.67L234.389 421.324C240.995 418.155 243.391 413.278 243.391 407.639H234.238V409.271H241.328C240.931 413.762 238.428 417.231 233.314 419.67ZM261.953 406.307V405.662H259.869V406.307C259.858 408.52 256.818 410.378 253.059 410.797L253.768 412.344C256.894 411.957 259.654 410.625 260.9 408.659C262.136 410.625 264.896 411.957 268.055 412.344L268.764 410.797C265.015 410.378 261.964 408.52 261.953 406.307ZM252.135 415.094H259.869V416.812H254.24V418.381H265.455V419.885H254.262V424.633H268.012V423.064H256.26V421.367H267.475V416.812H261.91V415.094H269.688V413.461H252.135V415.094ZM287.154 405.576H285.092V424.826H287.154V405.576ZM271.342 419.67L272.416 421.324C279.022 418.155 281.418 413.278 281.418 407.639H272.266V409.271H279.355C278.958 413.762 276.455 417.231 271.342 419.67ZM295.49 406.457C292.547 406.436 290.431 408.305 290.441 410.926C290.431 413.579 292.547 415.438 295.49 415.438C298.047 415.438 300.023 413.955 300.421 411.742H304.17V415.91H306.211V405.576H304.17V410.066H300.41C299.991 407.907 298.025 406.436 295.49 406.457ZM292.396 410.926C292.386 409.271 293.675 408.144 295.49 408.154C297.273 408.144 298.541 409.271 298.541 410.926C298.541 412.569 297.273 413.719 295.49 413.719C293.675 413.719 292.386 412.569 292.396 410.926ZM293.664 424.59H306.211V416.834H304.17V419.068H295.684V416.834H293.664V424.59ZM295.684 422.914V420.68H304.17V422.914H295.684ZM332.164 420.701H314.547V422.42H332.164V420.701ZM316.051 409.1H318.973V415.523H316.094V417.156H330.488V415.523H327.609V409.1H330.553V407.424H316.051V409.1ZM320.992 415.523V409.1H325.611V415.523H320.992ZM351.178 420.809H343.336V417.436H349.48V415.76H337.729V412.945H349.029V406.93H335.666V408.605H347.01V411.312H335.709V417.436H341.316V420.809H333.561V422.527H351.178V420.809ZM365.207 405.984H363.273V410.475H360.588V412.129H363.273V417.178H365.207V405.984ZM352.531 415.352L353.627 416.963C355.485 416.179 356.764 414.686 357.451 412.913C358.117 414.492 359.331 415.813 361.082 416.533L362.113 414.965C359.675 413.966 358.396 411.774 358.396 409.701V408.756H361.619V407.102H353.004V408.756H356.42V409.701C356.431 411.936 355.088 414.331 352.531 415.352ZM355.904 419.777H366.969V424.826H368.988V418.123H355.904V419.777ZM367.055 417.328H368.988V405.576H367.055V417.328ZM387.207 415.824H375.863V413.031H386.605V411.42H375.863V408.82H387.014V407.166H373.801V417.457H387.207V415.824ZM371.588 422.398H389.205V420.723H371.588V422.398ZM413.525 414.471H395.973V416.125H400.248V418.617C398.83 419.197 398.057 420.121 398.057 421.367C398.057 423.569 400.549 424.815 404.738 424.826C408.874 424.815 411.366 423.569 411.377 421.367C411.366 420.153 410.636 419.24 409.293 418.66V416.125H413.525V414.471ZM397.863 409.594C397.853 411.85 400.506 413.182 404.738 413.182C408.96 413.182 411.603 411.85 411.613 409.594C411.603 407.284 408.96 405.931 404.738 405.92C400.506 405.931 397.853 407.284 397.863 409.594ZM399.969 409.594C399.958 408.272 401.773 407.542 404.738 407.531C407.682 407.542 409.519 408.272 409.508 409.594C409.519 410.883 407.682 411.613 404.738 411.613C401.773 411.613 399.958 410.883 399.969 409.594ZM400.119 421.367C400.108 420.153 401.795 419.477 404.738 419.477C407.639 419.477 409.336 420.153 409.336 421.367C409.336 422.581 407.639 423.236 404.738 423.215C401.795 423.236 400.108 422.581 400.119 421.367ZM402.289 418.08V416.125H407.273V418.102C406.521 417.973 405.673 417.908 404.738 417.908C403.847 417.908 403.02 417.973 402.289 418.08ZM421.818 408.455V406.65H419.799V408.541C419.777 411.431 417.994 413.998 414.922 415.051L416.018 416.684C418.349 415.846 420.024 414.116 420.852 411.914C421.689 413.848 423.247 415.33 425.363 416.104L426.48 414.514C423.559 413.558 421.808 411.151 421.818 408.455ZM418.08 421.152C418.069 423.473 420.54 424.794 424.59 424.783C428.618 424.794 431.089 423.473 431.1 421.152C431.089 418.821 428.618 417.468 424.59 417.479C420.54 417.468 418.069 418.821 418.08 421.152ZM420.1 421.152C420.089 419.831 421.765 419.068 424.59 419.068C427.394 419.068 429.069 419.831 429.08 421.152C429.069 422.431 427.394 423.183 424.59 423.172C421.765 423.183 420.089 422.431 420.1 421.152ZM424.934 411.162H428.994V416.941H431.035V405.576H428.994V409.486H424.934V411.162ZM441.09 411.248V409.207H445.473V407.51H434.623V409.207H439.027V411.248C439.006 414.567 436.857 418.177 433.957 419.541L435.139 421.152C437.384 420.057 439.188 417.715 440.08 414.965C440.972 417.532 442.776 419.659 445.043 420.658L446.16 419.068C443.195 417.801 441.079 414.471 441.09 411.248ZM447.9 424.826H449.941V405.576H447.9V424.826ZM469.02 405.598H466.979V416.898H463.111V418.338H466.979V420.186H469.02V405.598ZM452.928 414.385L453.186 416.018C454.743 416.018 456.537 416.018 458.406 415.942V419.584H460.447V415.835C462.145 415.717 463.874 415.545 465.518 415.266L465.389 413.805C461.285 414.32 456.483 414.353 452.928 414.385ZM454.432 409.723C454.421 411.774 456.376 413.074 459.223 413.074C462.037 413.074 463.992 411.774 463.992 409.723C463.992 407.682 462.037 406.328 459.223 406.328C456.365 406.328 454.421 407.682 454.432 409.723ZM455.592 424.418H469.492V422.764H457.611V418.768H455.592V424.418ZM456.365 409.723C456.354 408.573 457.515 407.832 459.223 407.854C460.866 407.832 462.048 408.573 462.059 409.723C462.048 410.861 460.866 411.57 459.223 411.57C457.515 411.57 456.354 410.861 456.365 409.723ZM484.08 410.475V407.188H482.039V410.475C482.028 413.998 480.03 417.693 477.076 419.111L478.344 420.766C480.535 419.627 482.222 417.317 483.081 414.589C483.93 417.156 485.552 419.305 487.646 420.4L488.914 418.768C486.046 417.371 484.059 413.88 484.08 410.475ZM490.354 424.826H492.395V414.986H495.488V413.246H492.395V405.576H490.354V424.826ZM501.74 406.457C498.797 406.436 496.681 408.305 496.691 410.926C496.681 413.579 498.797 415.438 501.74 415.438C504.297 415.438 506.273 413.955 506.671 411.742H510.42V415.91H512.461V405.576H510.42V410.066H506.66C506.241 407.907 504.275 406.436 501.74 406.457ZM498.646 410.926C498.636 409.271 499.925 408.144 501.74 408.154C503.523 408.144 504.791 409.271 504.791 410.926C504.791 412.569 503.523 413.719 501.74 413.719C499.925 413.719 498.636 412.569 498.646 410.926ZM499.914 424.59H512.461V416.834H510.42V419.068H501.934V416.834H499.914V424.59ZM501.934 422.914V420.68H510.42V422.914H501.934ZM522.129 411.248V409.207H526.318V407.51H515.77V409.207H520.109V411.248C520.099 414.503 517.982 418.134 515.061 419.541L516.264 421.152C518.455 420.057 520.26 417.683 521.141 414.943C522.011 417.457 523.729 419.627 525.889 420.658L527.049 419.068C524.127 417.683 522.118 414.288 522.129 411.248ZM528.381 424.826H530.422V414.922H533.516V413.203H530.422V405.576H528.381V424.826ZM546.6 409.1V406.758H544.58V409.035C544.569 411.936 542.786 414.61 539.789 415.674L540.885 417.285C543.151 416.415 544.795 414.664 545.622 412.451C546.449 414.438 548.028 416.028 550.123 416.834L551.24 415.244C548.34 414.224 546.61 411.71 546.6 409.1ZM543.291 424.418H556.289V422.764H545.354V418.338H543.291V424.418ZM549.758 411.656H553.818V419.949H555.859V405.598H553.818V409.98H549.758V411.656ZM574.873 405.576H572.832V410.475H569.244V412.15H572.832V417.027H574.873V405.576ZM558.824 415.287L559.898 416.92C562.197 416.071 563.884 414.342 564.722 412.193C565.56 414.095 567.149 415.642 569.309 416.383L570.361 414.771C567.45 413.783 565.71 411.409 565.721 408.971V408.562H569.846V406.908H559.469V408.562H563.637V408.992C563.647 411.646 561.811 414.245 558.824 415.287ZM561.918 421.195C561.907 423.483 564.378 424.815 568.428 424.826C572.456 424.815 574.927 423.483 574.938 421.195C574.927 418.907 572.456 417.575 568.428 417.564C564.378 417.575 561.907 418.907 561.918 421.195ZM563.938 421.195C563.927 419.885 565.603 419.144 568.428 419.154C571.231 419.144 572.907 419.885 572.918 421.195C572.907 422.495 571.231 423.236 568.428 423.215C565.603 423.236 563.927 422.495 563.938 421.195Z" fill="white"/>
<circle cx="152" cy="415" r="5" stroke="white" stroke-width="2"/>
<path d="M1.375 91H11.8379V88.9805H4.66211V88.8516L7.82031 85.6504C10.7422 82.7822 11.5586 81.3965 11.5801 79.6562C11.5586 77.1318 9.48535 75.2305 6.48828 75.2305C3.52344 75.2305 1.35352 77.1104 1.375 79.957H3.60938C3.62012 78.3027 4.71582 77.207 6.44531 77.207C8.07812 77.207 9.32422 78.1846 9.32422 79.7207C9.32422 81.085 8.47559 82.0732 6.76758 83.8457L1.375 89.2812V91ZM19.873 91.2148C23.4717 91.2148 25.5771 88.3145 25.5879 83.2227C25.5771 78.1631 23.4395 75.2305 19.873 75.2305C16.2959 75.2305 14.1582 78.1631 14.1582 83.2227C14.1582 88.3145 16.2744 91.2148 19.873 91.2148ZM16.5215 83.2227C16.5215 79.3555 17.7783 77.2393 19.873 77.2285C21.957 77.2393 23.2246 79.3555 23.2246 83.2227C23.2246 87.1006 21.9678 89.1738 19.873 89.1738C17.7676 89.1738 16.5107 87.1006 16.5215 83.2227ZM33.9453 75.4453H31.625L27.7578 77.9805V80.2363L31.4746 77.8086H31.5605V91H33.9453V75.4453ZM43.334 91.2148C46.6641 91.2148 49.0381 89.3887 49.0488 86.8535C49.0381 84.8555 47.5986 83.2227 45.7832 82.9434V82.8574C47.3516 82.4922 48.4365 81.0742 48.4473 79.377C48.4365 76.9814 46.2666 75.2305 43.334 75.2305C40.3584 75.2305 38.1992 76.9814 38.1992 79.377C38.1992 81.0742 39.2627 82.4922 40.8633 82.8574V82.9434C39.0264 83.2227 37.5977 84.8555 37.6191 86.8535C37.5977 89.3887 39.9502 91.2148 43.334 91.2148ZM40.0254 86.6816C39.9932 85.0811 41.4004 83.9102 43.334 83.9102C45.2461 83.9102 46.6426 85.0811 46.6426 86.6816C46.6426 88.207 45.3535 89.2598 43.334 89.2598C41.2822 89.2598 39.9932 88.207 40.0254 86.6816ZM40.498 79.5918C40.5088 78.1416 41.626 77.1533 43.334 77.1641C44.999 77.1533 46.1377 78.1416 46.127 79.5918C46.1377 81.0527 44.9561 82.0518 43.334 82.041C41.6689 82.0518 40.5088 81.042 40.498 79.5918ZM52.5508 91.1504C53.3779 91.1396 54.0654 90.4629 54.0762 89.625C54.0654 88.7871 53.3779 88.0996 52.5508 88.0996C51.7129 88.0996 51.0146 88.7871 51.0254 89.625C51.0146 90.4629 51.7129 91.1396 52.5508 91.1504ZM60.8438 75.4453H58.5234L54.6562 77.9805V80.2363L58.373 77.8086H58.459V91H60.8438V75.4453ZM70.7051 75.4453H68.3848L64.5176 77.9805V80.2363L68.2344 77.8086H68.3203V91H70.7051V75.4453Z" fill="white"/>
<path d="M188.326 88.7871H180.463V84.6836H186.65V83.0723H183.771V77.0137H186.715V75.3594H172.213V77.0137H175.135V83.0723H172.256V84.6836H178.443V88.7871H170.709V90.5273H188.326V88.7871ZM177.154 83.0723V77.0137H181.773V83.0723H177.154ZM199.498 76.3047V74.8438H197.35V76.3047C197.339 79.4414 194.02 82.3848 190.367 83.0723L191.27 84.7695C194.353 84.082 197.178 82.0732 198.445 79.377C199.691 82.084 202.517 84.1035 205.6 84.7695L206.545 83.0723C202.839 82.4062 199.498 79.4414 199.498 76.3047ZM189.723 90.291H207.34V88.5938H189.723V90.291ZM219.672 75.1875H209.273V76.8633H211.1V82.4814C210.262 82.4922 209.467 82.4922 208.736 82.4922L208.973 84.2109C212.195 84.2109 216.707 84.1143 220.639 83.416L220.51 81.8906C219.65 82.0195 218.759 82.1162 217.846 82.1914V76.8633H219.672V75.1875ZM210.541 91.1289L211.336 92.7402C214.269 92.2354 216.739 90.8174 217.921 88.7549C219.081 90.8174 221.552 92.2354 224.484 92.7402L225.301 91.1289C221.659 90.5703 218.898 88.5293 218.92 85.9727V85.5645H216.9V85.9727C216.89 88.5293 214.15 90.5703 210.541 91.1289ZM213.076 82.4492V76.8633H215.848V82.3311C214.913 82.3848 213.979 82.417 213.076 82.4492ZM221.82 86.5312H223.861V80.4941H226.654V78.7969H223.861V73.5762H221.82V86.5312ZM249.127 73.5762H247.064V92.8262H249.127V73.5762ZM233.314 87.6699L234.389 89.3242C240.995 86.1553 243.391 81.2783 243.391 75.6387H234.238V77.2715H241.328C240.931 81.7617 238.428 85.2314 233.314 87.6699ZM257.463 74.457C254.52 74.4355 252.403 76.3047 252.414 78.9258C252.403 81.5791 254.52 83.4375 257.463 83.4375C260.02 83.4375 261.996 81.9551 262.394 79.7422H266.143V83.9102H268.184V73.5762H266.143V78.0664H262.383C261.964 75.9072 259.998 74.4355 257.463 74.457ZM254.369 78.9258C254.358 77.2715 255.647 76.1436 257.463 76.1543C259.246 76.1436 260.514 77.2715 260.514 78.9258C260.514 80.5693 259.246 81.7188 257.463 81.7188C255.647 81.7188 254.358 80.5693 254.369 78.9258ZM255.637 92.5898H268.184V84.834H266.143V87.0684H257.656V84.834H255.637V92.5898ZM257.656 90.9141V88.6797H266.143V90.9141H257.656ZM288.744 84.8984H271.127V86.5098H278.883V92.8262H280.881V86.5098H288.744V84.8984ZM273.318 82.707H286.531V74.3496H284.49V76.8633H275.338V74.3496H273.318V82.707ZM275.338 81.0742V78.4961H284.49V81.0742H275.338ZM306.211 73.5762H304.17V76.8848H300.109V78.5391H304.17V83.4805H306.211V73.5762ZM290.098 81.9336L291.193 83.5664C293.471 82.7822 295.114 81.1709 295.952 79.0977C296.801 80.9346 298.401 82.3848 300.518 83.1152L301.592 81.5254C298.691 80.6016 296.93 78.3242 296.93 75.875V74.1992H294.91V75.875C294.899 78.582 293.105 80.9775 290.098 81.9336ZM293.621 85.9941H304.191V87.627H293.664V92.5898H306.877V90.957H295.662V89.1738H306.211V84.3828H293.621V85.9941ZM330.596 73.5977H328.555V76.498H323.753C322.851 75.4238 321.465 74.7686 319.875 74.7578C316.975 74.7793 314.815 76.8096 314.826 79.6562C314.815 82.4814 316.975 84.5117 319.875 84.5117C321.476 84.5117 322.872 83.8564 323.774 82.7715H328.555V87.7773H330.596V73.5977ZM316.781 79.6562C316.771 77.8408 318.07 76.5947 319.875 76.584C321.604 76.5947 322.926 77.8408 322.926 79.6562C322.926 81.4717 321.604 82.7178 319.875 82.707C318.07 82.7178 316.771 81.4717 316.781 79.6562ZM318.092 92.418H331.111V90.7637H320.133V86.2949H318.092V92.418ZM324.655 78.1523H328.555V81.1172H324.666C324.806 80.666 324.881 80.1719 324.881 79.6562C324.881 79.1191 324.806 78.625 324.655 78.1523ZM348.879 74.7793H335.709V76.4551H346.859V76.4766C346.849 78.2705 346.849 80.2793 346.279 83.0293H333.561V84.7051H341.252V92.8477H343.314V84.7051H351.113V83.0293H348.342C348.879 80.29 348.879 78.3027 348.879 76.4766V74.7793ZM370.191 88.7012H362.307V84.125H360.287V88.7012H352.574V90.377H370.191V88.7012ZM353.176 82.793L354.078 84.4688C357.183 83.8564 360.019 81.9121 361.286 79.291C362.554 81.9229 365.411 83.8564 368.537 84.4688L369.418 82.793C365.701 82.1699 362.35 79.3125 362.35 76.2617V74.8008H360.201V76.2617C360.19 79.3125 356.882 82.1699 353.176 82.793ZM392.922 73.5977H390.881V87.584H392.922V73.5977ZM377.346 79.6562C377.356 82.4814 379.569 84.4473 382.48 84.4473C385.381 84.4473 387.594 82.4814 387.594 79.6562C387.594 76.874 385.381 74.8975 382.48 74.8867C379.569 74.8975 377.356 76.874 377.346 79.6562ZM379.344 79.6562C379.333 77.8838 380.687 76.6699 382.48 76.6699C384.242 76.6699 385.596 77.8838 385.596 79.6562C385.596 81.4717 384.242 82.6641 382.48 82.6641C380.687 82.6641 379.333 81.4717 379.344 79.6562ZM380.332 92.418H393.502V90.7637H382.395V86.166H380.332V92.418ZM412.021 73.5762H409.98V78.4746H406.393V80.1504H409.98V85.0273H412.021V73.5762ZM395.973 83.2871L397.047 84.9199C399.346 84.0713 401.032 82.3418 401.87 80.1934C402.708 82.0947 404.298 83.6416 406.457 84.3828L407.51 82.7715C404.599 81.7832 402.858 79.4092 402.869 76.9707V76.5625H406.994V74.9082H396.617V76.5625H400.785V76.9922C400.796 79.6455 398.959 82.2451 395.973 83.2871ZM399.066 89.1953C399.056 91.4834 401.526 92.8154 405.576 92.8262C409.604 92.8154 412.075 91.4834 412.086 89.1953C412.075 86.9072 409.604 85.5752 405.576 85.5645C401.526 85.5752 399.056 86.9072 399.066 89.1953ZM401.086 89.1953C401.075 87.8848 402.751 87.1436 405.576 87.1543C408.38 87.1436 410.056 87.8848 410.066 89.1953C410.056 90.4951 408.38 91.2363 405.576 91.2148C402.751 91.2363 401.075 90.4951 401.086 89.1953Z" fill="white"/>
<circle cx="152" cy="83" r="5" stroke="white" stroke-width="2"/>
<path d="M1.375 357H11.8379V354.98H4.66211V354.852L7.82031 351.65C10.7422 348.782 11.5586 347.396 11.5801 345.656C11.5586 343.132 9.48535 341.23 6.48828 341.23C3.52344 341.23 1.35352 343.11 1.375 345.957H3.60938C3.62012 344.303 4.71582 343.207 6.44531 343.207C8.07812 343.207 9.32422 344.185 9.32422 345.721C9.32422 347.085 8.47559 348.073 6.76758 349.846L1.375 355.281V357ZM19.873 357.215C23.4717 357.215 25.5771 354.314 25.5879 349.223C25.5771 344.163 23.4395 341.23 19.873 341.23C16.2959 341.23 14.1582 344.163 14.1582 349.223C14.1582 354.314 16.2744 357.215 19.873 357.215ZM16.5215 349.223C16.5215 345.355 17.7783 343.239 19.873 343.229C21.957 343.239 23.2246 345.355 23.2246 349.223C23.2246 353.101 21.9678 355.174 19.873 355.174C17.7676 355.174 16.5107 353.101 16.5215 349.223ZM28.0371 357H38.5V354.98H31.3242V354.852L34.4824 351.65C37.4043 348.782 38.2207 347.396 38.2422 345.656C38.2207 343.132 36.1475 341.23 33.1504 341.23C30.1855 341.23 28.0156 343.11 28.0371 345.957H30.2715C30.2822 344.303 31.3779 343.207 33.1074 343.207C34.7402 343.207 35.9863 344.185 35.9863 345.721C35.9863 347.085 35.1377 348.073 33.4297 349.846L28.0371 355.281V357ZM46.5352 357.215C50.1338 357.215 52.2393 354.314 52.25 349.223C52.2393 344.163 50.1016 341.23 46.5352 341.23C42.958 341.23 40.8203 344.163 40.8203 349.223C40.8203 354.314 42.9365 357.215 46.5352 357.215ZM43.1836 349.223C43.1836 345.355 44.4404 343.239 46.5352 343.229C48.6191 343.239 49.8867 345.355 49.8867 349.223C49.8867 353.101 48.6299 355.174 46.5352 355.174C44.4297 355.174 43.1729 353.101 43.1836 349.223ZM55.6445 357.15C56.4717 357.14 57.1592 356.463 57.1699 355.625C57.1592 354.787 56.4717 354.1 55.6445 354.1C54.8066 354.1 54.1084 354.787 54.1191 355.625C54.1084 356.463 54.8066 357.14 55.6445 357.15ZM63.9375 341.445H61.6172L57.75 343.98V346.236L61.4668 343.809H61.5527V357H63.9375V341.445ZM73.3047 357.215C76.9033 357.215 79.0088 354.314 79.0195 349.223C79.0088 344.163 76.8711 341.23 73.3047 341.23C69.7275 341.23 67.5898 344.163 67.5898 349.223C67.5898 354.314 69.7061 357.215 73.3047 357.215ZM69.9531 349.223C69.9531 345.355 71.21 343.239 73.3047 343.229C75.3887 343.239 76.6562 345.355 76.6562 349.223C76.6562 353.101 75.3994 355.174 73.3047 355.174C71.1992 355.174 69.9424 353.101 69.9531 349.223Z" fill="white"/>
<path d="M177.412 345.248V343.207H181.602V341.51H171.053V343.207H175.393V345.248C175.382 348.503 173.266 352.134 170.344 353.541L171.547 355.152C173.738 354.057 175.543 351.683 176.424 348.943C177.294 351.457 179.013 353.627 181.172 354.658L182.332 353.068C179.41 351.683 177.401 348.288 177.412 345.248ZM183.664 358.826H185.705V348.922H188.799V347.203H185.705V339.576H183.664V358.826ZM195.48 345.484V344.711H198.896V343.035H195.48V340.264H193.568V343.035H190.088V344.711H193.568V345.484C193.547 348.589 192.172 351.887 189.508 353.434L190.711 354.98C192.569 353.863 193.858 351.854 194.546 349.523C195.244 351.704 196.533 353.541 198.402 354.529L199.541 353.025C196.888 351.597 195.48 348.514 195.48 345.484ZM197.629 348.771H200.4V357.859H202.334V339.984H200.4V347.074H197.629V348.771ZM204.289 358.826H206.244V339.576H204.289V358.826ZM231.66 349.695H223.883V348.02H229.641V346.43H218.426V344.797H229.018V343.271H218.426V341.703H229.512V340.092H216.363V348.02H221.842V349.695H214.064V351.307H231.66V349.695ZM216.191 355.689C216.191 357.72 218.587 358.794 222.873 358.783C227.095 358.794 229.501 357.72 229.512 355.689C229.501 353.67 227.095 352.563 222.873 352.574C218.587 352.563 216.191 353.67 216.191 355.689ZM218.232 355.689C218.222 354.647 219.833 354.1 222.873 354.1C225.87 354.1 227.471 354.647 227.471 355.689C227.471 356.731 225.87 357.258 222.873 357.236C219.833 357.258 218.222 356.731 218.232 355.689ZM248.246 339.576H246.205V350.791H248.246V346.129H251.039V344.41H248.246V339.576ZM233.143 343.1H244.615V341.467H239.91V339.404H237.869V341.467H233.143V343.1ZM234.195 347.268C234.185 349.319 236.075 350.662 238.879 350.641C241.65 350.662 243.541 349.319 243.541 347.268C243.541 345.216 241.65 343.884 238.879 343.895C236.075 343.884 234.185 345.216 234.195 347.268ZM235.936 358.59H248.246V351.586H246.205V353.455H237.955V351.586H235.936V358.59ZM236.172 347.268C236.15 346.14 237.246 345.409 238.879 345.42C240.512 345.409 241.607 346.14 241.629 347.268C241.607 348.417 240.512 349.126 238.879 349.137C237.246 349.126 236.15 348.417 236.172 347.268ZM237.955 356.957V355.045H246.205V356.957H237.955ZM268.098 339.598H266.057V353.584H268.098V339.598ZM252.521 345.656C252.532 348.481 254.745 350.447 257.656 350.447C260.557 350.447 262.77 348.481 262.77 345.656C262.77 342.874 260.557 340.897 257.656 340.887C254.745 340.897 252.532 342.874 252.521 345.656ZM254.52 345.656C254.509 343.884 255.862 342.67 257.656 342.67C259.418 342.67 260.771 343.884 260.771 345.656C260.771 347.472 259.418 348.664 257.656 348.664C255.862 348.664 254.509 347.472 254.52 345.656ZM255.508 358.418H268.678V356.764H257.57V352.166H255.508V358.418ZM288.701 348.643H271.148V350.297H288.701V348.643ZM272.072 346.021L272.781 347.633C276.122 347.246 278.861 345.839 279.925 343.809C280.967 345.839 283.728 347.246 287.068 347.633L287.799 346.021C284.232 345.646 281.515 344.066 281.278 342.197H287.133V340.521H272.76V342.197H278.55C278.324 344.077 275.563 345.646 272.072 346.021ZM273.232 355.303C273.232 357.537 275.735 358.794 279.914 358.783C284.061 358.794 286.542 357.537 286.553 355.303C286.542 353.068 284.061 351.779 279.914 351.779C275.735 351.779 273.232 353.068 273.232 355.303ZM275.295 355.303C275.284 354.057 276.971 353.391 279.914 353.369C282.814 353.391 284.512 354.057 284.512 355.303C284.512 356.517 282.814 357.183 279.914 357.172C276.971 357.183 275.284 356.517 275.295 355.303ZM299.938 345.42H297.918V347.805H290.162V349.438H307.715V347.805H299.938V345.42ZM291.086 344.926L291.816 346.494C294.953 346.075 297.682 344.818 298.917 342.82C300.152 344.818 302.881 346.075 306.018 346.494L306.727 344.926C302.913 344.528 299.948 342.691 299.959 340.35V339.727H297.896V340.35C297.886 342.691 294.91 344.528 291.086 344.926ZM292.268 352.402H303.482V353.928H292.289V358.633H306.039V357.064H294.287V355.41H305.502V350.834H292.268V352.402ZM324.688 340.285H311.238V341.939H322.604V343.959H311.303V349.395H325.096V347.74H313.344V345.527H324.688V340.285ZM309.154 352.854H316.91V358.869H318.951V352.854H326.771V351.221H309.154V352.854ZM334.979 343.057V340.672H332.959V343.057C332.948 346.011 331.154 348.75 328.189 349.846L329.285 351.479C331.53 350.587 333.163 348.804 333.99 346.559C334.807 348.643 336.364 350.329 338.459 351.178L339.576 349.588C336.708 348.481 334.989 345.828 334.979 343.057ZM331.67 358.418H344.668V356.764H333.732V352.488H331.67V358.418ZM338.459 347.869H342.197V353.928H344.238V339.598H342.197V342.326H338.459V343.98H342.197V346.215H338.459V347.869ZM366.969 349.223C366.969 344.249 363.982 341.23 359.965 341.23C355.915 341.23 352.939 344.249 352.939 349.223C352.939 354.186 355.915 357.215 359.965 357.215C363.982 357.215 366.969 354.196 366.969 349.223ZM355.281 349.223C355.292 345.441 357.279 343.39 359.965 343.4C362.629 343.39 364.616 345.441 364.627 349.223C364.616 353.004 362.629 355.056 359.965 355.045C357.279 355.056 355.292 353.004 355.281 349.223ZM370.17 357L371.588 352.896H377.646L379.064 357H381.578L375.971 341.445H373.242L367.656 357H370.17ZM372.265 350.92L374.553 344.281H374.66L376.959 350.92H372.265ZM390.773 352.145C390.773 354.132 389.302 355.066 388.023 355.066C386.627 355.066 385.66 354.057 385.66 352.467V345.334H383.361V352.746C383.361 355.636 384.951 357.15 387.207 357.15C388.958 357.15 390.15 356.227 390.688 354.98H390.816V357H393.051V345.334H390.773V352.145ZM401.301 345.334H398.916V342.541H396.639V345.334H394.92V347.16H396.639V354.035C396.617 356.162 398.239 357.15 400.033 357.15C400.667 357.15 401.161 357.107 401.473 357.064V355.066C401.15 355.099 400.646 355.131 400.312 355.131C399.571 355.12 398.927 354.884 398.916 353.562V347.16H401.301V345.334ZM406.092 350.082C406.092 348.224 407.263 347.16 408.885 347.16C410.432 347.16 411.355 348.148 411.355 349.867V357H413.654V349.588C413.654 346.666 412.054 345.184 409.658 345.184C407.843 345.184 406.747 345.979 406.199 347.246H406.049V341.445H403.793V357H406.092V350.082ZM423.838 352.145C423.838 354.132 422.366 355.066 421.088 355.066C419.691 355.066 418.725 354.057 418.725 352.467V345.334H416.426V352.746C416.426 355.636 418.016 357.15 420.271 357.15C422.022 357.15 423.215 356.227 423.752 354.98H423.881V357H426.115V345.334H423.838V352.145ZM428.908 357H431.207V349.803C431.207 348.234 432.303 347.16 433.592 347.16C434.849 347.16 435.719 347.987 435.719 349.266V357H437.996V349.566C437.996 348.17 438.845 347.16 440.316 347.16C441.52 347.16 442.508 347.815 442.508 349.395V357H444.807V349.18C444.796 346.505 443.303 345.184 441.197 345.184C439.511 345.184 438.243 345.989 437.695 347.246H437.566C437.072 345.946 435.987 345.184 434.43 345.184C432.894 345.184 431.744 345.946 431.25 347.246H431.121V345.334H428.908V357ZM447.771 357H450.006V355.174H450.178C450.607 355.937 451.435 357.226 453.551 357.236C456.376 357.226 458.438 354.959 458.449 351.199C458.438 347.396 456.354 345.184 453.529 345.184C451.37 345.184 450.597 346.494 450.178 347.225H450.049V341.445H447.771V357ZM450.006 351.156C450.006 348.729 451.069 347.128 453.035 347.139C455.087 347.128 456.107 348.857 456.107 351.156C456.107 353.498 455.055 355.271 453.035 355.281C451.102 355.271 450.006 353.605 450.006 351.156ZM476.797 346.365H479.225C478.698 343.325 476.099 341.23 472.736 341.23C468.719 341.23 465.775 344.26 465.775 349.223C465.775 354.153 468.633 357.215 472.844 357.215C476.625 357.215 479.332 354.733 479.332 350.791V349.029H473.209V350.984H477.033C476.99 353.477 475.347 355.056 472.865 355.045C470.115 355.056 468.128 352.982 468.117 349.223C468.128 345.452 470.137 343.39 472.758 343.4C474.81 343.39 476.217 344.528 476.797 346.365ZM490.525 345.549H492.824C492.749 343.035 490.547 341.23 487.389 341.23C484.241 341.23 481.856 343.014 481.846 345.699C481.856 347.869 483.403 349.137 485.906 349.824L487.754 350.318C489.397 350.759 490.687 351.307 490.697 352.66C490.687 354.186 489.247 355.185 487.26 355.195C485.444 355.185 483.94 354.379 483.801 352.682H481.438C481.588 355.518 483.779 357.258 487.26 357.258C490.934 357.258 493.028 355.335 493.039 352.703C493.028 349.889 490.536 348.804 488.549 348.32L487.045 347.912C485.81 347.622 484.209 347.042 484.209 345.57C484.22 344.249 485.423 343.271 487.324 343.271C489.107 343.271 490.375 344.099 490.525 345.549ZM510.656 339.598H508.615V353.584H510.656V339.598ZM495.08 345.656C495.091 348.481 497.304 350.447 500.215 350.447C503.115 350.447 505.328 348.481 505.328 345.656C505.328 342.874 503.115 340.897 500.215 340.887C497.304 340.897 495.091 342.874 495.08 345.656ZM497.078 345.656C497.067 343.884 498.421 342.67 500.215 342.67C501.977 342.67 503.33 343.884 503.33 345.656C503.33 347.472 501.977 348.664 500.215 348.664C498.421 348.664 497.067 347.472 497.078 345.656ZM498.066 358.418H511.236V356.764H500.129V352.166H498.066V358.418ZM531.26 348.643H513.707V350.297H531.26V348.643ZM514.631 346.021L515.34 347.633C518.681 347.246 521.42 345.839 522.483 343.809C523.525 345.839 526.286 347.246 529.627 347.633L530.357 346.021C526.791 345.646 524.073 344.066 523.837 342.197H529.691V340.521H515.318V342.197H521.108C520.883 344.077 518.122 345.646 514.631 346.021ZM515.791 355.303C515.791 357.537 518.294 358.794 522.473 358.783C526.619 358.794 529.101 357.537 529.111 355.303C529.101 353.068 526.619 351.779 522.473 351.779C518.294 351.779 515.791 353.068 515.791 355.303ZM517.854 355.303C517.843 354.057 519.529 353.391 522.473 353.369C525.373 353.391 527.07 354.057 527.07 355.303C527.07 356.517 525.373 357.183 522.473 357.172C519.529 357.183 517.843 356.517 517.854 355.303ZM554.635 339.576H552.701V358.826H554.635V339.576ZM537.984 353.262L539.188 354.723C542.818 352.563 544.87 349.749 545.805 346.516H548.77V349.652H545.482V351.328H548.77V357.881H550.703V340.07H548.77V344.84H546.181C546.331 343.905 546.406 342.949 546.406 341.961H538.93V343.637H544.387C544.032 347.601 542.077 350.834 537.984 353.262ZM574.959 342.391H572.23V339.576H570.189V350.984H572.23V348.234H574.959V346.516H572.23V344.066H574.959V342.391ZM557.406 345.291C557.385 348.009 559.576 349.889 562.52 349.889C565.474 349.889 567.633 348.009 567.654 345.291C567.633 342.595 565.474 340.693 562.52 340.693C559.576 340.693 557.385 342.595 557.406 345.291ZM559.404 345.291C559.383 343.572 560.715 342.444 562.52 342.434C564.324 342.444 565.646 343.572 565.656 345.291C565.646 347.021 564.324 348.17 562.52 348.148C560.715 348.17 559.383 347.021 559.404 345.291ZM559.512 353.498H570.189V358.826H572.23V351.844H559.512V353.498Z" fill="white"/>
<circle cx="152" cy="349" r="5" stroke="white" stroke-width="2"/>
<path d="M1.375 555H11.8379V552.98H4.66211V552.852L7.82031 549.65C10.7422 546.782 11.5586 545.396 11.5801 543.656C11.5586 541.132 9.48535 539.23 6.48828 539.23C3.52344 539.23 1.35352 541.11 1.375 543.957H3.60938C3.62012 542.303 4.71582 541.207 6.44531 541.207C8.07812 541.207 9.32422 542.185 9.32422 543.721C9.32422 545.085 8.47559 546.073 6.76758 547.846L1.375 553.281V555ZM19.873 555.215C23.4717 555.215 25.5771 552.314 25.5879 547.223C25.5771 542.163 23.4395 539.23 19.873 539.23C16.2959 539.23 14.1582 542.163 14.1582 547.223C14.1582 552.314 16.2744 555.215 19.873 555.215ZM16.5215 547.223C16.5215 543.355 17.7783 541.239 19.873 541.229C21.957 541.239 23.2246 543.355 23.2246 547.223C23.2246 551.101 21.9678 553.174 19.873 553.174C17.7676 553.174 16.5107 551.101 16.5215 547.223ZM28.0371 555H38.5V552.98H31.3242V552.852L34.4824 549.65C37.4043 546.782 38.2207 545.396 38.2422 543.656C38.2207 541.132 36.1475 539.23 33.1504 539.23C30.1855 539.23 28.0156 541.11 28.0371 543.957H30.2715C30.2822 542.303 31.3779 541.207 33.1074 541.207C34.7402 541.207 35.9863 542.185 35.9863 543.721C35.9863 545.085 35.1377 546.073 33.4297 547.846L28.0371 553.281V555ZM47.0293 539.445H44.709L40.8418 541.98V544.236L44.5586 541.809H44.6445V555H47.0293V539.445ZM51.627 555.15C52.4541 555.14 53.1416 554.463 53.1523 553.625C53.1416 552.787 52.4541 552.1 51.627 552.1C50.7891 552.1 50.0908 552.787 50.1016 553.625C50.0908 554.463 50.7891 555.14 51.627 555.15ZM59.9199 539.445H57.5996L53.7324 541.98V544.236L57.4492 541.809H57.5352V555H59.9199V539.445ZM69.7812 539.445H67.4609L63.5938 541.98V544.236L67.3105 541.809H67.3965V555H69.7812V539.445Z" fill="white"/>
<path d="M172.062 548.555C172.062 552.368 173.083 555.537 175.006 558.244H177.111C175.618 556.235 174.437 552.164 174.426 548.555C174.437 544.945 175.618 540.863 177.111 538.865H175.006C173.083 541.572 172.062 544.741 172.062 548.555ZM196.125 548.426H178.572V550.08H186.307V556.805H188.305V550.08H196.125V548.426ZM179.561 545.354L180.334 546.965C183.449 546.471 186.167 544.913 187.349 542.722C188.52 544.913 191.248 546.471 194.406 546.965L195.158 545.354C191.517 544.859 188.552 542.722 188.52 540.348H194.471V538.715H180.205V540.348H186.199C186.135 542.722 183.148 544.859 179.561 545.354ZM202.678 548.555C202.678 544.741 201.657 541.572 199.734 538.865H197.629C199.122 540.874 200.304 544.945 200.314 548.555C200.304 552.164 199.122 556.246 197.629 558.244H199.734C201.657 555.537 202.678 552.368 202.678 548.555ZM223.066 552.787H215.203V548.684H221.391V547.072H218.512V541.014H221.455V539.359H206.953V541.014H209.875V547.072H206.996V548.684H213.184V552.787H205.449V554.527H223.066V552.787ZM211.895 547.072V541.014H216.514V547.072H211.895ZM234.238 540.305V538.844H232.09V540.305C232.079 543.441 228.76 546.385 225.107 547.072L226.01 548.77C229.093 548.082 231.918 546.073 233.186 543.377C234.432 546.084 237.257 548.104 240.34 548.77L241.285 547.072C237.579 546.406 234.238 543.441 234.238 540.305ZM224.463 554.291H242.08V552.594H224.463V554.291ZM254.412 539.188H244.014V540.863H245.84V546.481C245.002 546.492 244.207 546.492 243.477 546.492L243.713 548.211C246.936 548.211 251.447 548.114 255.379 547.416L255.25 545.891C254.391 546.02 253.499 546.116 252.586 546.191V540.863H254.412V539.188ZM245.281 555.129L246.076 556.74C249.009 556.235 251.479 554.817 252.661 552.755C253.821 554.817 256.292 556.235 259.225 556.74L260.041 555.129C256.399 554.57 253.639 552.529 253.66 549.973V549.564H251.641V549.973C251.63 552.529 248.891 554.57 245.281 555.129ZM247.816 546.449V540.863H250.588V546.331C249.653 546.385 248.719 546.417 247.816 546.449ZM256.561 550.531H258.602V544.494H261.395V542.797H258.602V537.576H256.561V550.531ZM285.414 548.426H267.861V550.08H275.596V556.805H277.594V550.08H285.414V548.426ZM268.85 545.354L269.623 546.965C272.738 546.471 275.456 544.913 276.638 542.722C277.809 544.913 280.537 546.471 283.695 546.965L284.447 545.354C280.806 544.859 277.841 542.722 277.809 540.348H283.76V538.715H269.494V540.348H275.488C275.424 542.722 272.438 544.859 268.85 545.354ZM297.596 539.037H287.885V540.713H295.587C295.565 541.927 295.501 543.484 295.082 545.611L297.102 545.805C297.574 543.312 297.574 541.4 297.596 540.111V539.037ZM286.725 547.459L286.918 549.113C290.312 549.103 294.91 549.027 298.928 548.318L298.799 546.836C296.865 547.115 294.738 547.266 292.676 547.352V543.355H290.656V547.416C289.249 547.448 287.906 547.459 286.725 547.459ZM289.646 556.418H302.73V554.764H291.688V550.725H289.646V556.418ZM300.023 552.035H302.107V545.418H304.75V543.699H302.107V537.576H300.023V552.035ZM327.309 537.598H325.268V541.014H321.089C321.218 540.369 321.293 539.682 321.293 538.973H312.484V540.648H319.08C318.715 543.753 316.051 546.202 311.496 547.502L312.312 549.092C316.48 547.899 319.37 545.719 320.616 542.625H325.268V544.967H320.412V546.643H325.268V548.984H327.309V537.598ZM314.482 552.959C314.482 555.301 317.018 556.74 320.971 556.74C324.87 556.74 327.427 555.301 327.438 552.959C327.427 550.628 324.87 549.21 320.971 549.199C317.018 549.21 314.482 550.628 314.482 552.959ZM316.502 552.959C316.502 551.584 318.221 550.8 320.971 550.811C323.667 550.8 325.386 551.584 325.396 552.959C325.386 554.312 323.667 555.097 320.971 555.107C318.221 555.097 316.502 554.312 316.502 552.959ZM346.279 537.576H344.217V556.826H346.279V537.576ZM330.467 551.67L331.541 553.324C338.147 550.155 340.543 545.278 340.543 539.639H331.391V541.271H338.48C338.083 545.762 335.58 549.231 330.467 551.67ZM356.033 541.68V541.443H360.223V539.811H356.055V537.49H354.014V539.811H349.824V541.443H354.014V541.68C354.014 544.161 352.209 546.46 349.287 547.395L350.254 548.963C352.553 548.243 354.229 546.664 355.066 544.677C355.947 546.46 357.623 547.835 359.857 548.469L360.824 546.879C357.892 546.062 356.033 543.946 356.033 541.68ZM352.381 553.217C352.37 555.483 354.852 556.794 358.891 556.783C362.919 556.794 365.39 555.483 365.4 553.217C365.39 550.961 362.919 549.683 358.891 549.672C354.852 549.683 352.37 550.961 352.381 553.217ZM354.4 553.217C354.39 551.971 356.065 551.262 358.891 551.262C361.716 551.262 363.37 551.971 363.381 553.217C363.37 554.463 361.716 555.204 358.891 555.215C356.065 555.204 354.39 554.463 354.4 553.217ZM359.621 544.645H363.295V549.242H365.336V537.576H363.295V542.969H359.621V544.645ZM384.35 537.598H382.309V539.982H377.023V541.615H382.309V543.635H377.023V545.268H382.309V551.82H384.35V537.598ZM369.439 549.07H370.922C373.747 549.049 376.357 548.931 379.408 548.361L379.193 546.686C376.443 547.201 374.016 547.341 371.459 547.352V538.93H369.439V549.07ZM371.803 556.418H384.844V554.764H373.865V550.574H371.803V556.418ZM404.91 549.135H387.293V550.811H395.07V556.826H397.09V550.811H404.91V549.135ZM389.613 547.352H402.955V545.719H391.611V543.635H402.311V542.045H391.611V540.068H402.74V538.436H389.613V547.352ZM413.031 543.248V541.207H417.221V539.51H406.672V541.207H411.012V543.248C411.001 546.503 408.885 550.134 405.963 551.541L407.166 553.152C409.357 552.057 411.162 549.683 412.043 546.943C412.913 549.457 414.632 551.627 416.791 552.658L417.951 551.068C415.029 549.683 413.021 546.288 413.031 543.248ZM419.283 556.826H421.324V546.922H424.418V545.203H421.324V537.576H419.283V556.826ZM441.391 537.598H439.35V541.014H435.171C435.3 540.369 435.375 539.682 435.375 538.973H426.566V540.648H433.162C432.797 543.753 430.133 546.202 425.578 547.502L426.395 549.092C430.562 547.899 433.452 545.719 434.698 542.625H439.35V544.967H434.494V546.643H439.35V548.984H441.391V537.598ZM428.564 552.959C428.564 555.301 431.1 556.74 435.053 556.74C438.952 556.74 441.509 555.301 441.52 552.959C441.509 550.628 438.952 549.21 435.053 549.199C431.1 549.21 428.564 550.628 428.564 552.959ZM430.584 552.959C430.584 551.584 432.303 550.8 435.053 550.811C437.749 550.8 439.468 551.584 439.479 552.959C439.468 554.312 437.749 555.097 435.053 555.107C432.303 555.097 430.584 554.312 430.584 552.959ZM451.488 541.594V540.756H455.721V539.102H445.107V540.756H449.426V541.594C449.415 544.226 447.567 546.718 444.57 547.738L445.623 549.35C447.911 548.544 449.63 546.89 450.489 544.795C451.37 546.718 453.035 548.232 455.248 548.963L456.301 547.373C453.325 546.428 451.488 544.086 451.488 541.594ZM447.729 556.418H460.898V554.764H449.791V550.316H447.729V556.418ZM458.277 551.648H460.318V537.598H458.277V551.648ZM479.891 537.576H477.936V545.203H475.443V537.963H473.574V555.838H475.443V546.879H477.936V556.826H479.891V537.576ZM464.014 552.207H465.303C468.106 552.186 470.104 552.11 472.414 551.627L472.264 549.951C470.201 550.349 468.418 550.456 466.055 550.467V541.551H471.232V539.896H464.014V552.207ZM498.303 537.576H496.262V556.826H498.303V537.576ZM482.49 551.584L482.77 553.281C486.293 553.292 490.955 553.238 495.23 552.529L495.08 551.004C493.383 551.229 491.578 551.358 489.795 551.444V549.575C492.029 549.253 493.479 547.942 493.49 546.084C493.479 543.914 491.557 542.485 488.742 542.475C485.96 542.485 484.069 543.914 484.08 546.084C484.069 547.964 485.53 549.285 487.775 549.586V551.52C485.885 551.562 484.08 551.573 482.49 551.584ZM482.898 541.508H494.65V539.875H489.816V537.619H487.775V539.875H482.898V541.508ZM486.014 546.084C485.992 544.849 487.131 544.064 488.742 544.064C490.407 544.064 491.535 544.849 491.535 546.084C491.535 547.309 490.407 548.071 488.742 548.061C487.131 548.071 485.992 547.309 486.014 546.084ZM523.246 537.576H521.291V545.182H518.906V538.092H516.994V555.902H518.906V546.836H521.291V556.826H523.246V537.576ZM506.703 551.326L507.885 552.744C513.396 549.64 515.071 545.085 515.082 540.025H507.52V541.701H513.095C512.772 545.622 510.979 548.898 506.703 551.326ZM533.236 547.803H531.195V551.219C529.272 551.283 527.436 551.294 525.889 551.305L526.146 552.98C529.584 552.98 534.257 552.948 538.607 552.143L538.457 550.639C536.781 550.886 534.998 551.036 533.236 551.133V547.803ZM526.404 546.879L527.371 548.426C529.681 547.771 531.378 546.299 532.216 544.376C533.086 546.202 534.805 547.599 537.104 548.254L538.049 546.664C535.17 545.891 533.344 543.946 533.236 541.68H537.555V540.025H533.236V537.727H531.195V540.025H526.92V541.68H531.174C531.066 544.043 529.272 546.052 526.404 546.879ZM539.66 556.869H541.701V537.576H539.66V556.869Z" fill="white"/>
<circle cx="152" cy="547" r="5" stroke="white" stroke-width="2"/>
<path d="M1.375 257H11.8379V254.98H4.66211V254.852L7.82031 251.65C10.7422 248.782 11.5586 247.396 11.5801 245.656C11.5586 243.132 9.48535 241.23 6.48828 241.23C3.52344 241.23 1.35352 243.11 1.375 245.957H3.60938C3.62012 244.303 4.71582 243.207 6.44531 243.207C8.07812 243.207 9.32422 244.185 9.32422 245.721C9.32422 247.085 8.47559 248.073 6.76758 249.846L1.375 255.281V257ZM19.873 257.215C23.4717 257.215 25.5771 254.314 25.5879 249.223C25.5771 244.163 23.4395 241.23 19.873 241.23C16.2959 241.23 14.1582 244.163 14.1582 249.223C14.1582 254.314 16.2744 257.215 19.873 257.215ZM16.5215 249.223C16.5215 245.355 17.7783 243.239 19.873 243.229C21.957 243.239 23.2246 245.355 23.2246 249.223C23.2246 253.101 21.9678 255.174 19.873 255.174C17.7676 255.174 16.5107 253.101 16.5215 249.223ZM33.9453 241.445H31.625L27.7578 243.98V246.236L31.4746 243.809H31.5605V257H33.9453V241.445ZM43.248 241.23C39.8643 241.209 37.6621 243.529 37.6621 246.494C37.6621 249.47 39.8965 251.607 42.6895 251.607C44.3652 251.607 45.8262 250.812 46.6641 249.502H46.8574C46.8359 253.058 45.4287 255.142 43.0332 255.152C41.4648 255.142 40.4551 254.229 40.1328 252.918H37.791C38.167 255.442 40.165 257.215 43.0332 257.215C46.7607 257.215 49.1133 254.121 49.1133 248.664C49.1025 242.971 46.1055 241.252 43.248 241.23ZM39.9609 246.451C39.9502 244.668 41.3682 243.207 43.248 243.207C45.1494 243.207 46.5352 244.743 46.5352 246.43C46.5352 248.148 45.085 249.685 43.2051 249.674C41.3145 249.685 39.9717 248.256 39.9609 246.451ZM52.5508 257.15C53.3779 257.14 54.0654 256.463 54.0762 255.625C54.0654 254.787 53.3779 254.1 52.5508 254.1C51.7129 254.1 51.0146 254.787 51.0254 255.625C51.0146 256.463 51.7129 257.14 52.5508 257.15ZM61.6602 257.215C65.2588 257.215 67.3643 254.314 67.375 249.223C67.3643 244.163 65.2266 241.23 61.6602 241.23C58.083 241.23 55.9453 244.163 55.9453 249.223C55.9453 254.314 58.0615 257.215 61.6602 257.215ZM58.3086 249.223C58.3086 245.355 59.5654 243.239 61.6602 243.229C63.7441 243.239 65.0117 245.355 65.0117 249.223C65.0117 253.101 63.7549 255.174 61.6602 255.174C59.5547 255.174 58.2979 253.101 58.3086 249.223ZM75.1738 241.23C71.79 241.209 69.5879 243.529 69.5879 246.494C69.5879 249.47 71.8223 251.607 74.6152 251.607C76.291 251.607 77.752 250.812 78.5898 249.502H78.7832C78.7617 253.058 77.3545 255.142 74.959 255.152C73.3906 255.142 72.3809 254.229 72.0586 252.918H69.7168C70.0928 255.442 72.0908 257.215 74.959 257.215C78.6865 257.215 81.0391 254.121 81.0391 248.664C81.0283 242.971 78.0312 241.252 75.1738 241.23ZM71.8867 246.451C71.876 244.668 73.2939 243.207 75.1738 243.207C77.0752 243.207 78.4609 244.743 78.4609 246.43C78.4609 248.148 77.0107 249.685 75.1309 249.674C73.2402 249.685 71.8975 248.256 71.8867 246.451Z" fill="white"/>
<path d="M188.262 248.492H170.709V250.146H178.465V251.994C174.888 252.177 172.793 253.369 172.793 255.389C172.793 257.569 175.285 258.794 179.475 258.783C183.61 258.794 186.103 257.569 186.113 255.389C186.103 253.369 184.008 252.188 180.484 251.994V250.146H188.262V248.492ZM171.633 245.871L172.342 247.482C175.683 247.096 178.422 245.688 179.485 243.647C180.527 245.688 183.288 247.096 186.629 247.482L187.359 245.871C183.836 245.517 181.129 243.959 180.85 242.09H186.693V240.457H172.32V242.09H178.1C177.82 243.948 175.092 245.517 171.633 245.871ZM174.855 255.389C174.845 254.196 176.531 253.552 179.475 253.541C182.375 253.552 184.072 254.196 184.072 255.389C184.072 256.56 182.375 257.236 179.475 257.215C176.531 257.236 174.845 256.56 174.855 255.389ZM207.34 254.701H199.455V250.125H197.436V254.701H189.723V256.377H207.34V254.701ZM190.324 248.793L191.227 250.469C194.331 249.856 197.167 247.912 198.435 245.291C199.702 247.923 202.56 249.856 205.686 250.469L206.566 248.793C202.85 248.17 199.498 245.312 199.498 242.262V240.801H197.35V242.262C197.339 245.312 194.03 248.17 190.324 248.793ZM225.15 239.576H223.217V254.186H225.15V239.576ZM209.553 250.619H217.094V246.73H219.457V253.584H221.391V239.92H219.457V245.076H217.094V241.102H215.203V244.26H211.486V241.102H209.553V250.619ZM211.486 248.965V245.828H215.203V248.965H211.486ZM212.389 258.418H225.709V256.764H214.408V252.209H212.389V258.418ZM243.82 239.576H241.779V247.203H237.805V248.857H241.779V258.869H243.82V239.576ZM227.75 253.562L228.867 255.131C231.08 254.11 232.767 251.962 233.604 249.405C234.464 251.822 236.161 253.842 238.363 254.809L239.502 253.24C236.548 251.93 234.582 248.804 234.582 245.764V244.496H238.793V242.863H234.625V239.963H232.584V242.863H228.287V244.496H232.562V245.764C232.573 248.933 230.661 252.22 227.75 253.562ZM262.77 239.576H260.707V258.826H262.77V239.576ZM246.957 253.67L248.031 255.324C254.638 252.155 257.033 247.278 257.033 241.639H247.881V243.271H254.971C254.573 247.762 252.07 251.231 246.957 253.67ZM271.105 240.457C268.162 240.436 266.046 242.305 266.057 244.926C266.046 247.579 268.162 249.438 271.105 249.438C273.662 249.438 275.639 247.955 276.036 245.742H279.785V249.91H281.826V239.576H279.785V244.066H276.025C275.606 241.907 273.641 240.436 271.105 240.457ZM268.012 244.926C268.001 243.271 269.29 242.144 271.105 242.154C272.889 242.144 274.156 243.271 274.156 244.926C274.156 246.569 272.889 247.719 271.105 247.719C269.29 247.719 268.001 246.569 268.012 244.926ZM269.279 258.59H281.826V250.834H279.785V253.068H271.299V250.834H269.279V258.59ZM271.299 256.914V254.68H279.785V256.914H271.299ZM302.387 250.898H284.77V252.51H292.525V258.826H294.523V252.51H302.387V250.898ZM286.961 248.707H300.174V240.35H298.133V242.863H288.98V240.35H286.961V248.707ZM288.98 247.074V244.496H298.133V247.074H288.98ZM326.793 254.787H318.973V250.598H316.953V254.787H309.176V256.463H326.793V254.787ZM310.035 249.674L310.809 251.264C314.031 250.759 316.706 249.233 317.952 246.988C319.209 249.233 321.895 250.759 325.117 251.264L325.891 249.674C321.938 249.094 319.091 246.859 318.994 244.152H325.16V242.498H318.973V239.92H316.953V242.498H310.766V244.152H316.932C316.835 246.859 313.988 249.094 310.035 249.674ZM344.195 239.576H342.133V258.826H344.195V239.576ZM328.383 253.67L329.457 255.324C336.063 252.155 338.459 247.278 338.459 241.639H329.307V243.271H336.396C335.999 247.762 333.496 251.231 328.383 253.67ZM353.949 243.701V243.465H358.139V241.811H353.971V239.49H351.93V241.811H347.74V243.465H351.93V243.701C351.93 246.193 350.125 248.46 347.182 249.33L348.191 250.941C350.458 250.2 352.134 248.664 352.982 246.688C353.831 248.438 355.475 249.803 357.688 250.447L358.633 248.836C355.689 248.009 353.949 245.936 353.949 243.701ZM349.652 255.281C349.652 257.494 352.091 258.772 356.119 258.783C360.104 258.772 362.5 257.494 362.5 255.281C362.5 253.025 360.104 251.747 356.119 251.758C352.091 251.747 349.652 253.025 349.652 255.281ZM351.693 255.281C351.683 254.014 353.315 253.348 356.119 253.348C358.88 253.348 360.513 254.014 360.502 255.281C360.513 256.517 358.88 257.204 356.119 257.215C353.315 257.204 351.683 256.517 351.693 255.281ZM360.287 251.307H362.328V246.107H365.121V244.432H362.328V239.576H360.287V251.307ZM371.545 240.457C368.602 240.436 366.485 242.305 366.496 244.926C366.485 247.579 368.602 249.438 371.545 249.438C374.102 249.438 376.078 247.955 376.476 245.742H380.225V249.91H382.266V239.576H380.225V244.066H376.465C376.046 241.907 374.08 240.436 371.545 240.457ZM368.451 244.926C368.44 243.271 369.729 242.144 371.545 242.154C373.328 242.144 374.596 243.271 374.596 244.926C374.596 246.569 373.328 247.719 371.545 247.719C369.729 247.719 368.44 246.569 368.451 244.926ZM369.719 258.59H382.266V250.834H380.225V253.068H371.738V250.834H369.719V258.59ZM371.738 256.914V254.68H380.225V256.914H371.738ZM401.795 239.576H399.84V247.225H397.562V239.963H395.629V257.838H397.562V248.9H399.84V258.826H401.795V239.576ZM385.016 252.467L385.252 254.186C387.733 254.186 391.762 254.1 394.791 253.52L394.684 252.016C394.104 252.091 393.48 252.155 392.836 252.22V243.594H394.361V241.918H385.424V243.594H386.949V252.456C386.24 252.467 385.585 252.467 385.016 252.467ZM388.818 252.424V243.594H390.967V252.338C390.247 252.381 389.527 252.402 388.818 252.424ZM414.621 241.531H405.641V243.186H412.591C412.516 244.281 412.333 245.323 412.021 246.301L404.674 246.773L404.953 248.557L411.366 247.966C410.163 250.415 408.025 252.488 404.566 254.164L405.662 255.754C412.73 252.306 414.61 247.203 414.621 241.531ZM418.188 258.826H420.25V239.576H418.188V258.826ZM430.348 245.248V243.207H434.73V241.51H423.881V243.207H428.285V245.248C428.264 248.567 426.115 252.177 423.215 253.541L424.396 255.152C426.642 254.057 428.446 251.715 429.338 248.965C430.229 251.532 432.034 253.659 434.301 254.658L435.418 253.068C432.453 251.801 430.337 248.471 430.348 245.248ZM437.158 258.826H439.199V239.576H437.158V258.826ZM463.605 239.598H461.564V253.691H463.605V239.598ZM447.75 249.352L448.846 250.963C451.102 250.093 452.767 248.31 453.615 246.075C454.475 248.159 456.118 249.792 458.342 250.619L459.395 248.986C456.419 247.955 454.636 245.377 454.646 242.562V240.65H452.562V242.562C452.552 245.463 450.769 248.234 447.75 249.352ZM451.016 258.418H464.186V256.764H453.078V252.359H451.016V258.418ZM473.338 244.475V241.188H471.297V244.475C471.286 247.998 469.288 251.693 466.334 253.111L467.602 254.766C469.793 253.627 471.479 251.317 472.339 248.589C473.188 251.156 474.81 253.305 476.904 254.4L478.172 252.768C475.304 251.371 473.316 247.88 473.338 244.475ZM479.611 258.826H481.652V248.986H484.746V247.246H481.652V239.576H479.611V258.826ZM490.998 240.457C488.055 240.436 485.938 242.305 485.949 244.926C485.938 247.579 488.055 249.438 490.998 249.438C493.555 249.438 495.531 247.955 495.929 245.742H499.678V249.91H501.719V239.576H499.678V244.066H495.918C495.499 241.907 493.533 240.436 490.998 240.457ZM487.904 244.926C487.894 243.271 489.183 242.144 490.998 242.154C492.781 242.144 494.049 243.271 494.049 244.926C494.049 246.569 492.781 247.719 490.998 247.719C489.183 247.719 487.894 246.569 487.904 244.926ZM489.172 258.59H501.719V250.834H499.678V253.068H491.191V250.834H489.172V258.59ZM491.191 256.914V254.68H499.678V256.914H491.191ZM522.279 249.652H504.662V251.285H512.611V254.83H514.631V251.285H522.279V249.652ZM506.854 258.418H520.324V256.764H508.873V253.154H506.854V258.418ZM506.982 247.955H519.959V240.178H517.918V242.52H509.002V240.178H506.982V247.955ZM509.002 246.322V244.045H517.918V246.322H509.002ZM528.854 241.016C525.975 241.026 523.923 243.647 523.934 247.762C523.923 251.919 525.975 254.54 528.854 254.529C531.732 254.54 533.784 251.919 533.795 247.762C533.784 243.647 531.732 241.026 528.854 241.016ZM525.889 247.762C525.878 244.743 527.103 242.853 528.854 242.842C530.637 242.853 531.84 244.743 531.84 247.762C531.84 250.823 530.637 252.703 528.854 252.703C527.103 252.703 525.878 250.823 525.889 247.762ZM536.652 258.826H538.693V251.693H541.68V250.018H538.693V246.021H541.68V244.281H538.693V239.576H536.652V258.826ZM170.816 281.375H173.223L174.361 275.445H172.535L170.816 281.375ZM191.012 273.576H188.949V287.562H191.012V280.967H193.805V279.27H191.012V273.576ZM175.865 283.824L176.725 285.457C182.354 283.749 185.791 280.086 185.791 275.037H176.682V276.734H183.567C183.17 279.903 180.377 282.471 175.865 283.824ZM178.787 292.418H191.807V290.764H180.85V286.123H178.787V292.418ZM210.949 273.576H208.908V277.143H205.9V278.818H208.908V280.838H205.9V282.557H208.908V287.863H210.949V273.576ZM194.922 283.416L195.18 285.135C198.263 285.124 202.603 285.049 206.287 284.469L206.201 282.965C205.438 283.051 204.654 283.115 203.838 283.18V276.734H205.686V275.08H195.459V276.734H197.264V283.405C196.437 283.405 195.642 283.416 194.922 283.416ZM198.402 292.418H211.443V290.764H200.465V286.703H198.402V292.418ZM199.24 283.373V276.734H201.883V283.287C200.991 283.319 200.11 283.352 199.24 283.373ZM229.877 273.598H227.836V287.584H229.877V273.598ZM214.301 279.656C214.312 282.481 216.524 284.447 219.436 284.447C222.336 284.447 224.549 282.481 224.549 279.656C224.549 276.874 222.336 274.897 219.436 274.887C216.524 274.897 214.312 276.874 214.301 279.656ZM216.299 279.656C216.288 277.884 217.642 276.67 219.436 276.67C221.197 276.67 222.551 277.884 222.551 279.656C222.551 281.472 221.197 282.664 219.436 282.664C217.642 282.664 216.288 281.472 216.299 279.656ZM217.287 292.418H230.457V290.764H219.35V286.166H217.287V292.418ZM250.48 282.643H232.928V284.297H250.48V282.643ZM233.852 280.021L234.561 281.633C237.901 281.246 240.641 279.839 241.704 277.809C242.746 279.839 245.507 281.246 248.848 281.633L249.578 280.021C246.012 279.646 243.294 278.066 243.058 276.197H248.912V274.521H234.539V276.197H240.329C240.104 278.077 237.343 279.646 233.852 280.021ZM235.012 289.303C235.012 291.537 237.515 292.794 241.693 292.783C245.84 292.794 248.321 291.537 248.332 289.303C248.321 287.068 245.84 285.779 241.693 285.779C237.515 285.779 235.012 287.068 235.012 289.303ZM237.074 289.303C237.063 288.057 238.75 287.391 241.693 287.369C244.594 287.391 246.291 288.057 246.291 289.303C246.291 290.517 244.594 291.183 241.693 291.172C238.75 291.183 237.063 290.517 237.074 289.303ZM267.088 279.42H265.068V281.805H257.312V283.438H274.865V281.805H267.088V279.42ZM258.236 278.926L258.967 280.494C262.104 280.075 264.832 278.818 266.067 276.82C267.303 278.818 270.031 280.075 273.168 280.494L273.877 278.926C270.063 278.528 267.099 276.691 267.109 274.35V273.727H265.047V274.35C265.036 276.691 262.061 278.528 258.236 278.926ZM259.418 286.402H270.633V287.928H259.439V292.633H273.189V291.064H261.438V289.41H272.652V284.834H259.418V286.402ZM291.838 274.285H278.389V275.939H289.754V277.959H278.453V283.395H292.246V281.74H280.494V279.527H291.838V274.285ZM276.305 286.854H284.061V292.869H286.102V286.854H293.922V285.221H276.305V286.854ZM302.129 277.057V274.672H300.109V277.057C300.099 280.011 298.305 282.75 295.34 283.846L296.436 285.479C298.681 284.587 300.313 282.804 301.141 280.559C301.957 282.643 303.515 284.329 305.609 285.178L306.727 283.588C303.858 282.481 302.14 279.828 302.129 277.057ZM298.82 292.418H311.818V290.764H300.883V286.488H298.82V292.418ZM305.609 281.869H309.348V287.928H311.389V273.598H309.348V276.326H305.609V277.98H309.348V280.215H305.609V281.869ZM316.781 275.445H314.891V280.988H316.781V275.445ZM334.85 275.639H325.01V277.293H332.83C332.819 278.894 332.766 281.139 332.271 284.211L334.291 284.361C334.839 280.924 334.839 278.442 334.85 276.82V275.639ZM323.936 287.025L324.172 288.68C327.588 288.701 332.067 288.615 336.074 287.971L335.967 286.445C334.044 286.692 331.949 286.821 329.908 286.907V281.139H327.889V286.972C326.481 287.004 325.139 287.015 323.936 287.025ZM337.062 292.826H339.125V283.266H342.068V281.525H339.125V273.576H337.062V292.826ZM359.664 273.576H357.709V292.826H359.664V273.576ZM342.863 287.52L344.109 289.045C345.989 287.874 347.3 285.726 347.987 283.212C348.664 285.532 349.921 287.498 351.758 288.594L352.982 287.09C350.275 285.532 348.943 282.234 348.943 278.947V277.4H352.252V275.746H343.443V277.4H346.988V278.947C346.978 282.374 345.592 285.876 342.863 287.52ZM350.834 282.062H353.82V291.859H355.754V273.984H353.82V280.387H350.834V282.062ZM374.316 277.1V274.758H372.297V277.035C372.286 279.936 370.503 282.61 367.506 283.674L368.602 285.285C370.868 284.415 372.512 282.664 373.339 280.451C374.166 282.438 375.745 284.028 377.84 284.834L378.957 283.244C376.057 282.224 374.327 279.71 374.316 277.1ZM371.008 292.418H384.006V290.764H373.07V286.338H371.008V292.418ZM377.475 279.656H381.535V287.949H383.576V273.598H381.535V277.98H377.475V279.656ZM402.59 273.576H400.549V278.475H396.961V280.15H400.549V285.027H402.59V273.576ZM386.541 283.287L387.615 284.92C389.914 284.071 391.601 282.342 392.438 280.193C393.276 282.095 394.866 283.642 397.025 284.383L398.078 282.771C395.167 281.783 393.427 279.409 393.438 276.971V276.562H397.562V274.908H387.186V276.562H391.354V276.992C391.364 279.646 389.527 282.245 386.541 283.287ZM389.635 289.195C389.624 291.483 392.095 292.815 396.145 292.826C400.173 292.815 402.644 291.483 402.654 289.195C402.644 286.907 400.173 285.575 396.145 285.564C392.095 285.575 389.624 286.907 389.635 289.195ZM391.654 289.195C391.644 287.885 393.319 287.144 396.145 287.154C398.948 287.144 400.624 287.885 400.635 289.195C400.624 290.495 398.948 291.236 396.145 291.215C393.319 291.236 391.644 290.495 391.654 289.195Z" fill="white"/>
<circle cx="152" cy="249" r="5" stroke="white" stroke-width="2"/>
<path d="M1.375 489H11.8379V486.98H4.66211V486.852L7.82031 483.65C10.7422 480.782 11.5586 479.396 11.5801 477.656C11.5586 475.132 9.48535 473.23 6.48828 473.23C3.52344 473.23 1.35352 475.11 1.375 477.957H3.60938C3.62012 476.303 4.71582 475.207 6.44531 475.207C8.07812 475.207 9.32422 476.185 9.32422 477.721C9.32422 479.085 8.47559 480.073 6.76758 481.846L1.375 487.281V489ZM19.873 489.215C23.4717 489.215 25.5771 486.314 25.5879 481.223C25.5771 476.163 23.4395 473.23 19.873 473.23C16.2959 473.23 14.1582 476.163 14.1582 481.223C14.1582 486.314 16.2744 489.215 19.873 489.215ZM16.5215 481.223C16.5215 477.355 17.7783 475.239 19.873 475.229C21.957 475.239 23.2246 477.355 23.2246 481.223C23.2246 485.101 21.9678 487.174 19.873 487.174C17.7676 487.174 16.5107 485.101 16.5215 481.223ZM28.0371 489H38.5V486.98H31.3242V486.852L34.4824 483.65C37.4043 480.782 38.2207 479.396 38.2422 477.656C38.2207 475.132 36.1475 473.23 33.1504 473.23C30.1855 473.23 28.0156 475.11 28.0371 477.957H30.2715C30.2822 476.303 31.3779 475.207 33.1074 475.207C34.7402 475.207 35.9863 476.185 35.9863 477.721C35.9863 479.085 35.1377 480.073 33.4297 481.846L28.0371 487.281V489ZM47.0293 473.445H44.709L40.8418 475.98V478.236L44.5586 475.809H44.6445V489H47.0293V473.445ZM51.627 489.15C52.4541 489.14 53.1416 488.463 53.1523 487.625C53.1416 486.787 52.4541 486.1 51.627 486.1C50.7891 486.1 50.0908 486.787 50.1016 487.625C50.0908 488.463 50.7891 489.14 51.627 489.15ZM60.7363 489.215C64.335 489.215 66.4404 486.314 66.4512 481.223C66.4404 476.163 64.3027 473.23 60.7363 473.23C57.1592 473.23 55.0215 476.163 55.0215 481.223C55.0215 486.314 57.1377 489.215 60.7363 489.215ZM57.3848 481.223C57.3848 477.355 58.6416 475.239 60.7363 475.229C62.8203 475.239 64.0879 477.355 64.0879 481.223C64.0879 485.101 62.8311 487.174 60.7363 487.174C58.6309 487.174 57.374 485.101 57.3848 481.223ZM74.5293 489.215C77.8701 489.236 80.0938 486.927 80.0938 483.908C80.0938 480.933 77.8594 478.806 75.0879 478.795C73.4014 478.806 71.9404 479.579 71.0918 480.9H70.9199C70.9199 477.388 72.3164 475.304 74.7227 475.293C76.291 475.304 77.29 476.217 77.6016 477.484H79.9434C79.5781 475.014 77.5908 473.23 74.7227 473.23C70.9951 473.23 68.6533 476.324 68.6426 481.738C68.6426 487.485 71.6504 489.193 74.5293 489.215ZM71.1992 483.973C71.2207 482.243 72.6709 480.718 74.5723 480.729C76.4414 480.718 77.7949 482.168 77.7949 483.951C77.7949 485.767 76.3877 487.228 74.5078 487.238C72.5957 487.228 71.21 485.702 71.1992 483.973Z" fill="white"/>
<path d="M177.412 477.248V475.207H181.602V473.51H171.053V475.207H175.393V477.248C175.382 480.503 173.266 484.134 170.344 485.541L171.547 487.152C173.738 486.057 175.543 483.683 176.424 480.943C177.294 483.457 179.013 485.627 181.172 486.658L182.332 485.068C179.41 483.683 177.401 480.288 177.412 477.248ZM183.664 490.826H185.705V480.922H188.799V479.203H185.705V471.576H183.664V490.826ZM194.041 472.307H192.021V480.084H197.479V481.975H189.723V483.65H207.275V481.975H199.498V480.084H204.998V472.307H202.957V474.584H194.041V472.307ZM191.936 490.418H205.299V488.764H193.998V485.025H191.936V490.418ZM194.041 478.43V476.174H202.957V478.43H194.041ZM224.119 472.543H210.949V474.219H222.1C222.1 475.68 222.078 477.323 221.562 479.568H208.736V481.244H226.354V479.568H223.625C224.13 477.248 224.13 475.508 224.119 474.004V472.543ZM210.885 490.59H224.141V483.693H210.885V490.59ZM212.883 488.936V485.305H222.121V488.936H212.883ZM250.674 480.643H233.121V482.297H250.674V480.643ZM234.045 478.021L234.754 479.633C238.095 479.246 240.834 477.839 241.897 475.809C242.939 477.839 245.7 479.246 249.041 479.633L249.771 478.021C246.205 477.646 243.487 476.066 243.251 474.197H249.105V472.521H234.732V474.197H240.522C240.297 476.077 237.536 477.646 234.045 478.021ZM235.205 487.303C235.205 489.537 237.708 490.794 241.887 490.783C246.033 490.794 248.515 489.537 248.525 487.303C248.515 485.068 246.033 483.779 241.887 483.779C237.708 483.779 235.205 485.068 235.205 487.303ZM237.268 487.303C237.257 486.057 238.943 485.391 241.887 485.369C244.787 485.391 246.484 486.057 246.484 487.303C246.484 488.517 244.787 489.183 241.887 489.172C238.943 489.183 237.257 488.517 237.268 487.303ZM258.838 477.248V475.207H263.027V473.51H252.479V475.207H256.818V477.248C256.808 480.503 254.691 484.134 251.77 485.541L252.973 487.152C255.164 486.057 256.969 483.683 257.85 480.943C258.72 483.457 260.438 485.627 262.598 486.658L263.758 485.068C260.836 483.683 258.827 480.288 258.838 477.248ZM265.09 490.826H267.131V480.922H270.225V479.203H267.131V471.576H265.09V490.826ZM282.471 489.215C285.715 489.215 288.014 487.013 288.014 483.951C288.014 480.954 285.854 478.784 282.922 478.773C281.74 478.784 280.645 479.203 280 479.826H279.85L280.365 475.465H287.219V473.445H278.41L277.4 482.104H279.635C280.161 481.147 281.117 480.729 282.363 480.729C284.318 480.75 285.715 482.125 285.715 484.016C285.715 485.863 284.361 487.228 282.471 487.238C280.902 487.228 279.635 486.261 279.506 484.939H277.207C277.314 487.421 279.527 489.215 282.471 489.215ZM305.91 483.951H292.869V485.584H303.869V490.848H305.91V483.951ZM290.141 477.291C290.13 480.03 292.289 481.964 295.189 481.953C297.746 481.964 299.723 480.417 300.12 478.129H303.869V482.92H305.91V471.576H303.869V476.453H300.12C299.723 474.187 297.746 472.64 295.189 472.65C292.289 472.64 290.13 474.573 290.141 477.291ZM292.096 477.291C292.085 475.572 293.417 474.38 295.189 474.369C296.919 474.38 298.24 475.572 298.24 477.291C298.24 479.053 296.919 480.224 295.189 480.234C293.417 480.224 292.085 479.053 292.096 477.291ZM324.881 471.598H322.84V482.898H318.973V484.338H322.84V486.186H324.881V471.598ZM308.789 480.385L309.047 482.018C310.604 482.018 312.398 482.018 314.268 481.942V485.584H316.309V481.835C318.006 481.717 319.735 481.545 321.379 481.266L321.25 479.805C317.146 480.32 312.345 480.353 308.789 480.385ZM310.293 475.723C310.282 477.774 312.237 479.074 315.084 479.074C317.898 479.074 319.854 477.774 319.854 475.723C319.854 473.682 317.898 472.328 315.084 472.328C312.227 472.328 310.282 473.682 310.293 475.723ZM311.453 490.418H325.354V488.764H313.473V484.768H311.453V490.418ZM312.227 475.723C312.216 474.573 313.376 473.832 315.084 473.854C316.728 473.832 317.909 474.573 317.92 475.723C317.909 476.861 316.728 477.57 315.084 477.57C313.376 477.57 312.216 476.861 312.227 475.723Z" fill="white"/>
<circle cx="152" cy="481" r="5" stroke="white" stroke-width="2"/>
<path d="M1.375 621H11.8379V618.98H4.66211V618.852L7.82031 615.65C10.7422 612.782 11.5586 611.396 11.5801 609.656C11.5586 607.132 9.48535 605.23 6.48828 605.23C3.52344 605.23 1.35352 607.11 1.375 609.957H3.60938C3.62012 608.303 4.71582 607.207 6.44531 607.207C8.07812 607.207 9.32422 608.185 9.32422 609.721C9.32422 611.085 8.47559 612.073 6.76758 613.846L1.375 619.281V621ZM19.873 621.215C23.4717 621.215 25.5771 618.314 25.5879 613.223C25.5771 608.163 23.4395 605.23 19.873 605.23C16.2959 605.23 14.1582 608.163 14.1582 613.223C14.1582 618.314 16.2744 621.215 19.873 621.215ZM16.5215 613.223C16.5215 609.355 17.7783 607.239 19.873 607.229C21.957 607.239 23.2246 609.355 23.2246 613.223C23.2246 617.101 21.9678 619.174 19.873 619.174C17.7676 619.174 16.5107 617.101 16.5215 613.223ZM28.0371 621H38.5V618.98H31.3242V618.852L34.4824 615.65C37.4043 612.782 38.2207 611.396 38.2422 609.656C38.2207 607.132 36.1475 605.23 33.1504 605.23C30.1855 605.23 28.0156 607.11 28.0371 609.957H30.2715C30.2822 608.303 31.3779 607.207 33.1074 607.207C34.7402 607.207 35.9863 608.185 35.9863 609.721C35.9863 611.085 35.1377 612.073 33.4297 613.846L28.0371 619.281V621ZM47.0293 605.445H44.709L40.8418 607.98V610.236L44.5586 607.809H44.6445V621H47.0293V605.445ZM51.627 621.15C52.4541 621.14 53.1416 620.463 53.1523 619.625C53.1416 618.787 52.4541 618.1 51.627 618.1C50.7891 618.1 50.0908 618.787 50.1016 619.625C50.0908 620.463 50.7891 621.14 51.627 621.15ZM59.9199 605.445H57.5996L53.7324 607.98V610.236L57.4492 607.809H57.5352V621H59.9199V605.445ZM63.873 621H74.3359V618.98H67.1602V618.852L70.3184 615.65C73.2402 612.782 74.0566 611.396 74.0781 609.656C74.0566 607.132 71.9834 605.23 68.9863 605.23C66.0215 605.23 63.8516 607.11 63.873 609.957H66.1074C66.1182 608.303 67.2139 607.207 68.9434 607.207C70.5762 607.207 71.8223 608.185 71.8223 609.721C71.8223 611.085 70.9736 612.073 69.2656 613.846L63.873 619.281V621Z" fill="white"/>
<path d="M185.834 603.555H183.793V617.713H185.834V611.031H188.627V609.312H185.834V603.555ZM171.01 609.678C170.988 612.481 173.223 614.479 176.123 614.469C179.034 614.479 181.236 612.481 181.258 609.678C181.236 606.874 179.034 604.897 176.123 604.887C173.223 604.897 170.988 606.874 171.01 609.678ZM173.008 609.678C172.986 607.884 174.361 606.67 176.123 606.67C177.906 606.67 179.249 607.884 179.26 609.678C179.249 611.472 177.906 612.686 176.123 612.686C174.361 612.686 172.986 611.472 173.008 609.678ZM173.631 622.418H186.65V620.764H175.672V616.23H173.631V622.418ZM207.576 606.305H204.848V603.576H202.807V614.941H204.848V612.127H207.576V610.43H204.848V607.98H207.576V606.305ZM190.023 609.27C190.002 611.955 192.193 613.835 195.137 613.846C198.091 613.835 200.25 611.955 200.271 609.27C200.25 606.562 198.091 604.693 195.137 604.693C192.193 604.693 190.002 606.562 190.023 609.27ZM192.021 609.27C192 607.572 193.332 606.401 195.137 606.412C196.941 606.401 198.263 607.572 198.273 609.27C198.263 610.978 196.941 612.105 195.137 612.127C193.332 612.105 192 610.978 192.021 609.27ZM192.172 619.131C192.172 621.43 194.664 622.794 198.639 622.783C202.57 622.794 205.02 621.43 205.02 619.131C205.02 616.821 202.57 615.468 198.639 615.457C194.664 615.468 192.172 616.821 192.172 619.131ZM194.213 619.131C194.202 617.842 195.856 617.101 198.639 617.111C201.399 617.101 203.032 617.842 203.021 619.131C203.032 620.441 201.399 621.161 198.639 621.15C195.856 621.161 194.202 620.441 194.213 619.131ZM215.805 608.475V605.188H213.742V608.475C213.742 612.148 211.615 615.833 208.586 617.176L209.832 618.895C212.142 617.767 213.914 615.446 214.806 612.621C215.708 615.253 217.459 617.412 219.672 618.465L220.896 616.854C217.91 615.532 215.783 611.987 215.805 608.475ZM222.637 622.869H224.678V603.576H222.637V622.869ZM250.717 614.447H233.1V616.123H237.482V622.826H239.588V616.123H244.186V622.826H246.248V616.123H250.717V614.447ZM235.012 608.561C235.022 611.128 237.794 612.75 241.865 612.729C245.937 612.75 248.729 611.128 248.719 608.561C248.729 605.961 245.937 604.307 241.865 604.307C237.794 604.307 235.022 605.961 235.012 608.561ZM237.117 608.561C237.106 606.938 239.008 605.95 241.865 605.939C244.733 605.95 246.624 606.938 246.635 608.561C246.624 610.14 244.733 611.117 241.865 611.117C239.008 611.117 237.106 610.14 237.117 608.561ZM261.889 605.016H252.887V613.395H261.889V605.016ZM254.584 619.131C254.584 621.462 257.076 622.815 261.051 622.826C264.982 622.815 267.432 621.462 267.432 619.131C267.432 616.854 264.982 615.479 261.051 615.479C257.076 615.479 254.584 616.854 254.584 619.131ZM254.885 611.74V606.648H259.891V611.74H254.885ZM256.625 619.131C256.614 617.853 258.269 617.122 261.051 617.111C263.812 617.122 265.444 617.853 265.434 619.131C265.444 620.463 263.812 621.172 261.051 621.193C258.269 621.172 256.614 620.463 256.625 619.131ZM265.219 614.877H267.26V609.914H270.053V608.238H267.26V603.576H265.219V614.877ZM277.895 607.701V607.465H282.084V605.811H277.916V603.49H275.875V605.811H271.686V607.465H275.875V607.701C275.875 610.193 274.07 612.46 271.127 613.33L272.137 614.941C274.403 614.2 276.079 612.664 276.928 610.688C277.776 612.438 279.42 613.803 281.633 614.447L282.578 612.836C279.635 612.009 277.895 609.936 277.895 607.701ZM273.598 619.281C273.598 621.494 276.036 622.772 280.064 622.783C284.05 622.772 286.445 621.494 286.445 619.281C286.445 617.025 284.05 615.747 280.064 615.758C276.036 615.747 273.598 617.025 273.598 619.281ZM275.639 619.281C275.628 618.014 277.261 617.348 280.064 617.348C282.825 617.348 284.458 618.014 284.447 619.281C284.458 620.517 282.825 621.204 280.064 621.215C277.261 621.204 275.628 620.517 275.639 619.281ZM284.232 615.307H286.273V610.107H289.066V608.432H286.273V603.576H284.232V615.307ZM295.49 604.457C292.547 604.436 290.431 606.305 290.441 608.926C290.431 611.579 292.547 613.438 295.49 613.438C298.047 613.438 300.023 611.955 300.421 609.742H304.17V613.91H306.211V603.576H304.17V608.066H300.41C299.991 605.907 298.025 604.436 295.49 604.457ZM292.396 608.926C292.386 607.271 293.675 606.144 295.49 606.154C297.273 606.144 298.541 607.271 298.541 608.926C298.541 610.569 297.273 611.719 295.49 611.719C293.675 611.719 292.386 610.569 292.396 608.926ZM293.664 622.59H306.211V614.834H304.17V617.068H295.684V614.834H293.664V622.59ZM295.684 620.914V618.68H304.17V620.914H295.684ZM325.182 603.576H323.119V622.826H325.182V603.576ZM309.369 617.67L310.443 619.324C317.05 616.155 319.445 611.278 319.445 605.639H310.293V607.271H317.383C316.985 611.762 314.482 615.231 309.369 617.67ZM333.518 604.457C330.574 604.436 328.458 606.305 328.469 608.926C328.458 611.579 330.574 613.438 333.518 613.438C336.074 613.438 338.051 611.955 338.448 609.742H342.197V613.91H344.238V603.576H342.197V608.066H338.438C338.019 605.907 336.053 604.436 333.518 604.457ZM330.424 608.926C330.413 607.271 331.702 606.144 333.518 606.154C335.301 606.144 336.568 607.271 336.568 608.926C336.568 610.569 335.301 611.719 333.518 611.719C331.702 611.719 330.413 610.569 330.424 608.926ZM331.691 622.59H344.238V614.834H342.197V617.068H333.711V614.834H331.691V622.59ZM333.711 620.914V618.68H342.197V620.914H333.711ZM359.363 607.1V604.758H357.344V607.035C357.333 609.936 355.55 612.61 352.553 613.674L353.648 615.285C355.915 614.415 357.559 612.664 358.386 610.451C359.213 612.438 360.792 614.028 362.887 614.834L364.004 613.244C361.104 612.224 359.374 609.71 359.363 607.1ZM356.055 622.418H369.053V620.764H358.117V616.338H356.055V622.418ZM362.521 609.656H366.582V617.949H368.623V603.598H366.582V607.98H362.521V609.656ZM387.637 603.576H385.596V608.475H382.008V610.15H385.596V615.027H387.637V603.576ZM371.588 613.287L372.662 614.92C374.961 614.071 376.647 612.342 377.485 610.193C378.323 612.095 379.913 613.642 382.072 614.383L383.125 612.771C380.214 611.783 378.474 609.409 378.484 606.971V606.562H382.609V604.908H372.232V606.562H376.4V606.992C376.411 609.646 374.574 612.245 371.588 613.287ZM374.682 619.195C374.671 621.483 377.142 622.815 381.191 622.826C385.22 622.815 387.69 621.483 387.701 619.195C387.69 616.907 385.22 615.575 381.191 615.564C377.142 615.575 374.671 616.907 374.682 619.195ZM376.701 619.195C376.69 617.885 378.366 617.144 381.191 617.154C383.995 617.144 385.671 617.885 385.682 619.195C385.671 620.495 383.995 621.236 381.191 621.215C378.366 621.236 376.69 620.495 376.701 619.195Z" fill="white"/>
<circle cx="152" cy="613" r="5" stroke="white" stroke-width="2"/>
</svg>
