<svg width="152" height="175" viewBox="0 0 152 175" fill="none" xmlns="http://www.w3.org/2000/svg">
<g clip-path="url(#clip0_582_4604)">
<path d="M47.6339 127.428V80.8086C47.6339 80.8086 38.9184 82.6281 33.4395 80.936V94.1213C33.4395 100.91 35.1876 105.66 36.4822 109.544C37.7768 113.428 45.1161 128.412 45.1161 128.412L51.7316 127.428H47.6339Z" fill="#FAB4AD"/>
<path d="M104.365 80.8086V127.428H100.268L106.883 128.412C106.883 128.412 114.222 113.428 115.517 109.544C116.812 105.66 118.56 100.91 118.56 94.1213V80.936C113.081 82.6281 104.365 80.8086 104.365 80.8086Z" fill="#FAB4AD"/>
<path d="M104.346 127.428V80.8086C104.346 80.8086 113.061 82.6281 118.54 80.936V94.1213C118.54 100.91 116.792 105.66 115.497 109.544C114.203 113.428 106.864 128.412 106.864 128.412L100.248 127.428H104.346Z" fill="#FAB4AD"/>
<path d="M47.6192 80.8086V127.428H51.717L45.1014 128.412C45.1014 128.412 37.7621 113.428 36.4676 109.544C35.173 105.66 33.4248 100.91 33.4248 94.1213V80.936C38.9038 82.6281 47.6192 80.8086 47.6192 80.8086Z" fill="#FAB4AD"/>
<path d="M86.6602 45.8961C98.2196 47.9348 110.865 54.2955 115.441 59.1476C118.617 62.5165 121.18 64.754 121.772 69.8507C122.363 74.9475 121.772 87.1796 121.772 87.1796C117.776 91.7667 104.346 88.9635 104.346 88.9635V135.583H47.6192V88.9635C47.6192 88.9635 34.1893 91.7667 30.1934 87.1796C30.1934 87.1796 29.6022 74.9475 30.1934 69.8507C30.7847 64.754 33.3483 62.5114 36.5236 59.1476C41.1004 54.2955 53.7455 47.9348 65.3049 45.8961C68.1386 45.1825 84.331 45.4323 86.6551 45.8961H86.6602Z" fill="#FFBE00"/>
<path d="M75.8958 35.3306C85.486 35.3306 93.2604 27.4216 93.2604 17.6653C93.2604 7.90902 85.486 0 75.8958 0C66.3056 0 58.5312 7.90902 58.5312 17.6653C58.5312 27.4216 66.3056 35.3306 75.8958 35.3306Z" fill="#23130F"/>
<path d="M75.992 40.4884C85.1768 40.4884 92.6226 33.0426 92.6226 23.8577C92.6226 14.6728 85.1768 7.22705 75.992 7.22705C66.8071 7.22705 59.3613 14.6728 59.3613 23.8577C59.3613 33.0426 66.8071 40.4884 75.992 40.4884Z" fill="#FAB4AD"/>
<path d="M34.6472 153.401C25.5037 153.401 16.6354 152.275 8.89851 153.401C1.16167 154.528 1.64076 159.365 4.42358 164.135C7.2064 168.906 18.7403 170.098 23.1133 170.098H35.6768L34.6421 153.396L34.6472 153.401Z" fill="#FAB4AD"/>
<path d="M35.8807 174.003L139.146 155.823C147.897 153.978 153.498 145.395 151.653 136.644C149.808 127.892 141.225 122.291 132.474 124.136L34.6523 149.742L35.8858 174.008L35.8807 174.003Z" fill="#523AB1"/>
<path d="M114.565 129.304H39.291V150.619H114.565V129.304Z" fill="#523AB1"/>
<path d="M116.124 174.003L12.8589 155.823C4.1078 153.978 -1.49351 145.395 0.351505 136.644C2.19652 127.892 10.7794 122.291 19.5305 124.136L117.352 149.742L116.119 174.008L116.124 174.003Z" fill="#7661CC"/>
<path d="M117.352 153.401C126.495 153.401 135.364 152.275 143.101 153.401C150.837 154.528 150.358 159.365 147.575 164.135C144.793 168.906 133.259 170.098 128.886 170.098H116.322L117.357 153.396L117.352 153.401Z" fill="#FAB4AD"/>
<path d="M110.987 131.659L113.974 85.3193H38.0322L41.0138 131.659H110.987Z" fill="#D8DBFD"/>
<path d="M111.858 128.065H40.1423C39.2978 128.065 38.6133 128.75 38.6133 129.594V130.267C38.6133 131.112 39.2978 131.796 40.1423 131.796H111.858C112.703 131.796 113.388 131.112 113.388 130.267V129.594C113.388 128.75 112.703 128.065 111.858 128.065Z" fill="#B3BDF3"/>
<path d="M76.0029 113.469C78.7531 113.469 80.9825 111.239 80.9825 108.489C80.9825 105.739 78.7531 103.51 76.0029 103.51C73.2528 103.51 71.0234 105.739 71.0234 108.489C71.0234 111.239 73.2528 113.469 76.0029 113.469Z" fill="#B3BDF3"/>
<path d="M60.4828 22.5885C57.6286 19.0157 56.0027 21.9412 56.2066 25.1879C56.4105 28.4345 59.2595 31.36 61.0944 31.0338C62.9292 30.7076 60.4828 22.5885 60.4828 22.5885Z" fill="#FAB4AD"/>
<path d="M75.992 40.4884C85.1768 40.4884 92.6226 33.0426 92.6226 23.8577C92.6226 14.6728 85.1768 7.22705 75.992 7.22705C66.8071 7.22705 59.3613 14.6728 59.3613 23.8577C59.3613 33.0426 66.8071 40.4884 75.992 40.4884Z" fill="#FAB4AD"/>
<path d="M91.4971 22.5885C94.3513 19.0157 95.9771 21.9412 95.7733 25.1879C95.5694 28.4345 92.7203 31.36 90.8855 31.0338C89.0507 30.7076 91.4971 22.5885 91.4971 22.5885Z" fill="#FAB4AD"/>
<path d="M92.4961 14.6736C92.4961 6.57485 85.1109 0.0102539 76.003 0.0102539C66.8952 0.0102539 59.5049 6.57485 59.5049 14.6736C67.9808 19.0262 84.0202 19.2555 92.4961 14.6736Z" fill="#23130F"/>
<path d="M76.0738 50.1926C72.4347 50.1824 68.7396 49.4383 66.5684 47.9348C67.7457 45.7941 67.2513 38.6383 66.5684 34.459H85.4059C84.7229 38.6383 84.2286 45.7941 85.4059 47.9348C83.2398 49.4383 79.5447 50.1824 75.9005 50.1926H76.0687H76.0738Z" fill="#FAB4AD"/>
</g>
<defs>
<clipPath id="clip0_582_4604">
<rect width="152" height="174.003" fill="white"/>
</clipPath>
</defs>
</svg>
