<svg width="60" height="60" viewBox="0 0 60 60" fill="none" xmlns="http://www.w3.org/2000/svg">
<path d="M30 7.5C25.5499 7.5 21.1998 8.8196 17.4997 11.2919C13.7996 13.7643 10.9157 17.2783 9.21272 21.3896C7.50975 25.501 7.06417 30.025 7.93234 34.3895C8.80051 38.7541 10.9434 42.7632 14.0901 45.9099C17.2368 49.0566 21.2459 51.1995 25.6105 52.0677C29.9751 52.9358 34.4991 52.4903 38.6104 50.7873C42.7217 49.0843 46.2357 46.2004 48.7081 42.5003C51.1804 38.8002 52.5 34.4501 52.5 30C52.5 24.0326 50.1295 18.3097 45.9099 14.0901C41.6903 9.87053 35.9674 7.5 30 7.5ZM30 50.175C26.0444 50.175 22.1776 49.002 18.8886 46.8044C15.5996 44.6068 13.0362 41.4832 11.5224 37.8287C10.0087 34.1741 9.6126 30.1528 10.3843 26.2732C11.156 22.3936 13.0608 18.8299 15.8579 16.0329C18.6549 13.2358 22.2186 11.331 26.0982 10.5593C29.9778 9.78759 33.9992 10.1837 37.6537 11.6974C41.3082 13.2112 44.4318 15.7746 46.6294 19.0636C48.827 22.3526 50 26.2194 50 30.175C50.0033 32.8035 49.4884 35.4069 48.4848 37.8363C47.4812 40.2657 46.0085 42.4735 44.151 44.3333C42.2935 46.1931 40.0876 47.6685 37.6595 48.6752C35.2313 49.6819 32.6286 50.2 30 50.2V50.175Z" fill="#222222"/>
<path d="M35 25.8L29.025 31.775L25 27.9C24.7647 27.6646 24.4454 27.5324 24.1125 27.5324C23.7797 27.5324 23.4604 27.6646 23.225 27.9C22.9897 28.1354 22.8574 28.4546 22.8574 28.7875C22.8574 29.1204 22.9897 29.4396 23.225 29.675L27.975 34.425C28.2135 34.6643 28.5372 34.7992 28.875 34.8C29.0385 34.799 29.2002 34.7654 29.3505 34.701C29.5007 34.6366 29.6366 34.5427 29.75 34.425L36.7 27.5C36.8196 27.3878 36.9149 27.2522 36.9801 27.1017C37.0452 26.9512 37.0788 26.789 37.0788 26.625C37.0788 26.461 37.0452 26.2988 36.9801 26.1483C36.9149 25.9978 36.8196 25.8622 36.7 25.75C36.4626 25.5423 36.1555 25.432 35.8402 25.4413C35.5249 25.4506 35.2248 25.5787 35 25.8Z" fill="#222222"/>
</svg>
