<svg width="92" height="22" viewBox="0 0 92 22" fill="none" xmlns="http://www.w3.org/2000/svg">
<g clip-path="url(#clip0_215_1597)">
<path d="M10.9291 0C4.9042 0 0 4.93306 0 11.0019C0 17.0707 4.9042 22.0038 10.9291 22.0038C13.6708 22.0038 16.1793 20.9778 18.1012 19.2931L16.7435 18.0021L15.3745 16.6997C14.1485 17.6689 12.6027 18.2519 10.9254 18.2519C6.95388 18.2519 3.72328 14.9998 3.72328 11.0019C3.72328 7.00396 6.95765 3.75185 10.9291 3.75185C14.9006 3.75185 18.0335 6.9131 18.1237 10.8315V19.2666C20.4103 17.2487 21.8545 14.2919 21.8545 11.0019C21.8583 4.93306 16.9541 0 10.9291 0Z" fill="url(#paint0_angular_215_1597)"/>
<path d="M13.2824 9.48254C14.1207 10.7496 13.7743 12.4533 12.5082 13.2922C11.2421 14.1312 9.53967 13.7845 8.70131 12.5175C7.86294 11.2504 8.20941 9.54675 9.47551 8.70775C10.7416 7.86876 12.444 8.21549 13.2824 9.48254Z" fill="url(#paint1_angular_215_1597)"/>
<path d="M66.1615 12.8456C64.8114 16.6846 60.9038 18.7933 56.5073 16.8209C56.5073 17.5099 56.5261 18.1384 56.5036 18.7668C56.4773 19.4824 56.229 20.0843 55.5333 20.4061C54.5291 20.868 53.2767 20.2471 53.2617 19.1303C53.2166 16.0372 53.1037 12.9251 53.382 9.85097C53.619 7.21975 55.3452 5.46687 57.8537 4.67183C60.3397 3.88436 62.5699 4.4901 64.4278 6.31492C66.7445 8.59404 69.0085 10.9224 71.3064 13.2167C72.7694 14.6742 74.8229 14.6553 76.1505 13.2091C77.29 11.9673 77.3051 10.0441 76.1881 8.79091C75.0523 7.51884 73.1831 7.30304 71.8254 8.29874C71.6111 8.45775 71.4193 8.65083 71.2011 8.80606C70.4226 9.36637 69.5426 9.28687 68.9596 8.61676C68.4143 7.99208 68.4331 6.96988 69.0687 6.34899C70.9266 4.53175 73.1267 3.88814 75.6277 4.66426C78.1475 5.44794 79.7158 7.19704 80.1784 9.80554C80.7087 12.804 79.3059 15.545 76.6958 16.8852C74.1083 18.2141 71.1297 17.6916 68.9521 15.5374C68.042 14.6364 67.1093 13.7618 66.1578 12.8456H66.1615ZM56.5337 10.8732C56.4735 12.7699 57.9214 14.3032 59.7944 14.3259C61.5319 14.3486 63.0325 12.8381 63.0739 11.0246C63.1152 9.26415 61.7087 7.7725 59.9448 7.70057C58.0568 7.62485 56.5976 8.98399 56.5337 10.8732Z" fill="#323639"/>
<path d="M86.1695 4.35004C87.452 4.35004 88.7344 4.34246 90.0169 4.35004C91.1715 4.36139 91.9011 4.99364 91.9274 5.98177C91.95 6.93961 91.1978 7.63622 90.0771 7.68165C89.622 7.70058 89.1632 7.72708 88.7156 7.68165C87.9522 7.60214 87.7604 7.95045 87.7716 8.6622C87.8055 10.8429 87.7867 13.0198 87.7792 15.2005C87.7792 15.5753 87.7566 15.9577 87.6851 16.3211C87.5347 17.0783 86.8991 17.5743 86.1394 17.5894C85.4286 17.6008 84.7667 17.1389 84.5824 16.4347C84.4884 16.075 84.4733 15.6927 84.4696 15.3179C84.4583 13.1107 84.4244 10.9035 84.4846 8.70006C84.5072 7.84823 84.1913 7.6135 83.4165 7.67786C82.8862 7.71951 82.3447 7.70058 81.8182 7.63243C80.8892 7.51507 80.2574 6.78817 80.295 5.95527C80.3326 5.08829 81.0509 4.37654 82.0024 4.35761C83.3902 4.32732 84.7817 4.35004 86.1733 4.35004H86.1695Z" fill="#323639"/>
<path d="M51.81 2.97574C51.8062 2.08605 51.1293 1.5068 50.3245 1.45001C49.2865 1.37429 48.6133 2.00276 48.538 3.16882C48.4967 3.79728 48.5305 4.43332 48.5305 5.164C48.1883 5.04285 48.0153 4.98985 47.8498 4.9217C45.1683 3.86543 42.7688 4.33867 40.6439 6.26949C40.4897 6.40957 40.3431 6.55343 40.2001 6.70487C39.6172 7.31062 39.1997 8.05645 38.9929 8.87421C38.0376 7.95423 37.1388 7.11375 36.27 6.24299C34.3444 4.3046 32.0729 3.5777 29.4553 4.4106C26.8076 5.25486 25.3296 7.19704 24.8745 9.91912C24.3405 13.0879 26.8452 16.5748 30.0157 17.1805C32.2158 17.6045 34.1526 17.0972 35.8187 15.6056C36.71 14.8105 36.8341 13.7921 36.1722 13.0577C35.499 12.308 34.6453 12.3232 33.6825 13.0955C32.291 14.2199 30.9258 14.3486 29.6283 13.4779C27.9923 12.3838 27.635 10.2106 28.8423 8.67355C30.057 7.12511 32.2383 6.93581 33.66 8.31389C35.6043 10.1993 37.5073 12.1339 39.4216 14.0496V14.0382C40.6815 16.4271 43.2653 17.8998 45.8152 17.6083C48.9066 17.2525 51.3926 15.0793 51.6671 11.9976C51.9341 9.00671 51.8175 5.97797 51.8025 2.96817L51.81 2.97574ZM45.2209 14.4433C43.4007 14.4433 41.9264 12.9592 41.9264 11.1268C41.9264 9.29444 43.4007 7.81036 45.2209 7.81036C47.0412 7.81036 48.5155 9.29444 48.5155 11.1268C48.5155 12.9592 47.0412 14.4433 45.2209 14.4433Z" fill="#323639"/>
</g>
<defs>
<radialGradient id="paint0_angular_215_1597" cx="0" cy="0" r="1" gradientUnits="userSpaceOnUse" gradientTransform="translate(13.5 13.5) rotate(-146.768) scale(17.3349 36.2525)">
<stop stop-color="#3182F7"/>
<stop offset="0.162692" stop-color="#F23A47"/>
<stop offset="0.469054" stop-color="#ED3180"/>
<stop offset="0.802083" stop-color="#883BE0"/>
</radialGradient>
<radialGradient id="paint1_angular_215_1597" cx="0" cy="0" r="1" gradientUnits="userSpaceOnUse" gradientTransform="translate(7.5 12) rotate(-111.801) scale(8.07775 16.8269)">
<stop offset="0.162692" stop-color="#F23A47"/>
<stop offset="0.469054" stop-color="#ED3180"/>
<stop offset="0.802083" stop-color="#883BE0"/>
<stop offset="0.999768" stop-color="#3182F7"/>
</radialGradient>
<clipPath id="clip0_215_1597">
<rect width="91.9312" height="22" fill="white"/>
</clipPath>
</defs>
</svg>
