<svg width="19" height="20" viewBox="0 0 19 20" fill="none" xmlns="http://www.w3.org/2000/svg">
<path d="M17.2299 8.74989H4.12994L9.39994 3.09989C9.86994 2.59989 9.83994 1.79989 9.33994 1.32989C8.83994 0.859894 8.03994 0.889894 7.56994 1.38989L0.339941 9.14989C-0.110059 9.62989 -0.110059 10.3799 0.339941 10.8599L7.56994 18.6099C7.81994 18.8699 8.14994 19.0099 8.47994 19.0099C8.78994 19.0099 9.08994 18.8999 9.32994 18.6699C9.82994 18.1999 9.85994 17.4099 9.38994 16.8999L4.11994 11.2499H17.2199C17.9099 11.2499 18.4699 10.6899 18.4699 9.99989C18.4699 9.30989 17.9099 8.74989 17.2199 8.74989H17.2299Z" fill="#333337"/>
</svg>
