<svg width="13" height="13" viewBox="0 0 13 13" fill="none" xmlns="http://www.w3.org/2000/svg">
<path d="M12.1 0.4C11.8467 0.146667 11.5133 0 11.1267 0C10.9533 0 10.7933 0.0266667 10.6333 0.0933334L1.40668 3.41333C1.31334 3.44 1.07334 3.52 0.860008 3.74667C0.393342 4.25333 0.366675 5.17333 0.860008 5.66667C1.07334 5.88 1.31334 5.97333 1.39334 6L4.40667 7.06667L5.15334 7.34667L5.43334 8.10667L6.50001 11.12C6.52667 11.2 6.62001 11.44 6.83334 11.6533C7.32667 12.1467 8.24667 12.12 8.75334 11.6533C8.98001 11.44 9.06001 11.2 9.08667 11.1067L12.4067 1.86667C12.46 1.72 12.5 1.54667 12.5 1.37333C12.5 1 12.34 0.653333 12.1 0.4Z" fill="#79797E"/>
</svg>
