<svg width="440" height="440" viewBox="0 0 440 440" fill="none" xmlns="http://www.w3.org/2000/svg">
<mask id="mask0_2_5734" style="mask-type:alpha" maskUnits="userSpaceOnUse" x="0" y="0" width="440" height="440">
<path d="M440 0H0V440H440V0Z" fill="url(#paint0_linear_2_5734)"/>
</mask>
<g mask="url(#mask0_2_5734)">
<path d="M440 0H0.000366211V440H440V0Z" fill="url(#paint1_linear_2_5734)"/>
<path d="M88.4104 72.24C99.7212 72.24 108.89 63.0708 108.89 51.76C108.89 40.4492 99.7212 31.28 88.4104 31.28C77.0996 31.28 67.9304 40.4492 67.9304 51.76C67.9304 63.0708 77.0996 72.24 88.4104 72.24Z" fill="#E4E42C"/>
<path d="M396.82 196.84C344.69 189.71 238.79 163.74 179.85 143.76C120.9 123.78 86.9404 113.79 78.9404 111.79C70.9504 109.79 61.9604 104.8 36.9804 111.79C12.0004 118.78 -28.9596 138.77 -61.9296 156.75C-94.8996 174.73 -147.85 205.7 -185.82 227.68C-223.78 249.66 -258.75 268.64 -294.72 280.63C-330.69 292.62 -377.64 306.61 -402.62 310.6L-412.61 452.47L42.9704 445.48L372.67 303.61L396.82 196.84Z" fill="url(#paint2_linear_2_5734)"/>
<path d="M88.9304 159.74C84.9304 156.74 70.9504 152.75 64.9504 150.75C58.9604 148.75 43.9704 142.76 43.9704 137.76C43.9704 132.76 49.9604 131.77 61.4504 126.77C72.9404 121.77 69.9404 118.78 69.9404 115.78C69.9404 113.9 68.3704 111.55 63.9904 108.38C57.6604 107.8 49.2504 108.34 36.9704 111.78C11.9904 118.77 -28.9696 138.76 -61.9396 156.74C-94.9096 174.72 -147.86 205.69 -185.83 227.67C-223.8 249.65 -258.76 268.63 -294.73 280.62C-330.7 292.61 -377.65 306.6 -402.63 310.59L-406.02 358.69C-393.52 357.2 -376.41 354.83 -361.67 351.55C-334.69 345.56 -315.71 332.57 -287.74 314.58C-259.77 296.6 -208.81 270.62 -180.84 257.63C-152.87 244.64 -69.9396 215.67 -38.9696 206.18C-7.9996 196.69 54.9404 182.7 73.9304 176.71C92.9104 170.72 92.9104 162.72 88.9204 159.73L88.9304 159.74Z" fill="url(#paint3_linear_2_5734)"/>
<path d="M-38.9496 206.19C-7.97958 196.7 54.9604 182.71 73.9504 176.72C92.9304 170.73 92.9304 162.73 88.9404 159.74C84.9404 156.74 70.9604 152.75 64.9604 150.75C58.9704 148.75 43.9804 142.76 43.9804 137.76L-74.8796 217.99C-60.3896 213.05 -47.6196 208.86 -38.9396 206.2L-38.9496 206.19Z" fill="url(#paint4_linear_2_5734)"/>
<path d="M330.89 89.7399C322.04 86.5799 318.24 88.4799 314.45 89.7399C310.66 90.9999 281.56 100.49 229.07 127.06C215.19 134.08 200.79 141.77 186.41 149.69L180.5 214.75L296.43 240.9L652.83 499.73V294.02C652.83 294.02 410.59 140.96 399.84 134.01C389.09 127.05 339.76 92.8999 330.9 89.7399H330.89Z" fill="url(#paint5_linear_2_5734)"/>
<path d="M330.89 89.7399C322.04 86.5799 318.24 88.4799 314.45 89.7399C310.66 90.9999 281.56 100.49 229.07 127.06C215.19 134.08 200.79 141.77 186.41 149.69L180.5 214.75L296.43 240.9L652.83 499.73V294.02C652.83 294.02 410.59 140.96 399.84 134.01C389.09 127.05 339.76 92.8999 330.9 89.7399H330.89Z" fill="url(#paint6_linear_2_5734)"/>
<path d="M409.77 140.34C410.6 140.86 411.47 141.42 412.38 142C411.47 141.42 410.59 140.87 409.77 140.34Z" fill="url(#paint7_linear_2_5734)"/>
<path d="M424.59 149.74C425.43 150.27 426.29 150.81 427.16 151.37C426.28 150.81 425.43 150.27 424.59 149.74Z" fill="url(#paint8_linear_2_5734)"/>
<path d="M416.18 144.41C416.89 144.86 417.61 145.32 418.36 145.79C417.61 145.32 416.89 144.86 416.18 144.41Z" fill="url(#paint9_linear_2_5734)"/>
<path d="M405.97 137.93C406.23 138.1 406.5 138.26 406.77 138.44C406.5 138.27 406.23 138.1 405.97 137.93Z" fill="url(#paint10_linear_2_5734)"/>
<path d="M409.77 140.34C409.2 139.98 408.65 139.63 408.12 139.29C408.65 139.63 409.19 139.97 409.77 140.34Z" fill="url(#paint11_linear_2_5734)"/>
<path d="M366.86 111.93C367.35 112.26 367.84 112.58 368.34 112.91C367.85 112.58 367.36 112.26 366.86 111.93Z" fill="url(#paint12_linear_2_5734)"/>
<path d="M274.82 105.36C277.08 104.37 279.25 103.43 281.32 102.55C279.25 103.43 277.08 104.37 274.82 105.36Z" fill="url(#paint13_linear_2_5734)"/>
<path d="M197.33 143.72C198.91 142.86 200.49 142.01 202.06 141.17C200.48 142.02 198.91 142.87 197.33 143.72Z" fill="url(#paint14_linear_2_5734)"/>
<path d="M218.78 132.33C220.01 131.69 221.24 131.06 222.47 130.43C221.24 131.06 220.02 131.69 218.78 132.33Z" fill="url(#paint15_linear_2_5734)"/>
<path d="M202.78 140.78C204.24 140 205.69 139.22 207.14 138.45C205.69 139.22 204.23 140 202.78 140.78Z" fill="url(#paint16_linear_2_5734)"/>
<path d="M213.51 135.08C214.77 134.42 216.03 133.76 217.29 133.1C216.03 133.76 214.77 134.41 213.51 135.08Z" fill="url(#paint17_linear_2_5734)"/>
<path d="M208.19 137.89C209.54 137.17 210.89 136.46 212.23 135.75C210.88 136.46 209.54 137.17 208.19 137.89Z" fill="url(#paint18_linear_2_5734)"/>
<path d="M652.81 294.03V499.74L296.42 240.9L180.49 214.75L186.4 149.69C146.39 171.75 106.61 195.69 79.1604 212.44C41.8404 235.21 4.5304 252.92 -18.2396 265.57C-41.0096 278.22 -67.5696 286.44 -122.6 308.58C-177.62 330.72 -307.28 378.15 -366.1 390.17C-403.42 398.39 -540.03 419.26 -592.52 427.49L-631.1 500.22H652.81V294.04V294.03Z" fill="url(#paint19_linear_2_5734)"/>
<path d="M191.87 146.69C193.55 145.77 195.24 144.85 196.92 143.94C195.24 144.85 193.55 145.77 191.87 146.69Z" fill="url(#paint20_linear_2_5734)"/>
<path d="M186.42 149.68C188.18 148.71 189.93 147.75 191.69 146.79C189.93 147.75 188.18 148.71 186.42 149.68Z" fill="url(#paint21_linear_2_5734)"/>
<path d="M281.32 102.54C288.58 99.4401 294.67 96.9901 299.6 95.1001C294.68 97.0001 288.58 99.4501 281.32 102.54Z" fill="url(#paint22_linear_2_5734)"/>
<path d="M267.76 108.5C270.21 107.4 272.56 106.35 274.83 105.36C272.57 106.35 270.21 107.4 267.76 108.5Z" fill="url(#paint23_linear_2_5734)"/>
<path d="M357.23 105.57C357.59 105.8 357.94 106.04 358.3 106.27C357.94 106.03 357.58 105.8 357.23 105.57Z" fill="url(#paint24_linear_2_5734)"/>
<path d="M256.11 113.86C260.2 111.94 264.09 110.16 267.76 108.5C264.09 110.16 260.2 111.94 256.11 113.86Z" fill="url(#paint25_linear_2_5734)"/>
<path d="M303.53 93.6101C304.74 93.1601 305.86 92.7401 306.88 92.3701C305.86 92.7401 304.74 93.1501 303.53 93.6101Z" fill="url(#paint26_linear_2_5734)"/>
<path d="M306.88 92.37C308.41 91.81 309.72 91.35 310.82 90.97C309.73 91.35 308.42 91.81 306.88 92.37Z" fill="url(#paint27_linear_2_5734)"/>
<path d="M223.96 129.66C225.57 128.84 227.17 128.02 228.76 127.21C227.17 128.02 225.57 128.83 223.96 129.66Z" fill="url(#paint28_linear_2_5734)"/>
<path d="M299.6 95.1001C301.01 94.5601 302.32 94.0601 303.53 93.6101C302.32 94.0601 301.01 94.5601 299.6 95.1001Z" fill="url(#paint29_linear_2_5734)"/>
<path d="M399.82 134.02C410.57 140.98 652.81 294.03 652.81 294.03L399.82 134.02Z" fill="url(#paint30_linear_2_5734)"/>
<path d="M322.57 88.01C318.77 87.96 316.77 88.96 314.44 89.74C310.65 91 281.55 100.49 229.06 127.06C176.57 153.62 116.48 189.67 79.1604 212.44C41.8404 235.21 4.5304 252.92 -18.2396 265.57C-41.0096 278.22 -67.5696 286.44 -122.6 308.58C-177.62 330.72 -307.28 378.15 -366.1 390.17C-403.42 398.39 -540.03 419.26 -592.52 427.49L-631.1 500.22H-168.77C-123.23 500.22 -32.7896 478.72 -9.38959 469.86C14.0104 461.01 56.3904 431.28 71.5704 419.26C86.7504 407.24 122.8 374.99 137.35 361.07C151.9 347.16 196.91 313 215.78 302.25C234.65 291.5 271.87 271.65 283.41 265.58C295.72 259.1 302.51 255.09 302.82 249.93C302.97 247.4 302.12 243.81 296.42 240.9C291.63 238.46 277.03 233.35 265.11 226.35C254.35 220.03 246.18 206.99 247.4 194.09C248.23 185.33 254.29 175.06 264.16 166.27C282.4 149.63 343.34 92.35 322.57 88V88.01Z" fill="url(#paint31_linear_2_5734)"/>
<g clip-path="url(#clip0_2_5734)">
<path d="M112.974 256.362C112.93 255.355 114.031 255.3 115.059 254.914L114.979 254.869L115.184 254.768L115.262 254.827C115.313 254.801 115.357 254.775 115.396 254.747L115.282 254.682L115.404 254.547L115.516 254.616C115.578 254.495 116.016 253.021 116.032 252.97C116.056 252.984 116.151 252.964 116.282 252.982C115.25 249.855 112.486 242.558 112.486 241.565C112.486 239.311 117.974 241.053 121.533 241.988C123.892 242.606 124.833 242.298 124.833 242.298L128.541 244.989L118.107 245.27C118.148 245.901 117.938 251.336 118.697 254.169C118.793 254.02 118.935 253.882 119.14 253.865L119.438 254.213L118.856 254.5C119.052 254.78 119.173 255.929 119.099 256.64H119.101C119.088 256.753 119.053 256.994 118.976 257.124V257.129H118.971C118.775 257.446 117.415 257.163 117.382 257.163L115.827 257.615C115.793 257.608 113.103 257.004 113.137 257.012L112.993 256.979C112.993 256.979 112.891 256.73 112.972 256.361H112.973L112.974 256.362Z" fill="#080F33"/>
<path d="M127.523 230.222L126.659 228.641C126.659 228.641 125.275 230.123 123.843 232.888C122.409 235.655 122.262 237.936 121.372 237.936C120.482 237.936 115.632 239.904 115.632 239.904C115.632 239.904 117.472 240.462 117.222 241.31C116.973 242.158 122.226 240.462 123.758 240.462C125.289 240.462 127.523 230.222 127.523 230.222V230.222Z" fill="#951E07"/>
<path d="M130.084 243.902H136.842C136.868 243.902 141.422 245.768 141.62 246.459C141.817 247.15 143.687 248.776 143.455 250.883C143.225 252.989 143.44 255.591 138.095 256.282C132.752 256.973 120.071 256.809 119.215 256.612C118.359 256.415 117.272 253.22 117.502 251.162C117.733 249.104 118.359 249.302 119.083 248.083C119.808 246.866 120.401 245.712 121.125 245.318C121.85 244.922 130.084 243.902 130.084 243.902Z" fill="#C2CEBC"/>
<path d="M135.782 247.722C135.782 247.722 140.22 252.758 138.986 256.14C138.986 256.14 141.073 256.719 142.714 254.533C144.354 252.348 146.021 245.992 136.842 243.902L135.781 247.722H135.782Z" fill="#C2CEBC"/>
<path d="M112.981 246.773L125.75 243.145C125.75 243.145 127.395 243.878 128.006 244.441C128.619 245.003 131.215 247.91 130.353 248.283C129.491 248.656 116.46 249.253 116.46 249.253C116.46 249.253 111.08 254.918 108.343 256.664C105.608 258.41 104.402 258.708 104.402 258.708L103.474 257.601L112.98 246.773L112.981 246.773Z" fill="#080F33"/>
<path d="M126.659 228.641C126.659 228.641 123.905 238.185 123.905 239.408C123.905 240.631 120.933 241.581 120.933 241.581C120.933 241.581 128.672 247.789 130.352 248.283C130.352 248.283 133.655 244.59 132.34 239.606C130.934 234.276 133.228 230.913 132.809 229.579C132.389 228.245 128.907 226.394 126.658 228.641H126.659Z" fill="#C44127"/>
<path d="M125.347 240.44C125.685 237.831 127.097 230.776 127.676 227.921C127.796 227.865 127.918 227.815 128.041 227.773C127.492 230.474 126.017 237.817 125.673 240.482C125.483 241.95 124.439 242.866 123.295 243.435C123.193 243.356 123.093 243.278 122.995 243.202C124.121 242.674 125.169 241.818 125.347 240.44L125.347 240.44Z" fill="#4A1004"/>
<path d="M131.105 253.78L137.008 252.595C137.008 252.595 138.095 253.583 138.095 255.385C138.095 257.187 137.997 257.756 137.33 258.028C136.663 258.299 127.523 257.756 127.523 257.756L131.105 253.78V253.78Z" fill="#080F33"/>
<path d="M135.255 255.114L137.503 254.891C137.503 254.891 138.034 255.916 137.503 256.448H134.736L135.255 255.114V255.114Z" fill="#C44127"/>
<path d="M137.008 252.595C137.008 252.595 136.292 255.46 137.503 256.447H132.957V252.965L137.008 252.595Z" fill="#951E07"/>
<path d="M136.366 251.162C136.366 251.162 135.329 256.644 137.33 258.028C137.33 258.028 135.723 258.348 134.464 258.348C133.205 258.348 131.796 258.62 130.858 258.62C129.92 258.62 128.857 258.104 128.857 258.104C128.857 258.104 126.213 258.694 125.324 258.348C124.435 258.002 121.001 258.496 121.001 258.496C121.001 258.496 119.371 254.916 120.285 252.595C120.285 252.595 128.976 251.342 131.895 251.162C133.011 251.093 136.366 251.162 136.366 251.162H136.366Z" fill="#C44127"/>
<path d="M131.41 258.475L133.784 251.046L133.279 251.018L130.659 258.529L131.41 258.475Z" fill="#080F33"/>
<path d="M132.623 258.475L133.321 258.397C131.945 257.02 131.238 251.194 131.232 251.132L130.47 251.214C130.5 251.472 131.165 257.019 132.623 258.475Z" fill="#080F33"/>
<path d="M127.442 258.412L128.22 258.282C127.74 257.802 127.633 253.888 127.767 251.514L127.185 251.631C127.149 252.274 126.7 257.67 127.442 258.412Z" fill="#080F33"/>
<path d="M122.23 258.368L122.823 258.293C122.625 257.605 124.289 254.127 125.415 251.821L124.703 251.918C124.411 252.517 121.935 257.339 122.23 258.368V258.368Z" fill="#080F33"/>
<path d="M125.465 258.412L125.983 258.475C125.983 257.602 123.907 252.314 123.812 252.072L123.052 252.163C123.703 253.805 125.465 257.737 125.465 258.412H125.465Z" fill="#080F33"/>
<path d="M132.399 222.213C132.399 222.213 131.098 223.08 130.472 224.387C129.847 225.693 125.144 228.242 125.144 228.242C125.144 228.242 127.883 228.937 127.957 229.011C128.03 229.086 133.269 226.75 133.269 226.75L132.399 222.213L132.399 222.213Z" fill="#951E07"/>
<path d="M128.454 228.964C128.401 228.579 128.281 228.226 128.201 227.651C128.087 226.83 127.959 226.22 127.959 226.22L129.883 225.331C129.883 225.331 130.189 226.659 130.415 227.713C130.563 228.406 128.49 229.217 128.454 228.964H128.454Z" fill="#FAB4AD"/>
<path d="M125.209 222.437C125.209 222.437 126.9 224.207 127.544 224.385C128.187 224.563 129.611 224.799 129.611 224.799C129.611 224.799 130.376 227.464 130.464 228.054C130.464 228.054 132.928 227.477 131.492 223.293C130.944 221.699 130.677 220.679 128.967 220.131C127.257 219.585 125.601 220.815 125.208 222.437L125.209 222.437Z" fill="#080F33"/>
<path d="M126.392 221.79C126.392 221.79 125.355 222.257 125.331 223.099C125.308 223.941 125.546 224.338 125.535 224.744C125.523 225.151 125.641 225.895 126.228 227.003C126.815 228.111 128.377 227.304 129.229 226.389C130.188 225.36 130.258 225.066 130.113 223.566C129.968 222.064 128.045 220.995 126.392 221.79V221.79Z" fill="#FAB4AD"/>
<path d="M125.297 221.11C125.297 221.11 124.46 221.329 124.642 222.147C124.824 222.963 126.957 223.771 128.339 223.473C128.857 223.36 128.876 223.675 129.096 223.86C129.461 224.17 129.785 224.562 129.53 225.238C129.122 226.319 128.628 225.812 128.628 225.812C128.628 225.812 129.081 226.406 130.28 225.958C131.478 225.512 131.511 223.673 130.531 222.686C129.551 221.699 128.579 221.279 127.802 221.085C126.115 220.662 125.297 221.109 125.297 221.109V221.11Z" fill="#080F33"/>
<path d="M129.537 223.582C129.395 223.595 128.807 224.073 129.004 224.506C129.2 224.941 129.363 224.961 129.746 224.721C130.128 224.482 129.897 223.547 129.537 223.582Z" fill="#FAB4AD"/>
<path d="M125.144 228.242C125.144 228.242 129.809 227.301 130.984 226.126C132.364 224.747 132.399 222.213 132.399 222.213C132.399 222.213 133.294 222.261 133.807 222.776C134.322 223.29 136.502 225.964 131.728 228.445C130.063 229.309 127.216 230.716 127.216 230.716L125.144 228.242V228.242Z" fill="#C44127"/>
<path d="M103.526 255.699C103.526 255.699 103.11 257.094 102.955 257.547C102.8 258.001 101.239 258.129 100.455 258.66C99.6719 259.19 100.223 260.311 100.223 260.311L103.255 260.951L105.066 260.483C105.066 260.483 106.358 260.748 106.801 260.53C107.245 260.311 107.036 257.499 106.671 257.374C106.305 257.25 104.846 256.85 104.548 256.243C104.249 255.635 103.526 255.699 103.526 255.699H103.526Z" fill="#C44127"/>
<path d="M102.917 258.153C103.892 257.674 104.106 256.948 104.492 256.649C104.783 256.425 105.35 257.266 106.672 257.373C106.172 257.17 105.503 256.781 105.14 256.529C104.989 256.454 104.826 256.216 104.486 256.311C104.155 256.406 103.866 256.952 103.668 257.267C103.457 257.583 103.204 257.879 102.917 258.154V258.153Z" fill="#080F33"/>
<path d="M102.811 257.498L103.733 258.072L103.645 258.217L102.67 257.652L102.811 257.498Z" fill="#ECF7E7"/>
<path d="M102.559 257.75L103.364 258.355L103.258 258.407L102.325 257.865L102.559 257.75Z" fill="#ECF7E7"/>
<path d="M104.866 259.927C104.647 259.852 103.592 260.404 103.16 260.529C102.849 260.619 100.987 259.861 100.036 259.569C99.9421 259.989 100.06 260.275 100.06 260.275L103.293 261L105.066 260.483C105.066 260.483 106.358 260.748 106.801 260.529C106.922 260.47 106.993 260.221 107.028 259.888C106.173 259.824 105.009 259.975 104.865 259.927L104.866 259.927Z" fill="#080F33"/>
<path d="M133.843 245.3C133.843 245.3 133.165 245.577 132.538 245.832C131.897 246.093 131.379 246.589 131.095 247.222C130.878 247.702 130.645 248.233 130.544 248.508C130.329 249.086 130.662 250.106 130.756 250.03C130.85 249.953 130.882 248.971 130.9 248.793C130.918 248.615 131.097 248.461 131.097 248.461C131.097 248.461 130.931 250.742 131.118 250.762C131.305 250.781 131.572 248.271 131.767 248.291C131.961 248.311 131.29 250.762 131.647 250.799C132.002 250.836 132.303 248.32 132.383 248.418C132.463 248.517 132.288 249.973 132.433 249.989C132.577 250.004 133.387 248.046 133.504 247.608C133.622 247.169 134.156 246.091 134.156 246.091L133.843 245.301V245.3Z" fill="#FAB4AD"/>
<path d="M131.868 228.37C131.868 228.37 130.802 230.553 130.802 232.677C130.802 234.801 133.047 236.173 133.163 238.041C133.279 239.908 131.877 245.946 131.877 245.946C131.877 245.946 133.576 246.937 134.096 247.381C134.096 247.381 136.548 240.593 136.548 237.135C136.548 233.678 135.135 229.222 131.868 228.369V228.37Z" fill="#C44127"/>
<path d="M117.5 240.132C117.5 240.132 118.146 241.117 117.956 242.031C117.766 242.945 117.182 240.69 117.067 241.029C116.953 241.369 116.907 242.787 116.599 242.579C116.29 242.371 116.429 240.832 116.262 240.915C116.096 240.997 116.138 242.539 115.792 242.313C115.447 242.087 115.532 241.021 115.352 241.013C115.173 241.004 115.35 242.222 115.063 241.873C114.777 241.523 114.404 240.953 114.494 240.684C114.584 240.414 114.901 240.105 115.261 240.044C115.62 239.983 115.656 239.721 116.437 239.88C117.218 240.038 117.499 240.132 117.499 240.132L117.5 240.132Z" fill="#FAB4AD"/>
</g>
</g>
<defs>
<linearGradient id="paint0_linear_2_5734" x1="2.62001" y1="14.12" x2="428.33" y2="417.31" gradientUnits="userSpaceOnUse">
<stop stop-color="#416BD1"/>
<stop offset="1" stop-color="#416BD0"/>
</linearGradient>
<linearGradient id="paint1_linear_2_5734" x1="2.62037" y1="14.12" x2="428.33" y2="417.31" gradientUnits="userSpaceOnUse">
<stop stop-color="#3A79BE"/>
<stop offset="1" stop-color="#3273BA"/>
</linearGradient>
<linearGradient id="paint2_linear_2_5734" x1="146.92" y1="193.66" x2="-166.54" y2="413.3" gradientUnits="userSpaceOnUse">
<stop stop-color="#7EAE7E"/>
<stop offset="1" stop-color="#6EA46E"/>
</linearGradient>
<linearGradient id="paint3_linear_2_5734" x1="11.0304" y1="143.86" x2="-293.91" y2="318.72" gradientUnits="userSpaceOnUse">
<stop offset="0.18" stop-color="#3D6D3D"/>
<stop offset="0.36" stop-color="#538852"/>
<stop offset="1" stop-color="#3D6D3D"/>
</linearGradient>
<linearGradient id="paint4_linear_2_5734" x1="177.18" y1="92.35" x2="-57.3896" y2="222.43" gradientUnits="userSpaceOnUse">
<stop offset="0.18" stop-color="#325431"/>
<stop offset="1" stop-color="#3F6140"/>
</linearGradient>
<linearGradient id="paint5_linear_2_5734" x1="415.18" y1="401.99" x2="422.34" y2="183.74" gradientUnits="userSpaceOnUse">
<stop offset="0.18" stop-color="#462517"/>
<stop offset="1" stop-color="#763C27"/>
</linearGradient>
<linearGradient id="paint6_linear_2_5734" x1="415.18" y1="401.99" x2="422.34" y2="183.74" gradientUnits="userSpaceOnUse">
<stop offset="0.05" stop-color="#2D402D"/>
<stop offset="0.78" stop-color="#385738"/>
<stop offset="1" stop-color="#3E653E"/>
</linearGradient>
<linearGradient id="paint7_linear_2_5734" x1="411.06" y1="141.16" x2="411.56" y2="141.67" gradientUnits="userSpaceOnUse">
<stop offset="0.18" stop-color="#7D4028"/>
<stop offset="1" stop-color="#763C27"/>
</linearGradient>
<linearGradient id="paint8_linear_2_5734" x1="425.87" y1="150.54" x2="426.36" y2="151.04" gradientUnits="userSpaceOnUse">
<stop offset="0.18" stop-color="#7D4028"/>
<stop offset="1" stop-color="#763C27"/>
</linearGradient>
<linearGradient id="paint9_linear_2_5734" x1="417.27" y1="145.09" x2="417.68" y2="145.52" gradientUnits="userSpaceOnUse">
<stop offset="0.18" stop-color="#7D4028"/>
<stop offset="1" stop-color="#763C27"/>
</linearGradient>
<linearGradient id="paint10_linear_2_5734" x1="406.37" y1="138.18" x2="406.52" y2="138.34" gradientUnits="userSpaceOnUse">
<stop offset="0.18" stop-color="#7D4028"/>
<stop offset="1" stop-color="#763C27"/>
</linearGradient>
<linearGradient id="paint11_linear_2_5734" x1="408.94" y1="139.81" x2="409.25" y2="140.13" gradientUnits="userSpaceOnUse">
<stop offset="0.18" stop-color="#7D4028"/>
<stop offset="1" stop-color="#763C27"/>
</linearGradient>
<linearGradient id="paint12_linear_2_5734" x1="367.59" y1="112.42" x2="367.88" y2="112.71" gradientUnits="userSpaceOnUse">
<stop offset="0.18" stop-color="#7D4028"/>
<stop offset="1" stop-color="#763C27"/>
</linearGradient>
<linearGradient id="paint13_linear_2_5734" x1="278.06" y1="103.94" x2="278.48" y2="104.37" gradientUnits="userSpaceOnUse">
<stop offset="0.18" stop-color="#7D4028"/>
<stop offset="1" stop-color="#763C27"/>
</linearGradient>
<linearGradient id="paint14_linear_2_5734" x1="199.69" y1="142.44" x2="199.93" y2="142.69" gradientUnits="userSpaceOnUse">
<stop offset="0.18" stop-color="#7D4028"/>
<stop offset="1" stop-color="#763C27"/>
</linearGradient>
<linearGradient id="paint15_linear_2_5734" x1="220.62" y1="131.38" x2="220.82" y2="131.58" gradientUnits="userSpaceOnUse">
<stop offset="0.18" stop-color="#7D4028"/>
<stop offset="1" stop-color="#763C27"/>
</linearGradient>
<linearGradient id="paint16_linear_2_5734" x1="204.96" y1="139.61" x2="205.18" y2="139.84" gradientUnits="userSpaceOnUse">
<stop offset="0.18" stop-color="#7D4028"/>
<stop offset="1" stop-color="#763C27"/>
</linearGradient>
<linearGradient id="paint17_linear_2_5734" x1="215.39" y1="134.09" x2="215.6" y2="134.3" gradientUnits="userSpaceOnUse">
<stop offset="0.18" stop-color="#7D4028"/>
<stop offset="1" stop-color="#763C27"/>
</linearGradient>
<linearGradient id="paint18_linear_2_5734" x1="210.2" y1="136.82" x2="210.42" y2="137.04" gradientUnits="userSpaceOnUse">
<stop offset="0.18" stop-color="#7D4028"/>
<stop offset="1" stop-color="#763C27"/>
</linearGradient>
<linearGradient id="paint19_linear_2_5734" x1="62.3404" y1="453.69" x2="199.17" y2="604.04" gradientUnits="userSpaceOnUse">
<stop stop-color="#497149"/>
<stop offset="0.52" stop-color="#385738"/>
<stop offset="1" stop-color="#315131"/>
</linearGradient>
<linearGradient id="paint20_linear_2_5734" x1="194.39" y1="145.31" x2="194.64" y2="145.58" gradientUnits="userSpaceOnUse">
<stop offset="0.18" stop-color="#7D4028"/>
<stop offset="1" stop-color="#763C27"/>
</linearGradient>
<linearGradient id="paint21_linear_2_5734" x1="189.05" y1="148.23" x2="189.31" y2="148.5" gradientUnits="userSpaceOnUse">
<stop offset="0.18" stop-color="#7D4028"/>
<stop offset="1" stop-color="#763C27"/>
</linearGradient>
<linearGradient id="paint22_linear_2_5734" x1="290.44" y1="98.8001" x2="291.67" y2="100.06" gradientUnits="userSpaceOnUse">
<stop offset="0.18" stop-color="#7D4028"/>
<stop offset="1" stop-color="#763C27"/>
</linearGradient>
<linearGradient id="paint23_linear_2_5734" x1="271.28" y1="106.92" x2="271.72" y2="107.37" gradientUnits="userSpaceOnUse">
<stop offset="0.18" stop-color="#7D4028"/>
<stop offset="1" stop-color="#763C27"/>
</linearGradient>
<linearGradient id="paint24_linear_2_5734" x1="357.77" y1="105.92" x2="357.97" y2="106.13" gradientUnits="userSpaceOnUse">
<stop offset="0.18" stop-color="#7D4028"/>
<stop offset="1" stop-color="#763C27"/>
</linearGradient>
<linearGradient id="paint25_linear_2_5734" x1="261.92" y1="111.17" x2="262.63" y2="111.89" gradientUnits="userSpaceOnUse">
<stop offset="0.18" stop-color="#7D4028"/>
<stop offset="1" stop-color="#763C27"/>
</linearGradient>
<linearGradient id="paint26_linear_2_5734" x1="305.2" y1="92.9801" x2="305.44" y2="93.2301" gradientUnits="userSpaceOnUse">
<stop offset="0.18" stop-color="#7D4028"/>
<stop offset="1" stop-color="#763C27"/>
</linearGradient>
<linearGradient id="paint27_linear_2_5734" x1="308.84" y1="91.67" x2="309.13" y2="91.96" gradientUnits="userSpaceOnUse">
<stop offset="0.18" stop-color="#7D4028"/>
<stop offset="1" stop-color="#763C27"/>
</linearGradient>
<linearGradient id="paint28_linear_2_5734" x1="226.36" y1="128.43" x2="226.62" y2="128.7" gradientUnits="userSpaceOnUse">
<stop offset="0.18" stop-color="#7D4028"/>
<stop offset="1" stop-color="#763C27"/>
</linearGradient>
<linearGradient id="paint29_linear_2_5734" x1="301.56" y1="94.3501" x2="301.84" y2="94.6301" gradientUnits="userSpaceOnUse">
<stop offset="0.18" stop-color="#7D4028"/>
<stop offset="1" stop-color="#763C27"/>
</linearGradient>
<linearGradient id="paint30_linear_2_5734" x1="524.95" y1="255.79" x2="527.66" y2="173.2" gradientUnits="userSpaceOnUse">
<stop offset="0.18" stop-color="#462517"/>
<stop offset="1" stop-color="#763C27"/>
</linearGradient>
<linearGradient id="paint31_linear_2_5734" x1="206.95" y1="198.4" x2="-316.24" y2="456.46" gradientUnits="userSpaceOnUse">
<stop offset="0.06" stop-color="#ECF8E7"/>
<stop offset="1" stop-color="#ECF4E8"/>
</linearGradient>
<clipPath id="clip0_2_5734">
<rect width="44" height="41" fill="white" transform="matrix(-1 0 0 1 144 220)"/>
</clipPath>
</defs>
</svg>
