<svg width="440" height="441" viewBox="0 0 440 441" fill="none" xmlns="http://www.w3.org/2000/svg">
<mask id="mask0_2_5498" style="mask-type:alpha" maskUnits="userSpaceOnUse" x="0" y="0" width="440" height="441">
<path d="M440 0.339844H0V440.34H440V0.339844Z" fill="#0E1A2E"/>
</mask>
<g mask="url(#mask0_2_5498)">
<path d="M440 0.339844H0V440.34H440V0.339844Z" fill="#0E1A2E"/>
<path d="M225.81 -35.6099H214.57V50.6001H225.81V-35.6099Z" fill="#F6FCEE"/>
<path d="M235.77 50.6001H204.62V77.9101H235.77V50.6001Z" fill="#F6FCEE"/>
<path d="M248.84 77.9102H191.55V113.79H248.84V77.9102Z" fill="#F6FCEE"/>
<path d="M261.42 113.78H178.96V165.72H261.42V113.78Z" fill="#F6FCEE"/>
<path d="M197.98 96.54H191.55V102.97H197.98V96.54Z" fill="#080F33"/>
<path d="M248.84 96.54H242.41V102.97H248.84V96.54Z" fill="#080F33"/>
<path d="M236.13 96.54H229.7V102.97H236.13V96.54Z" fill="#080F33"/>
<path d="M223.41 96.54H216.98V102.97H223.41V96.54Z" fill="#080F33"/>
<path d="M210.69 96.54H204.26V102.97H210.69V96.54Z" fill="#080F33"/>
<path d="M229.77 70.3599H223.34V76.7899H229.77V70.3599Z" fill="#080F33"/>
<path d="M217.05 70.3599H210.62V76.7899H217.05V70.3599Z" fill="#080F33"/>
<path d="M236.06 165.72H204.33V464.24H236.06V165.72Z" fill="#F6FCEE"/>
<path d="M204.26 273.69L235.6 165.72H204.26V273.69Z" fill="#9A412C"/>
<path d="M248.18 277.37H192.22V285.67H248.18V277.37Z" fill="#F6FCEE"/>
<path d="M244.03 285.67H196.37V295.31H244.03V285.67Z" fill="#9A412C"/>
<path d="M244.03 307.62H196.37V317.26H244.03V307.62Z" fill="#F6FCEE"/>
<path d="M239.34 295.3H201.05V307.62H239.34V295.3Z" fill="#F6FCEE"/>
<path d="M204.33 437.32L234.18 325.56L204.33 321.91V437.32Z" fill="#9A412C"/>
<path d="M248.18 317.26H192.22V325.56H248.18V317.26Z" fill="#F6FCEE"/>
<path d="M261.42 121.6H178.96V129.44H261.42V121.6Z" fill="#080F33"/>
<path d="M261.42 135.83H178.96V143.67H261.42V135.83Z" fill="#080F33"/>
<path d="M261.42 150.06H178.96V157.9H261.42V150.06Z" fill="#080F33"/>
<path d="M228.81 307.62L232.39 295.3H201.05V307.62H228.81Z" fill="#9A412C"/>
<g opacity="0.9">
<path opacity="0.9" d="M89.0203 41.09C89.0203 39.64 87.8503 38.47 86.4003 38.47C84.9503 38.47 83.7803 39.64 83.7803 41.09C83.7803 42.54 84.9503 43.71 86.4003 43.71C87.8503 43.71 89.0203 42.54 89.0203 41.09Z" fill="#E4E42C"/>
<path opacity="0.9" d="M80.9602 36.3701L32.8302 2.16016L30.4102 5.27016L80.0602 37.6302C80.3102 37.1802 80.6202 36.7601 80.9602 36.3701Z" fill="#E4E42C"/>
<path opacity="0.9" d="M79.7102 44.0601L34.3702 72.2901L37.1302 75.2301L80.6702 45.7001C80.2802 45.2001 79.9502 44.6601 79.7002 44.0701L79.7102 44.0601Z" fill="#E4E42C"/>
<path opacity="0.9" d="M92.5602 45.21L138.71 72.12L140.78 68.15L93.3102 43.73C93.1202 44.26 92.8702 44.76 92.5602 45.22V45.21Z" fill="#E4E42C"/>
<path opacity="0.9" d="M93.0702 38.1001L150.45 8.56007L147.53 5.83008L92.3102 36.8401C92.6002 37.2301 92.8502 37.6501 93.0602 38.1001H93.0702Z" fill="#E4E42C"/>
<path opacity="0.9" d="M83.3502 34.5701L56.2502 -12.6799L53.1002 -10.3399L82.1102 35.3001C82.5002 35.0101 82.9102 34.7701 83.3502 34.5601V34.5701Z" fill="#E4E42C"/>
<path opacity="0.9" d="M57.8002 35.5V38.21L79.1502 40.76C79.1802 40.23 79.2702 39.72 79.4002 39.23L57.7902 35.5H57.8002Z" fill="#E4E42C"/>
<path opacity="0.9" d="M35.8702 59.55L79.5802 43.7201C79.4202 43.2701 79.2902 42.8001 79.2202 42.3201L35.1702 56.0401L35.8702 59.55Z" fill="#E4E42C"/>
<path opacity="0.9" d="M10.7202 63.65L12.6202 67.97L32.0702 60.92L31.3302 57.23L10.7202 63.65Z" fill="#E4E42C"/>
<path opacity="0.9" d="M72.8102 68.3199L75.2002 69.1699L83.9002 48.0399C83.4402 47.8699 83.0002 47.6499 82.5902 47.3999L72.8102 68.3199Z" fill="#E4E42C"/>
<path opacity="0.9" d="M55.4502 105.45L59.7702 106.66L73.6802 72.88L71.1102 71.96L55.4502 105.45Z" fill="#E4E42C"/>
<path opacity="0.9" d="M80.9603 36.3701C81.2103 36.0901 81.4803 35.8201 81.7703 35.5801L64.8303 19.3301L62.8903 21.0101L80.9703 36.3801L80.9603 36.3701Z" fill="#E4E42C"/>
<path opacity="0.9" d="M61.9203 16.5399L52.6903 7.68994L50.2703 10.2799L59.8003 18.3799L61.9203 16.5399Z" fill="#E4E42C"/>
<path opacity="0.9" d="M87.7702 10.32L88.8502 -38.25L83.9402 -37.29L84.8602 10.24L87.7702 10.32Z" fill="#E4E42C"/>
<path opacity="0.9" d="M86.4502 33.88C86.7202 33.88 86.9902 33.9 87.2502 33.93L87.6902 14.33L84.9502 14.25L85.3302 33.98C85.7002 33.92 86.0702 33.89 86.4502 33.89V33.88Z" fill="#E4E42C"/>
<path opacity="0.9" d="M118.95 -12.67L114.75 -13.96L107.35 -0.0499573L110.52 1.38005L118.95 -12.67Z" fill="#E4E42C"/>
<path opacity="0.9" d="M108.45 4.83998L105.47 3.48999L89.0502 34.36C89.5102 34.53 89.9402 34.75 90.3502 35.01L108.45 4.82999V4.83998Z" fill="#E4E42C"/>
<path opacity="0.9" d="M135.56 34.8598L164.61 31.0098L164.44 26.3398L135.29 31.5999L135.56 34.8598Z" fill="#E4E42C"/>
<path opacity="0.9" d="M131.34 32.3101L93.4702 39.1401C93.5902 39.5501 93.6802 39.9701 93.7202 40.4101L131.59 35.3901L131.33 32.3201L131.34 32.3101Z" fill="#E4E42C"/>
<path opacity="0.9" d="M139.05 41.8899L123.34 41.4199L123.09 44.6199L138.88 45.8599L139.05 41.8899Z" fill="#E4E42C"/>
<path opacity="0.9" d="M119.1 44.31L119.34 41.3L93.7302 40.54C93.7502 40.76 93.7602 40.98 93.7602 41.2C93.7602 41.58 93.7202 41.96 93.6602 42.33L119.09 44.3201L119.1 44.31Z" fill="#E4E42C"/>
<path opacity="0.9" d="M110.59 82.5601L113.86 80.9301L91.1502 46.8101C90.4702 47.3801 89.6902 47.82 88.8402 48.11L108.14 99.58L111.59 98.0301L90.2802 47.9701L110.59 82.5601Z" fill="#E4E42C"/>
<path opacity="0.9" d="M112.62 86.01L121.09 100.44L125.58 98.54L116.09 84.28L112.62 86.01Z" fill="#E4E42C"/>
<path opacity="0.9" d="M87.9902 48.3398C87.4902 48.4498 86.9802 48.5099 86.4502 48.5099C86.3802 48.5099 86.3102 48.5098 86.2402 48.4998L90.1502 86.8298L93.7102 86.7498L88.0002 48.3398H87.9902Z" fill="#E4E42C"/>
<path opacity="0.9" d="M94.2902 90.74L90.5502 90.82L91.4002 99.1L95.4902 98.78L94.2902 90.74Z" fill="#E4E42C"/>
<path opacity="0.9" d="M91.8002 103.08L93.4502 119.27L98.4602 118.75L96.0802 102.75L91.8002 103.08Z" fill="#E4E42C"/>
<path opacity="0.9" d="M42.8002 32.9101L26.7802 30.1401L26.4302 34.4601L42.5702 36.3901L42.8002 32.9101Z" fill="#E4E42C"/>
<path opacity="0.9" d="M46.7702 33.5898L46.5402 36.8598L53.8002 37.7298V34.8098L46.7702 33.5898Z" fill="#E4E42C"/>
</g>
<g opacity="0.9">
<path opacity="0.9" d="M361.62 178.6C361.38 177.62 360.4 177.02 359.42 177.25C358.44 177.48 357.84 178.47 358.07 179.45C358.3 180.43 359.29 181.03 360.27 180.8C361.25 180.57 361.85 179.58 361.62 178.6Z" fill="#B0BBF7"/>
<path opacity="0.9" d="M355.4 176.72L317.24 161.39L316.11 163.89L355 177.72C355.1 177.37 355.23 177.04 355.4 176.72Z" fill="#B0BBF7"/>
<path opacity="0.9" d="M355.81 182.13L329.71 208.63L332.06 210.17L356.74 183.08C356.4 182.81 356.08 182.49 355.82 182.13H355.81Z" fill="#B0BBF7"/>
<path opacity="0.9" d="M364.69 180.81L400.32 191.52L401.08 188.49L364.95 179.68C364.9 180.07 364.82 180.45 364.69 180.81Z" fill="#B0BBF7"/>
<path opacity="0.9" d="M363.88 175.91L397.93 146.56L395.51 145.19L363.16 175.18C363.42 175.4 363.66 175.64 363.88 175.91Z" fill="#B0BBF7"/>
<path opacity="0.9" d="M356.72 175.11L330.67 147.53L328.92 149.63L356 175.81C356.22 175.55 356.46 175.32 356.72 175.11Z" fill="#B0BBF7"/>
<path opacity="0.9" d="M339.57 179.9L340.01 181.73L354.89 179.98C354.83 179.62 354.8 179.26 354.81 178.91L339.57 179.9Z" fill="#B0BBF7"/>
<path opacity="0.9" d="M328.64 199.75L355.66 181.91C355.48 181.63 355.32 181.34 355.19 181.02L327.59 197.49L328.64 199.75Z" fill="#B0BBF7"/>
<path opacity="0.9" d="M312.27 206.63L314.26 209.24L326.29 201.3L325.19 198.92L312.27 206.63Z" fill="#B0BBF7"/>
<path opacity="0.9" d="M355.08 199.68L356.84 199.87L359.29 184.15C358.95 184.11 358.62 184.03 358.3 183.93L355.08 199.69V199.68Z" fill="#B0BBF7"/>
<path opacity="0.9" d="M349.37 227.65L352.5 227.77L356.41 202.62L354.52 202.42L349.37 227.65Z" fill="#B0BBF7"/>
<path opacity="0.9" d="M355.4 176.71C355.52 176.48 355.66 176.25 355.82 176.04L341.7 167.8L340.66 169.25L355.4 176.71Z" fill="#B0BBF7"/>
<path opacity="0.9" d="M339.28 166.39L331.58 161.9L330.37 164.04L338.14 167.98L339.28 166.39Z" fill="#B0BBF7"/>
<path opacity="0.9" d="M355.77 157.96L348.59 124.9L345.42 126.35L353.79 158.38L355.77 157.96Z" fill="#B0BBF7"/>
<path opacity="0.9" d="M358.71 174.13C358.89 174.09 359.08 174.05 359.26 174.03L356.36 160.68L354.49 161.07L357.96 174.37C358.2 174.27 358.45 174.19 358.7 174.12L358.71 174.13Z" fill="#B0BBF7"/>
<path opacity="0.9" d="M373.14 137.32L370.09 137.13L367.34 147.75L369.72 148.21L373.14 137.32Z" fill="#B0BBF7"/>
<path opacity="0.9" d="M368.88 150.89L366.64 150.46L360.55 174.04C360.89 174.08 361.22 174.16 361.54 174.27L368.88 150.89Z" fill="#B0BBF7"/>
<path opacity="0.9" d="M392.13 166.8L411.18 159.46L410.3 156.33L391.42 164.64L392.13 166.8Z" fill="#B0BBF7"/>
<path opacity="0.9" d="M388.85 165.76L364.32 176.55C364.47 176.81 364.6 177.08 364.7 177.37L389.53 167.8L388.86 165.76H388.85Z" fill="#B0BBF7"/>
<path opacity="0.9" d="M395.64 170.99L384.92 173.23L385.27 175.45L396.17 173.71L395.64 170.99Z" fill="#B0BBF7"/>
<path opacity="0.9" d="M382.52 175.88L382.19 173.8L364.72 177.45C364.77 177.59 364.81 177.74 364.85 177.89C364.91 178.15 364.95 178.41 364.97 178.67L382.52 175.88Z" fill="#B0BBF7"/>
<path opacity="0.9" d="M382.98 203.17L384.93 201.53L363.99 182.12C363.62 182.61 363.17 183.04 362.64 183.38L384.09 215.1L386.18 213.48L363.6 183.05L382.98 203.17Z" fill="#B0BBF7"/>
<path opacity="0.9" d="M384.92 205.18L393.01 213.57L395.74 211.55L386.99 203.44L384.92 205.18Z" fill="#B0BBF7"/>
<path opacity="0.9" d="M362.11 183.68C361.79 183.83 361.45 183.96 361.09 184.04C361.04 184.05 360.99 184.06 360.95 184.07L369.84 209.39L372.23 208.76L362.11 183.68Z" fill="#B0BBF7"/>
<path opacity="0.9" d="M373.28 211.37L370.76 212.03L372.68 217.5L375.4 216.62L373.28 211.37Z" fill="#B0BBF7"/>
<path opacity="0.9" d="M373.6 220.13L377.36 230.82L380.66 229.65L376.45 219.21L373.6 220.13Z" fill="#B0BBF7"/>
<path opacity="0.9" d="M329 180.58L317.69 181.32L318.16 184.3L329.4 182.98L329 180.58Z" fill="#B0BBF7"/>
<path opacity="0.9" d="M331.79 180.4L332.17 182.65L337.23 182.06L336.75 180.08L331.79 180.4Z" fill="#B0BBF7"/>
</g>
<g opacity="0.9">
<path opacity="0.9" d="M110.76 251.34C110.87 250.56 110.34 249.83 109.55 249.72C108.76 249.61 108.04 250.14 107.93 250.93C107.82 251.72 108.35 252.44 109.14 252.55C109.93 252.66 110.65 252.13 110.76 251.34Z" fill="#B0BBFF"/>
<path opacity="0.9" d="M106.79 248.15L83.5502 225.9L82.0002 227.38L106.2 248.76C106.37 248.54 106.57 248.33 106.78 248.15H106.79Z" fill="#B0BBFF"/>
<path opacity="0.9" d="M105.51 252.2L78.8402 263.83L80.1002 265.63L105.91 253.16C105.74 252.86 105.61 252.54 105.52 252.2H105.51Z" fill="#B0BBFF"/>
<path opacity="0.9" d="M112.35 253.84L135.09 272L136.52 270.02L112.86 253.1C112.71 253.37 112.54 253.62 112.34 253.84H112.35Z" fill="#B0BBFF"/>
<path opacity="0.9" d="M113.18 250.05L146.45 238.67L145.09 236.97L112.87 249.31C113 249.54 113.1 249.79 113.18 250.05Z" fill="#B0BBFF"/>
<path opacity="0.9" d="M108.22 247.38L97.3502 219.77L95.4702 220.78L107.49 247.68C107.72 247.56 107.96 247.46 108.22 247.38Z" fill="#B0BBFF"/>
<path opacity="0.9" d="M94.3802 245.85L94.1702 247.31L105.48 250.38C105.54 250.1 105.62 249.83 105.74 249.58L94.3902 245.86L94.3802 245.85Z" fill="#B0BBFF"/>
<path opacity="0.9" d="M80.6502 257.08L105.47 252.01C105.42 251.75 105.39 251.49 105.39 251.22L80.5602 255.13L80.6602 257.08H80.6502Z" fill="#B0BBFF"/>
<path opacity="0.9" d="M66.7703 257.3L67.4503 259.78L78.4903 257.52L78.3903 255.47L66.7703 257.3Z" fill="#B0BBFF"/>
<path opacity="0.9" d="M99.8702 264.73L101.09 265.38L107.45 254.68C107.22 254.55 107 254.4 106.8 254.23L99.8702 264.73Z" fill="#B0BBFF"/>
<path opacity="0.9" d="M87.5702 283.37L89.8002 284.37L99.9802 267.26L98.6602 266.56L87.5702 283.37Z" fill="#B0BBFF"/>
<path opacity="0.9" d="M106.79 248.15C106.95 248.02 107.11 247.89 107.29 247.79L99.4403 237.69L98.2603 238.44L106.79 248.15Z" fill="#B0BBFF"/>
<path opacity="0.9" d="M98.1002 235.96L93.8302 230.46L92.3202 231.66L96.8102 236.78L98.1002 235.96Z" fill="#B0BBFF"/>
<path opacity="0.9" d="M112.53 234.65L116.96 208.56L114.24 208.68L110.97 234.38L112.53 234.65Z" fill="#B0BBFF"/>
<path opacity="0.9" d="M109.95 247.25C110.1 247.27 110.24 247.3 110.38 247.34L112.17 236.81L110.7 236.55L109.34 247.22C109.54 247.22 109.75 247.22 109.95 247.26V247.25Z" fill="#B0BBFF"/>
<path opacity="0.9" d="M131.16 224.73L129 223.7L123.91 230.62L125.5 231.64L131.16 224.73Z" fill="#B0BBFF"/>
<path opacity="0.9" d="M124.11 233.34L122.61 232.38L111.32 247.72C111.55 247.85 111.77 248 111.97 248.17L124.11 233.34Z" fill="#B0BBFF"/>
<path opacity="0.9" d="M136.35 251.67L152.31 251.89L152.59 249.36L136.46 249.89L136.35 251.67Z" fill="#B0BBFF"/>
<path opacity="0.9" d="M134.27 249.96L113.31 250.64C113.34 250.87 113.36 251.11 113.35 251.34L134.16 251.63L134.27 249.95V249.96Z" fill="#B0BBFF"/>
<path opacity="0.9" d="M137.67 255.73L129.24 254.23L128.85 255.94L137.26 257.86L137.67 255.73Z" fill="#B0BBFF"/>
<path opacity="0.9" d="M126.72 255.46L127.09 253.86L113.35 251.42C113.35 251.54 113.33 251.66 113.32 251.78C113.29 251.99 113.24 252.19 113.18 252.38L126.73 255.47L126.72 255.46Z" fill="#B0BBFF"/>
<path opacity="0.9" d="M119.11 275.4L121 274.78L111.46 254.59C111.05 254.84 110.59 255.02 110.11 255.11L116.44 284.39L118.43 283.83L110.91 255.16L119.12 275.41L119.11 275.4Z" fill="#B0BBFF"/>
<path opacity="0.9" d="M119.93 277.42L123.35 285.87L125.92 285.2L121.93 276.76L119.93 277.42Z" fill="#B0BBFF"/>
<path opacity="0.9" d="M109.63 255.17C109.35 255.19 109.07 255.17 108.79 255.14C108.75 255.14 108.72 255.12 108.68 255.12L107.75 276.09L109.67 276.33L109.63 255.17Z" fill="#B0BBFF"/>
<path opacity="0.9" d="M109.67 278.52L107.65 278.27L107.45 282.8L109.68 282.95L109.67 278.52Z" fill="#B0BBFF"/>
<path opacity="0.9" d="M107.35 284.98L106.96 293.83L109.7 293.95L109.69 285.14L107.35 284.98Z" fill="#B0BBFF"/>
<path opacity="0.9" d="M86.5002 243.27L78.0802 240.51L77.5502 242.81L86.1002 245.12L86.5002 243.27Z" fill="#B0BBFF"/>
<path opacity="0.9" d="M88.5802 243.95L88.2002 245.69L92.0402 246.74L92.2802 245.16L88.5802 243.95Z" fill="#B0BBFF"/>
</g>
<path d="M62.0703 321.84C62.1503 321.3 61.7803 320.81 61.2403 320.73C60.7003 320.65 60.2103 321.02 60.1303 321.56C60.0503 322.1 60.4203 322.59 60.9603 322.67C61.5003 322.75 61.9903 322.38 62.0703 321.84Z" fill="#EFA0A8"/>
<path d="M59.3502 319.65L43.4002 304.37L42.3402 305.39L58.9602 320.07C59.0802 319.92 59.2102 319.78 59.3602 319.65H59.3502Z" fill="#EFA0A8"/>
<path d="M58.4702 322.43L40.1602 330.41L41.0202 331.65L58.7402 323.09C58.6202 322.88 58.5302 322.67 58.4702 322.43Z" fill="#EFA0A8"/>
<path d="M63.1602 323.56L78.7802 336.03L79.7602 334.67L63.5202 323.05C63.4202 323.23 63.3002 323.41 63.1602 323.56Z" fill="#EFA0A8"/>
<path d="M63.7403 320.95L86.5803 313.14L85.6503 311.97L63.5303 320.44C63.6203 320.6 63.6903 320.77 63.7403 320.95Z" fill="#EFA0A8"/>
<path d="M60.3302 319.12L52.8702 300.16L51.5802 300.86L59.8302 319.33C59.9902 319.25 60.1602 319.18 60.3302 319.12Z" fill="#EFA0A8"/>
<path d="M50.8202 318.07L50.6702 319.07L58.4402 321.17C58.4802 320.98 58.5402 320.79 58.6202 320.62L50.8302 318.06L50.8202 318.07Z" fill="#EFA0A8"/>
<path d="M41.4002 325.78L58.4402 322.3C58.4002 322.12 58.3802 321.94 58.3802 321.76L41.3302 324.44L41.4002 325.78Z" fill="#EFA0A8"/>
<path d="M31.8702 325.93L32.3302 327.63L39.9202 326.08L39.8502 324.68L31.8702 325.93Z" fill="#EFA0A8"/>
<path d="M54.5902 331.04L55.4302 331.49L59.8002 324.14C59.6402 324.05 59.4902 323.95 59.3502 323.83L54.5902 331.04Z" fill="#EFA0A8"/>
<path d="M46.1503 343.84L47.6803 344.52L54.6703 332.77L53.7703 332.29L46.1503 343.84Z" fill="#EFA0A8"/>
<path d="M59.3502 319.65C59.4602 319.56 59.5702 319.47 59.6902 319.4L54.3002 312.47L53.4902 312.98L59.3402 319.65H59.3502Z" fill="#EFA0A8"/>
<path d="M53.3802 311.28L50.4402 307.5L49.4102 308.33L52.4902 311.84L53.3802 311.28Z" fill="#EFA0A8"/>
<path d="M63.2902 310.38L66.3302 292.47L64.4602 292.55L62.2102 310.19L63.2902 310.38Z" fill="#EFA0A8"/>
<path d="M61.5102 319.03C61.6102 319.04 61.7102 319.07 61.8002 319.09L63.0302 311.86L62.0202 311.68L61.0902 319C61.2302 319 61.3702 319 61.5102 319.03Z" fill="#EFA0A8"/>
<path d="M76.0802 303.57L74.5902 302.86L71.1002 307.61L72.1902 308.31L76.0802 303.57Z" fill="#EFA0A8"/>
<path d="M71.2402 309.48L70.2102 308.82L62.4602 319.35C62.6202 319.44 62.7702 319.54 62.9102 319.66L71.2502 309.48H71.2402Z" fill="#EFA0A8"/>
<path d="M79.6403 322.07L90.6003 322.22L90.7903 320.48L79.7203 320.84L79.6403 322.07Z" fill="#EFA0A8"/>
<path d="M78.2102 320.89L63.8202 321.36C63.8402 321.52 63.8502 321.68 63.8502 321.84L78.1402 322.04L78.2102 320.89Z" fill="#EFA0A8"/>
<path d="M80.5502 324.86L74.7602 323.83L74.4902 325L80.2702 326.32L80.5502 324.86Z" fill="#EFA0A8"/>
<path d="M73.0302 324.67L73.2802 323.57L63.8402 321.89C63.8402 321.97 63.8302 322.05 63.8202 322.13C63.8002 322.27 63.7602 322.41 63.7202 322.54L73.0202 324.66L73.0302 324.67Z" fill="#EFA0A8"/>
<path d="M67.8002 338.36L69.1002 337.93L62.5502 324.07C62.2702 324.24 61.9602 324.36 61.6202 324.43L65.9602 344.53L67.3202 344.14L62.1602 324.45L67.7902 338.36H67.8002Z" fill="#EFA0A8"/>
<path d="M68.3602 339.75L70.7102 345.55L72.4802 345.09L69.7402 339.3L68.3602 339.75Z" fill="#EFA0A8"/>
<path d="M61.3002 324.47C61.1102 324.48 60.9202 324.47 60.7202 324.45C60.6902 324.45 60.6702 324.44 60.6402 324.43L60.0002 338.83L61.3202 338.99L61.2902 324.46L61.3002 324.47Z" fill="#EFA0A8"/>
<path d="M61.3302 340.5L59.9402 340.33L59.8002 343.44L61.3302 343.55V340.5Z" fill="#EFA0A8"/>
<path d="M59.7302 344.93L59.4602 351.02L61.3402 351.1L61.3302 345.05L59.7302 344.93Z" fill="#EFA0A8"/>
<path d="M45.4103 316.3L39.6303 314.4L39.2703 315.98L45.1403 317.57L45.4103 316.3Z" fill="#EFA0A8"/>
<path d="M46.8402 316.77L46.5802 317.97L49.2202 318.68L49.3802 317.6L46.8402 316.77Z" fill="#EFA0A8"/>
</g>
</svg>
