<svg width="60" height="60" viewBox="0 0 60 60" fill="none" xmlns="http://www.w3.org/2000/svg">
<g clip-path="url(#clip0_2_5270)">
<path d="M40.1333 8H13V52H47.4667V15.3333L40.1333 8Z" fill="#E8E8E8"/>
<path d="M41.6105 29.7591C41.0866 28.8163 39.2638 28.5229 38.4676 28.3867C37.8017 28.2893 37.1292 28.2437 36.4562 28.2506C35.9324 28.2506 35.4086 28.2506 34.9057 28.3029H34.3505C34.1514 28.1039 33.9733 27.9048 33.7952 27.6953C32.6736 26.3388 31.7333 24.8421 30.9981 23.2429C31.2044 22.4584 31.3549 21.6602 31.4486 20.8544C31.7106 19.289 31.5957 17.6836 31.1133 16.1715C30.9247 15.6791 30.4009 15.1239 29.7933 15.3753C29.1857 15.6267 28.9133 16.7058 28.8505 17.3972C28.8101 17.9608 28.8382 18.5271 28.9343 19.0839C29.0356 19.6309 29.1756 20.17 29.3533 20.6972C29.5105 21.1791 29.6886 21.661 29.8771 22.1429C29.7514 22.5201 29.6257 22.8867 29.4895 23.2429C29.1857 24.0601 28.84 24.8458 28.5152 25.5896L28.0124 26.6372C27.502 27.7803 26.932 28.8958 26.3047 29.9791C24.9394 30.438 23.6317 31.0532 22.4076 31.8125C21.8244 32.1892 21.2897 32.636 20.8152 33.1429C20.3516 33.5614 20.048 34.128 19.9562 34.7458C19.9453 34.9154 19.9759 35.0851 20.0453 35.2402C20.1146 35.3953 20.2207 35.5313 20.3543 35.6363C20.5558 35.7604 20.7814 35.8405 21.0161 35.8712C21.2509 35.9019 21.4895 35.8825 21.7162 35.8144C23.2038 35.5001 24.3457 34.222 25.32 33.1429C26.1215 32.2471 26.8668 31.3024 27.5514 30.3144C29.0024 29.8627 30.4832 29.5126 31.9828 29.2667C32.7057 29.141 33.4495 29.0467 34.2038 28.9734C34.7341 29.478 35.3171 29.9241 35.9428 30.3039C36.4296 30.6101 36.9498 30.8597 37.4933 31.0477C38.0372 31.2291 38.594 31.3692 39.159 31.4667C39.4537 31.5106 39.7517 31.5281 40.0495 31.5191C40.72 31.5191 41.6838 31.2363 41.7467 30.4191C41.7752 30.1901 41.7273 29.9581 41.6105 29.7591ZM25.5714 31.2572C25.2467 31.7391 24.9428 32.1791 24.66 32.5667C24.0306 33.6412 23.1074 34.5135 21.999 35.081C21.7417 35.179 21.4676 35.2253 21.1924 35.2172C20.92 35.2172 20.6476 35.081 20.6581 34.7772C20.6826 34.5748 20.7543 34.381 20.8676 34.2115C21.0009 33.9883 21.159 33.7809 21.339 33.5934C21.7717 33.1598 22.2493 32.7735 22.7638 32.441C23.7112 31.8478 24.7148 31.3495 25.76 30.9534L25.5714 31.2572ZM29.5209 19.0315C29.4305 18.5268 29.4128 18.0117 29.4686 17.502C29.4975 17.26 29.5502 17.0214 29.6257 16.7896C29.6781 16.5906 29.8143 16.1191 30.0343 16.0563C30.2543 15.9934 30.4952 16.7163 30.5266 16.9363C30.6982 18.1934 30.6163 19.4722 30.2857 20.6972C30.2857 20.8858 30.1914 21.0744 30.1495 21.2629C30.0657 21.0325 29.9819 20.802 29.9086 20.561C29.7272 20.0627 29.5836 19.5514 29.479 19.0315H29.5209ZM31.8571 28.6486C30.5846 28.8489 29.3252 29.1253 28.0857 29.4763C28.4427 28.994 28.7581 28.4823 29.0286 27.9467C29.711 26.7415 30.2624 25.4666 30.6733 24.1439C31.3807 25.5655 32.2642 26.8924 33.3028 28.0934L33.6066 28.4077C33.0514 28.481 32.4647 28.5544 31.8571 28.6486ZM40.8143 30.3458C40.7619 30.6077 40.2066 30.7544 39.9447 30.7963C39.163 30.9073 38.3661 30.8319 37.619 30.5763C36.6139 30.2245 35.6908 29.672 34.9057 28.9525C35.3981 28.9525 35.9533 28.9525 36.4143 28.9525C36.9223 28.9561 37.4296 28.9911 37.9333 29.0572C38.9274 29.1463 39.8774 29.5089 40.6781 30.1048C40.8247 30.1467 40.8771 30.2515 40.8562 30.3458H40.8143Z" fill="#FB3449"/>
<path d="M41.2648 11.6667H13V8H40.1333L41.2648 11.6667Z" fill="#FB3449"/>
<path d="M26.619 43.0008C26.6388 43.3331 26.5873 43.6658 26.4681 43.9765C26.3488 44.2873 26.1646 44.569 25.9276 44.8028C25.3819 45.2529 24.6849 45.4777 23.979 45.4313H23.4762V47.7466H21.5905V40.7799H24C24.7076 40.7298 25.4098 40.9341 25.98 41.3561C26.1997 41.5673 26.3707 41.8238 26.4811 42.1079C26.5915 42.392 26.6385 42.6967 26.619 43.0008ZM23.4762 43.9018H23.8219C23.9522 43.907 24.0822 43.8845 24.2032 43.8357C24.3242 43.787 24.4335 43.7131 24.5238 43.6189C24.6093 43.5346 24.6759 43.4331 24.7192 43.3212C24.7626 43.2092 24.7816 43.0893 24.7752 42.9694C24.7752 42.498 24.5133 42.257 24 42.257H23.4762V43.9018Z" fill="#A4A9AD"/>
<path d="M33.6591 44.1113C33.6857 44.5944 33.615 45.078 33.4512 45.5332C33.2875 45.9885 33.0339 46.4063 32.7057 46.7618C32.3408 47.0912 31.9137 47.3443 31.4495 47.5062C30.9854 47.6681 30.4935 47.7356 30.0029 47.7046H27.7505V40.7799H30.16C31.101 40.7219 32.0281 41.0297 32.7476 41.6389C33.0644 41.9641 33.3093 42.3522 33.4663 42.7782C33.6233 43.2041 33.689 43.6583 33.6591 44.1113ZM31.7105 44.1846C31.7481 43.6809 31.6153 43.1791 31.3333 42.7599C31.189 42.6005 31.0101 42.4761 30.8104 42.3962C30.6107 42.3164 30.3955 42.2831 30.181 42.2989H29.6362V46.2065H30.0553C30.2893 46.2248 30.5245 46.189 30.7425 46.1018C30.9605 46.0146 31.1555 45.8784 31.3124 45.7037C31.6088 45.255 31.7487 44.721 31.7105 44.1846Z" fill="#A4A9AD"/>
<path d="M36.76 47.7467H34.9057V40.78H39.0228V42.2886H36.76V43.6191H38.8552V45.1276H36.76V47.7467Z" fill="#A4A9AD"/>
<path d="M40.1334 15.3333H47.4667L40.1334 8V15.3333Z" fill="#D1D3D3"/>
</g>
<defs>
<clipPath id="clip0_2_5270">
<rect width="34.4667" height="44" fill="white" transform="translate(13 8)"/>
</clipPath>
</defs>
</svg>
