<svg width="140" height="140" viewBox="0 0 160 160" fill="none" xmlns="http://www.w3.org/2000/svg">
<rect x="31.1582" y="35.3684" width="97.3099" height="97.3099" rx="19" fill="#469AF5"/>
<rect x="40.0791" y="44.2894" width="7.42105" height="7.42105" stroke="black" stroke-opacity="0.8"/>
<rect x="40.0791" y="116.336" width="7.42105" height="7.42105" stroke="black" stroke-opacity="0.8"/>
<rect x="112.126" y="44.2894" width="7.42104" height="7.42105" stroke="black" stroke-opacity="0.8"/>
<rect x="112.126" y="116.336" width="7.42104" height="7.42105" stroke="black" stroke-opacity="0.8"/>
<line x1="48" y1="48.9034" x2="111.626" y2="48.9034" stroke="black" stroke-opacity="0.7" stroke-dasharray="2 2"/>
<line x1="48" y1="120.015" x2="111.626" y2="120.015" stroke="black" stroke-opacity="0.7" stroke-dasharray="2 2"/>
<path d="M43.79 52.2105L43.79 115.836" stroke="black" stroke-opacity="0.7" stroke-dasharray="2 2"/>
<line x1="115.868" y1="52.2105" x2="115.868" y2="115.836" stroke="black" stroke-opacity="0.7" stroke-dasharray="2 2"/>
<path d="M63.0962 73.13C62.5675 73.13 62.0995 73.013 61.6922 72.779C61.2935 72.5363 60.9815 72.2113 60.7562 71.804V75.769H59.0142V66.188H60.5352V67.358C60.7952 66.9593 61.1245 66.6473 61.5232 66.422C61.9219 66.188 62.3769 66.071 62.8882 66.071C63.3475 66.071 63.7679 66.162 64.1492 66.344C64.5392 66.526 64.8772 66.7817 65.1632 67.111C65.4492 67.4317 65.6702 67.8043 65.8262 68.229C65.9909 68.645 66.0732 69.0957 66.0732 69.581C66.0732 70.2397 65.9432 70.8377 65.6832 71.375C65.4319 71.9123 65.0809 72.3413 64.6302 72.662C64.1882 72.974 63.6769 73.13 63.0962 73.13ZM62.5112 71.648C62.7799 71.648 63.0225 71.5917 63.2392 71.479C63.4559 71.3663 63.6422 71.2147 63.7982 71.024C63.9629 70.8247 64.0842 70.6037 64.1622 70.361C64.2489 70.1097 64.2922 69.8497 64.2922 69.581C64.2922 69.295 64.2445 69.0307 64.1492 68.788C64.0625 68.5453 63.9325 68.333 63.7592 68.151C63.5859 67.9603 63.3822 67.813 63.1482 67.709C62.9229 67.605 62.6759 67.553 62.4072 67.553C62.2425 67.553 62.0735 67.5833 61.9002 67.644C61.7355 67.696 61.5752 67.774 61.4192 67.878C61.2632 67.982 61.1245 68.1033 61.0032 68.242C60.8905 68.3807 60.8082 68.5323 60.7562 68.697V70.296C60.8602 70.5473 60.9989 70.777 61.1722 70.985C61.3542 71.193 61.5622 71.3577 61.7962 71.479C62.0302 71.5917 62.2685 71.648 62.5112 71.648ZM70.3994 73.13C69.8448 73.13 69.3464 73.039 68.9044 72.857C68.4624 72.6663 68.0854 72.4063 67.7734 72.077C67.4701 71.7477 67.2361 71.3707 67.0714 70.946C66.9068 70.5213 66.8244 70.075 66.8244 69.607C66.8244 69.1303 66.9068 68.6797 67.0714 68.255C67.2361 67.8303 67.4701 67.4533 67.7734 67.124C68.0854 66.7947 68.4624 66.539 68.9044 66.357C69.3464 66.1663 69.8448 66.071 70.3994 66.071C70.9541 66.071 71.4481 66.1663 71.8814 66.357C72.3234 66.539 72.7004 66.7947 73.0124 67.124C73.3244 67.4533 73.5584 67.8303 73.7144 68.255C73.8791 68.6797 73.9614 69.1303 73.9614 69.607C73.9614 70.075 73.8791 70.5213 73.7144 70.946C73.5584 71.3707 73.3244 71.7477 73.0124 72.077C72.7091 72.4063 72.3364 72.6663 71.8944 72.857C71.4524 73.039 70.9541 73.13 70.3994 73.13ZM68.6184 69.607C68.6184 70.0057 68.6964 70.361 68.8524 70.673C69.0084 70.9763 69.2208 71.2147 69.4894 71.388C69.7581 71.5613 70.0614 71.648 70.3994 71.648C70.7288 71.648 71.0278 71.5613 71.2964 71.388C71.5651 71.206 71.7774 70.9633 71.9334 70.66C72.0981 70.348 72.1804 69.9927 72.1804 69.594C72.1804 69.204 72.0981 68.853 71.9334 68.541C71.7774 68.229 71.5651 67.9863 71.2964 67.813C71.0278 67.6397 70.7288 67.553 70.3994 67.553C70.0614 67.553 69.7581 67.644 69.4894 67.826C69.2208 67.9993 69.0084 68.242 68.8524 68.554C68.6964 68.8573 68.6184 69.2083 68.6184 69.607ZM77.6462 73.13C77.0656 73.13 76.5109 73.0347 75.9822 72.844C75.4536 72.6533 74.9986 72.3717 74.6172 71.999L75.2412 70.868C75.6486 71.1973 76.0472 71.44 76.4372 71.596C76.8359 71.752 77.2172 71.83 77.5812 71.83C77.9192 71.83 78.1879 71.7693 78.3872 71.648C78.5952 71.5267 78.6992 71.3447 78.6992 71.102C78.6992 70.9373 78.6429 70.8117 78.5302 70.725C78.4176 70.6297 78.2529 70.5473 78.0362 70.478C77.8282 70.4087 77.5726 70.3307 77.2692 70.244C76.7666 70.0793 76.3462 69.919 76.0082 69.763C75.6702 69.607 75.4146 69.412 75.2412 69.178C75.0766 68.9353 74.9942 68.6277 74.9942 68.255C74.9942 67.8043 75.1069 67.4187 75.3322 67.098C75.5662 66.7687 75.8869 66.513 76.2942 66.331C76.7102 66.149 77.1956 66.058 77.7502 66.058C78.2356 66.058 78.6949 66.136 79.1282 66.292C79.5616 66.4393 79.9559 66.682 80.3112 67.02L79.6092 68.125C79.2626 67.8563 78.9332 67.6613 78.6212 67.54C78.3092 67.41 77.9929 67.345 77.6722 67.345C77.4902 67.345 77.3169 67.3667 77.1522 67.41C76.9962 67.4533 76.8662 67.527 76.7622 67.631C76.6669 67.7263 76.6192 67.865 76.6192 68.047C76.6192 68.2117 76.6626 68.3417 76.7492 68.437C76.8446 68.5237 76.9832 68.6017 77.1652 68.671C77.3559 68.7403 77.5856 68.8183 77.8542 68.905C78.4002 69.061 78.8596 69.2213 79.2322 69.386C79.6136 69.5507 79.8996 69.7543 80.0902 69.997C80.2809 70.231 80.3762 70.556 80.3762 70.972C80.3762 71.648 80.1292 72.1767 79.6352 72.558C79.1412 72.9393 78.4782 73.13 77.6462 73.13ZM85.6431 73.13C85.1144 73.13 84.6464 73.013 84.2391 72.779C83.8404 72.5363 83.5284 72.2113 83.3031 71.804V75.769H81.5611V66.188H83.0821V67.358C83.3421 66.9593 83.6714 66.6473 84.0701 66.422C84.4687 66.188 84.9237 66.071 85.4351 66.071C85.8944 66.071 86.3147 66.162 86.6961 66.344C87.0861 66.526 87.4241 66.7817 87.7101 67.111C87.9961 67.4317 88.2171 67.8043 88.3731 68.229C88.5377 68.645 88.6201 69.0957 88.6201 69.581C88.6201 70.2397 88.4901 70.8377 88.2301 71.375C87.9787 71.9123 87.6277 72.3413 87.1771 72.662C86.7351 72.974 86.2237 73.13 85.6431 73.13ZM85.0581 71.648C85.3267 71.648 85.5694 71.5917 85.7861 71.479C86.0027 71.3663 86.1891 71.2147 86.3451 71.024C86.5097 70.8247 86.6311 70.6037 86.7091 70.361C86.7957 70.1097 86.8391 69.8497 86.8391 69.581C86.8391 69.295 86.7914 69.0307 86.6961 68.788C86.6094 68.5453 86.4794 68.333 86.3061 68.151C86.1327 67.9603 85.9291 67.813 85.6951 67.709C85.4697 67.605 85.2227 67.553 84.9541 67.553C84.7894 67.553 84.6204 67.5833 84.4471 67.644C84.2824 67.696 84.1221 67.774 83.9661 67.878C83.8101 67.982 83.6714 68.1033 83.5501 68.242C83.4374 68.3807 83.3551 68.5323 83.3031 68.697V70.296C83.4071 70.5473 83.5457 70.777 83.7191 70.985C83.9011 71.193 84.1091 71.3577 84.3431 71.479C84.5771 71.5917 84.8154 71.648 85.0581 71.648ZM92.9463 73.13C92.3917 73.13 91.8933 73.039 91.4513 72.857C91.0093 72.6663 90.6323 72.4063 90.3203 72.077C90.017 71.7477 89.783 71.3707 89.6183 70.946C89.4537 70.5213 89.3713 70.075 89.3713 69.607C89.3713 69.1303 89.4537 68.6797 89.6183 68.255C89.783 67.8303 90.017 67.4533 90.3203 67.124C90.6323 66.7947 91.0093 66.539 91.4513 66.357C91.8933 66.1663 92.3917 66.071 92.9463 66.071C93.501 66.071 93.995 66.1663 94.4283 66.357C94.8703 66.539 95.2473 66.7947 95.5593 67.124C95.8713 67.4533 96.1053 67.8303 96.2613 68.255C96.426 68.6797 96.5083 69.1303 96.5083 69.607C96.5083 70.075 96.426 70.5213 96.2613 70.946C96.1053 71.3707 95.8713 71.7477 95.5593 72.077C95.256 72.4063 94.8833 72.6663 94.4413 72.857C93.9993 73.039 93.501 73.13 92.9463 73.13ZM91.1653 69.607C91.1653 70.0057 91.2433 70.361 91.3993 70.673C91.5553 70.9763 91.7677 71.2147 92.0363 71.388C92.305 71.5613 92.6083 71.648 92.9463 71.648C93.2757 71.648 93.5747 71.5613 93.8433 71.388C94.112 71.206 94.3243 70.9633 94.4803 70.66C94.645 70.348 94.7273 69.9927 94.7273 69.594C94.7273 69.204 94.645 68.853 94.4803 68.541C94.3243 68.229 94.112 67.9863 93.8433 67.813C93.5747 67.6397 93.2757 67.553 92.9463 67.553C92.6083 67.553 92.305 67.644 92.0363 67.826C91.7677 67.9993 91.5553 68.242 91.3993 68.554C91.2433 68.8573 91.1653 69.2083 91.1653 69.607ZM101.665 72.649C101.517 72.7097 101.34 72.779 101.132 72.857C100.924 72.935 100.698 72.9957 100.456 73.039C100.222 73.091 99.9832 73.117 99.7406 73.117C99.4199 73.117 99.1252 73.0607 98.8566 72.948C98.5879 72.8353 98.3712 72.6577 98.2066 72.415C98.0506 72.1637 97.9726 71.8387 97.9726 71.44V67.527H97.0756V66.188H97.9726V63.978H99.7146V66.188H101.145V67.527H99.7146V70.855C99.7232 71.089 99.7882 71.258 99.9096 71.362C100.031 71.466 100.183 71.518 100.365 71.518C100.547 71.518 100.724 71.4877 100.898 71.427C101.071 71.3663 101.21 71.3143 101.314 71.271L101.665 72.649ZM47.4123 96V84.996H50.2263V96H47.4123ZM47.4123 83.463V80.67H50.2263V83.463H47.4123ZM62.9919 96H60.1779V89.826C60.1779 88.944 60.0239 88.3 59.7159 87.894C59.4079 87.488 58.9809 87.285 58.4349 87.285C58.0569 87.285 57.6719 87.383 57.2799 87.579C56.9019 87.775 56.5589 88.048 56.2509 88.398C55.9429 88.734 55.7189 89.126 55.5789 89.574V96H52.7649V84.996H55.3059V87.033C55.5859 86.557 55.9429 86.158 56.3769 85.836C56.8109 85.5 57.3079 85.248 57.8679 85.08C58.4419 84.898 59.0439 84.807 59.6739 84.807C60.3599 84.807 60.9199 84.933 61.3539 85.185C61.8019 85.423 62.1379 85.752 62.3619 86.172C62.5999 86.578 62.7609 87.04 62.8449 87.558C62.9429 88.076 62.9919 88.601 62.9919 89.133V96ZM69.4917 96.21C68.5537 96.21 67.6577 96.056 66.8037 95.748C65.9497 95.44 65.2147 94.985 64.5987 94.383L65.6067 92.556C66.2647 93.088 66.9087 93.48 67.5387 93.732C68.1827 93.984 68.7987 94.11 69.3867 94.11C69.9327 94.11 70.3667 94.012 70.6887 93.816C71.0247 93.62 71.1927 93.326 71.1927 92.934C71.1927 92.668 71.1017 92.465 70.9197 92.325C70.7377 92.171 70.4717 92.038 70.1217 91.926C69.7857 91.814 69.3727 91.688 68.8827 91.548C68.0707 91.282 67.3917 91.023 66.8457 90.771C66.2997 90.519 65.8867 90.204 65.6067 89.826C65.3407 89.434 65.2077 88.937 65.2077 88.335C65.2077 87.607 65.3897 86.984 65.7537 86.466C66.1317 85.934 66.6497 85.521 67.3077 85.227C67.9797 84.933 68.7637 84.786 69.6597 84.786C70.4437 84.786 71.1857 84.912 71.8857 85.164C72.5857 85.402 73.2227 85.794 73.7967 86.34L72.6627 88.125C72.1027 87.691 71.5707 87.376 71.0667 87.18C70.5627 86.97 70.0517 86.865 69.5337 86.865C69.2397 86.865 68.9597 86.9 68.6937 86.97C68.4417 87.04 68.2317 87.159 68.0637 87.327C67.9097 87.481 67.8327 87.705 67.8327 87.999C67.8327 88.265 67.9027 88.475 68.0427 88.629C68.1967 88.769 68.4207 88.895 68.7147 89.007C69.0227 89.119 69.3937 89.245 69.8277 89.385C70.7097 89.637 71.4517 89.896 72.0537 90.162C72.6697 90.428 73.1317 90.757 73.4397 91.149C73.7477 91.527 73.9017 92.052 73.9017 92.724C73.9017 93.816 73.5027 94.67 72.7047 95.286C71.9067 95.902 70.8357 96.21 69.4917 96.21ZM75.8157 96V84.996H78.6297V96H75.8157ZM75.8157 83.463V80.67H78.6297V83.463H75.8157ZM85.4732 96.063C84.7452 96.063 84.0732 95.923 83.4572 95.643C82.8552 95.349 82.3302 94.943 81.8822 94.425C81.4482 93.907 81.1122 93.312 80.8742 92.64C80.6362 91.968 80.5172 91.254 80.5172 90.498C80.5172 89.7 80.6432 88.958 80.8952 88.272C81.1472 87.586 81.4972 86.984 81.9452 86.466C82.4072 85.934 82.9462 85.528 83.5622 85.248C84.1922 84.954 84.8852 84.807 85.6412 84.807C86.4952 84.807 87.2442 85.003 87.8882 85.395C88.5322 85.773 89.0642 86.284 89.4842 86.928V84.996H91.9412V95.475C91.9412 96.567 91.6752 97.498 91.1432 98.268C90.6252 99.052 89.9042 99.647 88.9802 100.053C88.0562 100.473 87.0062 100.683 85.8302 100.683C84.6402 100.683 83.6322 100.48 82.8062 100.074C81.9802 99.682 81.2732 99.122 80.6852 98.394L82.2182 96.903C82.6382 97.421 83.1632 97.827 83.7932 98.121C84.4372 98.415 85.1162 98.562 85.8302 98.562C86.4322 98.562 86.9782 98.45 87.4682 98.226C87.9722 98.016 88.3712 97.68 88.6652 97.218C88.9732 96.77 89.1272 96.189 89.1272 95.475V94.089C88.7632 94.719 88.2452 95.209 87.5732 95.559C86.9152 95.895 86.2152 96.063 85.4732 96.063ZM86.4182 93.816C86.7262 93.816 87.0202 93.767 87.3002 93.669C87.5802 93.571 87.8392 93.438 88.0772 93.27C88.3152 93.102 88.5252 92.906 88.7072 92.682C88.8892 92.444 89.0292 92.206 89.1272 91.968V89.343C88.9592 88.909 88.7212 88.531 88.4132 88.209C88.1192 87.887 87.7832 87.642 87.4052 87.474C87.0412 87.292 86.6562 87.201 86.2502 87.201C85.8162 87.201 85.4242 87.292 85.0742 87.474C84.7242 87.656 84.4232 87.915 84.1712 88.251C83.9192 88.573 83.7232 88.937 83.5832 89.343C83.4572 89.735 83.3942 90.148 83.3942 90.582C83.3942 91.03 83.4712 91.45 83.6252 91.842C83.7792 92.234 83.9892 92.577 84.2552 92.871C84.5352 93.165 84.8572 93.396 85.2212 93.564C85.5992 93.732 85.9982 93.816 86.4182 93.816ZM104.705 96H101.891V89.826C101.891 88.972 101.723 88.335 101.387 87.915C101.065 87.495 100.617 87.285 100.043 87.285C99.7068 87.285 99.3498 87.383 98.9718 87.579C98.5938 87.775 98.2508 88.048 97.9428 88.398C97.6488 88.734 97.4318 89.126 97.2918 89.574V96H94.4778V80.67H97.2918V87.033C97.6978 86.333 98.2508 85.787 98.9508 85.395C99.6508 85.003 100.414 84.807 101.24 84.807C101.954 84.807 102.535 84.933 102.983 85.185C103.431 85.423 103.781 85.752 104.033 86.172C104.285 86.578 104.46 87.04 104.558 87.558C104.656 88.062 104.705 88.587 104.705 89.133V96ZM113.684 95.433C113.446 95.531 113.159 95.643 112.823 95.769C112.487 95.895 112.123 95.993 111.731 96.063C111.353 96.147 110.968 96.189 110.576 96.189C110.058 96.189 109.582 96.098 109.148 95.916C108.714 95.734 108.364 95.447 108.098 95.055C107.846 94.649 107.72 94.124 107.72 93.48V87.159H106.271V84.996H107.72V81.426H110.534V84.996H112.844V87.159H110.534V92.535C110.548 92.913 110.653 93.186 110.849 93.354C111.045 93.522 111.29 93.606 111.584 93.606C111.878 93.606 112.165 93.557 112.445 93.459C112.725 93.361 112.949 93.277 113.117 93.207L113.684 95.433Z" fill="white"/>
</svg>
