<svg width="288" height="92" viewBox="0 0 288 92" fill="none" xmlns="http://www.w3.org/2000/svg">
<g filter="url(#filter0_d_209_2205)">
<path fill-rule="evenodd" clip-rule="evenodd" d="M150.928 22L144 10L137.072 22H40C24.536 22 12 34.536 12 50C12 65.464 24.536 78 40 78H248C263.464 78 276 65.464 276 50C276 34.536 263.464 22 248 22H150.928Z" fill="white"/>
</g>
<path d="M47.8797 43.0312H38.3484V44.0312H46.6609V44.2031C46.6609 45.2891 46.6609 46.3125 46.2859 47.7344L47.5047 47.8906C47.8719 46.4453 47.8719 45.3203 47.8797 44.2031V43.0312ZM36.8484 49.6875H49.4891V48.6719H43.2859V46.0781H42.0828V48.6719H36.8484V49.6875ZM38.4266 56.0781H48.0516V55.0625H39.6609V52.2188H47.8641V51.2188H38.4266V56.0781ZM59.3578 51.1562C56.3812 51.1562 54.4906 52.0938 54.4984 53.7031C54.4906 55.2969 56.3812 56.2344 59.3578 56.2344C62.3344 56.2344 64.225 55.2969 64.2328 53.7031C64.225 52.0938 62.3344 51.1562 59.3578 51.1562ZM53.0922 49.8594H65.7328V48.8594H59.5297V46.1719H58.3266V48.8594H53.0922V49.8594ZM54.5922 44.0938H62.9047V44.2656C62.9047 45.3516 62.9047 46.3828 62.5297 47.8125L63.7328 47.9531C64.1156 46.5156 64.1156 45.3906 64.1234 44.2656V43.0938H54.5922V44.0938ZM55.7172 53.7031C55.7094 52.7109 57.1469 52.1016 59.3578 52.0938C61.5766 52.1016 62.9984 52.7109 63.0141 53.7031C62.9984 54.6719 61.5766 55.2656 59.3578 55.2656C57.1469 55.2656 55.7094 54.6719 55.7172 53.7031ZM77.9641 42.375H76.7609V47.9844H74.8391V42.75H73.6672V55.5781H74.8391V49H76.7609V56.2656H77.9641V42.375ZM66.1203 52.4219L66.8391 53.2812C70.8312 51.0547 72.0734 47.7188 72.0891 44.1875H66.6516V45.2031H70.8859C70.675 48.0781 69.3469 50.6172 66.1203 52.4219ZM89.9922 42.3281H88.7734V50.0156H89.9922V46.7188H92.1016V45.7031H89.9922V42.3281ZM79.1641 44.625H87.4453V43.6406H83.9141V42.2344H82.6953V43.6406H79.1641V44.625ZM79.9609 47.5312C79.9531 48.9453 81.2812 49.8047 83.3047 49.8125C85.3203 49.8047 86.6328 48.9453 86.6484 47.5312C86.6328 46.125 85.3203 45.2578 83.3047 45.25C81.2812 45.2578 79.9531 46.125 79.9609 47.5312ZM81.1328 51.6562H88.7734V52.9062H81.1641V56.1094H90.5078V55.1719H82.3672V53.8125H89.9922V50.7344H81.1328V51.6562ZM81.1328 47.5312C81.125 46.7031 81.9844 46.1641 83.3047 46.1562C84.6172 46.1641 85.4766 46.7031 85.4922 47.5312C85.4766 48.3672 84.6172 48.8906 83.3047 48.8906C81.9844 48.8906 81.125 48.3672 81.1328 47.5312ZM102.345 43.6719V42.875H101.08V43.6719C101.08 45.6641 98.5406 47.3203 96.0328 47.6719L96.5328 48.6719C98.6969 48.3125 100.83 47.1328 101.72 45.4141C102.611 47.1172 104.752 48.3125 106.908 48.6719L107.408 47.6719C104.9 47.3203 102.353 45.6328 102.345 43.6719ZM95.3766 51.2344H101.08V56.2656H102.283V51.2344H108.033V50.2031H95.3766V51.2344ZM116.323 51.7031V50.9375H115.136V51.7031C115.12 53.0312 114.066 54.5156 112.308 55.1719L112.933 56.0781C114.261 55.5781 115.214 54.6094 115.714 53.4922C116.128 54.6562 116.987 55.6719 118.339 56.1875C119.62 55.6484 120.472 54.5781 120.902 53.4531C121.386 54.6172 122.355 55.5859 123.745 56.0781L124.355 55.1719C122.573 54.5547 121.519 53.1328 121.527 51.7031V50.9375H120.323V51.7031C120.331 52.7734 119.628 54.1641 118.3 54.9844C116.98 54.2344 116.316 52.9297 116.323 51.7031ZM111.948 46.4531C111.941 48.3594 113.48 49.6719 115.589 49.6719C117.698 49.6719 119.222 48.3594 119.23 46.4531C119.222 44.5156 117.698 43.1953 115.589 43.2031C113.48 43.1953 111.941 44.5156 111.948 46.4531ZM113.152 46.4531C113.136 45.1562 114.159 44.2344 115.589 44.25C117.003 44.2344 118.027 45.1562 118.027 46.4531C118.027 47.7422 117.003 48.6484 115.589 48.6562C114.159 48.6484 113.136 47.7422 113.152 46.4531ZM121.87 50.3281H123.089V42.3906H121.87V50.3281ZM135.867 48.8906H127.508V44.5156H135.727V43.5156H126.273V49.8906H130.367V53.4844H124.648V54.5156H137.367V53.4844H131.57V49.8906H135.867V48.8906ZM150.38 50.0312H144.614V48.5625H149.036V47.5781H140.536V46.0938H148.739V42.7344H139.27V43.7344H147.505V45.1719H139.317V48.5625H143.411V50.0312H137.661V51.0469H150.38V50.0312ZM139.083 53.1094H147.583V56.1406H148.817V52.1094H139.083V53.1094ZM165.17 48.7031H156.733V43.5625H155.483V49.7344H159.639V53.4375H153.92V54.4531H166.639V53.4375H160.858V49.7344H165.17V48.7031ZM173.542 43.2344H167.511V44.2188H172.323V46.1875H167.542V50.2812H168.527C171.339 50.2812 172.753 50.2344 174.48 49.9531L174.355 48.9375C172.722 49.2344 171.37 49.2891 168.761 49.2812V47.125H173.542V43.2344ZM169.105 52.6719H177.23V56.2969H178.464V51.6719H169.105V52.6719ZM174.464 48.3438H177.23V50.9219H178.464V42.3906H177.23V44.4531H174.464V45.4531H177.23V47.3281H174.464V48.3438ZM190.836 42.3281H189.617V50.0156H190.836V46.7188H192.945V45.7031H190.836V42.3281ZM180.008 44.625H188.289V43.6406H184.758V42.2344H183.539V43.6406H180.008V44.625ZM180.805 47.5312C180.797 48.9453 182.125 49.8047 184.148 49.8125C186.164 49.8047 187.477 48.9453 187.492 47.5312C187.477 46.125 186.164 45.2578 184.148 45.25C182.125 45.2578 180.797 46.125 180.805 47.5312ZM181.977 51.6562H189.617V52.9062H182.008V56.1094H191.352V55.1719H183.211V53.8125H190.836V50.7344H181.977V51.6562ZM181.977 47.5312C181.969 46.7031 182.828 46.1641 184.148 46.1562C185.461 46.1641 186.32 46.7031 186.336 47.5312C186.32 48.3672 185.461 48.8906 184.148 48.8906C182.828 48.8906 181.969 48.3672 181.977 47.5312ZM204.895 42.375H203.723V56.2656H204.895V42.375ZM193.02 52.375L193.739 53.2656C195.677 52.125 197.02 50.6953 197.856 49.0781H200.802V55.5625H201.973V42.75H200.802V48.0781H198.309C198.786 46.8438 199.005 45.5234 199.005 44.1562H193.614V45.1719H197.786C197.552 48.0781 196.036 50.5859 193.02 52.375ZM218.752 53.4531H215.595V49.6719C216.744 49.0547 217.439 48.0703 217.439 46.8281C217.439 44.6797 215.33 43.2656 212.361 43.25C209.392 43.2656 207.283 44.6797 207.283 46.8281C207.283 48.0938 208.002 49.0938 209.189 49.7109V53.4531H206.033V54.4844H218.752V53.4531ZM208.47 46.8281C208.462 45.2734 210.08 44.25 212.361 44.2656C214.619 44.25 216.252 45.2734 216.252 46.8281C216.252 48.3828 214.619 49.4219 212.361 49.4219C210.08 49.4219 208.462 48.3828 208.47 46.8281ZM210.392 53.4531V50.1562C210.986 50.3125 211.65 50.3906 212.361 50.3906C213.087 50.3906 213.759 50.3047 214.361 50.1484V53.4531H210.392ZM220.53 55.0938C221.084 55.0859 221.537 54.6328 221.53 54.0781C221.537 53.5312 221.084 53.0781 220.53 53.0781C219.983 53.0781 219.514 53.5312 219.53 54.0781C219.514 54.6328 219.983 55.0859 220.53 55.0938Z" fill="#222222"/>
<path d="M238.565 52.9899C238.565 52.8587 238.655 52.7612 238.832 52.7012C240.473 52.2791 241.972 51.4274 243.174 50.2337C244.389 49.0351 245.251 47.5248 245.664 45.8687C245.72 45.6925 245.818 45.6062 245.949 45.6062C246.08 45.6062 246.178 45.6925 246.238 45.8687C246.65 47.5254 247.511 49.0361 248.728 50.2337C249.942 51.436 251.458 52.2884 253.115 52.7012C253.178 52.7191 253.233 52.757 253.273 52.8091C253.312 52.8612 253.333 52.9247 253.333 52.9899C253.333 53.0547 253.311 53.1176 253.272 53.1691C253.233 53.2206 253.178 53.2577 253.115 53.275C251.46 53.7178 249.948 54.5836 248.728 55.7874C247.513 56.9863 246.651 58.4964 246.238 60.1524C246.22 60.2156 246.182 60.2712 246.13 60.3111C246.078 60.351 246.015 60.3729 245.949 60.3737C245.884 60.3733 245.821 60.3515 245.769 60.3115C245.718 60.2715 245.681 60.2156 245.664 60.1524C245.249 58.497 244.388 56.9872 243.174 55.7874C241.965 54.5923 240.47 53.7273 238.832 53.275C238.655 53.2187 238.565 53.1249 238.565 52.9899Z" fill="#FDE364"/>
<path d="M230.982 45.9137C230.982 45.8237 231.042 45.7675 231.159 45.7375C232.253 45.4576 233.251 44.886 234.046 44.0837C234.858 43.2706 235.443 42.2599 235.745 41.1512C235.771 41.035 235.831 40.975 235.921 40.975C236.011 40.975 236.082 41.035 236.139 41.1512C236.413 42.2609 236.985 43.2747 237.792 44.0837C238.6 44.8931 239.614 45.4651 240.725 45.7375C240.764 45.7463 240.799 45.769 240.823 45.8013C240.847 45.8336 240.859 45.8735 240.856 45.9137C240.858 45.9538 240.846 45.9933 240.822 46.0255C240.798 46.0576 240.764 46.0804 240.725 46.09C239.616 46.3908 238.605 46.9765 237.792 47.7887C236.992 48.5854 236.421 49.5828 236.139 50.6762C236.082 50.7925 236.007 50.8525 235.921 50.8525C235.835 50.8525 235.771 50.7925 235.745 50.6762C235.436 49.5839 234.851 48.5895 234.046 47.7887C233.246 46.9836 232.251 46.3985 231.159 46.09C231.042 46.06 230.982 46 230.982 45.9137Z" fill="#FFC63A"/>
<path d="M240.151 40.4462C240.783 40.3101 241.359 39.9874 241.805 39.5199C242.259 39.0531 242.585 38.477 242.75 37.8474C242.81 37.7274 242.881 37.7274 242.971 37.8474C243.138 38.4765 243.464 39.0523 243.916 39.5199C244.364 39.9859 244.939 40.3083 245.57 40.4462C245.69 40.5362 245.69 40.6074 245.57 40.6674C244.945 40.8308 244.374 41.1582 243.917 41.6156C243.46 42.0731 243.134 42.6442 242.971 43.2699C242.881 43.3862 242.81 43.3862 242.75 43.2699C242.586 42.6443 242.259 42.0734 241.802 41.6161C241.344 41.1587 240.773 40.8313 240.148 40.6674C240.031 40.6074 240.031 40.5362 240.148 40.4462H240.151Z" fill="#FBB435"/>
<defs>
<filter id="filter0_d_209_2205" x="0" y="0" width="288" height="92" filterUnits="userSpaceOnUse" color-interpolation-filters="sRGB">
<feFlood flood-opacity="0" result="BackgroundImageFix"/>
<feColorMatrix in="SourceAlpha" type="matrix" values="0 0 0 0 0 0 0 0 0 0 0 0 0 0 0 0 0 0 127 0" result="hardAlpha"/>
<feOffset dy="2"/>
<feGaussianBlur stdDeviation="6"/>
<feComposite in2="hardAlpha" operator="out"/>
<feColorMatrix type="matrix" values="0 0 0 0 0 0 0 0 0 0 0 0 0 0 0 0 0 0 0.08 0"/>
<feBlend mode="normal" in2="BackgroundImageFix" result="effect1_dropShadow_209_2205"/>
<feBlend mode="normal" in="SourceGraphic" in2="effect1_dropShadow_209_2205" result="shape"/>
</filter>
</defs>
</svg>
