<svg width="39" height="40" viewBox="0 0 39 40" fill="none" xmlns="http://www.w3.org/2000/svg">
<path d="M8.5767 3.09478C5.26209 5.22434 2.71213 8.3045 1.28108 11.9074C-0.149963 15.5103 -0.391033 19.4571 0.591366 23.1993C1.57377 26.9415 3.73085 30.2934 6.76294 32.7893C9.79502 35.2851 13.5515 36.801 17.5106 37.1263L19.4706 40L25.4266 36.1579C27.9839 35.2873 30.3216 33.8984 32.285 32.0833C34.2484 30.2681 35.7925 28.068 36.8151 25.629C37.8377 23.1899 38.3154 20.5674 38.2166 17.9353C38.1178 15.3032 37.4447 12.7216 36.2419 10.3614C35.0391 8.00129 33.3341 5.91655 31.2398 4.24532C29.1456 2.5741 26.7098 1.35451 24.0941 0.667442C21.4783 -0.0196285 18.7422 -0.15854 16.067 0.25992C13.3918 0.678381 10.8387 1.64471 8.5767 3.09478ZM25.7948 28.0842C24.5412 28.8944 23.1355 29.456 21.6581 29.7369L25.5782 35.4842L19.5573 39.3579L10.1144 25.5053C9.94114 25.2842 9.7787 25.0632 9.61627 24.821C8.36196 22.9485 7.70609 20.7568 7.73134 18.5224C7.75659 16.288 8.46182 14.1109 9.75814 12.2656C11.0545 10.4203 12.8838 8.98929 15.0156 8.15312C17.1474 7.31694 19.4861 7.11293 21.7369 7.56692C23.9877 8.02091 26.0499 9.11254 27.6634 10.7041C29.277 12.2957 30.3696 14.316 30.8036 16.5104C31.2376 18.7047 30.9935 20.9749 30.1021 23.0346C29.2107 25.0943 27.712 26.8513 25.7948 28.0842Z" fill="#5E3C97"/>
</svg>
