<svg width="160" height="160" viewBox="0 0 160 160" fill="none" xmlns="http://www.w3.org/2000/svg">
<rect x="19.3682" y="46.3158" width="121.637" height="74.8538" rx="37.4269" fill="#9B5FE0"/>
<path d="M63.5962 73.13C63.0675 73.13 62.5995 73.013 62.1922 72.779C61.7935 72.5363 61.4815 72.2113 61.2562 71.804V75.769H59.5142V66.188H61.0352V67.358C61.2952 66.9593 61.6245 66.6473 62.0232 66.422C62.4219 66.188 62.8769 66.071 63.3882 66.071C63.8475 66.071 64.2679 66.162 64.6492 66.344C65.0392 66.526 65.3772 66.7817 65.6632 67.111C65.9492 67.4317 66.1702 67.8043 66.3262 68.229C66.4909 68.645 66.5732 69.0957 66.5732 69.581C66.5732 70.2397 66.4432 70.8377 66.1832 71.375C65.9319 71.9123 65.5809 72.3413 65.1302 72.662C64.6882 72.974 64.1769 73.13 63.5962 73.13ZM63.0112 71.648C63.2799 71.648 63.5225 71.5917 63.7392 71.479C63.9559 71.3663 64.1422 71.2147 64.2982 71.024C64.4629 70.8247 64.5842 70.6037 64.6622 70.361C64.7489 70.1097 64.7922 69.8497 64.7922 69.581C64.7922 69.295 64.7445 69.0307 64.6492 68.788C64.5625 68.5453 64.4325 68.333 64.2592 68.151C64.0859 67.9603 63.8822 67.813 63.6482 67.709C63.4229 67.605 63.1759 67.553 62.9072 67.553C62.7425 67.553 62.5735 67.5833 62.4002 67.644C62.2355 67.696 62.0752 67.774 61.9192 67.878C61.7632 67.982 61.6245 68.1033 61.5032 68.242C61.3905 68.3807 61.3082 68.5323 61.2562 68.697V70.296C61.3602 70.5473 61.4989 70.777 61.6722 70.985C61.8542 71.193 62.0622 71.3577 62.2962 71.479C62.5302 71.5917 62.7685 71.648 63.0112 71.648ZM70.8994 73.13C70.3448 73.13 69.8464 73.039 69.4044 72.857C68.9624 72.6663 68.5854 72.4063 68.2734 72.077C67.9701 71.7477 67.7361 71.3707 67.5714 70.946C67.4068 70.5213 67.3244 70.075 67.3244 69.607C67.3244 69.1303 67.4068 68.6797 67.5714 68.255C67.7361 67.8303 67.9701 67.4533 68.2734 67.124C68.5854 66.7947 68.9624 66.539 69.4044 66.357C69.8464 66.1663 70.3448 66.071 70.8994 66.071C71.4541 66.071 71.9481 66.1663 72.3814 66.357C72.8234 66.539 73.2004 66.7947 73.5124 67.124C73.8244 67.4533 74.0584 67.8303 74.2144 68.255C74.3791 68.6797 74.4614 69.1303 74.4614 69.607C74.4614 70.075 74.3791 70.5213 74.2144 70.946C74.0584 71.3707 73.8244 71.7477 73.5124 72.077C73.2091 72.4063 72.8364 72.6663 72.3944 72.857C71.9524 73.039 71.4541 73.13 70.8994 73.13ZM69.1184 69.607C69.1184 70.0057 69.1964 70.361 69.3524 70.673C69.5084 70.9763 69.7208 71.2147 69.9894 71.388C70.2581 71.5613 70.5614 71.648 70.8994 71.648C71.2288 71.648 71.5278 71.5613 71.7964 71.388C72.0651 71.206 72.2774 70.9633 72.4334 70.66C72.5981 70.348 72.6804 69.9927 72.6804 69.594C72.6804 69.204 72.5981 68.853 72.4334 68.541C72.2774 68.229 72.0651 67.9863 71.7964 67.813C71.5278 67.6397 71.2288 67.553 70.8994 67.553C70.5614 67.553 70.2581 67.644 69.9894 67.826C69.7208 67.9993 69.5084 68.242 69.3524 68.554C69.1964 68.8573 69.1184 69.2083 69.1184 69.607ZM78.1462 73.13C77.5656 73.13 77.0109 73.0347 76.4822 72.844C75.9536 72.6533 75.4986 72.3717 75.1172 71.999L75.7412 70.868C76.1486 71.1973 76.5472 71.44 76.9372 71.596C77.3359 71.752 77.7172 71.83 78.0812 71.83C78.4192 71.83 78.6879 71.7693 78.8872 71.648C79.0952 71.5267 79.1992 71.3447 79.1992 71.102C79.1992 70.9373 79.1429 70.8117 79.0302 70.725C78.9176 70.6297 78.7529 70.5473 78.5362 70.478C78.3282 70.4087 78.0726 70.3307 77.7692 70.244C77.2666 70.0793 76.8462 69.919 76.5082 69.763C76.1702 69.607 75.9146 69.412 75.7412 69.178C75.5766 68.9353 75.4942 68.6277 75.4942 68.255C75.4942 67.8043 75.6069 67.4187 75.8322 67.098C76.0662 66.7687 76.3869 66.513 76.7942 66.331C77.2102 66.149 77.6956 66.058 78.2502 66.058C78.7356 66.058 79.1949 66.136 79.6282 66.292C80.0616 66.4393 80.4559 66.682 80.8112 67.02L80.1092 68.125C79.7626 67.8563 79.4332 67.6613 79.1212 67.54C78.8092 67.41 78.4929 67.345 78.1722 67.345C77.9902 67.345 77.8169 67.3667 77.6522 67.41C77.4962 67.4533 77.3662 67.527 77.2622 67.631C77.1669 67.7263 77.1192 67.865 77.1192 68.047C77.1192 68.2117 77.1626 68.3417 77.2492 68.437C77.3446 68.5237 77.4832 68.6017 77.6652 68.671C77.8559 68.7403 78.0856 68.8183 78.3542 68.905C78.9002 69.061 79.3596 69.2213 79.7322 69.386C80.1136 69.5507 80.3996 69.7543 80.5902 69.997C80.7809 70.231 80.8762 70.556 80.8762 70.972C80.8762 71.648 80.6292 72.1767 80.1352 72.558C79.6412 72.9393 78.9782 73.13 78.1462 73.13ZM86.1431 73.13C85.6144 73.13 85.1464 73.013 84.7391 72.779C84.3404 72.5363 84.0284 72.2113 83.8031 71.804V75.769H82.0611V66.188H83.5821V67.358C83.8421 66.9593 84.1714 66.6473 84.5701 66.422C84.9687 66.188 85.4237 66.071 85.9351 66.071C86.3944 66.071 86.8147 66.162 87.1961 66.344C87.5861 66.526 87.9241 66.7817 88.2101 67.111C88.4961 67.4317 88.7171 67.8043 88.8731 68.229C89.0377 68.645 89.1201 69.0957 89.1201 69.581C89.1201 70.2397 88.9901 70.8377 88.7301 71.375C88.4787 71.9123 88.1277 72.3413 87.6771 72.662C87.2351 72.974 86.7237 73.13 86.1431 73.13ZM85.5581 71.648C85.8267 71.648 86.0694 71.5917 86.2861 71.479C86.5027 71.3663 86.6891 71.2147 86.8451 71.024C87.0097 70.8247 87.1311 70.6037 87.2091 70.361C87.2957 70.1097 87.3391 69.8497 87.3391 69.581C87.3391 69.295 87.2914 69.0307 87.1961 68.788C87.1094 68.5453 86.9794 68.333 86.8061 68.151C86.6327 67.9603 86.4291 67.813 86.1951 67.709C85.9697 67.605 85.7227 67.553 85.4541 67.553C85.2894 67.553 85.1204 67.5833 84.9471 67.644C84.7824 67.696 84.6221 67.774 84.4661 67.878C84.3101 67.982 84.1714 68.1033 84.0501 68.242C83.9374 68.3807 83.8551 68.5323 83.8031 68.697V70.296C83.9071 70.5473 84.0457 70.777 84.2191 70.985C84.4011 71.193 84.6091 71.3577 84.8431 71.479C85.0771 71.5917 85.3154 71.648 85.5581 71.648ZM93.4463 73.13C92.8917 73.13 92.3933 73.039 91.9513 72.857C91.5093 72.6663 91.1323 72.4063 90.8203 72.077C90.517 71.7477 90.283 71.3707 90.1183 70.946C89.9537 70.5213 89.8713 70.075 89.8713 69.607C89.8713 69.1303 89.9537 68.6797 90.1183 68.255C90.283 67.8303 90.517 67.4533 90.8203 67.124C91.1323 66.7947 91.5093 66.539 91.9513 66.357C92.3933 66.1663 92.8917 66.071 93.4463 66.071C94.001 66.071 94.495 66.1663 94.9283 66.357C95.3703 66.539 95.7473 66.7947 96.0593 67.124C96.3713 67.4533 96.6053 67.8303 96.7613 68.255C96.926 68.6797 97.0083 69.1303 97.0083 69.607C97.0083 70.075 96.926 70.5213 96.7613 70.946C96.6053 71.3707 96.3713 71.7477 96.0593 72.077C95.756 72.4063 95.3833 72.6663 94.9413 72.857C94.4993 73.039 94.001 73.13 93.4463 73.13ZM91.6653 69.607C91.6653 70.0057 91.7433 70.361 91.8993 70.673C92.0553 70.9763 92.2677 71.2147 92.5363 71.388C92.805 71.5613 93.1083 71.648 93.4463 71.648C93.7757 71.648 94.0747 71.5613 94.3433 71.388C94.612 71.206 94.8243 70.9633 94.9803 70.66C95.145 70.348 95.2273 69.9927 95.2273 69.594C95.2273 69.204 95.145 68.853 94.9803 68.541C94.8243 68.229 94.612 67.9863 94.3433 67.813C94.0747 67.6397 93.7757 67.553 93.4463 67.553C93.1083 67.553 92.805 67.644 92.5363 67.826C92.2677 67.9993 92.0553 68.242 91.8993 68.554C91.7433 68.8573 91.6653 69.2083 91.6653 69.607ZM102.165 72.649C102.017 72.7097 101.84 72.779 101.632 72.857C101.424 72.935 101.198 72.9957 100.956 73.039C100.722 73.091 100.483 73.117 100.241 73.117C99.9199 73.117 99.6252 73.0607 99.3566 72.948C99.0879 72.8353 98.8712 72.6577 98.7066 72.415C98.5506 72.1637 98.4726 71.8387 98.4726 71.44V67.527H97.5756V66.188H98.4726V63.978H100.215V66.188H101.645V67.527H100.215V70.855C100.223 71.089 100.288 71.258 100.41 71.362C100.531 71.466 100.683 71.518 100.865 71.518C101.047 71.518 101.224 71.4877 101.398 71.427C101.571 71.3663 101.71 71.3143 101.814 71.271L102.165 72.649ZM65.676 96H62.862V89.826C62.862 88.944 62.708 88.3 62.4 87.894C62.092 87.488 61.665 87.285 61.119 87.285C60.741 87.285 60.356 87.383 59.964 87.579C59.586 87.775 59.243 88.048 58.935 88.398C58.627 88.734 58.403 89.126 58.263 89.574V96H55.449V84.996H57.99V87.033C58.27 86.557 58.627 86.158 59.061 85.836C59.495 85.5 59.992 85.248 60.552 85.08C61.126 84.898 61.728 84.807 62.358 84.807C63.044 84.807 63.604 84.933 64.038 85.185C64.486 85.423 64.822 85.752 65.046 86.172C65.284 86.578 65.445 87.04 65.529 87.558C65.627 88.076 65.676 88.601 65.676 89.133V96ZM73.2258 96.21C72.3438 96.21 71.5458 96.063 70.8318 95.769C70.1178 95.461 69.5088 95.048 69.0048 94.53C68.5008 93.998 68.1088 93.396 67.8288 92.724C67.5628 92.038 67.4298 91.317 67.4298 90.561C67.4298 89.511 67.6608 88.552 68.1228 87.684C68.5988 86.816 69.2708 86.123 70.1388 85.605C71.0208 85.073 72.0568 84.807 73.2468 84.807C74.4508 84.807 75.4798 85.073 76.3338 85.605C77.1878 86.123 77.8388 86.816 78.2868 87.684C78.7488 88.538 78.9798 89.462 78.9798 90.456C78.9798 90.624 78.9728 90.799 78.9588 90.981C78.9448 91.149 78.9308 91.289 78.9168 91.401H70.4118C70.4678 91.961 70.6288 92.451 70.8948 92.871C71.1748 93.291 71.5248 93.613 71.9448 93.837C72.3788 94.047 72.8408 94.152 73.3308 94.152C73.8908 94.152 74.4158 94.019 74.9058 93.753C75.4098 93.473 75.7528 93.109 75.9348 92.661L78.3498 93.333C78.0838 93.893 77.6988 94.39 77.1948 94.824C76.7048 95.258 76.1238 95.601 75.4518 95.853C74.7798 96.091 74.0378 96.21 73.2258 96.21ZM70.3488 89.616H76.1028C76.0468 89.056 75.8858 88.573 75.6198 88.167C75.3678 87.747 75.0318 87.425 74.6118 87.201C74.1918 86.963 73.7228 86.844 73.2048 86.844C72.7008 86.844 72.2388 86.963 71.8188 87.201C71.4128 87.425 71.0768 87.747 70.8108 88.167C70.5588 88.573 70.4048 89.056 70.3488 89.616ZM94.0365 84.996H96.7035L92.1045 96H89.7525L87.9045 91.275L86.0985 96H83.7255L79.1475 84.996H81.7935L85.0695 93.312L86.3505 89.721L84.4395 85.017H86.7705L87.9045 88.377L89.0595 85.017H91.3905L89.4795 89.721L90.7815 93.312L94.0365 84.996ZM101.789 96.21C100.851 96.21 99.9551 96.056 99.1011 95.748C98.2471 95.44 97.5121 94.985 96.8961 94.383L97.9041 92.556C98.5621 93.088 99.2061 93.48 99.8361 93.732C100.48 93.984 101.096 94.11 101.684 94.11C102.23 94.11 102.664 94.012 102.986 93.816C103.322 93.62 103.49 93.326 103.49 92.934C103.49 92.668 103.399 92.465 103.217 92.325C103.035 92.171 102.769 92.038 102.419 91.926C102.083 91.814 101.67 91.688 101.18 91.548C100.368 91.282 99.6891 91.023 99.1431 90.771C98.5971 90.519 98.1841 90.204 97.9041 89.826C97.6381 89.434 97.5051 88.937 97.5051 88.335C97.5051 87.607 97.6871 86.984 98.0511 86.466C98.4291 85.934 98.9471 85.521 99.6051 85.227C100.277 84.933 101.061 84.786 101.957 84.786C102.741 84.786 103.483 84.912 104.183 85.164C104.883 85.402 105.52 85.794 106.094 86.34L104.96 88.125C104.4 87.691 103.868 87.376 103.364 87.18C102.86 86.97 102.349 86.865 101.831 86.865C101.537 86.865 101.257 86.9 100.991 86.97C100.739 87.04 100.529 87.159 100.361 87.327C100.207 87.481 100.13 87.705 100.13 87.999C100.13 88.265 100.2 88.475 100.34 88.629C100.494 88.769 100.718 88.895 101.012 89.007C101.32 89.119 101.691 89.245 102.125 89.385C103.007 89.637 103.749 89.896 104.351 90.162C104.967 90.428 105.429 90.757 105.737 91.149C106.045 91.527 106.199 92.052 106.199 92.724C106.199 93.816 105.8 94.67 105.002 95.286C104.204 95.902 103.133 96.21 101.789 96.21Z" fill="white"/>
</svg>
