<svg width="35" height="44" viewBox="0 0 35 44" fill="none" xmlns="http://www.w3.org/2000/svg">
<g clip-path="url(#clip0_242_1427)">
<path d="M27.1333 0H0V44H34.4667V7.33333L27.1333 0Z" fill="#E8E8E8"/>
<path d="M28.6105 21.7589C28.0867 20.816 26.2639 20.5227 25.4677 20.3865C24.8017 20.289 24.1292 20.2435 23.4562 20.2503C22.9324 20.2503 22.4086 20.2503 21.9058 20.3027H21.3505C21.1515 20.1036 20.9734 19.9046 20.7953 19.6951C19.6737 18.3386 18.7334 16.8419 17.9981 15.2427C18.2044 14.4581 18.355 13.6599 18.4486 12.8541C18.7107 11.2887 18.5958 9.68337 18.1134 8.17126C17.9248 7.67888 17.401 7.12364 16.7934 7.37507C16.1858 7.6265 15.9134 8.70555 15.8505 9.39697C15.8102 9.96052 15.8383 10.5269 15.9343 11.0836C16.0357 11.6307 16.1757 12.1698 16.3534 12.697C16.5105 13.1789 16.6886 13.6608 16.8772 14.1427C16.7515 14.5198 16.6258 14.8865 16.4896 15.2427C16.1858 16.0598 15.84 16.8455 15.5153 17.5894L15.0124 18.637C14.502 19.78 13.932 20.8955 13.3048 21.9789C11.9395 22.4378 10.6317 23.053 9.40766 23.8122C8.8245 24.189 8.28972 24.6358 7.81528 25.1427C7.3517 25.5612 7.04802 26.1278 6.95624 26.7455C6.9454 26.9151 6.97597 27.0848 7.04532 27.2399C7.11468 27.3951 7.22073 27.531 7.35433 27.636C7.55589 27.7602 7.78146 27.8403 8.0162 27.871C8.25094 27.9017 8.48952 27.8823 8.71624 27.8141C10.2039 27.4998 11.3458 26.2217 12.32 25.1427C13.1216 24.2468 13.8668 23.3022 14.5515 22.3141C16.0025 21.8624 17.4832 21.5124 18.9829 21.2665C19.7058 21.1408 20.4496 21.0465 21.2039 20.9732C21.7341 21.4778 22.3172 21.9238 22.9429 22.3036C23.4297 22.6099 23.9499 22.8594 24.4934 23.0475C25.0373 23.2288 25.5941 23.3689 26.1591 23.4665C26.4538 23.5104 26.7518 23.5279 27.0496 23.5189C27.72 23.5189 28.6839 23.236 28.7467 22.4189C28.7752 22.1899 28.7274 21.9579 28.6105 21.7589ZM12.5715 23.257C12.2467 23.7389 11.9429 24.1789 11.66 24.5665C11.0306 25.6409 10.1074 26.5132 8.99909 27.0808C8.74176 27.1787 8.46765 27.225 8.19243 27.217C7.92005 27.217 7.64766 27.0808 7.65814 26.777C7.68262 26.5746 7.7544 26.3808 7.86766 26.2113C8.00092 25.9881 8.15908 25.7807 8.33909 25.5932C8.77173 25.1595 9.24935 24.7732 9.76385 24.4408C10.7112 23.8476 11.7148 23.3493 12.76 22.9532L12.5715 23.257ZM16.521 11.0313C16.4305 10.5265 16.4129 10.0115 16.4686 9.50174C16.4976 9.25971 16.5502 9.02111 16.6258 8.78935C16.6781 8.59031 16.8143 8.11888 17.0343 8.05602C17.2543 7.99316 17.4953 8.71602 17.5267 8.93602C17.6983 10.1932 17.6164 11.472 17.2858 12.697C17.2858 12.8855 17.1915 13.0741 17.1496 13.2627C17.0658 13.0322 16.9819 12.8017 16.9086 12.5608C16.7272 12.0624 16.5837 11.5512 16.4791 11.0313H16.521ZM18.8572 20.6484C17.5846 20.8487 16.3252 21.125 15.0858 21.476C15.4427 20.9938 15.7581 20.4821 16.0286 19.9465C16.711 18.7412 17.2624 17.4663 17.6734 16.1436C18.3808 17.5652 19.2642 18.8921 20.3029 20.0932L20.6067 20.4074C20.0515 20.4808 19.4648 20.5541 18.8572 20.6484ZM27.8143 22.3455C27.7619 22.6075 27.2067 22.7541 26.9448 22.796C26.1631 22.9071 25.3661 22.8317 24.6191 22.576C23.614 22.2242 22.6908 21.6718 21.9058 20.9522C22.3981 20.9522 22.9534 20.9522 23.4143 20.9522C23.9224 20.9558 24.4297 20.9908 24.9334 21.057C25.9275 21.1461 26.8775 21.5087 27.6781 22.1046C27.8248 22.1465 27.8772 22.2513 27.8562 22.3455H27.8143Z" fill="#FB3449"/>
<path d="M28.2648 3.66667H0V0H27.1333L28.2648 3.66667Z" fill="#FB3449"/>
<path d="M13.6191 35.0008C13.6389 35.3331 13.5875 35.6658 13.4682 35.9765C13.349 36.2873 13.1647 36.569 12.9277 36.8028C12.382 37.2529 11.685 37.4777 10.9791 37.4313H10.4763V39.7466H8.59058V32.7799H11.0001C11.7077 32.7298 12.4099 32.9341 12.9801 33.3561C13.1998 33.5673 13.3708 33.8238 13.4812 34.1079C13.5916 34.392 13.6387 34.6967 13.6191 35.0008ZM10.4763 35.9018H10.822C10.9524 35.907 11.0823 35.8845 11.2033 35.8357C11.3243 35.787 11.4336 35.7131 11.5239 35.6189C11.6094 35.5346 11.676 35.4331 11.7193 35.3212C11.7627 35.2092 11.7818 35.0893 11.7753 34.9694C11.7753 34.498 11.5134 34.257 11.0001 34.257H10.4763V35.9018Z" fill="#A4A9AD"/>
<path d="M20.6591 36.1113C20.6857 36.5944 20.615 37.078 20.4512 37.5332C20.2875 37.9885 20.0339 38.4063 19.7057 38.7618C19.3408 39.0912 18.9137 39.3443 18.4495 39.5062C17.9854 39.6681 17.4935 39.7356 17.0029 39.7046H14.7505V32.7799H17.16C18.101 32.7219 19.0281 33.0297 19.7476 33.6389C20.0644 33.9641 20.3093 34.3522 20.4663 34.7782C20.6233 35.2041 20.689 35.6583 20.6591 36.1113ZM18.7105 36.1846C18.7481 35.6809 18.6153 35.1791 18.3333 34.7599C18.189 34.6005 18.0101 34.4761 17.8104 34.3962C17.6107 34.3164 17.3955 34.2831 17.181 34.2989H16.6362V38.2065H17.0553C17.2893 38.2248 17.5245 38.189 17.7425 38.1018C17.9605 38.0146 18.1555 37.8784 18.3124 37.7037C18.6088 37.255 18.7487 36.721 18.7105 36.1846Z" fill="#A4A9AD"/>
<path d="M23.76 39.7465H21.9058V32.7798H26.0229V34.2884H23.76V35.6188H25.8553V37.1274H23.76V39.7465Z" fill="#A4A9AD"/>
<path d="M27.1333 7.33333H34.4666L27.1333 0V7.33333Z" fill="#D1D3D3"/>
</g>
<defs>
<clipPath id="clip0_242_1427">
<rect width="34.4667" height="44" fill="white"/>
</clipPath>
</defs>
</svg>
