<svg width="591" height="596" viewBox="0 0 591 596" fill="none" xmlns="http://www.w3.org/2000/svg">
<path d="M390.057 360.483L590.662 600H419.078L291.325 397.807L390.057 360.483Z" fill="#CE9C77"/>
<path d="M439.974 242.595C438.496 241.537 436.825 240.78 435.055 240.368C433.284 239.956 431.45 239.896 429.657 240.192C427.864 240.489 426.147 241.135 424.604 242.095C423.061 243.055 421.722 244.309 420.664 245.787L390.804 287.459L390.395 248.33H390.256L390.295 124.22C390.289 121.415 389.202 118.72 387.259 116.695C385.317 114.669 382.669 113.47 379.865 113.346C377.061 113.221 374.317 114.181 372.203 116.026C370.088 117.871 368.766 120.459 368.511 123.253L357.359 248.675L352.614 248.727L343.851 109.449C343.667 106.644 342.407 104.018 340.332 102.119C338.258 100.219 335.53 99.1942 332.718 99.2566C329.906 99.319 327.226 100.464 325.238 102.453C323.25 104.442 322.108 107.122 322.048 109.933L319.468 249.071L317.04 249.097L308.957 124.317C308.799 121.749 307.652 119.343 305.755 117.604C303.859 115.865 301.361 114.929 298.789 114.993C296.216 115.057 293.768 116.116 291.96 117.947C290.153 119.777 289.126 122.238 289.096 124.81L287.228 249.41L280.826 249.474L271.67 152.375C271.436 150.021 270.305 147.847 268.511 146.304C266.717 144.761 264.397 143.968 262.034 144.087C259.67 144.207 257.443 145.231 255.814 146.948C254.186 148.664 253.28 150.941 253.286 153.307L254.134 267.356C254.134 267.752 254.16 268.178 254.199 268.581C254.31 269.719 254.559 270.839 254.94 271.917L257.698 353.311C258.196 367.951 264.403 381.815 274.994 391.94C285.585 402.065 299.718 407.647 314.372 407.494L329.302 407.339C357.097 407.049 380.468 388.732 388.45 363.62C388.624 363.33 388.795 363.037 388.956 362.737L444.108 260.406C445.705 257.442 446.166 253.999 445.405 250.72C444.644 247.442 442.713 244.553 439.974 242.595Z" fill="#CE9C77"/>
<g style="mix-blend-mode:multiply" opacity="0.29">
<path d="M303.094 406.472C314.938 403.881 325.623 397.527 333.552 388.36C341.48 379.193 346.225 367.707 347.077 355.619L352.815 274.383C353.236 273.32 353.526 272.209 353.679 271.076C353.731 270.676 353.767 270.251 353.786 269.857L354.718 248.701L352.599 248.723L346.197 146.953C344.676 147.564 343.344 148.566 342.336 149.858C341.328 151.15 340.68 152.686 340.459 154.309L327.758 251.018L321.362 250.719L324.052 126.135C324.105 123.794 323.327 121.509 321.856 119.687L319.469 249.071L317.04 249.097L308.958 124.316C308.828 122.394 308.142 120.551 306.984 119.01C305.428 120.613 304.454 122.692 304.22 124.913L291.587 249.316L289.158 249.2L291.525 118.449C289.989 120.216 289.129 122.469 289.097 124.81L287.229 249.41L280.827 249.474L271.671 152.375C271.51 150.764 270.931 149.223 269.991 147.905C269.051 146.587 267.782 145.537 266.31 144.861L256.064 247.646L253.983 247.55L254.129 267.356C254.129 267.752 254.154 268.178 254.193 268.581C254.305 269.719 254.554 270.839 254.935 271.917L257.699 353.311C258.13 365.999 262.854 378.166 271.1 387.822C279.346 397.478 290.625 404.053 303.094 406.472Z" fill="#4E3B2D"/>
</g>
<path d="M149.62 238.33C151.135 237.327 152.833 236.632 154.617 236.285C156.4 235.938 158.235 235.945 160.016 236.307C161.797 236.669 163.489 237.377 164.996 238.393C166.502 239.408 167.794 240.71 168.797 242.224L197.115 284.97L198.954 245.883H199.079L203.575 121.854C203.678 119.047 204.86 116.388 206.876 114.43C208.891 112.473 211.584 111.367 214.394 111.344C217.204 111.322 219.914 112.383 221.961 114.307C224.008 116.232 225.233 118.871 225.381 121.676L231.971 247.44L236.712 247.663L250.558 108.801C250.834 105.996 252.187 103.407 254.332 101.577C256.476 99.7466 259.247 98.8174 262.062 98.9842C264.877 99.151 267.518 100.401 269.432 102.471C271.345 104.542 272.382 107.272 272.325 110.09L269.806 249.187L272.235 249.303L284.868 124.9C285.132 122.35 286.373 120 288.329 118.342C290.286 116.685 292.808 115.847 295.369 116.004C297.929 116.161 300.33 117.302 302.069 119.187C303.808 121.071 304.75 123.555 304.7 126.118L302.01 250.702L308.406 251.002L321.107 154.293C321.423 151.944 322.633 149.807 324.485 148.327C326.336 146.847 328.688 146.136 331.05 146.344C333.412 146.551 335.603 147.661 337.168 149.441C338.733 151.222 339.551 153.537 339.452 155.905L334.434 269.848C334.415 270.241 334.379 270.666 334.328 271.066C334.174 272.199 333.884 273.31 333.463 274.374L327.725 355.609C326.693 370.22 319.983 383.848 309.031 393.579C298.078 403.311 283.751 408.374 269.113 407.687L254.199 406.988C226.433 405.698 203.746 386.524 196.686 361.141C196.522 360.845 196.364 360.545 196.212 360.235L144.843 255.973C143.358 252.954 143.023 249.498 143.902 246.251C144.781 243.004 146.814 240.188 149.62 238.33Z" fill="#FFDECC"/>
<path d="M201.976 358.843L0 600H171.584L299.337 397.807L201.976 358.843Z" fill="#FFDECC"/>
<path d="M305.036 98.1018L299.531 0L327.229 2.36615L305.036 98.1018Z" fill="#FFD639"/>
<path d="M168.711 135.922L110.437 84.4529L122.922 71.9709L168.711 135.922Z" fill="#FFD639"/>
<path d="M139.55 241.209L36.9871 272.533V249.503L139.55 241.209Z" fill="#FFD639"/>
<path d="M485.459 249.503L551.739 251.547L552.403 272.533L485.459 249.503Z" fill="#FFD639"/>
<path d="M449.766 110.919L469.414 75.5815L484.74 90.8971L449.766 110.919Z" fill="#FFD639"/>
<path d="M388.688 87.1188L394.626 65.8267L401.712 69.2953L388.688 87.1188Z" fill="#FFD639"/>
<path d="M228.945 102.908L216.441 84.6753L223.653 81.4807L228.945 102.908Z" fill="#FFD639"/>
<path d="M148.336 328.305L135.103 346.016L129.752 340.223L148.336 328.305Z" fill="#FFD639"/>
<path d="M446.596 321.155L486.844 343.698L482.325 350.162L446.596 321.155Z" fill="#FFD639"/>
</svg>
