<svg width="100%" height="660" id="rec_svg" viewBox="0 0 1920 660" fill="none" xmlns="http://www.w3.org/2000/svg">
<rect width="100%" height="660" fill="#4D3362"/>
<rect x="259.302" y="180.272" width="164.264" height="84.3623" rx="42.1811" fill="#29AF87"/>
<path d="M310.953 233.068H315.935L319.756 219.281H320.019L323.84 233.068H328.822L334.592 212.725H329.722L326.163 226.961H325.975L322.304 212.725H317.471L313.837 227.036H313.65L310.053 212.725H305.183L310.953 233.068ZM345.326 233.48C350.046 233.48 353.305 231.157 354.167 227.636H349.484C348.866 228.853 347.461 229.752 345.363 229.734C342.272 229.752 340.231 227.692 340.156 224.227H354.354V222.728C354.354 215.591 350.046 212.463 345.063 212.463C339.257 212.463 335.435 216.734 335.435 223.028C335.435 229.396 339.201 233.48 345.326 233.48ZM340.175 220.967C340.343 218.382 342.272 216.172 345.138 216.172C347.892 216.172 349.765 218.195 349.784 220.967H340.175ZM357.521 233.068H362.204V229.846H362.503C363.253 231.345 364.826 233.424 368.348 233.443C373.124 233.424 376.721 229.603 376.739 222.915C376.721 216.135 373.012 212.463 368.31 212.463C364.714 212.463 363.234 214.617 362.503 216.06H362.316V205.945H357.521V233.068ZM362.204 222.878C362.204 218.926 363.908 216.378 366.999 216.359C370.221 216.378 371.85 219.094 371.869 222.878C371.85 226.718 370.183 229.509 366.999 229.509C363.946 229.509 362.204 226.849 362.204 222.878Z" fill="white"/>
<rect x="435.575" y="180.272" width="279.264" height="84.3623" rx="42.1811" fill="#F2614E"/>
<path d="M482.056 227.336C482.056 231.363 484.997 233.48 488.874 233.48C492.078 233.48 493.969 231.981 494.869 230.258H495.018V233.068H499.589V219.469C499.589 214.055 495.131 212.463 491.272 212.463C486.177 212.463 483.068 215.067 482.731 218.532H487.338C487.713 217.071 489.024 216.097 491.16 216.097C493.539 216.097 494.831 217.258 494.831 219.281L494.85 220.911C493.951 220.949 491.047 221.08 489.624 221.192C485.859 221.436 482.056 222.766 482.056 227.336ZM486.664 227.299C486.664 225.519 488.106 224.564 490.373 224.376C491.328 224.301 493.988 224.133 494.85 224.095L494.869 225.763C494.869 228.048 493.014 229.958 490.111 229.958C488.106 229.958 486.664 229.059 486.664 227.299ZM503.317 240.71H508.113V229.846H508.3C509.049 231.345 510.641 233.424 514.144 233.443C518.939 233.424 522.517 229.603 522.536 222.915C522.517 216.135 518.827 212.463 514.144 212.463C510.529 212.463 509.03 214.617 508.3 216.06H508V212.725H503.317V240.71ZM508 222.878C508.019 218.926 509.705 216.378 512.833 216.359C516.036 216.378 517.666 219.094 517.666 222.878C517.666 226.718 515.999 229.509 512.833 229.509C509.742 229.509 508.019 226.849 508 222.878ZM525.515 240.71H530.31V229.846H530.498C531.247 231.345 532.839 233.424 536.342 233.443C541.137 233.424 544.715 229.603 544.734 222.915C544.715 216.135 541.025 212.463 536.342 212.463C532.727 212.463 531.228 214.617 530.498 216.06H530.198V212.725H525.515V240.71ZM530.198 222.878C530.217 218.926 531.902 216.378 535.031 216.359C538.234 216.378 539.863 219.094 539.863 222.878C539.863 226.718 538.196 229.509 535.031 229.509C531.94 229.509 530.217 226.849 530.198 222.878ZM552.508 205.945H547.713V233.068H552.508V205.945ZM556.311 233.068H561.106V212.725H556.311V233.068ZM555.974 207.218C555.974 208.661 557.229 209.822 558.746 209.841C560.264 209.822 561.519 208.661 561.519 207.218C561.519 205.795 560.264 204.633 558.746 204.633C557.229 204.633 555.974 205.795 555.974 207.218ZM573.788 233.48C578.902 233.48 582.161 230.427 582.517 226.137H577.947C577.516 228.329 575.943 229.565 573.826 229.584C570.829 229.565 568.881 227.074 568.881 222.878C568.881 218.776 570.866 216.303 573.826 216.284C576.149 216.303 577.572 217.783 577.947 219.731H582.517C582.18 215.348 578.715 212.463 573.788 212.463C567.832 212.463 564.048 216.753 564.048 222.99C564.048 229.134 567.719 233.48 573.788 233.48ZM584.41 227.336C584.41 231.363 587.351 233.48 591.228 233.48C594.431 233.48 596.323 231.981 597.222 230.258H597.372V233.068H601.943V219.469C601.943 214.055 597.485 212.463 593.626 212.463C588.531 212.463 585.422 215.067 585.084 218.532H589.692C590.067 217.071 591.378 216.097 593.514 216.097C595.892 216.097 597.185 217.258 597.185 219.281L597.204 220.911C596.305 220.949 593.401 221.08 591.978 221.192C588.213 221.436 584.41 222.766 584.41 227.336ZM589.018 227.299C589.018 225.519 590.46 224.564 592.727 224.376C593.682 224.301 596.342 224.133 597.204 224.095L597.222 225.763C597.222 228.048 595.368 229.958 592.465 229.958C590.46 229.958 589.018 229.059 589.018 227.299ZM615.824 212.725H611.815V207.855H607.057V212.725H604.135V216.397H607.057V227.748C607.02 231.569 609.792 233.349 613.388 233.33C614.606 233.349 615.524 233.236 616.086 233.143V229.247C615.486 229.284 614.55 229.34 613.988 229.322C612.789 229.303 611.815 228.909 611.815 226.961V216.397H615.824V212.725ZM618.728 233.068H623.523V212.725H618.728V233.068ZM618.391 207.218C618.391 208.661 619.646 209.822 621.163 209.841C622.68 209.822 623.935 208.661 623.935 207.218C623.935 205.795 622.68 204.633 621.163 204.633C619.646 204.633 618.391 205.795 618.391 207.218ZM636.205 233.48C642.162 233.48 645.964 229.265 645.945 222.99C645.964 216.659 642.162 212.463 636.205 212.463C630.267 212.463 626.465 216.659 626.465 222.99C626.465 229.265 630.267 233.48 636.205 233.48ZM631.297 222.953C631.297 219.225 632.927 216.228 636.243 216.247C639.502 216.228 641.131 219.225 641.113 222.953C641.131 226.68 639.502 229.659 636.243 229.659C632.927 229.659 631.297 226.68 631.297 222.953ZM653.682 221.155C653.682 218.195 655.462 216.49 657.991 216.509C660.482 216.49 661.962 218.12 661.962 220.855V233.068H666.72V220.106C666.738 215.235 663.966 212.463 659.751 212.463C656.717 212.463 654.638 213.905 653.72 216.172H653.458V212.725H648.887V233.068H653.682V221.155Z" fill="white"/>
<rect x="814.811" y="180.272" width="176.264" height="84.3623" rx="42.1811" fill="#469AF5"/>
<path d="M875.228 224.526C875.228 227.636 872.98 229.172 870.882 229.172C868.56 229.172 867.024 227.523 867.024 224.938V212.725H862.228V225.688C862.247 230.558 865.019 233.33 869.047 233.33C872.081 233.33 874.217 231.738 875.153 229.471H875.378V233.068H879.986V212.725H875.228V224.526ZM883.789 233.068H888.585V212.725H883.789V233.068ZM883.452 207.218C883.452 208.661 884.707 209.822 886.224 209.841C887.742 209.822 888.997 208.661 888.997 207.218C888.997 205.795 887.742 204.633 886.224 204.633C884.707 204.633 883.452 205.795 883.452 207.218ZM903.439 204.671H899.281L890.515 237.151H894.711L903.439 204.671ZM918.369 224.526C918.369 227.636 916.121 229.172 914.024 229.172C911.701 229.172 910.165 227.523 910.165 224.938V212.725H905.37V225.688C905.388 230.558 908.161 233.33 912.188 233.33C915.222 233.33 917.358 231.738 918.294 229.471H918.519V233.068H923.127V212.725H918.369V224.526ZM930.827 212.725H925.769L931.838 222.878L925.619 233.068H930.714L934.947 225.725L939.293 233.068H944.313L938.057 222.878L944.201 212.725H939.143L934.947 220.255L930.827 212.725Z" fill="white"/>
<rect x="1003.07" y="180.272" width="241.264" height="84.3623" rx="42.1811" fill="#29AF87"/>
<path d="M1050.48 233.068H1055.28V221.08C1055.28 218.513 1057.23 216.678 1059.89 216.659C1060.67 216.678 1061.67 216.809 1062.1 216.959V212.538C1061.65 212.482 1060.9 212.426 1060.37 212.426C1058.03 212.426 1056.08 213.756 1055.35 216.097H1055.13V212.725H1050.48V233.068ZM1072.53 233.48C1077.25 233.48 1080.51 231.157 1081.37 227.636H1076.69C1076.07 228.853 1074.67 229.752 1072.57 229.734C1069.48 229.752 1067.44 227.692 1067.36 224.227H1081.56V222.728C1081.56 215.591 1077.25 212.463 1072.27 212.463C1066.46 212.463 1062.64 216.734 1062.64 223.028C1062.64 229.396 1066.41 233.48 1072.53 233.48ZM1067.38 220.967C1067.55 218.382 1069.48 216.172 1072.34 216.172C1075.1 216.172 1076.97 218.195 1076.99 220.967H1067.38ZM1096.04 218.532H1100.57C1100.22 214.842 1097.22 212.463 1092.37 212.463C1087.4 212.463 1084.15 214.917 1084.16 218.682C1084.15 221.585 1086.11 223.571 1089.9 224.339L1093.16 225.051C1095.18 225.482 1096.1 226.231 1096.11 227.411C1096.1 228.928 1094.6 229.865 1092.29 229.846C1090.06 229.865 1088.72 229.003 1088.43 227.261H1083.56C1084.07 231.157 1087.12 233.48 1092.29 233.48C1097.61 233.48 1100.97 230.82 1100.99 226.999C1100.97 224.077 1099.09 222.297 1095.25 221.454L1091.81 220.742C1089.75 220.255 1088.9 219.469 1088.92 218.42C1088.9 217.034 1090.4 216.003 1092.44 216.022C1094.47 216.003 1095.74 216.996 1096.04 218.532ZM1112.88 233.48C1117.6 233.48 1120.86 231.157 1121.72 227.636H1117.04C1116.42 228.853 1115.02 229.752 1112.92 229.734C1109.83 229.752 1107.79 227.692 1107.71 224.227H1121.91V222.728C1121.91 215.591 1117.6 212.463 1112.62 212.463C1106.81 212.463 1102.99 216.734 1102.99 223.028C1102.99 229.396 1106.76 233.48 1112.88 233.48ZM1107.73 220.967C1107.9 218.382 1109.83 216.172 1112.69 216.172C1115.45 216.172 1117.32 218.195 1117.34 220.967H1107.73ZM1123.91 227.336C1123.91 231.363 1126.85 233.48 1130.73 233.48C1133.94 233.48 1135.83 231.981 1136.73 230.258H1136.88V233.068H1141.45V219.469C1141.45 214.055 1136.99 212.463 1133.13 212.463C1128.03 212.463 1124.93 215.067 1124.59 218.532H1129.2C1129.57 217.071 1130.88 216.097 1133.02 216.097C1135.4 216.097 1136.69 217.258 1136.69 219.281L1136.71 220.911C1135.81 220.949 1132.91 221.08 1131.48 221.192C1127.72 221.436 1123.91 222.766 1123.91 227.336ZM1128.52 227.299C1128.52 225.519 1129.96 224.564 1132.23 224.376C1133.19 224.301 1135.85 224.133 1136.71 224.095L1136.73 225.763C1136.73 228.048 1134.87 229.958 1131.97 229.958C1129.96 229.958 1128.52 229.059 1128.52 227.299ZM1145.18 233.068H1149.97V221.08C1149.97 218.513 1151.92 216.678 1154.58 216.659C1155.37 216.678 1156.36 216.809 1156.79 216.959V212.538C1156.34 212.482 1155.59 212.426 1155.07 212.426C1152.72 212.426 1150.78 213.756 1150.05 216.097H1149.82V212.725H1145.18V233.068ZM1167.07 233.48C1172.19 233.48 1175.45 230.427 1175.8 226.137H1171.23C1170.8 228.329 1169.23 229.565 1167.11 229.584C1164.11 229.565 1162.17 227.074 1162.17 222.878C1162.17 218.776 1164.15 216.303 1167.11 216.284C1169.43 216.303 1170.86 217.783 1171.23 219.731H1175.8C1175.46 215.348 1172 212.463 1167.07 212.463C1161.12 212.463 1157.33 216.753 1157.33 222.99C1157.33 229.134 1161 233.48 1167.07 233.48ZM1183.43 221.155C1183.43 218.195 1185.26 216.49 1187.85 216.509C1190.36 216.49 1191.84 218.083 1191.86 220.855V233.068H1196.61V220.106C1196.61 215.198 1193.82 212.463 1189.61 212.463C1186.48 212.463 1184.49 213.868 1183.58 216.172H1183.31V205.945H1178.63V233.068H1183.43V221.155Z" fill="white"/>
<rect x="1256.94" y="180.272" width="314.264" height="84.3623" rx="42.1811" fill="#AB6AF9"/>
<path d="M1311.93 233.443C1315.45 233.424 1317 231.345 1317.77 229.846H1318.03V233.068H1322.72V205.945H1317.96V216.06H1317.77C1317.04 214.617 1315.54 212.463 1311.97 212.463C1307.25 212.463 1303.54 216.135 1303.54 222.915C1303.54 229.603 1307.15 233.424 1311.93 233.443ZM1308.41 222.878C1308.41 219.094 1310.06 216.378 1313.24 216.359C1316.35 216.378 1318.07 218.926 1318.07 222.878C1318.07 226.849 1316.33 229.509 1313.24 229.509C1310.09 229.509 1308.41 226.718 1308.41 222.878ZM1325.85 227.336C1325.85 231.363 1328.79 233.48 1332.66 233.48C1335.87 233.48 1337.76 231.981 1338.66 230.258H1338.81V233.068H1343.38V219.469C1343.38 214.055 1338.92 212.463 1335.06 212.463C1329.97 212.463 1326.86 215.067 1326.52 218.532H1331.13C1331.5 217.071 1332.81 216.097 1334.95 216.097C1337.33 216.097 1338.62 217.258 1338.62 219.281L1338.64 220.911C1337.74 220.949 1334.84 221.08 1333.41 221.192C1329.65 221.436 1325.85 222.766 1325.85 227.336ZM1330.45 227.299C1330.45 225.519 1331.9 224.564 1334.16 224.376C1335.12 224.301 1337.78 224.133 1338.64 224.095L1338.66 225.763C1338.66 228.048 1336.8 229.958 1333.9 229.958C1331.9 229.958 1330.45 229.059 1330.45 227.299ZM1357.26 212.725H1353.25V207.855H1348.49V212.725H1345.57V216.397H1348.49V227.748C1348.46 231.569 1351.23 233.349 1354.83 233.33C1356.04 233.349 1356.96 233.236 1357.52 233.143V229.247C1356.92 229.284 1355.99 229.34 1355.42 229.322C1354.23 229.303 1353.25 228.909 1353.25 226.961V216.397H1357.26V212.725ZM1359.23 227.336C1359.23 231.363 1362.17 233.48 1366.05 233.48C1369.25 233.48 1371.14 231.981 1372.04 230.258H1372.19V233.068H1376.76V219.469C1376.76 214.055 1372.3 212.463 1368.44 212.463C1363.35 212.463 1360.24 215.067 1359.9 218.532H1364.51C1364.88 217.071 1366.2 216.097 1368.33 216.097C1370.71 216.097 1372 217.258 1372 219.281L1372.02 220.911C1371.12 220.949 1368.22 221.08 1366.8 221.192C1363.03 221.436 1359.23 222.766 1359.23 227.336ZM1363.84 227.299C1363.84 225.519 1365.28 224.564 1367.54 224.376C1368.5 224.301 1371.16 224.133 1372.02 224.095L1372.04 225.763C1372.04 228.048 1370.19 229.958 1367.28 229.958C1365.28 229.958 1363.84 229.059 1363.84 227.299ZM1387.89 227.336C1387.89 231.363 1390.83 233.48 1394.71 233.48C1397.91 233.48 1399.8 231.981 1400.7 230.258H1400.85V233.068H1405.42V219.469C1405.42 214.055 1400.96 212.463 1397.1 212.463C1392.01 212.463 1388.9 215.067 1388.56 218.532H1393.17C1393.55 217.071 1394.86 216.097 1396.99 216.097C1399.37 216.097 1400.66 217.258 1400.66 219.281L1400.68 220.911C1399.78 220.949 1396.88 221.08 1395.46 221.192C1391.69 221.436 1387.89 222.766 1387.89 227.336ZM1392.5 227.299C1392.5 225.519 1393.94 224.564 1396.21 224.376C1397.16 224.301 1399.82 224.133 1400.68 224.095L1400.7 225.763C1400.7 228.048 1398.85 229.958 1395.94 229.958C1393.94 229.958 1392.5 229.059 1392.5 227.299ZM1413.94 221.155C1413.94 218.195 1415.72 216.49 1418.25 216.509C1420.74 216.49 1422.22 218.12 1422.22 220.855V233.068H1426.98V220.106C1427 215.235 1424.23 212.463 1420.01 212.463C1416.98 212.463 1414.9 213.905 1413.98 216.172H1413.72V212.725H1409.15V233.068H1413.94V221.155ZM1429.85 227.336C1429.85 231.363 1432.79 233.48 1436.67 233.48C1439.87 233.48 1441.76 231.981 1442.66 230.258H1442.81V233.068H1447.38V219.469C1447.38 214.055 1442.92 212.463 1439.06 212.463C1433.97 212.463 1430.86 215.067 1430.52 218.532H1435.13C1435.51 217.071 1436.82 216.097 1438.95 216.097C1441.33 216.097 1442.62 217.258 1442.62 219.281L1442.64 220.911C1441.74 220.949 1438.84 221.08 1437.42 221.192C1433.65 221.436 1429.85 222.766 1429.85 227.336ZM1434.46 227.299C1434.46 225.519 1435.9 224.564 1438.17 224.376C1439.12 224.301 1441.78 224.133 1442.64 224.095L1442.66 225.763C1442.66 228.048 1440.81 229.958 1437.9 229.958C1435.9 229.958 1434.46 229.059 1434.46 227.299ZM1455.91 205.945H1451.11V233.068H1455.91V205.945ZM1462.59 240.71C1466.41 240.692 1468.55 238.781 1469.71 235.54L1477.88 212.725H1472.82L1468.1 228.085H1467.88L1463.15 212.725H1458.1L1465.52 233.48L1465.1 234.566C1464.28 236.758 1463.3 236.833 1462.14 236.852C1461.51 236.833 1460.7 236.833 1460.12 236.777V240.598C1460.74 240.673 1461.64 240.692 1462.59 240.71ZM1491.65 218.532H1496.18C1495.82 214.842 1492.83 212.463 1487.98 212.463C1483.01 212.463 1479.75 214.917 1479.77 218.682C1479.75 221.585 1481.72 223.571 1485.5 224.339L1488.76 225.051C1490.78 225.482 1491.7 226.231 1491.72 227.411C1491.7 228.928 1490.2 229.865 1487.9 229.846C1485.67 229.865 1484.32 229.003 1484.04 227.261H1479.17C1479.68 231.157 1482.73 233.48 1487.9 233.48C1493.22 233.48 1496.57 230.82 1496.59 226.999C1496.57 224.077 1494.7 222.297 1490.86 221.454L1487.41 220.742C1485.35 220.255 1484.51 219.469 1484.53 218.42C1484.51 217.034 1486.01 216.003 1488.05 216.022C1490.07 216.003 1491.35 216.996 1491.65 218.532ZM1499.46 233.068H1504.25V212.725H1499.46V233.068ZM1499.12 207.218C1499.12 208.661 1500.38 209.822 1501.89 209.841C1503.41 209.822 1504.67 208.661 1504.67 207.218C1504.67 205.795 1503.41 204.633 1501.89 204.633C1500.38 204.633 1499.12 205.795 1499.12 207.218ZM1519.6 218.532H1524.13C1523.77 214.842 1520.78 212.463 1515.92 212.463C1510.96 212.463 1507.7 214.917 1507.72 218.682C1507.7 221.585 1509.67 223.571 1513.45 224.339L1516.71 225.051C1518.73 225.482 1519.65 226.231 1519.67 227.411C1519.65 228.928 1518.15 229.865 1515.85 229.846C1513.62 229.865 1512.27 229.003 1511.99 227.261H1507.12C1507.63 231.157 1510.68 233.48 1515.85 233.48C1521.17 233.48 1524.52 230.82 1524.54 226.999C1524.52 224.077 1522.65 222.297 1518.81 221.454L1515.36 220.742C1513.3 220.255 1512.46 219.469 1512.48 218.42C1512.46 217.034 1513.96 216.003 1516 216.022C1518.02 216.003 1519.3 216.996 1519.6 218.532Z" fill="white"/>
<g clip-path="url(#clip0_2_5495)">
<path d="M1596.58 198.175C1603.17 191.525 1611.47 188.091 1621.49 187.874C1626.09 187.848 1630.66 188.743 1634.91 190.508C1639.17 192.272 1643.02 194.87 1646.26 198.149C1652.82 204.733 1656.53 213.629 1656.6 222.922C1656.57 232.272 1652.85 241.231 1646.25 247.853C1643.01 251.129 1639.15 253.725 1634.9 255.488C1630.64 257.25 1626.08 258.143 1621.47 258.114C1616.85 258.151 1612.26 257.262 1607.99 255.499C1603.72 253.737 1599.84 251.137 1596.58 247.853C1590.02 241.268 1586.3 232.374 1586.23 223.079C1586.27 213.738 1589.99 204.79 1596.58 198.175Z" fill="#FBF8F3"/>
<path d="M1641.42 223.001C1641.34 228.296 1639.21 233.354 1635.48 237.109C1633.65 238.972 1631.46 240.449 1629.05 241.45C1626.64 242.451 1624.06 242.957 1621.45 242.937C1618.82 242.973 1616.22 242.474 1613.8 241.472C1611.38 240.47 1609.18 238.986 1607.35 237.109C1603.67 233.315 1601.54 228.285 1601.37 223.001C1601.34 220.422 1601.82 217.862 1602.78 215.469C1603.74 213.075 1605.16 210.893 1606.96 209.049C1610.84 205.264 1616.03 203.124 1621.45 203.077C1624.06 203.007 1626.65 203.482 1629.07 204.472C1631.48 205.462 1633.67 206.946 1635.48 208.827C1639.2 212.613 1641.33 217.688 1641.42 223.001Z" fill="#FBF8F3"/>
<path d="M1621.49 261.178C1610.65 260.866 1601.64 257.132 1594.43 249.978C1587.22 242.824 1583.52 233.832 1583.32 223.001C1583.29 218.004 1584.26 213.052 1586.17 208.434C1588.08 203.815 1590.89 199.623 1594.43 196.102C1597.96 192.532 1602.16 189.698 1606.79 187.764C1611.42 185.829 1616.39 184.833 1621.41 184.833C1626.43 184.833 1631.4 185.829 1636.03 187.764C1640.67 189.698 1644.87 192.532 1648.4 196.102C1651.94 199.623 1654.75 203.815 1656.66 208.434C1658.57 213.052 1659.53 218.004 1659.51 223.001C1659.3 233.84 1655.6 242.833 1648.4 249.978C1641.25 257.108 1631.58 261.133 1621.49 261.178ZM1621.49 192.073C1613.27 192.144 1605.41 195.419 1599.57 201.2C1593.78 207.011 1590.53 214.878 1590.53 223.079C1590.53 231.28 1593.78 239.147 1599.57 244.958C1605.38 250.757 1613.25 254.012 1621.46 254.006C1629.66 254 1637.53 250.733 1643.33 244.926C1649.13 239.118 1652.39 231.244 1652.38 223.036C1652.37 214.829 1649.11 206.96 1643.3 201.161C1637.5 195.392 1629.67 192.117 1621.49 192.034V192.073Z" fill="#EF4B44"/>
<path d="M1621.49 246.001C1615.41 245.986 1609.57 243.59 1605.24 239.325C1603.09 237.184 1601.39 234.639 1600.24 231.837C1599.08 229.035 1598.49 226.032 1598.5 223.001C1598.41 220.028 1598.93 217.068 1600.02 214.301C1601.12 211.535 1602.76 209.021 1604.86 206.911C1609.25 202.551 1615.16 200.076 1621.34 200.013C1624.37 199.982 1627.37 200.555 1630.18 201.699C1632.98 202.843 1635.53 204.535 1637.67 206.676C1639.81 208.817 1641.5 211.364 1642.64 214.167C1643.79 216.97 1644.36 219.973 1644.33 223.001C1644.37 226.018 1643.8 229.012 1642.66 231.804C1641.51 234.596 1639.81 237.128 1637.67 239.247C1633.36 243.527 1627.55 245.951 1621.49 246.001ZM1621.8 207.824H1621.49C1617.37 207.877 1613.42 209.494 1610.45 212.348C1609.04 213.739 1607.94 215.415 1607.22 217.266C1606.51 219.116 1606.2 221.098 1606.31 223.079C1606.29 225.07 1606.67 227.045 1607.42 228.888C1608.18 230.731 1609.29 232.404 1610.7 233.81C1612.11 235.2 1613.79 236.289 1615.64 237.013C1617.48 237.737 1619.45 238.08 1621.43 238.022C1623.42 238.079 1625.41 237.73 1627.26 236.996C1629.11 236.262 1630.79 235.159 1632.2 233.753C1633.61 232.347 1634.72 230.669 1635.46 228.82C1636.2 226.972 1636.56 224.992 1636.51 223.001C1636.56 221.033 1636.22 219.075 1635.5 217.24C1634.79 215.406 1633.71 213.733 1632.34 212.32C1630.97 210.906 1629.34 209.78 1627.52 209.008C1625.71 208.236 1623.77 207.833 1621.8 207.824Z" fill="#EF4B44"/>
<path d="M1616.96 218.633C1618.17 217.507 1619.76 216.881 1621.41 216.881C1623.06 216.881 1624.65 217.507 1625.85 218.633C1626.99 219.803 1627.62 221.37 1627.62 223.001C1627.62 224.632 1626.99 226.198 1625.85 227.369C1624.65 228.494 1623.06 229.12 1621.41 229.12C1619.76 229.12 1618.17 228.494 1616.96 227.369C1615.83 226.195 1615.2 224.63 1615.2 223.001C1615.2 221.372 1615.83 219.806 1616.96 218.633Z" fill="#EF4B44"/>
<path d="M1622.25 223.614C1622.03 223.837 1621.73 223.962 1621.41 223.962C1621.1 223.962 1620.8 223.837 1620.57 223.614C1620.35 223.391 1620.22 223.088 1620.22 222.773C1620.22 222.457 1620.35 222.155 1620.57 221.932L1625.32 217.186L1626.86 218.868L1622.25 223.614Z" fill="#2C3B47"/>
<path d="M1660.25 195.411C1660.75 198.279 1655.9 200.426 1645.69 201.852L1630.83 218.555C1630.51 218.9 1630.12 219.174 1629.68 219.361C1629.25 219.547 1628.78 219.641 1628.3 219.637C1627.33 219.636 1626.39 219.247 1625.7 218.555C1625.33 218.242 1625.04 217.854 1624.84 217.417C1624.64 216.98 1624.54 216.506 1624.54 216.025C1624.54 215.029 1624.93 214.073 1625.62 213.352L1642.33 198.631C1643.77 188.409 1645.92 183.519 1648.78 183.963C1651.64 184.406 1651.89 188.009 1649.55 194.772C1656.19 192.338 1659.75 192.551 1660.25 195.411Z" fill="#0474A7"/>
</g>
<g clip-path="url(#clip1_2_5495)">
<path d="M803.294 222.367C803.329 227.42 802.358 232.429 800.436 237.102C798.514 241.775 795.681 246.018 792.102 249.584C786.706 254.947 779.846 258.594 772.383 260.068C764.921 261.541 757.189 260.776 750.16 257.867C743.132 254.958 737.12 250.035 732.882 243.719C728.643 237.402 726.367 229.974 726.34 222.367V220.774C727.588 220.646 728.838 220.999 729.836 221.759C730.625 222.867 731.015 224.209 730.943 225.567L731.105 227.16C731.286 229.848 732.222 232.431 733.806 234.612C734.295 235.195 734.823 235.745 735.385 236.259C735.648 236.5 735.975 236.662 736.326 236.724C736.678 236.786 737.04 236.746 737.37 236.61C737.702 236.541 738.006 236.376 738.246 236.137C738.486 235.897 738.651 235.592 738.72 235.26L738.882 233.194C739.192 231.005 739.615 228.833 740.151 226.687C740.388 225.889 740.784 225.148 741.315 224.507C741.846 223.867 742.502 223.341 743.243 222.961C743.993 222.62 744.81 222.451 745.635 222.465C746.459 222.479 747.27 222.676 748.008 223.042C749.764 223.792 751.394 224.808 752.842 226.053L753.881 227.092C754.139 227.402 754.507 227.6 754.907 227.646C755.802 227.682 756.667 227.983 757.391 228.51C758.053 229.069 758.643 229.708 759.146 230.413C759.224 230.554 759.337 230.671 759.475 230.754C759.612 230.837 759.769 230.882 759.929 230.886C760.976 231.007 762.036 230.896 763.035 230.562C763.467 230.416 763.851 230.153 764.144 229.803C764.437 229.453 764.627 229.029 764.695 228.577C764.858 227.694 765.208 226.857 765.721 226.12C766.234 225.504 766.813 224.947 767.449 224.46C770.203 221.921 770.203 219.383 767.449 216.845L766.653 215.887C766.102 215.367 765.741 214.678 765.626 213.93C765.511 213.182 765.649 212.416 766.018 211.755C767.131 209.912 768.525 208.254 770.149 206.841C770.978 206.223 771.687 205.459 772.242 204.586L773.511 202.048C774.139 201.212 774.952 200.532 775.887 200.064C776.873 199.549 777.616 198.666 777.953 197.607L778.115 197.445C779.6 194.159 782.075 193.048 785.54 194.11L789.037 195.541C789.528 195.775 790.078 195.854 790.615 195.77C791.153 195.686 791.652 195.441 792.048 195.068C794.816 197.851 797.147 201.037 798.96 204.519C800.817 208.088 802.127 211.915 802.848 215.873C802.937 216.236 802.987 216.607 802.997 216.98C803.212 218.772 803.32 220.575 803.321 222.38L803.294 222.367Z" fill="#4CC8F4"/>
<path d="M726.34 220.774C726.534 216.739 727.335 212.757 728.716 208.961C730.061 205.26 731.994 201.8 734.44 198.714C735.684 197.165 737.038 195.708 738.49 194.353C739.87 193.072 741.331 191.881 742.864 190.789C745.36 189.11 748.009 187.673 750.776 186.495C752.261 185.969 753.854 185.496 755.542 185.064C757.267 184.642 759.016 184.326 760.78 184.119H761.441C762.576 183.957 763.764 183.957 764.992 183.957C766.221 183.957 767.449 183.957 768.718 184.119L771.257 184.43C773.083 184.734 774.887 185.158 776.657 185.699C780.369 186.935 783.884 188.699 787.093 190.937L789.307 192.692C790.256 193.426 791.158 194.22 792.007 195.068C791.611 195.441 791.112 195.686 790.575 195.77C790.038 195.854 789.488 195.774 788.996 195.541L785.54 194.11C782.075 193.057 779.591 194.173 778.088 197.458L777.926 197.62C777.589 198.68 776.846 199.563 775.86 200.077C774.925 200.546 774.112 201.225 773.484 202.062L772.242 204.586C771.693 205.447 770.993 206.201 770.176 206.814C768.552 208.227 767.158 209.885 766.045 211.728C765.676 212.389 765.538 213.155 765.653 213.903C765.768 214.651 766.129 215.34 766.68 215.859L767.476 216.818C770.23 219.356 770.23 221.894 767.476 224.432C766.855 224.949 766.293 225.533 765.802 226.174C765.289 226.911 764.939 227.748 764.776 228.631C764.708 229.083 764.518 229.507 764.225 229.857C763.932 230.207 763.548 230.469 763.116 230.616C762.117 230.95 761.057 231.061 760.01 230.94C759.85 230.936 759.693 230.891 759.556 230.808C759.418 230.725 759.305 230.608 759.227 230.467C758.703 229.738 758.085 229.08 757.391 228.51C756.663 227.939 755.777 227.604 754.853 227.551C754.453 227.506 754.085 227.307 753.827 226.998L752.788 225.958C751.34 224.713 749.71 223.698 747.954 222.947C747.216 222.582 746.405 222.385 745.58 222.371C744.756 222.357 743.939 222.526 743.188 222.866C742.448 223.246 741.792 223.772 741.261 224.413C740.73 225.053 740.334 225.795 740.097 226.593C739.561 228.738 739.138 230.91 738.828 233.1L738.72 235.26C738.651 235.592 738.486 235.897 738.246 236.137C738.006 236.376 737.702 236.541 737.37 236.61C737.043 236.752 736.684 236.798 736.332 236.743C735.981 236.688 735.652 236.534 735.385 236.3C734.821 235.764 734.293 235.191 733.805 234.585C732.222 232.404 731.286 229.821 731.105 227.133L730.943 225.54C731.009 224.191 730.619 222.86 729.836 221.759C728.838 220.999 727.588 220.646 726.34 220.774V220.774ZM741.892 234.909C741.146 235.137 740.52 235.652 740.151 236.34C740.044 236.884 740.101 237.448 740.313 237.96C740.515 238.392 740.866 238.487 741.339 238.284C741.749 238.12 742.104 237.844 742.365 237.488C742.797 236.949 743.022 236.274 742.999 235.584C742.827 235.409 742.642 235.246 742.446 235.098C742.189 234.855 742 234.801 741.892 234.909ZM778.344 236.975C777.645 237.464 776.809 237.719 775.955 237.704C775.102 237.69 774.275 237.406 773.592 236.894C772.976 236.353 772.184 236.054 771.365 236.054C770.545 236.054 769.753 236.353 769.137 236.894L764.938 240.147C764.7 240.385 764.487 240.648 764.304 240.93C763.949 241.417 763.725 241.987 763.654 242.585C763.583 243.183 763.667 243.79 763.899 244.346C764.129 244.891 764.516 245.356 765.012 245.681C765.507 246.005 766.088 246.175 766.68 246.169C769.644 246.167 772.571 246.822 775.253 248.086C775.769 248.288 776.302 248.446 776.846 248.558L778.196 248.72C782.435 248.819 784.501 247.073 784.393 243.482C784.398 241.588 783.904 239.725 782.962 238.082C782.435 237.029 781.828 236.408 781.139 236.259C780.17 236.174 779.202 236.427 778.398 236.975H778.344ZM766.842 231.885C769.164 232.209 771.54 232.479 773.984 232.681C774.111 232.665 774.234 232.622 774.343 232.554C774.453 232.487 774.546 232.396 774.618 232.29C774.801 232.069 774.959 231.829 775.091 231.574C775.307 230.521 774.875 229.927 773.822 229.833C771.811 229.725 769.797 229.725 767.787 229.833C767.413 229.974 767.085 230.217 766.842 230.535C766.687 230.69 766.587 230.891 766.558 231.108C766.528 231.325 766.571 231.546 766.68 231.736L766.842 231.885ZM772.242 216.818C772.516 216.616 772.846 216.502 773.187 216.494C773.73 216.369 774.227 216.094 774.621 215.7C775.014 215.306 775.29 214.809 775.415 214.266C776.03 212.291 776.94 210.421 778.115 208.718C778.688 208.084 779.097 207.319 779.303 206.49C779.29 206.156 779.197 205.83 779.03 205.541C778.862 205.251 778.627 205.007 778.344 204.829C778.084 204.562 777.747 204.38 777.38 204.31C777.013 204.24 776.633 204.285 776.292 204.438C775.687 204.678 775.166 205.092 774.794 205.626C774.629 205.957 774.544 206.322 774.544 206.692C774.544 207.062 774.629 207.427 774.794 207.759C774.875 208.399 774.732 209.048 774.389 209.595C773.988 210.336 773.537 211.049 773.039 211.728C772.777 212.118 772.384 212.401 771.932 212.525C770.352 213.051 769.528 213.74 769.474 214.59C769.421 214.95 769.468 215.318 769.608 215.653C769.748 215.988 769.978 216.279 770.271 216.494C770.552 216.698 770.876 216.833 771.218 216.889C771.56 216.946 771.911 216.921 772.242 216.818ZM779.856 229.981C779.424 228.402 778.371 228.078 776.684 229.036C776.583 229.104 776.498 229.192 776.435 229.295C776.371 229.398 776.33 229.514 776.315 229.634C776.3 229.754 776.31 229.876 776.346 229.992C776.382 230.108 776.442 230.215 776.522 230.305C776.872 230.645 777.309 230.884 777.784 230.996C778.26 231.107 778.757 231.088 779.222 230.94C779.748 230.724 779.964 230.413 779.856 229.981Z" fill="#169F49"/>
</g>
<rect x="252.038" y="395.366" width="114.264" height="84.3623" rx="42.1811" fill="#29AF87"/>
<path d="M309.682 448.162H313.354L314.497 441.157H318.336L318.936 437.485H315.115L316.051 431.716H319.872L320.509 428.045H316.669L317.812 421.039H314.141L312.998 428.045H307.154L308.296 421.039H304.588L303.445 428.045H299.642L299.043 431.716H302.827L301.89 437.485H298.069L297.47 441.157H301.272L300.129 448.162H303.838L304.981 441.157H310.825L309.682 448.162ZM305.599 437.485L306.536 431.716H312.38L311.443 437.485H305.599Z" fill="white"/>
<rect x="378.396" y="395.366" width="236.264" height="84.3623" rx="42.1811" fill="#469AF5"/>
<path d="M430.047 448.162H435.03L438.851 434.376H439.113L442.934 448.162H447.917L453.686 427.82H448.816L445.257 442.056H445.07L441.398 427.82H436.565L432.932 442.131H432.744L429.148 427.82H424.278L430.047 448.162ZM464.42 448.574C469.14 448.574 472.4 446.252 473.261 442.73H468.579C467.96 443.948 466.555 444.847 464.458 444.828C461.367 444.847 459.325 442.786 459.25 439.321H473.449V437.823C473.449 430.686 469.14 427.558 464.158 427.558C458.351 427.558 454.53 431.828 454.53 438.122C454.53 444.491 458.295 448.574 464.42 448.574ZM459.269 436.062C459.437 433.477 461.367 431.266 464.233 431.266C466.986 431.266 468.859 433.289 468.878 436.062H459.269ZM476.615 448.162H481.298V444.941H481.598C482.347 446.439 483.92 448.518 487.442 448.537C492.218 448.518 495.815 444.697 495.834 438.01C495.815 431.229 492.106 427.558 487.404 427.558C483.808 427.558 482.328 429.712 481.598 431.154H481.41V421.039H476.615V448.162ZM481.298 437.972C481.298 434.02 483.003 431.473 486.093 431.454C489.315 431.473 490.945 434.189 490.963 437.972C490.945 441.812 489.278 444.603 486.093 444.603C483.04 444.603 481.298 441.943 481.298 437.972ZM499.038 448.162H503.908V438.235H509.003L514.323 448.162H519.755L513.892 437.41C517.076 436.118 518.762 433.383 518.781 429.693C518.762 424.523 515.446 421.039 509.228 421.039H499.038V448.162ZM503.908 434.151V425.123H508.478C512.15 425.123 513.798 426.808 513.798 429.693C513.798 432.596 512.15 434.17 508.478 434.151H503.908ZM521.01 425.123H529.402V448.162H534.272V425.123H542.627V421.039H521.01V425.123ZM562.764 430.18H567.672C566.829 424.148 562.202 420.664 556.208 420.664C549.109 420.664 543.789 425.834 543.808 434.601C543.789 443.348 549.052 448.537 556.208 448.537C562.633 448.537 566.922 444.379 567.672 439.171H562.764C562.108 442.356 559.505 444.154 556.283 444.154C551.862 444.154 548.696 440.838 548.715 434.601C548.696 428.457 551.843 425.048 556.283 425.048C559.579 425.048 562.183 426.921 562.764 430.18Z" fill="white"/>
<rect x="1399.31" y="395.366" width="267.264" height="84.3623" rx="42.1811" fill="#29AF87"/>
<path d="M1455.61 456.217C1461.1 456.217 1465.12 453.707 1465.12 448.5V427.82H1460.4V431.154H1460.18C1459.43 429.712 1457.91 427.558 1454.33 427.558C1449.61 427.558 1445.9 431.135 1445.9 437.823C1445.9 444.454 1449.59 447.863 1454.3 447.863C1457.8 447.863 1459.43 445.989 1460.18 444.491H1460.4V448.387C1460.4 451.365 1458.55 452.602 1455.68 452.62C1453.23 452.602 1451.56 451.778 1451.22 449.998H1446.47C1446.78 453.819 1450.21 456.217 1455.61 456.217ZM1450.77 437.897C1450.77 434.189 1452.42 431.473 1455.61 431.454C1458.72 431.473 1460.44 434.02 1460.44 437.897C1460.44 441.794 1458.7 444.116 1455.61 444.116C1452.46 444.116 1450.77 441.644 1450.77 437.897ZM1468.93 448.162H1473.72V436.174C1473.72 433.608 1475.67 431.772 1478.33 431.753C1479.12 431.772 1480.11 431.903 1480.54 432.053V427.633C1480.09 427.576 1479.34 427.52 1478.82 427.52C1476.48 427.52 1474.53 428.85 1473.8 431.192H1473.57V427.82H1468.93V448.162ZM1481.31 442.43C1481.31 446.458 1484.25 448.574 1488.13 448.574C1491.33 448.574 1493.22 447.076 1494.12 445.353H1494.27V448.162H1498.84V434.563C1498.84 429.15 1494.38 427.558 1490.52 427.558C1485.43 427.558 1482.32 430.161 1481.98 433.627H1486.59C1486.97 432.166 1488.28 431.192 1490.41 431.192C1492.79 431.192 1494.08 432.353 1494.08 434.376L1494.1 436.006C1493.2 436.043 1490.3 436.174 1488.88 436.287C1485.11 436.53 1481.31 437.86 1481.31 442.43ZM1485.92 442.393C1485.92 440.614 1487.36 439.658 1489.63 439.471C1490.58 439.396 1493.24 439.227 1494.1 439.19L1494.12 440.857C1494.12 443.142 1492.27 445.053 1489.36 445.053C1487.36 445.053 1485.92 444.154 1485.92 442.393ZM1502.57 455.805H1507.36V444.941H1507.55C1508.3 446.439 1509.89 448.518 1513.4 448.537C1518.19 448.518 1521.77 444.697 1521.79 438.01C1521.77 431.229 1518.08 427.558 1513.4 427.558C1509.78 427.558 1508.28 429.712 1507.55 431.154H1507.25V427.82H1502.57V455.805ZM1507.25 437.972C1507.27 434.02 1508.96 431.473 1512.09 431.454C1515.29 431.473 1516.92 434.189 1516.92 437.972C1516.92 441.812 1515.25 444.603 1512.09 444.603C1508.99 444.603 1507.27 441.943 1507.25 437.972ZM1529.56 436.249C1529.56 433.289 1531.4 431.585 1533.98 431.604C1536.49 431.585 1537.97 433.177 1537.99 435.949V448.162H1542.75V435.2C1542.75 430.292 1539.96 427.558 1535.74 427.558C1532.62 427.558 1530.63 428.962 1529.71 431.266H1529.45V421.039H1524.77V448.162H1529.56V436.249ZM1546.52 448.162H1551.31V427.82H1546.52V448.162ZM1546.18 422.313C1546.18 423.755 1547.43 424.916 1548.95 424.935C1550.47 424.916 1551.72 423.755 1551.72 422.313C1551.72 420.889 1550.47 419.728 1548.95 419.728C1547.43 419.728 1546.18 420.889 1546.18 422.313ZM1563.99 448.574C1569.11 448.574 1572.37 445.521 1572.72 441.232H1568.15C1567.72 443.423 1566.15 444.66 1564.03 444.678C1561.03 444.66 1559.09 442.168 1559.09 437.972C1559.09 433.87 1561.07 431.398 1564.03 431.379C1566.35 431.398 1567.78 432.877 1568.15 434.825H1572.72C1572.38 430.442 1568.92 427.558 1563.99 427.558C1558.04 427.558 1554.25 431.847 1554.25 438.085C1554.25 444.229 1557.92 448.574 1563.99 448.574ZM1593.95 429.693H1598.93C1598.1 424.373 1593.48 420.664 1587.5 420.664C1580.4 420.664 1575.08 425.891 1575.1 434.601C1575.08 443.198 1580.16 448.537 1587.65 448.537C1594.36 448.537 1599.15 444.21 1599.15 437.223V433.964H1588.14V437.823H1594.43C1594.36 441.681 1591.75 444.154 1587.65 444.154C1583.12 444.154 1579.99 440.726 1580.01 434.563C1579.99 428.457 1583.17 425.048 1587.54 425.048C1590.84 425.048 1593.06 426.808 1593.95 429.693ZM1602.81 448.162H1619.66V444.041H1607.68V421.039H1602.81V448.162Z" fill="white"/>
<rect x="706.01" y="395.366" width="217.264" height="84.3623" rx="42.1811" fill="#AC6EF4"/>
<path d="M753.427 448.162H758.222V436.174C758.222 433.608 760.17 431.772 762.83 431.753C763.617 431.772 764.61 431.903 765.04 432.053V427.633C764.591 427.576 763.842 427.52 763.317 427.52C760.976 427.52 759.028 428.85 758.297 431.192H758.072V427.82H753.427V448.162ZM775.475 448.574C780.195 448.574 783.454 446.252 784.316 442.73H779.633C779.015 443.948 777.61 444.847 775.512 444.828C772.421 444.847 770.38 442.786 770.305 439.321H784.503V437.823C784.503 430.686 780.195 427.558 775.212 427.558C769.406 427.558 765.584 431.828 765.584 438.122C765.584 444.491 769.349 448.574 775.475 448.574ZM770.323 436.062C770.492 433.477 772.421 431.266 775.287 431.266C778.041 431.266 779.914 433.289 779.933 436.062H770.323ZM786.508 442.43C786.508 446.458 789.449 448.574 793.327 448.574C796.53 448.574 798.422 447.076 799.321 445.353H799.471V448.162H804.041V434.563C804.041 429.15 799.583 427.558 795.724 427.558C790.629 427.558 787.52 430.161 787.183 433.627H791.791C792.165 432.166 793.476 431.192 795.612 431.192C797.991 431.192 799.283 432.353 799.283 434.376L799.302 436.006C798.403 436.043 795.499 436.174 794.076 436.287C790.311 436.53 786.508 437.86 786.508 442.43ZM791.116 442.393C791.116 440.614 792.559 439.658 794.825 439.471C795.78 439.396 798.44 439.227 799.302 439.19L799.321 440.857C799.321 443.142 797.466 445.053 794.563 445.053C792.559 445.053 791.116 444.154 791.116 442.393ZM816.648 448.574C821.762 448.574 825.021 445.521 825.377 441.232H820.807C820.376 443.423 818.802 444.66 816.686 444.678C813.689 444.66 811.74 442.168 811.74 437.972C811.74 433.87 813.726 431.398 816.686 431.379C819.008 431.398 820.432 432.877 820.807 434.825H825.377C825.04 430.442 821.575 427.558 816.648 427.558C810.692 427.558 806.908 431.847 806.908 438.085C806.908 444.229 810.579 448.574 816.648 448.574ZM838.359 427.82H834.35V422.95H829.592V427.82H826.67V431.491H829.592V442.843C829.555 446.664 832.327 448.443 835.924 448.425C837.141 448.443 838.059 448.331 838.621 448.237V444.341C838.022 444.379 837.085 444.435 836.523 444.416C835.324 444.397 834.35 444.004 834.35 442.056V431.491H838.359V427.82ZM844.223 448.462C845.777 448.462 847.107 447.151 847.107 445.54C847.107 443.966 845.777 442.674 844.223 442.655C842.612 442.674 841.282 443.966 841.3 445.54C841.282 447.151 842.612 448.462 844.223 448.462ZM850.948 427.82V449.286C850.967 450.991 850.236 451.909 848.4 451.909C848.176 451.909 847.97 451.909 847.689 451.871V455.767C848.063 455.786 848.344 455.786 848.663 455.805C853.158 455.786 855.743 453.726 855.743 449.324V427.82H850.948ZM850.573 422.313C850.573 423.755 851.828 424.916 853.346 424.935C854.863 424.916 856.118 423.755 856.118 422.313C856.118 420.889 854.863 419.728 853.346 419.728C851.828 419.728 850.573 420.889 850.573 422.313ZM871.085 433.627H875.618C875.262 429.937 872.265 427.558 867.414 427.558C862.45 427.558 859.191 430.011 859.209 433.777C859.191 436.68 861.157 438.665 864.941 439.433L868.2 440.145C870.223 440.576 871.141 441.325 871.16 442.505C871.141 444.023 869.643 444.959 867.339 444.941C865.11 444.959 863.761 444.098 863.48 442.356H858.61C859.116 446.252 862.169 448.574 867.339 448.574C872.659 448.574 876.012 445.915 876.03 442.093C876.012 439.171 874.138 437.392 870.298 436.549L866.852 435.837C864.791 435.35 863.948 434.563 863.967 433.514C863.948 432.128 865.447 431.098 867.489 431.117C869.512 431.098 870.785 432.091 871.085 433.627Z" fill="white"/>
<rect x="934.623" y="395.366" width="216.264" height="84.3623" rx="42.1811" fill="#FFBE00"/>
<path d="M986.835 436.249C986.835 433.289 988.615 431.585 991.144 431.604C993.635 431.585 995.115 433.215 995.115 435.949V448.162H999.873V435.2C999.891 430.33 997.119 427.558 992.904 427.558C989.87 427.558 987.791 429 986.873 431.266H986.611V427.82H982.04V448.162H986.835V436.249ZM1012.55 448.574C1018.51 448.574 1022.31 444.36 1022.3 438.085C1022.31 431.753 1018.51 427.558 1012.55 427.558C1006.62 427.558 1002.81 431.753 1002.81 438.085C1002.81 444.36 1006.62 448.574 1012.55 448.574ZM1007.65 438.047C1007.65 434.32 1009.28 431.323 1012.59 431.341C1015.85 431.323 1017.48 434.32 1017.46 438.047C1017.48 441.775 1015.85 444.753 1012.59 444.753C1009.28 444.753 1007.65 441.775 1007.65 438.047ZM1032.8 448.537C1036.33 448.518 1037.88 446.439 1038.65 444.941H1038.91V448.162H1043.59V421.039H1038.84V431.154H1038.65C1037.92 429.712 1036.42 427.558 1032.84 427.558C1028.12 427.558 1024.41 431.229 1024.41 438.01C1024.41 444.697 1028.03 448.518 1032.8 448.537ZM1029.28 437.972C1029.28 434.189 1030.93 431.473 1034.12 431.454C1037.22 431.473 1038.95 434.02 1038.95 437.972C1038.95 441.943 1037.21 444.603 1034.12 444.603C1030.97 444.603 1029.28 441.812 1029.28 437.972ZM1056.69 448.574C1061.41 448.574 1064.67 446.252 1065.53 442.73H1060.85C1060.23 443.948 1058.82 444.847 1056.73 444.828C1053.63 444.847 1051.59 442.786 1051.52 439.321H1065.72V437.823C1065.72 430.686 1061.41 427.558 1056.43 427.558C1050.62 427.558 1046.8 431.828 1046.8 438.122C1046.8 444.491 1050.56 448.574 1056.69 448.574ZM1051.54 436.062C1051.71 433.477 1053.63 431.266 1056.5 431.266C1059.25 431.266 1061.13 433.289 1061.15 436.062H1051.54ZM1071.62 448.462C1073.17 448.462 1074.5 447.151 1074.5 445.54C1074.5 443.966 1073.17 442.674 1071.62 442.655C1070.01 442.674 1068.68 443.966 1068.7 445.54C1068.68 447.151 1070.01 448.462 1071.62 448.462ZM1078.34 427.82V449.286C1078.36 450.991 1077.63 451.909 1075.8 451.909C1075.57 451.909 1075.36 451.909 1075.08 451.871V455.767C1075.46 455.786 1075.74 455.786 1076.06 455.805C1080.55 455.786 1083.14 453.726 1083.14 449.324V427.82H1078.34ZM1077.97 422.313C1077.97 423.755 1079.22 424.916 1080.74 424.935C1082.26 424.916 1083.51 423.755 1083.51 422.313C1083.51 420.889 1082.26 419.728 1080.74 419.728C1079.22 419.728 1077.97 420.889 1077.97 422.313ZM1098.48 433.627H1103.01C1102.66 429.937 1099.66 427.558 1094.81 427.558C1089.84 427.558 1086.59 430.011 1086.6 433.777C1086.59 436.68 1088.55 438.665 1092.34 439.433L1095.6 440.145C1097.62 440.576 1098.54 441.325 1098.56 442.505C1098.54 444.023 1097.04 444.959 1094.73 444.941C1092.5 444.959 1091.16 444.098 1090.88 442.356H1086C1086.51 446.252 1089.56 448.574 1094.73 448.574C1100.05 448.574 1103.41 445.915 1103.43 442.093C1103.41 439.171 1101.53 437.392 1097.69 436.549L1094.25 435.837C1092.19 435.35 1091.34 434.563 1091.36 433.514C1091.34 432.128 1092.84 431.098 1094.88 431.117C1096.91 431.098 1098.18 432.091 1098.48 433.627Z" fill="white"/>
<rect x="1162.7" y="395.366" width="224.264" height="84.3623" rx="42.1811" fill="#AC6EF4"/>
<path d="M1210.12 448.162H1214.91V436.174C1214.91 433.608 1216.86 431.772 1219.52 431.753C1220.31 431.772 1221.3 431.903 1221.73 432.053V427.633C1221.28 427.576 1220.53 427.52 1220.01 427.52C1217.66 427.52 1215.72 428.85 1214.99 431.192H1214.76V427.82H1210.12V448.162ZM1232.16 448.574C1236.88 448.574 1240.14 446.252 1241 442.73H1236.32C1235.7 443.948 1234.3 444.847 1232.2 444.828C1229.11 444.847 1227.07 442.786 1226.99 439.321H1241.19V437.823C1241.19 430.686 1236.88 427.558 1231.9 427.558C1226.09 427.558 1222.27 431.828 1222.27 438.122C1222.27 444.491 1226.04 448.574 1232.16 448.574ZM1227.01 436.062C1227.18 433.477 1229.11 431.266 1231.98 431.266C1234.73 431.266 1236.6 433.289 1236.62 436.062H1227.01ZM1255.67 433.627H1260.21C1259.85 429.937 1256.85 427.558 1252 427.558C1247.04 427.558 1243.78 430.011 1243.8 433.777C1243.78 436.68 1245.74 438.665 1249.53 439.433L1252.79 440.145C1254.81 440.576 1255.73 441.325 1255.75 442.505C1255.73 444.023 1254.23 444.959 1251.93 444.941C1249.7 444.959 1248.35 444.098 1248.07 442.356H1243.2C1243.7 446.252 1246.76 448.574 1251.93 448.574C1257.25 448.574 1260.6 445.915 1260.62 442.093C1260.6 439.171 1258.73 437.392 1254.89 436.549L1251.44 435.837C1249.38 435.35 1248.54 434.563 1248.55 433.514C1248.54 432.128 1250.03 431.098 1252.08 431.117C1254.1 431.098 1255.37 432.091 1255.67 433.627ZM1273.64 427.82H1269.63V422.95H1264.87V427.82H1261.95V431.491H1264.87V442.843C1264.83 446.664 1267.6 448.443 1271.2 448.425C1272.42 448.443 1273.34 448.331 1273.9 448.237V444.341C1273.3 444.379 1272.36 444.435 1271.8 444.416C1270.6 444.397 1269.63 444.004 1269.63 442.056V431.491H1273.64V427.82ZM1288.55 448.162L1290.8 441.456H1301L1303.27 448.162H1308.48L1298.89 421.039H1292.89L1283.34 448.162H1288.55ZM1292.11 437.523L1295.78 426.584H1296L1299.69 437.523H1292.11ZM1310.93 448.162H1315.8V438.984H1321.05C1327.3 438.984 1330.66 435.219 1330.68 430.03C1330.66 424.823 1327.34 421.039 1321.12 421.039H1310.93V448.162ZM1315.8 434.975V425.123H1320.37C1324.05 425.123 1325.69 427.127 1325.69 430.03C1325.69 432.896 1324.05 434.957 1320.37 434.975H1315.8ZM1338.71 421.039H1333.84V448.162H1338.71V421.039Z" fill="white"/>
<g clip-path="url(#clip2_2_5495)">
<path d="M670.548 473.114C670.153 473.115 669.764 473.026 669.416 472.856C669.068 472.685 668.772 472.439 668.554 472.138L659.975 460.851L637.603 472.828C637.205 473.063 636.733 473.171 636.262 473.134C635.79 473.097 635.344 472.919 634.996 472.626C634.625 472.372 634.351 472.019 634.212 471.615C634.074 471.211 634.079 470.777 634.226 470.376L642.505 449.373L628.255 445.373C627.789 445.272 627.378 445.022 627.096 444.668C626.813 444.315 626.679 443.881 626.717 443.444C626.686 442.988 626.82 442.535 627.098 442.154C627.376 441.774 627.782 441.487 628.255 441.337L642.805 437.42L634.983 403.833C634.854 403.386 634.91 402.912 635.138 402.5C635.366 402.087 635.751 401.765 636.221 401.595C636.66 401.357 637.177 401.268 637.68 401.344C638.183 401.421 638.641 401.657 638.972 402.011L660.431 425.526L668.554 414.81C668.824 414.426 669.231 414.139 669.706 413.998C670.181 413.857 670.696 413.871 671.161 414.036C671.64 414.17 672.06 414.437 672.364 414.8C672.668 415.163 672.84 415.604 672.856 416.06L672.348 428.324L691.2 419.787C691.556 419.643 691.945 419.58 692.334 419.605C692.722 419.63 693.098 419.742 693.429 419.93C693.73 420.078 693.989 420.287 694.188 420.541C694.387 420.795 694.52 421.087 694.576 421.394C694.681 422.01 694.517 422.638 694.12 423.144L679.14 438.825L693.481 450.016C693.816 450.263 694.062 450.596 694.185 450.972C694.309 451.348 694.304 451.75 694.172 452.124C694.085 452.51 693.877 452.865 693.574 453.146C693.271 453.426 692.886 453.622 692.464 453.707L672.348 456.874L672.817 471.019C672.718 471.564 672.451 472.072 672.048 472.483C671.857 472.684 671.62 472.844 671.355 472.953C671.089 473.062 670.801 473.117 670.509 473.114H670.548ZM639.754 442.742C639.575 442.768 639.412 442.855 639.299 442.985C639.186 443.115 639.129 443.279 639.142 443.444C639.129 443.53 639.134 443.616 639.158 443.699C639.182 443.783 639.224 443.861 639.28 443.929C639.337 443.998 639.408 444.056 639.49 444.099C639.571 444.142 639.661 444.171 639.754 444.182L646.195 445.873C646.518 445.94 646.819 446.077 647.073 446.271C647.327 446.466 647.526 446.713 647.655 446.992C647.903 447.525 647.931 448.121 647.733 448.671L641.58 464.292C641.527 464.427 641.522 464.574 641.564 464.712C641.606 464.851 641.693 464.974 641.814 465.066C641.945 465.181 642.115 465.251 642.296 465.264C642.476 465.277 642.656 465.232 642.805 465.137L659.519 456.089C659.754 455.949 660.018 455.858 660.295 455.821C660.572 455.784 660.854 455.802 661.122 455.874C661.706 456.025 662.219 456.347 662.583 456.791L667.028 462.661C667.133 462.851 667.302 462.899 667.563 462.804C667.824 462.708 667.941 462.577 667.941 462.387L667.641 455.243C667.657 454.737 667.865 454.252 668.229 453.87C668.592 453.488 669.089 453.233 669.636 453.148L684.498 450.767C684.718 450.738 684.923 450.65 685.087 450.513C685.25 450.376 685.364 450.197 685.413 449.999C685.463 449.802 685.445 449.595 685.364 449.407C685.282 449.219 685.139 449.058 684.955 448.945L674.225 440.611C673.754 440.202 673.458 439.653 673.391 439.063C673.367 438.775 673.418 438.487 673.538 438.22C673.658 437.954 673.844 437.716 674.082 437.527L681.591 429.693C681.637 429.616 681.661 429.53 681.661 429.443C681.661 429.355 681.637 429.27 681.591 429.193C681.487 429.062 681.33 429.038 681.122 429.133L671.044 433.646C670.669 433.793 670.26 433.854 669.853 433.822C669.446 433.791 669.053 433.669 668.71 433.467C668.376 433.29 668.101 433.034 667.913 432.726C667.725 432.418 667.631 432.069 667.641 431.717L667.941 425.002C667.907 424.876 667.841 424.76 667.748 424.663C667.655 424.565 667.538 424.49 667.406 424.442C667.159 424.347 666.924 424.442 666.715 424.716L662.583 430.181C662.38 430.449 662.112 430.67 661.8 430.827C661.487 430.984 661.139 431.073 660.783 431.087C660.427 431.101 660.072 431.039 659.747 430.907C659.421 430.774 659.133 430.575 658.906 430.324L642.662 412.643C642.59 412.562 642.491 412.505 642.38 412.481C642.269 412.457 642.152 412.468 642.049 412.512C641.84 412.596 641.788 412.786 641.892 413.072L647.864 438.539C647.971 439.071 647.864 439.621 647.564 440.087C647.246 440.553 646.756 440.9 646.182 441.063L639.754 442.742Z" fill="#FE6258"/>
<path d="M667.641 455.196L667.941 462.339C667.941 462.53 667.811 462.661 667.563 462.756C667.315 462.851 667.133 462.756 667.028 462.613L662.583 456.743C662.219 456.3 661.706 455.978 661.123 455.827C660.854 455.755 660.572 455.737 660.295 455.774C660.018 455.811 659.754 455.902 659.519 456.041L642.805 465.137C642.656 465.232 642.476 465.277 642.296 465.264C642.115 465.251 641.945 465.181 641.814 465.066C641.693 464.974 641.606 464.851 641.564 464.713C641.522 464.574 641.527 464.427 641.58 464.292L647.72 448.624C647.918 448.074 647.891 447.477 647.642 446.945C647.513 446.666 647.314 446.419 647.06 446.224C646.806 446.029 646.505 445.893 646.182 445.826L639.754 444.183C639.576 444.159 639.414 444.075 639.3 443.947C639.186 443.819 639.13 443.656 639.142 443.492C639.13 443.326 639.186 443.162 639.299 443.033C639.412 442.903 639.575 442.816 639.754 442.79L646.195 441.111C646.777 440.936 647.269 440.571 647.577 440.087C647.877 439.621 647.984 439.071 647.877 438.539L641.892 413.072C641.788 412.786 641.892 412.596 642.049 412.513C642.152 412.468 642.269 412.457 642.38 412.481C642.491 412.505 642.59 412.562 642.662 412.644L658.906 430.288C659.133 430.539 659.421 430.739 659.747 430.871C660.072 431.004 660.427 431.065 660.783 431.052C661.14 431.038 661.487 430.949 661.8 430.791C662.112 430.634 662.38 430.413 662.583 430.145L666.716 424.681C666.924 424.407 667.159 424.311 667.407 424.407C667.531 424.446 667.637 424.523 667.708 424.625C667.779 424.726 667.811 424.846 667.798 424.966L667.641 431.681C667.624 432.04 667.714 432.396 667.903 432.711C668.091 433.025 668.37 433.287 668.71 433.467C669.047 433.671 669.433 433.797 669.835 433.835C670.237 433.872 670.643 433.819 671.018 433.682L681.122 429.205C681.33 429.11 681.487 429.133 681.591 429.264C681.637 429.341 681.661 429.427 681.661 429.514C681.661 429.602 681.637 429.688 681.591 429.764L673.925 437.599C673.531 438.026 673.339 438.578 673.391 439.134C673.458 439.725 673.754 440.274 674.225 440.682L684.955 448.945C685.145 449.049 685.289 449.212 685.36 449.404C685.432 449.595 685.427 449.804 685.346 449.993C685.293 450.179 685.186 450.349 685.037 450.485C684.888 450.621 684.702 450.718 684.498 450.767L669.636 453.148C669.09 453.233 668.592 453.488 668.229 453.87C667.865 454.252 667.657 454.737 667.641 455.243V455.196Z" fill="#FFD36A"/>
<path d="M661.044 450.017C660.94 449.892 660.788 449.807 660.619 449.781C660.449 449.754 660.275 449.788 660.132 449.874L652.466 453.934C652.423 453.979 652.37 454.016 652.31 454.04C652.251 454.065 652.186 454.078 652.12 454.078C652.055 454.078 651.99 454.065 651.93 454.04C651.871 454.016 651.818 453.979 651.775 453.934C651.655 453.861 651.567 453.752 651.526 453.625C651.486 453.499 651.495 453.364 651.553 453.243L654.304 446.1C654.337 446.026 654.351 445.947 654.344 445.868C654.338 445.789 654.311 445.713 654.267 445.645C654.223 445.577 654.162 445.519 654.089 445.476C654.017 445.433 653.934 445.406 653.848 445.397L648.789 444.004C648.741 443.972 648.701 443.93 648.674 443.881C648.647 443.833 648.633 443.779 648.633 443.724C648.633 443.67 648.647 443.616 648.674 443.567C648.701 443.519 648.741 443.477 648.789 443.445L654.004 442.183C654.408 441.992 654.565 441.766 654.46 441.48L652.792 432.384C652.782 432.251 652.816 432.118 652.889 432.002C652.961 431.886 653.07 431.792 653.201 431.732C653.332 431.673 653.479 431.649 653.624 431.666C653.769 431.682 653.906 431.737 654.017 431.824L660.145 437.42C660.445 437.706 660.81 437.658 661.214 437.277L664.134 433.36C664.33 433.182 664.486 433.217 664.59 433.503L664.434 437.98C664.538 438.539 664.838 438.73 665.36 438.539L672.1 435.599C672.504 435.515 672.661 435.599 672.556 436.027L667.133 441.48C667.033 441.611 666.992 441.772 667.019 441.929C667.046 442.086 667.138 442.228 667.276 442.325L672.191 446.243C672.284 446.322 672.353 446.421 672.392 446.532C672.431 446.642 672.438 446.76 672.413 446.874C672.413 447.1 672.191 447.219 671.878 447.219L664.982 448.338C664.802 448.364 664.64 448.451 664.526 448.581C664.413 448.711 664.357 448.875 664.369 449.04L664.525 453.934C664.421 454.22 664.265 454.267 664.069 454.077L661.044 450.017Z" fill="white"/>
</g>
<rect x="261.647" y="287.819" width="191.264" height="84.3623" rx="42.1811" fill="#AC6EF4"/>
<path d="M309.289 340.615H313.972V337.393H314.272C315.021 338.892 316.595 340.971 320.116 340.99C324.893 340.971 328.489 337.15 328.508 330.462C328.489 323.682 324.78 320.01 320.079 320.01C316.482 320.01 315.003 322.164 314.272 323.607H314.085V313.492H309.289V340.615ZM313.972 330.425C313.972 326.473 315.677 323.925 318.768 323.906C321.989 323.925 323.619 326.641 323.638 330.425C323.619 334.265 321.952 337.056 318.768 337.056C315.714 337.056 313.972 334.396 313.972 330.425ZM331.487 340.615H336.282V328.627C336.282 326.061 338.23 324.225 340.89 324.206C341.677 324.225 342.67 324.356 343.101 324.506V320.085C342.651 320.029 341.902 319.973 341.377 319.973C339.036 319.973 337.088 321.303 336.357 323.644H336.132V320.273H331.487V340.615ZM343.869 334.883C343.869 338.91 346.81 341.027 350.688 341.027C353.891 341.027 355.783 339.529 356.682 337.805H356.832V340.615H361.402V327.016C361.402 321.602 356.944 320.01 353.085 320.01C347.99 320.01 344.881 322.614 344.544 326.079H349.152C349.526 324.618 350.838 323.644 352.973 323.644C355.352 323.644 356.644 324.806 356.644 326.829L356.663 328.458C355.764 328.496 352.861 328.627 351.437 328.739C347.672 328.983 343.869 330.313 343.869 334.883ZM348.477 334.846C348.477 333.066 349.92 332.111 352.186 331.924C353.142 331.849 355.801 331.68 356.663 331.643L356.682 333.31C356.682 335.595 354.827 337.506 351.924 337.506C349.92 337.506 348.477 336.606 348.477 334.846ZM369.926 328.702C369.926 325.742 371.705 324.038 374.234 324.056C376.725 324.038 378.205 325.667 378.205 328.402V340.615H382.963V327.653C382.982 322.783 380.209 320.01 375.995 320.01C372.96 320.01 370.881 321.453 369.963 323.719H369.701V320.273H365.13V340.615H369.926V328.702ZM394.334 340.99C397.855 340.971 399.41 338.892 400.178 337.393H400.44V340.615H405.123V313.492H400.365V323.607H400.178C399.447 322.164 397.949 320.01 394.371 320.01C389.651 320.01 385.942 323.682 385.942 330.462C385.942 337.15 389.557 340.971 394.334 340.99ZM390.812 330.425C390.812 326.641 392.461 323.925 395.645 323.906C398.754 323.925 400.478 326.473 400.478 330.425C400.478 334.396 398.736 337.056 395.645 337.056C392.498 337.056 390.812 334.265 390.812 330.425Z" fill="white"/>
<rect x="465.075" y="287.819" width="220.264" height="84.3623" rx="42.1811" fill="#FFBE00"/>
<path d="M521.372 348.67C526.86 348.67 530.887 346.16 530.887 340.952V320.273H526.167V323.607H525.942C525.193 322.164 523.676 320.01 520.098 320.01C515.377 320.01 511.669 323.588 511.669 330.275C511.669 336.906 515.359 340.315 520.06 340.315C523.563 340.315 525.193 338.442 525.942 336.944H526.167V340.84C526.167 343.818 524.312 345.054 521.446 345.073C518.993 345.054 517.326 344.23 516.988 342.451H512.231C512.549 346.272 515.977 348.67 521.372 348.67ZM516.539 330.35C516.539 326.641 518.187 323.925 521.372 323.906C524.481 323.925 526.204 326.473 526.204 330.35C526.204 334.246 524.462 336.569 521.372 336.569C518.225 336.569 516.539 334.096 516.539 330.35ZM534.69 340.615H539.486V328.627C539.486 326.061 541.434 324.225 544.094 324.206C544.88 324.225 545.873 324.356 546.304 324.506V320.085C545.854 320.029 545.105 319.973 544.581 319.973C542.239 319.973 540.291 321.303 539.561 323.644H539.336V320.273H534.69V340.615ZM547.073 334.883C547.073 338.91 550.014 341.027 553.891 341.027C557.094 341.027 558.986 339.529 559.885 337.805H560.035V340.615H564.606V327.016C564.606 321.602 560.147 320.01 556.289 320.01C551.194 320.01 548.084 322.614 547.747 326.079H552.355C552.73 324.618 554.041 323.644 556.176 323.644C558.555 323.644 559.848 324.806 559.848 326.829L559.866 328.458C558.967 328.496 556.064 328.627 554.64 328.739C550.875 328.983 547.073 330.313 547.073 334.883ZM551.681 334.846C551.681 333.066 553.123 332.111 555.39 331.924C556.345 331.849 559.005 331.68 559.866 331.643L559.885 333.31C559.885 335.595 558.031 337.506 555.127 337.506C553.123 337.506 551.681 336.606 551.681 334.846ZM568.334 348.257H573.129V337.393H573.316C574.066 338.892 575.658 340.971 579.161 340.99C583.956 340.971 587.534 337.15 587.552 330.462C587.534 323.682 583.844 320.01 579.161 320.01C575.545 320.01 574.047 322.164 573.316 323.607H573.017V320.273H568.334V348.257ZM573.017 330.425C573.035 326.473 574.721 323.925 577.849 323.906C581.053 323.925 582.682 326.641 582.682 330.425C582.682 334.265 581.015 337.056 577.849 337.056C574.759 337.056 573.035 334.396 573.017 330.425ZM595.327 328.702C595.327 325.742 597.162 324.038 599.747 324.056C602.257 324.038 603.737 325.63 603.756 328.402V340.615H608.514V327.653C608.514 322.745 605.723 320.01 601.508 320.01C598.38 320.01 596.394 321.415 595.477 323.719H595.214V313.492H590.532V340.615H595.327V328.702ZM612.28 340.615H617.075V320.273H612.28V340.615ZM611.942 314.765C611.942 316.208 613.197 317.369 614.715 317.388C616.232 317.369 617.487 316.208 617.487 314.765C617.487 313.342 616.232 312.18 614.715 312.18C613.197 312.18 611.942 313.342 611.942 314.765ZM629.757 341.027C634.871 341.027 638.13 337.974 638.486 333.684H633.915C633.484 335.876 631.911 337.112 629.794 337.131C626.797 337.112 624.849 334.621 624.849 330.425C624.849 326.323 626.835 323.85 629.794 323.832C632.117 323.85 633.541 325.33 633.915 327.278H638.486C638.149 322.895 634.683 320.01 629.757 320.01C623.8 320.01 620.016 324.3 620.016 330.537C620.016 336.681 623.688 341.027 629.757 341.027Z" fill="white"/>
<rect x="697.462" y="287.819" width="259.264" height="84.3623" rx="42.1811" fill="#29AF87"/>
<path d="M743.943 334.883C743.943 338.91 746.884 341.027 750.761 341.027C753.965 341.027 755.856 339.529 756.756 337.805H756.905V340.615H761.476V327.016C761.476 321.602 757.018 320.01 753.159 320.01C748.064 320.01 744.955 322.614 744.617 326.079H749.225C749.6 324.618 750.911 323.644 753.047 323.644C755.426 323.644 756.718 324.806 756.718 326.829L756.737 328.458C755.838 328.496 752.934 328.627 751.511 328.739C747.746 328.983 743.943 330.313 743.943 334.883ZM748.551 334.846C748.551 333.066 749.993 332.111 752.26 331.924C753.215 331.849 755.875 331.68 756.737 331.643L756.756 333.31C756.756 335.595 754.901 337.506 751.998 337.506C749.993 337.506 748.551 336.606 748.551 334.846ZM770 328.702C770 325.742 771.779 324.038 774.308 324.056C776.799 324.038 778.279 325.667 778.279 328.402V340.615H783.037V327.653C783.055 322.783 780.283 320.01 776.069 320.01C773.034 320.01 770.955 321.453 770.037 323.719H769.775V320.273H765.204V340.615H770V328.702ZM786.84 340.615H791.635V320.273H786.84V340.615ZM786.503 314.765C786.503 316.208 787.758 317.369 789.275 317.388C790.792 317.369 792.047 316.208 792.047 314.765C792.047 313.342 790.792 312.18 789.275 312.18C787.758 312.18 786.503 313.342 786.503 314.765ZM795.438 340.615H800.234V328.252C800.234 325.723 801.92 324.019 803.98 324.019C806.022 324.019 807.408 325.386 807.427 327.503V340.615H812.072V327.915C812.072 325.611 813.44 324.019 815.781 324.019C817.729 324.019 819.265 325.161 819.265 327.69V340.615H824.023V326.941C824.042 322.408 821.419 320.01 817.692 320.01C814.732 320.01 812.466 321.471 811.585 323.719H811.36C810.592 321.415 808.607 320.01 805.853 320.01C803.156 320.01 801.114 321.396 800.271 323.719H800.009V320.273H795.438V340.615ZM826.89 334.883C826.89 338.91 829.83 341.027 833.708 341.027C836.911 341.027 838.803 339.529 839.702 337.805H839.852V340.615H844.422V327.016C844.422 321.602 839.964 320.01 836.105 320.01C831.011 320.01 827.901 322.614 827.564 326.079H832.172C832.546 324.618 833.858 323.644 835.993 323.644C838.372 323.644 839.664 324.806 839.664 326.829L839.683 328.458C838.784 328.496 835.881 328.627 834.457 328.739C830.692 328.983 826.89 330.313 826.89 334.883ZM831.498 334.846C831.498 333.066 832.94 332.111 835.206 331.924C836.162 331.849 838.822 331.68 839.683 331.643L839.702 333.31C839.702 335.595 837.848 337.506 834.944 337.506C832.94 337.506 831.498 336.606 831.498 334.846ZM858.303 320.273H854.295V315.402H849.537V320.273H846.615V323.944H849.537V335.295C849.499 339.116 852.272 340.896 855.868 340.877C857.086 340.896 858.003 340.784 858.565 340.69V336.794C857.966 336.831 857.029 336.887 856.467 336.869C855.269 336.85 854.295 336.457 854.295 334.508V323.944H858.303V320.273ZM861.207 340.615H866.003V320.273H861.207V340.615ZM860.87 314.765C860.87 316.208 862.125 317.369 863.642 317.388C865.16 317.369 866.415 316.208 866.415 314.765C866.415 313.342 865.16 312.18 863.642 312.18C862.125 312.18 860.87 313.342 860.87 314.765ZM878.685 341.027C884.641 341.027 888.444 336.812 888.425 330.537C888.444 324.206 884.641 320.01 878.685 320.01C872.747 320.01 868.944 324.206 868.944 330.537C868.944 336.812 872.747 341.027 878.685 341.027ZM873.777 330.5C873.777 326.772 875.407 323.775 878.722 323.794C881.981 323.775 883.611 326.772 883.592 330.5C883.611 334.228 881.981 337.206 878.722 337.206C875.407 337.206 873.777 334.228 873.777 330.5ZM896.162 328.702C896.162 325.742 897.941 324.038 900.47 324.056C902.961 324.038 904.441 325.667 904.441 328.402V340.615H909.199V327.653C909.218 322.783 906.446 320.01 902.231 320.01C899.196 320.01 897.117 321.453 896.199 323.719H895.937V320.273H891.367V340.615H896.162V328.702Z" fill="white"/>
<rect x="1401.48" y="287.819" width="257.264" height="84.3623" rx="42.1811" fill="#F2614E"/>
<path d="M1448.9 320.273V341.739C1448.92 343.443 1448.19 344.361 1446.35 344.361C1446.13 344.361 1445.92 344.361 1445.64 344.324V348.22C1446.01 348.239 1446.29 348.239 1446.61 348.257C1451.11 348.239 1453.69 346.178 1453.69 341.776V320.273H1448.9ZM1448.52 314.765C1448.52 316.208 1449.78 317.369 1451.3 317.388C1452.81 317.369 1454.07 316.208 1454.07 314.765C1454.07 313.342 1452.81 312.18 1451.3 312.18C1449.78 312.18 1448.52 313.342 1448.52 314.765ZM1456.56 334.883C1456.56 338.91 1459.5 341.027 1463.38 341.027C1466.58 341.027 1468.47 339.529 1469.37 337.805H1469.52V340.615H1474.09V327.016C1474.09 321.602 1469.63 320.01 1465.78 320.01C1460.68 320.01 1457.57 322.614 1457.23 326.079H1461.84C1462.22 324.618 1463.53 323.644 1465.66 323.644C1468.04 323.644 1469.34 324.806 1469.34 326.829L1469.35 328.458C1468.45 328.496 1465.55 328.627 1464.13 328.739C1460.36 328.983 1456.56 330.313 1456.56 334.883ZM1461.17 334.846C1461.17 333.066 1462.61 332.111 1464.88 331.924C1465.83 331.849 1468.49 331.68 1469.35 331.643L1469.37 333.31C1469.37 335.595 1467.52 337.506 1464.61 337.506C1462.61 337.506 1461.17 336.606 1461.17 334.846ZM1495.24 320.273H1490.18L1485.46 335.408H1485.24L1480.56 320.273H1475.46L1482.73 340.615H1487.97L1495.24 320.273ZM1495.94 334.883C1495.94 338.91 1498.88 341.027 1502.75 341.027C1505.96 341.027 1507.85 339.529 1508.75 337.805H1508.9V340.615H1513.47V327.016C1513.47 321.602 1509.01 320.01 1505.15 320.01C1500.06 320.01 1496.95 322.614 1496.61 326.079H1501.22C1501.59 324.618 1502.9 323.644 1505.04 323.644C1507.42 323.644 1508.71 324.806 1508.71 326.829L1508.73 328.458C1507.83 328.496 1504.93 328.627 1503.5 328.739C1499.74 328.983 1495.94 330.313 1495.94 334.883ZM1500.54 334.846C1500.54 333.066 1501.99 332.111 1504.25 331.924C1505.21 331.849 1507.87 331.68 1508.73 331.643L1508.75 333.31C1508.75 335.595 1506.89 337.506 1503.99 337.506C1501.99 337.506 1500.54 336.606 1500.54 334.846ZM1528.74 326.079H1533.27C1532.91 322.389 1529.92 320.01 1525.06 320.01C1520.1 320.01 1516.84 322.464 1516.86 326.229C1516.84 329.133 1518.81 331.118 1522.59 331.886L1525.85 332.598C1527.87 333.029 1528.79 333.778 1528.81 334.958C1528.79 336.475 1527.29 337.412 1524.99 337.393C1522.76 337.412 1521.41 336.55 1521.13 334.808H1516.26C1516.77 338.704 1519.82 341.027 1524.99 341.027C1530.31 341.027 1533.66 338.367 1533.68 334.546C1533.66 331.624 1531.79 329.844 1527.95 329.001L1524.5 328.29C1522.44 327.803 1521.6 327.016 1521.62 325.967C1521.6 324.581 1523.1 323.551 1525.14 323.569C1527.16 323.551 1528.44 324.543 1528.74 326.079ZM1545.43 341.027C1550.54 341.027 1553.8 337.974 1554.15 333.684H1549.58C1549.15 335.876 1547.58 337.112 1545.46 337.131C1542.47 337.112 1540.52 334.621 1540.52 330.425C1540.52 326.323 1542.5 323.85 1545.46 323.832C1547.79 323.85 1549.21 325.33 1549.58 327.278H1554.15C1553.82 322.895 1550.35 320.01 1545.43 320.01C1539.47 320.01 1535.69 324.3 1535.69 330.537C1535.69 336.681 1539.36 341.027 1545.43 341.027ZM1556.98 340.615H1561.78V328.627C1561.78 326.061 1563.73 324.225 1566.39 324.206C1567.17 324.225 1568.17 324.356 1568.6 324.506V320.085C1568.15 320.029 1567.4 319.973 1566.87 319.973C1564.53 319.973 1562.58 321.303 1561.85 323.644H1561.63V320.273H1556.98V340.615ZM1570.68 340.615H1575.47V320.273H1570.68V340.615ZM1570.34 314.765C1570.34 316.208 1571.6 317.369 1573.11 317.388C1574.63 317.369 1575.88 316.208 1575.88 314.765C1575.88 313.342 1574.63 312.18 1573.11 312.18C1571.6 312.18 1570.34 313.342 1570.34 314.765ZM1579.28 348.257H1584.07V337.393H1584.26C1585.01 338.892 1586.6 340.971 1590.1 340.99C1594.9 340.971 1598.48 337.15 1598.49 330.462C1598.48 323.682 1594.79 320.01 1590.1 320.01C1586.49 320.01 1584.99 322.164 1584.26 323.607H1583.96V320.273H1579.28V348.257ZM1583.96 330.425C1583.98 326.473 1585.66 323.925 1588.79 323.906C1591.99 323.925 1593.62 326.641 1593.62 330.425C1593.62 334.265 1591.96 337.056 1588.79 337.056C1585.7 337.056 1583.98 334.396 1583.96 330.425ZM1611.63 320.273H1607.62V315.402H1602.86V320.273H1599.94V323.944H1602.86V335.295C1602.82 339.116 1605.59 340.896 1609.19 340.877C1610.41 340.896 1611.33 340.784 1611.89 340.69V336.794C1611.29 336.831 1610.35 336.887 1609.79 336.869C1608.59 336.85 1607.62 336.457 1607.62 334.508V323.944H1611.63V320.273Z" fill="white"/>
<rect x="1059.31" y="287.819" width="167.264" height="84.3623" rx="42.1811" fill="#469AF5"/>
<path d="M1111.52 328.702C1111.52 325.742 1113.36 324.038 1115.94 324.056C1118.45 324.038 1119.93 325.63 1119.95 328.402V340.615H1124.71V327.653C1124.71 322.745 1121.92 320.01 1117.71 320.01C1114.58 320.01 1112.59 321.415 1111.67 323.719H1111.41V313.492H1106.73V340.615H1111.52V328.702ZM1138.63 320.273H1134.62V315.402H1129.86V320.273H1126.94V323.944H1129.86V335.295C1129.83 339.116 1132.6 340.896 1136.19 340.877C1137.41 340.896 1138.33 340.784 1138.89 340.69V336.794C1138.29 336.831 1137.36 336.887 1136.79 336.869C1135.59 336.85 1134.62 336.457 1134.62 334.508V323.944H1138.63V320.273ZM1141.53 340.615H1146.33V328.252C1146.33 325.723 1148.01 324.019 1150.07 324.019C1152.12 324.019 1153.5 325.386 1153.52 327.503V340.615H1158.17V327.915C1158.17 325.611 1159.53 324.019 1161.88 324.019C1163.82 324.019 1165.36 325.161 1165.36 327.69V340.615H1170.12V326.941C1170.14 322.408 1167.51 320.01 1163.79 320.01C1160.83 320.01 1158.56 321.471 1157.68 323.719H1157.46C1156.69 321.415 1154.7 320.01 1151.95 320.01C1149.25 320.01 1147.21 321.396 1146.37 323.719H1146.1V320.273H1141.53V340.615ZM1178.72 313.492H1173.92V340.615H1178.72V313.492Z" fill="white"/>
<rect x="1238.75" y="287.819" width="150.264" height="84.3623" rx="42.1811" fill="#FFBE00"/>
<path d="M1295.05 341.027C1300.16 341.027 1303.42 337.974 1303.78 333.684H1299.21C1298.78 335.876 1297.2 337.112 1295.09 337.131C1292.09 337.112 1290.14 334.621 1290.14 330.425C1290.14 326.323 1292.13 323.85 1295.09 323.832C1297.41 323.85 1298.83 325.33 1299.21 327.278H1303.78C1303.44 322.895 1299.98 320.01 1295.05 320.01C1289.09 320.01 1285.31 324.3 1285.31 330.537C1285.31 336.681 1288.98 341.027 1295.05 341.027ZM1318.15 326.079H1322.68C1322.32 322.389 1319.33 320.01 1314.48 320.01C1309.51 320.01 1306.25 322.464 1306.27 326.229C1306.25 329.133 1308.22 331.118 1312 331.886L1315.26 332.598C1317.29 333.029 1318.2 333.778 1318.22 334.958C1318.2 336.475 1316.71 337.412 1314.4 337.393C1312.17 337.412 1310.82 336.55 1310.54 334.808H1305.67C1306.18 338.704 1309.23 341.027 1314.4 341.027C1319.72 341.027 1323.07 338.367 1323.09 334.546C1323.07 331.624 1321.2 329.844 1317.36 329.001L1313.91 328.29C1311.85 327.803 1311.01 327.016 1311.03 325.967C1311.01 324.581 1312.51 323.551 1314.55 323.569C1316.57 323.551 1317.85 324.543 1318.15 326.079ZM1337.5 326.079H1342.03C1341.68 322.389 1338.68 320.01 1333.83 320.01C1328.86 320.01 1325.6 322.464 1325.62 326.229C1325.6 329.133 1327.57 331.118 1331.35 331.886L1334.61 332.598C1336.64 333.029 1337.55 333.778 1337.57 334.958C1337.55 336.475 1336.06 337.412 1333.75 337.393C1331.52 337.412 1330.17 336.55 1329.89 334.808H1325.02C1325.53 338.704 1328.58 341.027 1333.75 341.027C1339.07 341.027 1342.42 338.367 1342.44 334.546C1342.42 331.624 1340.55 329.844 1336.71 329.001L1333.26 328.29C1331.2 327.803 1330.36 327.016 1330.38 325.967C1330.36 324.581 1331.86 323.551 1333.9 323.569C1335.92 323.551 1337.2 324.543 1337.5 326.079Z" fill="white"/>
<g clip-path="url(#clip3_2_5495)">
<path d="M1047.82 319.614C1048.07 324.292 1046.84 328.929 1044.31 332.87C1042.64 335.275 1040.52 337.34 1038.08 338.955L1010.03 361.927C1009.53 362.283 1008.93 362.474 1008.31 362.474C1007.7 362.474 1007.1 362.283 1006.6 361.927L978.546 339.021C976.05 337.356 973.883 335.244 972.156 332.79C969.401 328.545 968.189 323.481 968.723 318.447C969.198 313.437 971.406 308.748 974.967 305.191C979.11 301.122 984.693 298.854 990.5 298.881C996.307 298.908 1001.87 301.229 1005.97 305.337C1006.62 305.947 1007.48 306.288 1008.37 306.291C1008.78 306.292 1009.19 306.208 1009.56 306.046C1009.94 305.885 1010.28 305.648 1010.56 305.35C1012.67 303.191 1015.21 301.499 1018.02 300.382C1020.82 299.266 1023.83 298.75 1026.85 298.868C1029.91 299.012 1032.9 299.795 1035.64 301.164C1038.38 302.534 1040.8 304.461 1042.75 306.822C1045.77 310.429 1047.55 314.915 1047.82 319.614Z" fill="#EF4B44"/>
<path d="M977.141 323.896H976.836C976.352 323.871 975.878 323.746 975.445 323.528C975.012 323.31 974.629 323.004 974.321 322.63C974.013 322.255 973.786 321.821 973.656 321.354C973.525 320.887 973.493 320.399 973.562 319.919C973.78 316.432 975.151 313.117 977.459 310.494C979.807 307.858 982.907 306.007 986.34 305.191C986.791 305.087 987.258 305.075 987.713 305.155C988.168 305.234 988.603 305.405 988.992 305.655C989.385 305.923 989.719 306.268 989.974 306.669C990.23 307.07 990.4 307.519 990.476 307.988C990.611 308.458 990.645 308.951 990.577 309.436C990.508 309.92 990.338 310.384 990.079 310.798C989.559 311.58 988.787 312.16 987.891 312.442C986.011 312.797 984.309 313.784 983.066 315.239C981.803 316.736 981.039 318.59 980.879 320.542C980.678 321.457 980.218 322.294 979.553 322.954C979.236 323.267 978.859 323.512 978.444 323.674C978.029 323.835 977.586 323.911 977.141 323.896Z" fill="#F16D82"/>
</g>
<defs>
<clipPath id="clip0_2_5495">
<rect width="76.9811" height="77.2158" fill="white" transform="translate(1583.32 183.962)"/>
</clipPath>
<clipPath id="clip1_2_5495">
<rect width="76.9811" height="76.9811" fill="white" transform="translate(726.34 183.957)"/>
</clipPath>
<clipPath id="clip2_2_5495">
<rect width="67.9245" height="71.8172" fill="white" transform="translate(626.717 401.321)"/>
</clipPath>
<clipPath id="clip3_2_5495">
<rect width="79.2453" height="63.603" fill="white" transform="translate(968.604 298.868)"/>
</clipPath>
</defs>
</svg>
