<svg width="140" height="140" viewBox="0 0 160 160" fill="none" xmlns="http://www.w3.org/2000/svg">
<path d="M124.413 95.3517L145.403 83.2281L124.397 71.1044L131.548 61.833L119.98 60.3076L126.256 36.8786L102.835 43.1549L101.31 31.5716L92.0385 38.7218L79.8752 17.6842L67.7515 38.6821L58.4721 31.5318L56.9467 43.1152L33.5257 36.8389L39.8021 60.2679L28.2107 61.7932L35.361 71.0647L14.3154 83.2281L35.3133 95.3517L28.1631 104.623L39.7544 106.149L33.4781 129.578L56.8991 123.301L58.4245 134.885L67.7039 127.734L79.8752 148.772L91.9988 127.774L101.27 134.924L102.796 123.341L126.217 129.617L119.98 106.149L131.571 104.623L124.413 95.3517Z" fill="#F78C00"/>
<path d="M126.888 83.2442C126.885 92.545 124.124 101.636 118.955 109.368C113.785 117.099 106.439 123.125 97.8458 126.682C89.2522 130.239 79.7968 131.168 70.6752 129.351C61.5536 127.535 53.1753 123.055 46.5999 116.477C40.0244 109.899 35.5469 101.52 33.7336 92.3974C31.9202 83.2752 32.8525 73.8201 36.4124 65.2277C39.9724 56.6353 46.0002 49.2913 53.7336 44.1245C61.4671 38.9576 70.559 36.1998 79.8597 36.1998C86.0372 36.1988 92.1544 37.415 97.8617 39.779C103.569 42.1431 108.754 45.6085 113.122 49.9774C117.489 54.3463 120.953 59.533 123.315 65.2411C125.677 70.9492 126.891 77.0667 126.888 83.2442Z" fill="#FFCB39"/>
<path d="M63.0962 73.13C62.5675 73.13 62.0995 73.013 61.6922 72.779C61.2935 72.5363 60.9815 72.2113 60.7562 71.804V75.769H59.0142V66.188H60.5352V67.358C60.7952 66.9593 61.1245 66.6473 61.5232 66.422C61.9219 66.188 62.3769 66.071 62.8882 66.071C63.3475 66.071 63.7679 66.162 64.1492 66.344C64.5392 66.526 64.8772 66.7817 65.1632 67.111C65.4492 67.4317 65.6702 67.8043 65.8262 68.229C65.9909 68.645 66.0732 69.0957 66.0732 69.581C66.0732 70.2397 65.9432 70.8377 65.6832 71.375C65.4319 71.9123 65.0809 72.3413 64.6302 72.662C64.1882 72.974 63.6769 73.13 63.0962 73.13ZM62.5112 71.648C62.7799 71.648 63.0225 71.5917 63.2392 71.479C63.4559 71.3663 63.6422 71.2147 63.7982 71.024C63.9629 70.8247 64.0842 70.6037 64.1622 70.361C64.2489 70.1097 64.2922 69.8497 64.2922 69.581C64.2922 69.295 64.2445 69.0307 64.1492 68.788C64.0625 68.5453 63.9325 68.333 63.7592 68.151C63.5859 67.9603 63.3822 67.813 63.1482 67.709C62.9229 67.605 62.6759 67.553 62.4072 67.553C62.2425 67.553 62.0735 67.5833 61.9002 67.644C61.7355 67.696 61.5752 67.774 61.4192 67.878C61.2632 67.982 61.1245 68.1033 61.0032 68.242C60.8905 68.3807 60.8082 68.5323 60.7562 68.697V70.296C60.8602 70.5473 60.9989 70.777 61.1722 70.985C61.3542 71.193 61.5622 71.3577 61.7962 71.479C62.0302 71.5917 62.2685 71.648 62.5112 71.648ZM70.3994 73.13C69.8448 73.13 69.3464 73.039 68.9044 72.857C68.4624 72.6663 68.0854 72.4063 67.7734 72.077C67.4701 71.7477 67.2361 71.3707 67.0714 70.946C66.9068 70.5213 66.8244 70.075 66.8244 69.607C66.8244 69.1303 66.9068 68.6797 67.0714 68.255C67.2361 67.8303 67.4701 67.4533 67.7734 67.124C68.0854 66.7947 68.4624 66.539 68.9044 66.357C69.3464 66.1663 69.8448 66.071 70.3994 66.071C70.9541 66.071 71.4481 66.1663 71.8814 66.357C72.3234 66.539 72.7004 66.7947 73.0124 67.124C73.3244 67.4533 73.5584 67.8303 73.7144 68.255C73.8791 68.6797 73.9614 69.1303 73.9614 69.607C73.9614 70.075 73.8791 70.5213 73.7144 70.946C73.5584 71.3707 73.3244 71.7477 73.0124 72.077C72.7091 72.4063 72.3364 72.6663 71.8944 72.857C71.4524 73.039 70.9541 73.13 70.3994 73.13ZM68.6184 69.607C68.6184 70.0057 68.6964 70.361 68.8524 70.673C69.0084 70.9763 69.2208 71.2147 69.4894 71.388C69.7581 71.5613 70.0614 71.648 70.3994 71.648C70.7288 71.648 71.0278 71.5613 71.2964 71.388C71.5651 71.206 71.7774 70.9633 71.9334 70.66C72.0981 70.348 72.1804 69.9927 72.1804 69.594C72.1804 69.204 72.0981 68.853 71.9334 68.541C71.7774 68.229 71.5651 67.9863 71.2964 67.813C71.0278 67.6397 70.7288 67.553 70.3994 67.553C70.0614 67.553 69.7581 67.644 69.4894 67.826C69.2208 67.9993 69.0084 68.242 68.8524 68.554C68.6964 68.8573 68.6184 69.2083 68.6184 69.607ZM77.6462 73.13C77.0656 73.13 76.5109 73.0347 75.9822 72.844C75.4536 72.6533 74.9986 72.3717 74.6172 71.999L75.2412 70.868C75.6486 71.1973 76.0472 71.44 76.4372 71.596C76.8359 71.752 77.2172 71.83 77.5812 71.83C77.9192 71.83 78.1879 71.7693 78.3872 71.648C78.5952 71.5267 78.6992 71.3447 78.6992 71.102C78.6992 70.9373 78.6429 70.8117 78.5302 70.725C78.4176 70.6297 78.2529 70.5473 78.0362 70.478C77.8282 70.4087 77.5726 70.3307 77.2692 70.244C76.7666 70.0793 76.3462 69.919 76.0082 69.763C75.6702 69.607 75.4146 69.412 75.2412 69.178C75.0766 68.9353 74.9942 68.6277 74.9942 68.255C74.9942 67.8043 75.1069 67.4187 75.3322 67.098C75.5662 66.7687 75.8869 66.513 76.2942 66.331C76.7102 66.149 77.1956 66.058 77.7502 66.058C78.2356 66.058 78.6949 66.136 79.1282 66.292C79.5616 66.4393 79.9559 66.682 80.3112 67.02L79.6092 68.125C79.2626 67.8563 78.9332 67.6613 78.6212 67.54C78.3092 67.41 77.9929 67.345 77.6722 67.345C77.4902 67.345 77.3169 67.3667 77.1522 67.41C76.9962 67.4533 76.8662 67.527 76.7622 67.631C76.6669 67.7263 76.6192 67.865 76.6192 68.047C76.6192 68.2117 76.6626 68.3417 76.7492 68.437C76.8446 68.5237 76.9832 68.6017 77.1652 68.671C77.3559 68.7403 77.5856 68.8183 77.8542 68.905C78.4002 69.061 78.8596 69.2213 79.2322 69.386C79.6136 69.5507 79.8996 69.7543 80.0902 69.997C80.2809 70.231 80.3762 70.556 80.3762 70.972C80.3762 71.648 80.1292 72.1767 79.6352 72.558C79.1412 72.9393 78.4782 73.13 77.6462 73.13ZM85.6431 73.13C85.1144 73.13 84.6464 73.013 84.2391 72.779C83.8404 72.5363 83.5284 72.2113 83.3031 71.804V75.769H81.5611V66.188H83.0821V67.358C83.3421 66.9593 83.6714 66.6473 84.0701 66.422C84.4687 66.188 84.9237 66.071 85.4351 66.071C85.8944 66.071 86.3147 66.162 86.6961 66.344C87.0861 66.526 87.4241 66.7817 87.7101 67.111C87.9961 67.4317 88.2171 67.8043 88.3731 68.229C88.5377 68.645 88.6201 69.0957 88.6201 69.581C88.6201 70.2397 88.4901 70.8377 88.2301 71.375C87.9787 71.9123 87.6277 72.3413 87.1771 72.662C86.7351 72.974 86.2237 73.13 85.6431 73.13ZM85.0581 71.648C85.3267 71.648 85.5694 71.5917 85.7861 71.479C86.0027 71.3663 86.1891 71.2147 86.3451 71.024C86.5097 70.8247 86.6311 70.6037 86.7091 70.361C86.7957 70.1097 86.8391 69.8497 86.8391 69.581C86.8391 69.295 86.7914 69.0307 86.6961 68.788C86.6094 68.5453 86.4794 68.333 86.3061 68.151C86.1327 67.9603 85.9291 67.813 85.6951 67.709C85.4697 67.605 85.2227 67.553 84.9541 67.553C84.7894 67.553 84.6204 67.5833 84.4471 67.644C84.2824 67.696 84.1221 67.774 83.9661 67.878C83.8101 67.982 83.6714 68.1033 83.5501 68.242C83.4374 68.3807 83.3551 68.5323 83.3031 68.697V70.296C83.4071 70.5473 83.5457 70.777 83.7191 70.985C83.9011 71.193 84.1091 71.3577 84.3431 71.479C84.5771 71.5917 84.8154 71.648 85.0581 71.648ZM92.9463 73.13C92.3917 73.13 91.8933 73.039 91.4513 72.857C91.0093 72.6663 90.6323 72.4063 90.3203 72.077C90.017 71.7477 89.783 71.3707 89.6183 70.946C89.4537 70.5213 89.3713 70.075 89.3713 69.607C89.3713 69.1303 89.4537 68.6797 89.6183 68.255C89.783 67.8303 90.017 67.4533 90.3203 67.124C90.6323 66.7947 91.0093 66.539 91.4513 66.357C91.8933 66.1663 92.3917 66.071 92.9463 66.071C93.501 66.071 93.995 66.1663 94.4283 66.357C94.8703 66.539 95.2473 66.7947 95.5593 67.124C95.8713 67.4533 96.1053 67.8303 96.2613 68.255C96.426 68.6797 96.5083 69.1303 96.5083 69.607C96.5083 70.075 96.426 70.5213 96.2613 70.946C96.1053 71.3707 95.8713 71.7477 95.5593 72.077C95.256 72.4063 94.8833 72.6663 94.4413 72.857C93.9993 73.039 93.501 73.13 92.9463 73.13ZM91.1653 69.607C91.1653 70.0057 91.2433 70.361 91.3993 70.673C91.5553 70.9763 91.7677 71.2147 92.0363 71.388C92.305 71.5613 92.6083 71.648 92.9463 71.648C93.2757 71.648 93.5747 71.5613 93.8433 71.388C94.112 71.206 94.3243 70.9633 94.4803 70.66C94.645 70.348 94.7273 69.9927 94.7273 69.594C94.7273 69.204 94.645 68.853 94.4803 68.541C94.3243 68.229 94.112 67.9863 93.8433 67.813C93.5747 67.6397 93.2757 67.553 92.9463 67.553C92.6083 67.553 92.305 67.644 92.0363 67.826C91.7677 67.9993 91.5553 68.242 91.3993 68.554C91.2433 68.8573 91.1653 69.2083 91.1653 69.607ZM101.665 72.649C101.517 72.7097 101.34 72.779 101.132 72.857C100.924 72.935 100.698 72.9957 100.456 73.039C100.222 73.091 99.9832 73.117 99.7406 73.117C99.4199 73.117 99.1252 73.0607 98.8566 72.948C98.5879 72.8353 98.3712 72.6577 98.2066 72.415C98.0506 72.1637 97.9726 71.8387 97.9726 71.44V67.527H97.0756V66.188H97.9726V63.978H99.7146V66.188H101.145V67.527H99.7146V70.855C99.7232 71.089 99.7882 71.258 99.9096 71.362C100.031 71.466 100.183 71.518 100.365 71.518C100.547 71.518 100.724 71.4877 100.898 71.427C101.071 71.3663 101.21 71.3143 101.314 71.271L101.665 72.649ZM50.6963 96.21C49.7583 96.21 48.8623 96.056 48.0083 95.748C47.1543 95.44 46.4193 94.985 45.8033 94.383L46.8113 92.556C47.4693 93.088 48.1133 93.48 48.7433 93.732C49.3873 93.984 50.0033 94.11 50.5913 94.11C51.1373 94.11 51.5713 94.012 51.8933 93.816C52.2293 93.62 52.3973 93.326 52.3973 92.934C52.3973 92.668 52.3063 92.465 52.1243 92.325C51.9423 92.171 51.6763 92.038 51.3263 91.926C50.9903 91.814 50.5773 91.688 50.0873 91.548C49.2753 91.282 48.5963 91.023 48.0503 90.771C47.5043 90.519 47.0913 90.204 46.8113 89.826C46.5453 89.434 46.4123 88.937 46.4123 88.335C46.4123 87.607 46.5943 86.984 46.9583 86.466C47.3363 85.934 47.8543 85.521 48.5123 85.227C49.1843 84.933 49.9683 84.786 50.8643 84.786C51.6483 84.786 52.3903 84.912 53.0903 85.164C53.7903 85.402 54.4273 85.794 55.0013 86.34L53.8673 88.125C53.3073 87.691 52.7753 87.376 52.2713 87.18C51.7673 86.97 51.2563 86.865 50.7383 86.865C50.4443 86.865 50.1643 86.9 49.8983 86.97C49.6463 87.04 49.4363 87.159 49.2683 87.327C49.1143 87.481 49.0373 87.705 49.0373 87.999C49.0373 88.265 49.1073 88.475 49.2473 88.629C49.4013 88.769 49.6253 88.895 49.9193 89.007C50.2273 89.119 50.5983 89.245 51.0323 89.385C51.9143 89.637 52.6563 89.896 53.2583 90.162C53.8743 90.428 54.3363 90.757 54.6443 91.149C54.9523 91.527 55.1063 92.052 55.1063 92.724C55.1063 93.816 54.7073 94.67 53.9093 95.286C53.1113 95.902 52.0403 96.21 50.6963 96.21ZM61.1783 96.21C60.4783 96.21 59.8343 96.063 59.2463 95.769C58.6583 95.461 58.1473 95.048 57.7133 94.53C57.2793 94.012 56.9433 93.403 56.7053 92.703C56.4813 92.003 56.3693 91.261 56.3693 90.477C56.3693 89.679 56.4953 88.937 56.7473 88.251C57.0133 87.565 57.3773 86.963 57.8393 86.445C58.3013 85.927 58.8473 85.528 59.4773 85.248C60.1073 84.954 60.7863 84.807 61.5143 84.807C62.3543 84.807 63.0963 85.003 63.7403 85.395C64.3843 85.773 64.9093 86.277 65.3153 86.907V84.996H67.7723V100.473H64.9583V94.068C64.1183 95.496 62.8583 96.21 61.1783 96.21ZM62.2283 93.816C62.6343 93.816 62.9983 93.739 63.3203 93.585C63.6563 93.431 63.9573 93.221 64.2233 92.955C64.5033 92.675 64.7483 92.36 64.9583 92.01V89.406C64.8883 89.098 64.7553 88.811 64.5593 88.545C64.3773 88.279 64.1533 88.048 63.8873 87.852C63.6353 87.642 63.3623 87.481 63.0683 87.369C62.7743 87.257 62.4803 87.201 62.1863 87.201C61.7523 87.201 61.3533 87.292 60.9893 87.474C60.6393 87.656 60.3313 87.908 60.0653 88.23C59.7993 88.538 59.5963 88.895 59.4563 89.301C59.3163 89.693 59.2463 90.113 59.2463 90.561C59.2463 91.163 59.3723 91.709 59.6243 92.199C59.8763 92.689 60.2263 93.081 60.6743 93.375C61.1223 93.669 61.6403 93.816 62.2283 93.816ZM70.2248 91.884V84.996H73.0388V91.275C73.0388 92.115 73.1928 92.752 73.5008 93.186C73.8088 93.606 74.2638 93.816 74.8658 93.816C75.2298 93.816 75.5868 93.746 75.9368 93.606C76.3008 93.452 76.6298 93.228 76.9238 92.934C77.2318 92.64 77.4908 92.269 77.7008 91.821V84.996H80.5148V92.85C80.5148 93.144 80.5638 93.354 80.6618 93.48C80.7738 93.606 80.9488 93.683 81.1868 93.711V96C80.9068 96.042 80.6688 96.07 80.4728 96.084C80.2908 96.112 80.1228 96.126 79.9688 96.126C79.4648 96.126 79.0518 96.014 78.7298 95.79C78.4218 95.552 78.2398 95.23 78.1838 94.824L78.1208 93.942C77.6308 94.684 77.0008 95.251 76.2308 95.643C75.4608 96.021 74.6138 96.21 73.6898 96.21C72.5558 96.21 71.6948 95.846 71.1068 95.118C70.5188 94.376 70.2248 93.298 70.2248 91.884ZM82.5553 92.745C82.5553 92.031 82.7513 91.408 83.1433 90.876C83.5493 90.33 84.1093 89.91 84.8233 89.616C85.5373 89.322 86.3563 89.175 87.2803 89.175C87.7423 89.175 88.2113 89.21 88.6873 89.28C89.1633 89.35 89.5763 89.462 89.9263 89.616V89.028C89.9263 88.328 89.7163 87.789 89.2963 87.411C88.8903 87.033 88.2813 86.844 87.4693 86.844C86.8673 86.844 86.2933 86.949 85.7473 87.159C85.2013 87.369 84.6273 87.677 84.0253 88.083L83.1223 86.235C83.8503 85.759 84.5923 85.402 85.3483 85.164C86.1183 84.926 86.9233 84.807 87.7633 84.807C89.3313 84.807 90.5493 85.199 91.4173 85.983C92.2993 86.767 92.7403 87.887 92.7403 89.343V92.85C92.7403 93.144 92.7893 93.354 92.8873 93.48C92.9993 93.606 93.1743 93.683 93.4123 93.711V96C93.1603 96.042 92.9293 96.077 92.7193 96.105C92.5233 96.133 92.3553 96.147 92.2153 96.147C91.6553 96.147 91.2283 96.021 90.9343 95.769C90.6543 95.517 90.4793 95.209 90.4093 94.845L90.3463 94.278C89.8703 94.894 89.2753 95.37 88.5613 95.706C87.8473 96.042 87.1193 96.21 86.3773 96.21C85.6493 96.21 84.9913 96.063 84.4033 95.769C83.8293 95.461 83.3743 95.048 83.0383 94.53C82.7163 93.998 82.5553 93.403 82.5553 92.745ZM89.4013 93.312C89.5553 93.144 89.6813 92.976 89.7793 92.808C89.8773 92.64 89.9263 92.486 89.9263 92.346V91.233C89.5903 91.093 89.2263 90.988 88.8343 90.918C88.4423 90.834 88.0713 90.792 87.7213 90.792C86.9933 90.792 86.3913 90.953 85.9153 91.275C85.4533 91.583 85.2223 91.996 85.2223 92.514C85.2223 92.794 85.2993 93.06 85.4533 93.312C85.6073 93.564 85.8313 93.767 86.1253 93.921C86.4193 94.075 86.7693 94.152 87.1753 94.152C87.5953 94.152 88.0083 94.075 88.4143 93.921C88.8203 93.753 89.1493 93.55 89.4013 93.312ZM101.922 87.432C101.068 87.432 100.305 87.6 99.6329 87.936C98.9609 88.258 98.4779 88.727 98.1839 89.343V96H95.3699V84.996H97.9529V87.348C98.3449 86.592 98.8419 85.997 99.4439 85.563C100.046 85.129 100.683 84.891 101.355 84.849C101.509 84.849 101.628 84.849 101.712 84.849C101.796 84.849 101.866 84.856 101.922 84.87V87.432ZM108.45 96.21C107.568 96.21 106.77 96.063 106.056 95.769C105.342 95.461 104.733 95.048 104.229 94.53C103.725 93.998 103.333 93.396 103.053 92.724C102.787 92.038 102.654 91.317 102.654 90.561C102.654 89.511 102.885 88.552 103.347 87.684C103.823 86.816 104.495 86.123 105.363 85.605C106.245 85.073 107.281 84.807 108.471 84.807C109.675 84.807 110.704 85.073 111.558 85.605C112.412 86.123 113.063 86.816 113.511 87.684C113.973 88.538 114.204 89.462 114.204 90.456C114.204 90.624 114.197 90.799 114.183 90.981C114.169 91.149 114.155 91.289 114.141 91.401H105.636C105.692 91.961 105.853 92.451 106.119 92.871C106.399 93.291 106.749 93.613 107.169 93.837C107.603 94.047 108.065 94.152 108.555 94.152C109.115 94.152 109.64 94.019 110.13 93.753C110.634 93.473 110.977 93.109 111.159 92.661L113.574 93.333C113.308 93.893 112.923 94.39 112.419 94.824C111.929 95.258 111.348 95.601 110.676 95.853C110.004 96.091 109.262 96.21 108.45 96.21ZM105.573 89.616H111.327C111.271 89.056 111.11 88.573 110.844 88.167C110.592 87.747 110.256 87.425 109.836 87.201C109.416 86.963 108.947 86.844 108.429 86.844C107.925 86.844 107.463 86.963 107.043 87.201C106.637 87.425 106.301 87.747 106.035 88.167C105.783 88.573 105.629 89.056 105.573 89.616Z" fill="white"/>
</svg>
