<svg width="40" height="40" viewBox="0 0 40 40" fill="none" xmlns="http://www.w3.org/2000/svg">
<circle cx="20" cy="20" r="19.5" stroke="#444444"/>
<path d="M21.1026 17.0518C20.1155 17.1253 19.1884 17.5613 18.4949 18.2783V13.3333H15.417V26.3256H18.5058V25.3211C18.7854 25.7518 19.1699 26.1018 19.622 26.3372C20.0742 26.5725 20.5786 26.6852 21.0862 26.6642C21.0862 26.6642 25.4161 26.4977 25.4161 21.8136C25.4325 21.8136 25.2739 17.0518 21.1026 17.0518ZM20.4302 23.9059C20.0399 23.9059 19.6583 23.7884 19.3337 23.5682C19.0092 23.3481 18.7562 23.0352 18.6069 22.6691C18.4575 22.303 18.4184 21.9001 18.4945 21.5115C18.5707 21.1229 18.7587 20.7659 19.0347 20.4857C19.3107 20.2055 19.6623 20.0147 20.0452 19.9373C20.428 19.86 20.8248 19.8997 21.1855 20.0514C21.5461 20.203 21.8543 20.4598 22.0712 20.7893C22.288 21.1187 22.4038 21.5061 22.4038 21.9024C22.4052 22.1664 22.3552 22.4281 22.2567 22.6725C22.1582 22.9168 22.013 23.139 21.8296 23.3262C21.6462 23.5135 21.4282 23.662 21.188 23.7634C20.9478 23.8648 20.6903 23.917 20.4302 23.917V23.9059Z" fill="#444444"/>
</svg>
