<svg width="40" height="40" viewBox="0 0 40 40" fill="none" xmlns="http://www.w3.org/2000/svg">
<circle cx="20" cy="20" r="19.5" stroke="#444444"/>
<g clip-path="url(#clip0_794_1110)">
<path d="M19.9997 13.85C22.1108 13.85 22.3615 13.85 23.1993 13.8937C23.7015 13.8998 24.1989 13.9865 24.6705 14.15C25.0142 14.2712 25.3252 14.4634 25.5809 14.7125C25.844 14.9535 26.0449 15.2486 26.1681 15.575C26.3438 16.0212 26.4375 16.4926 26.4452 16.9688C26.4847 17.7625 26.4913 18 26.4913 20C26.4913 22 26.4913 22.2375 26.4452 23.0312C26.4375 23.5074 26.3438 23.9788 26.1681 24.425C26.0394 24.7488 25.8392 25.0429 25.581 25.2876C25.3227 25.5322 25.0123 25.7218 24.6705 25.8438C24.1995 26.0102 23.7019 26.099 23.1993 26.1063C22.3615 26.1438 22.1108 26.15 19.9997 26.15C17.8886 26.15 17.6379 26.15 16.8 26.1063C16.2974 26.099 15.7998 26.0102 15.3288 25.8438C14.9843 25.7271 14.6728 25.5367 14.4184 25.2875C14.1555 25.0453 13.9527 24.7506 13.8247 24.425C13.6521 23.9782 13.5606 23.507 13.5542 23.0312C13.5146 22.2375 13.508 22 13.508 20C13.508 18 13.508 17.7625 13.5542 16.9688C13.5606 16.493 13.6521 16.0218 13.8247 15.575C13.9573 15.2516 14.1595 14.9579 14.4185 14.7126C14.6774 14.4672 14.9875 14.2756 15.3288 14.15C15.8004 13.9865 16.2979 13.8998 16.8 13.8937C17.6379 13.8563 17.8886 13.85 19.9997 13.85ZM19.9997 12.5C17.849 12.5 17.5785 12.5 16.734 12.5438C16.0777 12.5557 15.4284 12.6741 14.8143 12.8938C14.2869 13.0842 13.808 13.3781 13.4089 13.7561C13.0099 14.1342 12.6996 14.5879 12.4986 15.0875C12.2667 15.6693 12.1418 16.2845 12.1292 16.9062C12.0896 17.7063 12.083 17.9625 12.083 20C12.083 22.0375 12.083 22.2937 12.1292 23.125C12.1424 23.7467 12.2674 24.3618 12.4986 24.9438C12.6996 25.4434 13.0099 25.8971 13.4089 26.2751C13.808 26.6532 14.2869 26.9471 14.8143 27.1375C15.4284 27.3572 16.0777 27.4756 16.734 27.4875C17.5785 27.525 17.849 27.5312 19.9997 27.5312C22.1504 27.5312 22.4209 27.5312 23.2983 27.4875C23.9546 27.475 24.6038 27.3566 25.2181 27.1375C25.7454 26.9471 26.2243 26.6532 26.6234 26.2751C27.0225 25.8971 27.3327 25.4434 27.5337 24.9438C27.7575 24.3437 27.8691 23.7113 27.8636 23.075C27.9031 22.275 27.9097 22.0188 27.9097 19.95C27.9097 17.8812 27.9097 17.6562 27.8636 16.8563C27.851 16.2345 27.726 15.6193 27.4941 15.0375C27.2931 14.5379 26.9829 14.0842 26.5838 13.7061C26.1848 13.3281 25.7059 13.0342 25.1785 12.8438C24.5569 12.6403 23.9032 12.5388 23.2455 12.5438C22.4011 12.5063 22.1306 12.5 19.9469 12.5H19.9997Z" fill="#444444"/>
<path d="M19.9994 16.15C19.1957 16.15 18.41 16.3758 17.7417 16.7989C17.0734 17.2219 16.5525 17.8232 16.2449 18.5267C15.9373 19.2302 15.8568 20.0043 16.0136 20.7511C16.1704 21.4979 16.5575 22.184 17.1258 22.7224C17.6942 23.2608 18.4183 23.6275 19.2066 23.776C19.9949 23.9246 20.812 23.8484 21.5546 23.557C22.2972 23.2656 22.9319 22.7721 23.3784 22.139C23.825 21.5058 24.0633 20.7615 24.0633 20C24.0633 18.9789 23.6352 17.9997 22.873 17.2777C22.1109 16.5556 21.0772 16.15 19.9994 16.15ZM19.9994 22.5C19.4775 22.5 18.9673 22.3534 18.5334 22.0787C18.0994 21.804 17.7612 21.4135 17.5614 20.9567C17.3617 20.4999 17.3094 19.9973 17.4113 19.5123C17.5131 19.0273 17.7644 18.5819 18.1335 18.2323C18.5025 17.8826 18.9727 17.6445 19.4846 17.5481C19.9965 17.4516 20.5271 17.5011 21.0093 17.6903C21.4915 17.8795 21.9036 18.2 22.1936 18.6111C22.4836 19.0222 22.6383 19.5056 22.6383 20C22.6383 20.6631 22.3603 21.2989 21.8654 21.7678C21.3705 22.2366 20.6993 22.5 19.9994 22.5Z" fill="#444444"/>
<path d="M24.2283 16.8938C24.753 16.8938 25.1783 16.4908 25.1783 15.9938C25.1783 15.4967 24.753 15.0938 24.2283 15.0938C23.7036 15.0938 23.2783 15.4967 23.2783 15.9938C23.2783 16.4908 23.7036 16.8938 24.2283 16.8938Z" fill="#444444"/>
</g>
<defs>
<clipPath id="clip0_794_1110">
<rect width="15.8333" height="15" fill="white" transform="translate(12.083 12.5)"/>
</clipPath>
</defs>
</svg>
