<svg width="36" height="36" viewBox="0 0 36 36" fill="none" xmlns="http://www.w3.org/2000/svg">
                                                    <g filter="url(#filter0_d_209_2185)">
                                                    <path fillRule="evenodd" clipRule="evenodd" d="M18 30C25.732 30 32 23.732 32 16C32 8.26801 25.732 2 18 2C10.268 2 4 8.26801 4 16C4 23.732 10.268 30 18 30ZM15.9399 11.2824L16.6575 10.5859L18.0504 12.0211L17.3328 12.7176L14.4661 15.5H24H25V17.5H24H14.4661L17.3328 20.2824L18.0504 20.9789L16.6575 22.4141L15.9399 21.7176L11.3035 17.2176L10.5642 16.5L11.3035 15.7824L15.9399 11.2824Z" fill="white" fillOpacity="0.5" shapeRendering="crispEdges"/>
                                                    </g>
                                                    <defs>
                                                    <filter id="filter0_d_209_2185" x="0" y="0" width="36" height="36" filterUnits="userSpaceOnUse" colorInterpolationFilters="sRGB">
                                                    <feFlood floodOpacity="0" result="BackgroundImageFix"/>
                                                    <feColorMatrix in="SourceAlpha" type="matrix" values="0 0 0 0 0 0 0 0 0 0 0 0 0 0 0 0 0 0 127 0" result="hardAlpha"/>
                                                    <feOffset dy="2"/>
                                                    <feGaussianBlur stdDeviation="2"/> 
                                                    <feComposite in2="hardAlpha" operator="out"/>
                                                    <feColorMatrix type="matrix" values="0 0 0 0 0 0 0 0 0 0 0 0 0 0 0 0 0 0 0.12 0"/>
                                                    <feBlend mode="normal" in2="BackgroundImageFix" result="effect1_dropShadow_209_2185"/>
                                                    <feBlend mode="normal" in="SourceGraphic" in2="effect1_dropShadow_209_2185" result="shape"/>
                                                    </filter>
                                                    </defs>
                                                </svg>