<svg width="36" height="36" viewBox="0 0 36 36" fill="none" xmlns="http://www.w3.org/2000/svg">
                                            <g filter="url(#filter0_d_209_2189)">
                                            <path fillRule="evenodd" clipRule="evenodd" d="M18 30C10.268 30 4 23.732 4 16C4 8.26801 10.268 2 18 2C25.732 2 32 8.26801 32 16C32 23.732 25.732 30 18 30ZM20.0601 11.2824L19.3425 10.5859L17.9496 12.0211L18.6672 12.7176L21.5339 15.5H12H11V17.5H12H21.5339L18.6672 20.2824L17.9496 20.9789L19.3425 22.4141L20.0601 21.7176L24.6965 17.2176L25.4358 16.5L24.6965 15.7824L20.0601 11.2824Z" fill="white" fillOpacity="0.5" shapeRendering="crispEdges"/>
                                            </g>
                                            <defs>
                                            <filter id="filter0_d_209_2189" x="0" y="0" width="36" height="36" filterUnits="userSpaceOnUse" colorInterpolationFilters="sRGB">
                                            <feFlood floodOpacity="0" result="BackgroundImageFix"/>
                                            <feColorMatrix in="SourceAlpha" type="matrix" values="0 0 0 0 0 0 0 0 0 0 0 0 0 0 0 0 0 0 127 0" result="hardAlpha"/>
                                            <feOffset dy="2"/>
                                            <feGaussianBlur stdDeviation="2"/>
                                            <feComposite in2="hardAlpha" operator="out"/>
                                            <feColorMatrix type="matrix" values="0 0 0 0 0 0 0 0 0 0 0 0 0 0 0 0 0 0 0.12 0"/>
                                            <feBlend mode="normal" in2="BackgroundImageFix" result="effect1_dropShadow_209_2189"/>
                                            <feBlend mode="normal" in="SourceGraphic" in2="effect1_dropShadow_209_2189" result="shape"/>
                                            </filter>
                                            </defs>
                                        </svg>