<svg width="40" height="40" viewBox="0 0 40 40" fill="none" xmlns="http://www.w3.org/2000/svg">
<circle cx="20" cy="20" r="19.5" stroke="#444444"/>
<path d="M23.359 20.8021L23.759 18.3328H21.2557V16.7286C21.2375 16.544 21.2636 16.3579 21.3321 16.1842C21.4006 16.0104 21.5097 15.8535 21.6513 15.7252C21.7929 15.5969 21.9633 15.5004 22.1499 15.443C22.3364 15.3856 22.5342 15.3688 22.7286 15.3937H23.8682V13.2911C23.1985 13.1895 22.5219 13.1339 21.8437 13.125C19.7767 13.125 18.4311 14.3052 18.4311 16.4479V18.3328H16.1338V20.8021H18.4311V26.7719C19.367 26.9094 20.3198 26.9094 21.2557 26.7719V20.8021H23.359Z" fill="#444444"/>
</svg>
