<svg width="440" height="440" viewBox="0 0 440 440" fill="none" xmlns="http://www.w3.org/2000/svg">
<mask id="mask0_2_5654" style="mask-type:alpha" maskUnits="userSpaceOnUse" x="0" y="0" width="440" height="440">
<path d="M440 0H0V440H440V0Z" fill="#4F7CD7"/>
</mask>
<g mask="url(#mask0_2_5654)">
<path d="M440 0H0V440H440V0Z" fill="#7661CC"/>
<path d="M443.33 167.93L167.18 440H439.92L443.33 167.93Z" fill="#9EBE51"/>
<path d="M478.74 141L413.61 203.25L174.87 440H159.5L370.91 228.59L142.32 0H157.68L378.59 220.91L413.61 187.88L456.29 145.98L478.74 141Z" fill="white"/>
<g style="mix-blend-mode:multiply">
<path d="M360.572 93.2733C365.856 87.7499 367.088 80.3539 363.325 76.7538C359.561 73.1537 352.227 74.7127 346.944 80.2361C341.66 85.7594 340.427 93.1554 344.191 96.7555C347.954 100.356 355.288 98.7966 360.572 93.2733Z" fill="#371B0B"/>
</g>
<g style="mix-blend-mode:multiply">
<path d="M298.099 285.028C303.383 279.504 304.615 272.108 300.852 268.508C297.088 264.908 289.754 266.467 284.471 271.991C279.187 277.514 277.954 284.91 281.718 288.51C285.481 292.11 292.815 290.551 298.099 285.028Z" fill="#371B0B"/>
</g>
<g style="mix-blend-mode:multiply">
<path d="M259.63 249.766C264.913 244.242 266.146 236.846 262.383 233.246C258.619 229.646 251.285 231.205 246.001 236.728C240.718 242.252 239.485 249.648 243.248 253.248C247.012 256.848 254.346 255.289 259.63 249.766Z" fill="#371B0B"/>
</g>
<g style="mix-blend-mode:multiply">
<path d="M307.373 348.142C312.657 342.619 313.89 335.223 310.126 331.622C306.363 328.022 299.029 329.581 293.745 335.105C288.461 340.628 287.229 348.024 290.992 351.624C294.756 355.224 302.09 353.665 307.373 348.142Z" fill="#371B0B"/>
</g>
<g style="mix-blend-mode:multiply">
<path d="M188.016 383.564C193.3 378.04 194.533 370.644 190.769 367.044C187.006 363.444 179.672 365.003 174.388 370.526C169.104 376.05 167.872 383.446 171.635 387.046C175.399 390.646 182.733 389.087 188.016 383.564Z" fill="#371B0B"/>
</g>
<path d="M306.416 270.543C307.958 264.206 304.07 257.818 297.732 256.277C291.394 254.735 285.007 258.624 283.465 264.961C281.924 271.299 285.812 277.686 292.15 279.228C298.487 280.769 304.875 276.881 306.416 270.543Z" fill="#E4E42C"/>
<path d="M256.95 246.72C263.473 246.72 268.76 241.433 268.76 234.91C268.76 228.388 263.473 223.1 256.95 223.1C250.428 223.1 245.14 228.388 245.14 234.91C245.14 241.433 250.428 246.72 256.95 246.72Z" fill="#E4E42C"/>
<path d="M316.666 334.619C318.694 328.419 315.312 321.75 309.113 319.723C302.913 317.695 296.244 321.077 294.217 327.277C292.189 333.476 295.571 340.145 301.77 342.173C307.97 344.2 314.639 340.818 316.666 334.619Z" fill="#E4E42C"/>
<path d="M369.261 77.5687C370.803 71.231 366.914 64.8436 360.577 63.3022C354.239 61.7607 347.852 65.6488 346.31 71.9866C344.769 78.3243 348.657 84.7116 354.995 86.2531C361.332 87.7946 367.72 83.9064 369.261 77.5687Z" fill="#E4E42C"/>
<g style="mix-blend-mode:multiply">
<path d="M276.926 120.998C282.21 115.474 283.442 108.078 279.679 104.478C275.915 100.878 268.581 102.437 263.298 107.961C258.014 113.484 256.781 120.88 260.545 124.48C264.308 128.08 271.642 126.521 276.926 120.998Z" fill="#371B0B"/>
</g>
<path d="M274.13 114.32C280.653 114.32 285.94 109.032 285.94 102.51C285.94 95.9875 280.653 90.7 274.13 90.7C267.608 90.7 262.32 95.9875 262.32 102.51C262.32 109.032 267.608 114.32 274.13 114.32Z" fill="#E4E42C"/>
<path d="M185.16 378.75C191.682 378.75 196.97 373.462 196.97 366.94C196.97 360.417 191.682 355.13 185.16 355.13C178.637 355.13 173.35 360.417 173.35 366.94C173.35 373.462 178.637 378.75 185.16 378.75Z" fill="#E4E42C"/>
<g style="mix-blend-mode:multiply">
<path d="M340.67 420.69L335.24 417.42L296.44 378.62L291.47 374.37L290.74 375.1C289.98 374.38 288.52 372.9 286.7 370.6C284.23 367.46 280.57 362.1 277.22 354.39C273.78 346.48 270.34 335.06 267.28 321.36C264.96 310.97 263.65 302.85 263.64 302.77C261.44 289.15 253.52 274.69 241.92 263.09C229.56 250.73 214.21 242.82 198.69 240.8C191.08 239.81 183.84 240.3 177.16 242.24C170.2 244.27 164.17 247.8 159.23 252.73C154.29 257.66 150.77 263.69 148.74 270.66C146.8 277.34 146.31 284.58 147.3 292.19C149.31 307.71 157.23 323.06 169.59 335.42C181.19 347.02 195.65 354.94 209.26 357.14C209.34 357.15 217.46 358.46 227.85 360.78C241.55 363.84 252.97 367.28 260.88 370.72C273.28 376.11 279.8 382.35 281.59 384.24L280.86 384.97L285.11 389.94L323.91 428.74L327.18 434.17C327.94 435.43 329.55 435.89 330.86 435.22L337.23 431.94C337.75 431.67 338.17 431.25 338.44 430.73L341.72 424.36C342.4 423.05 341.94 421.44 340.67 420.68V420.69ZM260.95 316.72L259.34 315.11L261.02 313.43C261.03 314.54 261.02 315.64 260.96 316.72H260.95ZM229.82 302.09L226.34 298.61L229.82 295.13L233.3 298.61L229.82 302.09ZM233.95 299.25L237.43 302.73L233.95 306.21L230.47 302.73L233.95 299.25ZM187.93 294.48L184.45 297.96L180.97 294.48L184.45 291L187.93 294.48ZM185.09 290.35L188.57 286.87L192.05 290.35L188.57 293.83L185.09 290.35ZM188.57 295.12L192.05 298.6L188.57 302.08L185.09 298.6L188.57 295.12ZM189.21 294.48L192.69 291L196.17 294.48L192.69 297.96L189.21 294.48ZM209.2 297.96L205.72 294.48L209.2 291L212.68 294.48L209.2 297.96ZM213.33 295.12L216.81 298.6L213.33 302.08L209.85 298.6L213.33 295.12ZM208.56 298.6L205.08 302.08L201.6 298.6L205.08 295.12L208.56 298.6ZM200.95 297.96L197.47 294.48L200.95 291L204.43 294.48L200.95 297.96ZM196.82 293.83L193.34 290.35L196.82 286.87L200.3 290.35L196.82 293.83ZM196.82 295.11L200.3 298.59L196.82 302.07L193.34 298.59L196.82 295.11ZM200.95 299.24L204.43 302.72L200.95 306.2L197.47 302.72L200.95 299.24ZM205.08 303.37L208.56 306.85L205.08 310.33L201.6 306.85L205.08 303.37ZM205.72 302.73L209.2 299.25L212.68 302.73L209.2 306.21L205.72 302.73ZM213.33 303.37L216.81 306.85L213.33 310.33L209.85 306.85L213.33 303.37ZM213.97 302.73L217.45 299.25L220.93 302.73L217.45 306.21L213.97 302.73ZM218.1 298.6L221.58 295.12L225.06 298.6L221.58 302.08L218.1 298.6ZM221.58 303.37L225.06 306.85L221.58 310.33L218.1 306.85L221.58 303.37ZM222.22 302.73L225.7 299.25L229.18 302.73L225.7 306.21L222.22 302.73ZM225.7 297.96L222.22 294.48L225.7 291L229.18 294.48L225.7 297.96ZM221.57 293.83L218.09 290.35L221.57 286.87L225.05 290.35L221.57 293.83ZM220.93 294.47L217.45 297.95L213.97 294.47L217.45 290.99L220.93 294.47ZM213.32 293.83L209.84 290.35L213.32 286.87L216.8 290.35L213.32 293.83ZM209.19 289.7L205.71 286.22L209.19 282.74L212.67 286.22L209.19 289.7ZM208.55 290.34L205.07 293.82L201.59 290.34L205.07 286.86L208.55 290.34ZM200.94 289.7L197.46 286.22L200.94 282.74L204.42 286.22L200.94 289.7ZM196.81 285.57L193.33 282.09L196.81 278.61L200.29 282.09L196.81 285.57ZM196.17 286.21L192.69 289.69L189.21 286.21L192.69 282.73L196.17 286.21ZM188.56 285.57L185.08 282.09L188.56 278.61L192.04 282.09L188.56 285.57ZM187.92 286.21L184.44 289.69L180.96 286.21L184.44 282.73L187.92 286.21ZM183.79 290.34L180.31 293.82L176.83 290.34L180.31 286.86L183.79 290.34ZM183.79 298.59L180.31 302.07L176.83 298.59L180.31 295.11L183.79 298.59ZM184.43 299.23L187.91 302.71L184.43 306.19L180.95 302.71L184.43 299.23ZM188.56 303.36L192.04 306.84L188.56 310.32L185.08 306.84L188.56 303.36ZM189.2 302.72L192.68 299.24L196.16 302.72L192.68 306.2L189.2 302.72ZM196.81 303.36L200.29 306.84L196.81 310.32L193.33 306.84L196.81 303.36ZM200.94 307.49L204.42 310.97L200.94 314.45L197.46 310.97L200.94 307.49ZM205.07 311.62L208.55 315.1L205.07 318.58L201.59 315.1L205.07 311.62ZM205.71 310.98L209.19 307.5L212.67 310.98L209.19 314.46L205.71 310.98ZM213.32 311.62L216.8 315.1L213.32 318.58L209.84 315.1L213.32 311.62ZM213.96 310.98L217.44 307.5L220.92 310.98L217.44 314.46L213.96 310.98ZM221.57 311.62L225.05 315.1L221.57 318.58L218.09 315.1L221.57 311.62ZM222.21 310.98L225.69 307.5L229.17 310.98L225.69 314.46L222.21 310.98ZM226.34 306.85L229.82 303.37L233.3 306.85L229.82 310.33L226.34 306.85ZM233.95 307.49L237.43 310.97L233.95 314.45L230.47 310.97L233.95 307.49ZM234.59 306.85L238.07 303.37L241.55 306.85L238.07 310.33L234.59 306.85ZM234.59 298.6L238.07 295.12L241.55 298.6L238.07 302.08L234.59 298.6ZM233.95 297.96L230.47 294.48L233.95 291L237.43 294.48L233.95 297.96ZM229.82 293.83L226.34 290.35L229.82 286.87L233.3 290.35L229.82 293.83ZM225.69 289.7L222.21 286.22L225.69 282.74L229.17 286.22L225.69 289.7ZM221.56 285.57L218.08 282.09L221.56 278.61L225.04 282.09L221.56 285.57ZM220.92 286.21L217.44 289.69L213.96 286.21L217.44 282.73L220.92 286.21ZM213.31 285.57L209.83 282.09L213.31 278.61L216.79 282.09L213.31 285.57ZM209.18 281.44L205.7 277.96L209.18 274.48L212.66 277.96L209.18 281.44ZM208.54 282.08L205.06 285.56L201.58 282.08L205.06 278.6L208.54 282.08ZM200.93 281.44L197.45 277.96L200.93 274.48L204.41 277.96L200.93 281.44ZM196.8 277.31L193.32 273.83L196.8 270.35L200.28 273.83L196.8 277.31ZM196.16 277.95L192.68 281.43L189.2 277.95L192.68 274.47L196.16 277.95ZM188.55 277.31L185.07 273.83L188.55 270.35L192.03 273.83L188.55 277.31ZM187.91 277.95L184.43 281.43L180.95 277.95L184.43 274.47L187.91 277.95ZM183.78 282.08L180.3 285.56L176.82 282.08L180.3 278.6L183.78 282.08ZM179.65 286.21L176.17 289.69L172.69 286.21L176.17 282.73L179.65 286.21ZM175.52 290.34L172.04 293.82L168.56 290.34L172.04 286.86L175.52 290.34ZM176.16 290.98L179.64 294.46L176.16 297.94L172.68 294.46L176.16 290.98ZM179.64 302.71L176.16 306.19L172.68 302.71L176.16 299.23L179.64 302.71ZM180.28 303.35L183.76 306.83L180.28 310.31L176.8 306.83L180.28 303.35ZM184.41 307.48L187.89 310.96L184.41 314.44L180.93 310.96L184.41 307.48ZM188.54 311.61L192.02 315.09L188.54 318.57L185.06 315.09L188.54 311.61ZM189.18 310.97L192.66 307.49L196.14 310.97L192.66 314.45L189.18 310.97ZM196.79 311.61L200.27 315.09L196.79 318.57L193.31 315.09L196.79 311.61ZM200.92 315.74L204.4 319.22L200.92 322.7L197.44 319.22L200.92 315.74ZM205.05 319.87L208.53 323.35L205.05 326.83L201.57 323.35L205.05 319.87ZM205.69 319.23L209.17 315.75L212.65 319.23L209.17 322.71L205.69 319.23ZM213.3 319.87L216.78 323.35L213.3 326.83L209.82 323.35L213.3 319.87ZM213.94 319.23L217.42 315.75L220.9 319.23L217.42 322.71L213.94 319.23ZM221.55 319.87L225.03 323.35L221.55 326.83L218.07 323.35L221.55 319.87ZM222.19 319.23L225.67 315.75L229.15 319.23L225.67 322.71L222.19 319.23ZM226.32 315.1L229.8 311.62L233.28 315.1L229.8 318.58L226.32 315.1ZM233.93 315.74L237.41 319.22L233.93 322.7L230.45 319.22L233.93 315.74ZM234.57 315.1L238.05 311.62L241.53 315.1L238.05 318.58L234.57 315.1ZM238.7 310.97L242.18 307.49L245.66 310.97L242.18 314.45L238.7 310.97ZM242.83 306.84L246.31 303.36L249.79 306.84L246.31 310.32L242.83 306.84ZM242.19 306.2L238.71 302.72L242.19 299.24L245.67 302.72L242.19 306.2ZM238.71 294.47L242.19 290.99L245.67 294.47L242.19 297.95L238.71 294.47ZM238.07 293.83L234.59 290.35L238.07 286.87L241.55 290.35L238.07 293.83ZM233.94 289.7L230.46 286.22L233.94 282.74L237.42 286.22L233.94 289.7ZM229.81 285.57L226.33 282.09L229.81 278.61L233.29 282.09L229.81 285.57ZM225.68 281.44L222.2 277.96L225.68 274.48L229.16 277.96L225.68 281.44ZM221.55 277.31L218.07 273.83L221.55 270.35L225.03 273.83L221.55 277.31ZM220.91 277.95L217.43 281.43L213.95 277.95L217.43 274.47L220.91 277.95ZM213.3 277.31L209.82 273.83L213.3 270.35L216.78 273.83L213.3 277.31ZM209.17 273.18L205.69 269.7L209.17 266.22L212.65 269.7L209.17 273.18ZM208.53 273.82L205.05 277.3L201.57 273.82L205.05 270.34L208.53 273.82ZM200.92 273.18L197.44 269.7L200.92 266.22L204.4 269.7L200.92 273.18ZM196.79 269.05L193.31 265.57L196.79 262.09L200.27 265.57L196.79 269.05ZM196.15 269.69L192.67 273.17L189.19 269.69L192.67 266.21L196.15 269.69ZM188.54 269.05L185.06 265.57L188.54 262.09L192.02 265.57L188.54 269.05ZM187.9 269.69L184.42 273.17L180.94 269.69L184.42 266.21L187.9 269.69ZM183.77 273.82L180.29 277.3L176.81 273.82L180.29 270.34L183.77 273.82ZM179.64 277.95L176.16 281.43L172.68 277.95L176.16 274.47L179.64 277.95ZM175.51 282.08L172.03 285.56L168.55 282.08L172.03 278.6L175.51 282.08ZM171.38 286.21L167.9 289.69L164.42 286.21L167.9 282.73L171.38 286.21ZM171.38 294.46L167.9 297.94L164.42 294.46L167.9 290.98L171.38 294.46ZM172.02 295.1L175.5 298.58L172.02 302.06L168.54 298.58L172.02 295.1ZM175.5 306.83L172.02 310.31L168.54 306.83L172.02 303.35L175.5 306.83ZM176.14 307.47L179.62 310.95L176.14 314.43L172.66 310.95L176.14 307.47ZM180.27 311.6L183.75 315.08L180.27 318.56L176.79 315.08L180.27 311.6ZM184.4 315.73L187.88 319.21L184.4 322.69L180.92 319.21L184.4 315.73ZM188.53 319.86L192.01 323.34L188.53 326.82L185.05 323.34L188.53 319.86ZM189.17 319.22L192.65 315.74L196.13 319.22L192.65 322.7L189.17 319.22ZM196.78 319.86L200.26 323.34L196.78 326.82L193.3 323.34L196.78 319.86ZM200.91 323.99L204.39 327.47L200.91 330.95L197.43 327.47L200.91 323.99ZM205.04 328.12L208.52 331.6L205.04 335.08L201.56 331.6L205.04 328.12ZM205.68 327.48L209.16 324L212.64 327.48L209.16 330.96L205.68 327.48ZM213.29 328.12L216.77 331.6L213.29 335.08L209.81 331.6L213.29 328.12ZM213.93 327.48L217.41 324L220.89 327.48L217.41 330.96L213.93 327.48ZM221.54 328.12L225.02 331.6L221.54 335.08L218.06 331.6L221.54 328.12ZM222.18 327.48L225.66 324L229.14 327.48L225.66 330.96L222.18 327.48ZM226.31 323.35L229.79 319.87L233.27 323.35L229.79 326.83L226.31 323.35ZM233.92 323.99L237.4 327.47L233.92 330.95L230.44 327.47L233.92 323.99ZM234.56 323.35L238.04 319.87L241.52 323.35L238.04 326.83L234.56 323.35ZM238.69 319.22L242.17 315.74L245.65 319.22L242.17 322.7L238.69 319.22ZM242.82 315.09L246.3 311.61L249.78 315.09L246.3 318.57L242.82 315.09ZM246.95 310.96L250.43 307.48L253.91 310.96L250.43 314.44L246.95 310.96ZM246.95 302.71L250.43 299.23L253.91 302.71L250.43 306.19L246.95 302.71ZM246.31 302.07L242.83 298.59L246.31 295.11L249.79 298.59L246.31 302.07ZM242.83 290.34L246.31 286.86L249.79 290.34L246.31 293.82L242.83 290.34ZM242.19 289.7L238.71 286.22L242.19 282.74L245.67 286.22L242.19 289.7ZM238.06 285.57L234.58 282.09L238.06 278.61L241.54 282.09L238.06 285.57ZM233.93 281.44L230.45 277.96L233.93 274.48L237.41 277.96L233.93 281.44ZM229.8 277.31L226.32 273.83L229.8 270.35L233.28 273.83L229.8 277.31ZM225.67 273.18L222.19 269.7L225.67 266.22L229.15 269.7L225.67 273.18ZM221.54 269.05L218.06 265.57L221.54 262.09L225.02 265.57L221.54 269.05ZM220.9 269.69L217.42 273.17L213.94 269.69L217.42 266.21L220.9 269.69ZM213.29 269.05L209.81 265.57L213.29 262.09L216.77 265.57L213.29 269.05ZM209.16 264.92L205.68 261.44L209.16 257.96L212.64 261.44L209.16 264.92ZM208.52 265.56L205.04 269.04L201.56 265.56L205.04 262.08L208.52 265.56ZM200.91 264.92L197.43 261.44L200.91 257.96L204.39 261.44L200.91 264.92ZM196.78 260.79L193.3 257.31L196.78 253.83L200.26 257.31L196.78 260.79ZM196.14 261.43L192.66 264.91L189.18 261.43L192.66 257.95L196.14 261.43ZM188.53 260.79L185.05 257.31L188.53 253.83L192.01 257.31L188.53 260.79ZM187.89 261.43L184.41 264.91L180.93 261.43L184.41 257.95L187.89 261.43ZM183.76 265.56L180.28 269.04L176.8 265.56L180.28 262.08L183.76 265.56ZM179.63 269.69L176.15 273.17L172.67 269.69L176.15 266.21L179.63 269.69ZM175.5 273.82L172.02 277.3L168.54 273.82L172.02 270.34L175.5 273.82ZM171.37 277.95L167.89 281.43L164.41 277.95L167.89 274.47L171.37 277.95ZM167.24 282.08L163.76 285.56L160.28 282.08L163.76 278.6L167.24 282.08ZM163.11 286.21L159.63 289.69L156.15 286.21L159.63 282.73L163.11 286.21ZM163.75 286.85L167.23 290.33L163.75 293.81L160.27 290.33L163.75 286.85ZM167.23 298.58L163.75 302.06L160.27 298.58L163.75 295.1L167.23 298.58ZM167.87 299.22L171.35 302.7L167.87 306.18L164.39 302.7L167.87 299.22ZM171.35 310.95L167.87 314.43L164.39 310.95L167.87 307.47L171.35 310.95ZM171.99 311.59L175.47 315.07L171.99 318.55L168.51 315.07L171.99 311.59ZM176.12 315.72L179.6 319.2L176.12 322.68L172.64 319.2L176.12 315.72ZM180.25 319.85L183.73 323.33L180.25 326.81L176.77 323.33L180.25 319.85ZM184.38 323.98L187.86 327.46L184.38 330.94L180.9 327.46L184.38 323.98ZM188.51 328.11L191.99 331.59L188.51 335.07L185.03 331.59L188.51 328.11ZM189.15 327.47L192.63 323.99L196.11 327.47L192.63 330.95L189.15 327.47ZM196.76 328.11L200.24 331.59L196.76 335.07L193.28 331.59L196.76 328.11ZM200.89 332.24L204.37 335.72L200.89 339.2L197.41 335.72L200.89 332.24ZM205.02 336.37L208.5 339.85L205.02 343.33L201.54 339.85L205.02 336.37ZM205.66 335.73L209.14 332.25L212.62 335.73L209.14 339.21L205.66 335.73ZM213.27 336.37L216.75 339.85L213.27 343.33L209.79 339.85L213.27 336.37ZM213.91 335.73L217.39 332.25L220.87 335.73L217.39 339.21L213.91 335.73ZM221.52 336.37L225 339.85L221.52 343.33L218.04 339.85L221.52 336.37ZM222.16 335.73L225.64 332.25L229.12 335.73L225.64 339.21L222.16 335.73ZM226.29 331.6L229.77 328.12L233.25 331.6L229.77 335.08L226.29 331.6ZM233.9 332.24L237.38 335.72L233.9 339.2L230.42 335.72L233.9 332.24ZM234.54 331.6L238.02 328.12L241.5 331.6L238.02 335.08L234.54 331.6ZM238.67 327.47L242.15 323.99L245.63 327.47L242.15 330.95L238.67 327.47ZM242.8 323.34L246.28 319.86L249.76 323.34L246.28 326.82L242.8 323.34ZM246.93 319.21L250.41 315.73L253.89 319.21L250.41 322.69L246.93 319.21ZM251.06 315.08L254.54 311.6L258.02 315.08L254.54 318.56L251.06 315.08ZM251.06 306.83L254.54 303.35L258.02 306.83L254.54 310.31L251.06 306.83ZM251.06 298.58L254.54 295.1L258.02 298.58L254.54 302.06L251.06 298.58ZM250.42 297.94L246.94 294.46L250.42 290.98L253.9 294.46L250.42 297.94ZM246.94 286.21L250.42 282.73L253.9 286.21L250.42 289.69L246.94 286.21ZM246.3 285.57L242.82 282.09L246.3 278.61L249.78 282.09L246.3 285.57ZM242.17 281.44L238.69 277.96L242.17 274.48L245.65 277.96L242.17 281.44ZM238.04 277.31L234.56 273.83L238.04 270.35L241.52 273.83L238.04 277.31ZM233.91 273.18L230.43 269.7L233.91 266.22L237.39 269.7L233.91 273.18ZM229.78 269.05L226.3 265.57L229.78 262.09L233.26 265.57L229.78 269.05ZM225.65 264.92L222.17 261.44L225.65 257.96L229.13 261.44L225.65 264.92ZM221.52 260.79L218.04 257.31L221.52 253.83L225 257.31L221.52 260.79ZM220.88 261.43L217.4 264.91L213.92 261.43L217.4 257.95L220.88 261.43ZM213.27 260.79L209.79 257.31L213.27 253.83L216.75 257.31L213.27 260.79ZM209.14 256.66L205.66 253.18L209.14 249.7L212.62 253.18L209.14 256.66ZM208.5 257.3L205.02 260.78L201.54 257.3L205.02 253.82L208.5 257.3ZM200.89 256.66L197.41 253.18L200.89 249.7L204.37 253.18L200.89 256.66ZM196.76 252.53L193.28 249.05L196.76 245.57L200.24 249.05L196.76 252.53ZM196.12 253.17L192.64 256.65L189.16 253.17L192.64 249.69L196.12 253.17ZM188.51 252.53L185.03 249.05L188.51 245.57L191.99 249.05L188.51 252.53ZM187.87 253.17L184.39 256.65L180.91 253.17L184.39 249.69L187.87 253.17ZM183.74 257.3L180.26 260.78L176.78 257.3L180.26 253.82L183.74 257.3ZM179.61 261.43L176.13 264.91L172.65 261.43L176.13 257.95L179.61 261.43ZM175.48 265.56L172 269.04L168.52 265.56L172 262.08L175.48 265.56ZM171.35 269.69L167.87 273.17L164.39 269.69L167.87 266.21L171.35 269.69ZM167.22 273.82L163.74 277.3L160.26 273.82L163.74 270.34L167.22 273.82ZM163.09 277.95L159.61 281.43L156.13 277.95L159.61 274.47L163.09 277.95ZM158.96 282.08L155.48 285.56L152 282.08L155.48 278.6L158.96 282.08ZM158.96 290.33L155.48 293.81L152 290.33L155.48 286.85L158.96 290.33ZM159.6 290.97L163.08 294.45L159.6 297.93L156.12 294.45L159.6 290.97ZM163.08 302.71L159.6 306.19L156.12 302.71L159.6 299.23L163.08 302.71ZM163.72 303.35L167.2 306.83L163.72 310.31L160.24 306.83L163.72 303.35ZM167.2 315.08L163.72 318.56L160.24 315.08L163.72 311.6L167.2 315.08ZM167.84 315.72L171.32 319.2L167.84 322.68L164.36 319.2L167.84 315.72ZM171.97 319.85L175.45 323.33L171.97 326.81L168.49 323.33L171.97 319.85ZM176.1 323.98L179.58 327.46L176.1 330.94L172.62 327.46L176.1 323.98ZM180.23 328.11L183.71 331.59L180.23 335.07L176.75 331.59L180.23 328.11ZM184.36 332.24L187.84 335.72L184.36 339.2L180.88 335.72L184.36 332.24ZM188.49 336.37L191.97 339.85L188.49 343.33L185.01 339.85L188.49 336.37ZM189.13 335.73L192.61 332.25L196.09 335.73L192.61 339.21L189.13 335.73ZM196.74 336.37L200.22 339.85L196.74 343.33L193.26 339.85L196.74 336.37ZM200.87 340.5L204.35 343.98L200.87 347.46L197.39 343.98L200.87 340.5ZM205 344.63L208.48 348.11L205 351.59L201.52 348.11L205 344.63ZM205.64 343.99L209.12 340.51L212.6 343.99L209.12 347.47L205.64 343.99ZM213.25 344.63L216.73 348.11L213.25 351.59L209.77 348.11L213.25 344.63ZM213.89 343.99L217.37 340.51L220.85 343.99L217.37 347.47L213.89 343.99ZM221.5 344.63L224.98 348.11L221.5 351.59L218.02 348.11L221.5 344.63ZM222.14 343.99L225.62 340.51L229.1 343.99L225.62 347.47L222.14 343.99ZM226.27 339.86L229.75 336.38L233.23 339.86L229.75 343.34L226.27 339.86ZM233.88 340.5L242.32 348.94C240.83 349.81 239.28 350.59 237.67 351.26L230.39 343.98L233.87 340.5H233.88ZM234.52 339.86L238 336.38L247.17 345.55C245.89 346.61 244.53 347.58 243.12 348.46L234.52 339.86ZM238.65 335.73L242.13 332.25L251.35 341.47C250.81 342.09 250.26 342.68 249.68 343.26C249.1 343.84 248.49 344.41 247.87 344.95L238.65 335.73ZM242.78 331.6L246.26 328.12L254.86 336.72C253.98 338.14 253.01 339.49 251.94 340.77L242.77 331.6H242.78ZM246.91 327.47L250.39 323.99L257.67 331.27C257 332.88 256.22 334.43 255.35 335.91L246.91 327.47ZM251.04 323.34L254.52 319.86L259.7 325.04C259.26 326.87 258.71 328.64 258.04 330.35L251.03 323.34H251.04ZM255.17 319.21L258.65 315.73L260.83 317.91C260.67 320 260.37 322.03 259.95 324L255.17 319.22V319.21ZM260.82 309.94C260.88 310.68 260.92 311.42 260.94 312.16L258.65 314.45L255.17 310.97L258.65 307.49L260.75 309.59C260.77 309.71 260.8 309.83 260.82 309.96V309.94ZM260.46 308L259.29 306.83L260.1 306.02C260.2 306.6 260.32 307.26 260.45 308H260.46ZM259.66 303.4C259.68 303.55 259.77 304.08 259.91 304.93L258.64 306.2L255.16 302.72L258.64 299.24L258.84 299.44C259.17 300.77 259.44 302.1 259.65 303.42L259.66 303.4ZM258.39 297.69L255.16 294.46L256.79 292.83C257.4 294.45 257.93 296.07 258.38 297.69H258.39ZM256.44 291.9L254.52 293.82L251.04 290.34L254.31 287.07C255.09 288.68 255.81 290.29 256.44 291.91V291.9ZM252.43 283.47L251.04 282.08L251.41 281.71C251.76 282.3 252.1 282.88 252.43 283.48V283.47ZM250.93 280.91L250.4 281.44L246.92 277.96L248.17 276.71C249.15 278.09 250.07 279.5 250.94 280.91H250.93ZM247.63 275.96L246.27 277.32L242.79 273.84L244.6 272.03C245.66 273.32 246.67 274.63 247.63 275.97V275.96ZM244.02 271.32L242.15 273.19L238.67 269.71L240.74 267.64C241.88 268.84 242.97 270.07 244.02 271.33V271.32ZM239.06 265.9C239.42 266.26 239.77 266.61 240.12 266.97L238.03 269.06L234.55 265.58L236.6 263.53C237.43 264.3 238.26 265.09 239.07 265.9H239.06ZM235.92 262.92L233.9 264.94L230.42 261.46L232.14 259.74C233.42 260.76 234.68 261.82 235.92 262.93V262.92ZM231.42 259.17L229.77 260.82L226.29 257.34L227.38 256.25C228.74 257.17 230.09 258.15 231.42 259.18V259.17ZM226.61 255.73L225.65 256.69L222.17 253.21L222.3 253.08C223.75 253.91 225.2 254.79 226.62 255.73H226.61ZM218.98 251.31L220.88 253.21L217.4 256.69L213.92 253.21L216.85 250.28C217.56 250.61 218.27 250.96 218.98 251.31ZM215.96 249.88L213.27 252.57L209.79 249.09L210.99 247.89C212.66 248.48 214.32 249.15 215.97 249.88H215.96ZM210.03 247.56L209.14 248.45L207.43 246.74C208.3 246.99 209.16 247.27 210.03 247.56ZM205.66 246.25L208.5 249.09L205.02 252.57L201.54 249.09L204.64 245.99C204.98 246.07 205.33 246.16 205.67 246.25H205.66ZM203.6 245.74L200.89 248.45L197.41 244.97L197.66 244.72C199.63 244.96 201.61 245.3 203.6 245.75V245.74ZM195.67 244.5L196.13 244.96L192.65 248.44L189.17 244.96L189.81 244.32C191.74 244.27 193.7 244.32 195.68 244.5H195.67ZM187.37 244.45L187.88 244.96L184.4 248.44L181.27 245.31C183.26 244.89 185.29 244.6 187.37 244.44V244.45ZM180.23 245.56L183.76 249.09L180.28 252.57L174.91 247.2C176.63 246.53 178.41 245.99 180.23 245.55V245.56ZM174 247.58L179.64 253.22L176.16 256.7L169.35 249.89C170.84 249.01 172.4 248.24 174 247.57V247.58ZM168.55 250.38L175.52 257.35L172.04 260.83L164.51 253.3C165.8 252.23 167.15 251.26 168.56 250.38H168.55ZM162.01 255.56C162.59 254.98 163.19 254.42 163.8 253.88L171.38 261.46L167.9 264.94L160.32 257.36C160.86 256.74 161.42 256.14 162.01 255.55V255.56ZM159.73 258.06L167.26 265.59L163.78 269.07L156.82 262.11C157.7 260.7 158.67 259.35 159.74 258.06H159.73ZM156.33 262.91L163.13 269.71L159.65 273.19L154.02 267.56C154.69 265.95 155.46 264.4 156.34 262.91H156.33ZM153.65 268.48L159.01 273.84L155.53 277.32L152.01 273.8C152.44 271.98 152.99 270.2 153.66 268.48H153.65ZM151.77 274.85L154.89 277.97L151.41 281.45L150.91 280.95C151.07 278.87 151.35 276.83 151.78 274.85H151.77ZM150.78 283.35L151.4 282.73L154.88 286.21L151.4 289.69L150.96 289.25C150.79 287.26 150.73 285.29 150.78 283.34V283.35ZM151.16 291.22L151.4 290.98L154.88 294.46L152.19 297.15C151.74 295.16 151.4 293.18 151.16 291.21V291.22ZM152.44 298.19L155.53 295.1L159.01 298.58L155.53 302.06L152.72 299.25C152.63 298.89 152.53 298.54 152.45 298.18L152.44 298.19ZM153.2 301.03L154.88 302.71L154.01 303.58C153.72 302.73 153.45 301.88 153.2 301.03ZM154.34 304.53L155.52 303.35L159 306.83L156.32 309.51C155.58 307.86 154.92 306.2 154.33 304.53H154.34ZM156.73 310.39L159.65 307.47L163.13 310.95L159.65 314.43L157.8 312.58C157.43 311.85 157.08 311.12 156.74 310.38L156.73 310.39ZM159.53 315.84L159.64 315.73L163.12 319.21L162.17 320.16C161.23 318.74 160.35 317.3 159.52 315.84H159.53ZM162.69 320.93L163.77 319.85L167.25 323.33L165.62 324.96C164.59 323.63 163.61 322.29 162.69 320.92V320.93ZM166.18 325.69L167.89 323.98L171.37 327.46L169.37 329.46C168.26 328.22 167.19 326.96 166.18 325.68V325.69ZM172.35 332.61C171.54 331.8 170.75 330.97 169.98 330.14L172.01 328.11L175.49 331.59L173.42 333.66C173.06 333.31 172.7 332.96 172.35 332.6V332.61ZM174.08 334.29L176.14 332.23L179.62 335.71L177.77 337.56C176.52 336.51 175.29 335.41 174.08 334.28V334.29ZM178.47 338.15L180.26 336.36L183.74 339.84L182.4 341.18C181.07 340.22 179.75 339.2 178.46 338.15H178.47ZM183.15 341.72L184.38 340.49L187.86 343.97L187.35 344.48C185.93 343.61 184.53 342.69 183.15 341.71V341.72ZM188.15 344.97L188.51 344.61L189.84 345.94C189.27 345.62 188.71 345.3 188.15 344.96V344.97ZM192.59 347.41L189.15 343.97L192.63 340.49L196.11 343.97L192.64 347.44L192.58 347.41H192.59ZM193.5 347.86L196.75 344.61L200.23 348.09L198.33 349.99C196.71 349.35 195.1 348.64 193.49 347.86H193.5ZM199.26 350.35L200.88 348.73L204.08 351.93C202.48 351.48 200.87 350.95 199.26 350.35ZM209.83 353.21C208.5 352.99 207.16 352.72 205.81 352.39L205.64 352.22L209.12 348.74L212.6 352.22L211.35 353.47C210.5 353.33 209.97 353.24 209.82 353.22L209.83 353.21ZM212.45 353.65L213.25 352.85L214.39 353.99C213.67 353.86 213.02 353.74 212.45 353.64V353.65ZM216.37 354.36C216.23 354.33 216.1 354.31 215.96 354.28L213.89 352.21L217.37 348.73L220.85 352.21L218.58 354.48C217.85 354.45 217.11 354.41 216.36 354.36H216.37ZM219.84 354.51L221.5 352.85L223.1 354.45C222.03 354.51 220.94 354.53 219.84 354.51ZM224.31 354.37L222.15 352.21L225.63 348.73L230.4 353.5C228.43 353.92 226.39 354.22 224.31 354.38V354.37ZM231.45 353.26L226.28 348.09L229.76 344.61L236.76 351.61C235.05 352.27 233.28 352.83 231.45 353.27V353.26ZM284.36 381.42C282.18 379.12 275.33 372.69 262.42 367.07C255.37 364 246.77 361.38 238.59 359.27C237.97 358.12 237.49 356.7 237.76 355.31C243.29 353.22 248.24 350.07 252.38 345.93C256.52 341.79 259.67 336.84 261.76 331.31C263.15 331.04 264.56 331.52 265.72 332.14C267.83 340.32 270.46 348.92 273.52 355.97C279.14 368.89 285.57 375.73 287.87 377.91L284.37 381.41L284.36 381.42Z" fill="#371B0B"/>
</g>
<mask id="mask1_2_5654" style="mask-type:alpha" maskUnits="userSpaceOnUse" x="149" y="236" width="115" height="115">
<path d="M161.47 248.46C142.27 267.66 146.91 303.42 171.82 328.33C182.72 339.23 199.13 348.74 216.06 350.49C229.8 351.81 242.74 348.08 251.91 338.91C261.08 329.74 264.81 316.8 263.49 303.06C262.32 288.24 252.23 269.72 241.33 258.82C216.42 233.91 180.66 229.27 161.46 248.47L161.47 248.46Z" fill="#FF2400"/>
</mask>
<g mask="url(#mask1_2_5654)">
<path d="M125.212 281.688L124.569 282.331L216.472 374.234L217.115 373.59L125.212 281.688Z" fill="white"/>
<path d="M129.332 277.581L128.689 278.224L220.592 370.127L221.235 369.484L129.332 277.581Z" fill="white"/>
<path d="M133.462 273.44L132.819 274.084L224.722 365.987L225.365 365.343L133.462 273.44Z" fill="white"/>
<path d="M137.582 269.324L136.939 269.967L228.842 361.87L229.485 361.226L137.582 269.324Z" fill="white"/>
<path d="M141.712 265.193L141.069 265.837L232.972 357.739L233.615 357.096L141.712 265.193Z" fill="white"/>
<path d="M145.832 261.077L145.189 261.72L237.092 353.623L237.735 352.979L145.832 261.077Z" fill="white"/>
<path d="M149.962 256.946L149.319 257.589L241.222 349.492L241.865 348.849L149.962 256.946Z" fill="white"/>
<path d="M154.082 252.819L153.439 253.463L245.342 345.365L245.985 344.722L154.082 252.819Z" fill="white"/>
<path d="M158.212 248.689L157.569 249.332L249.472 341.235L250.115 340.591L158.212 248.689Z" fill="white"/>
<path d="M162.332 244.572L161.689 245.216L253.592 337.118L254.235 336.475L162.332 244.572Z" fill="white"/>
<path d="M166.462 240.441L165.819 241.085L257.722 332.988L258.365 332.344L166.462 240.441Z" fill="white"/>
<path d="M170.582 236.325L169.939 236.968L261.842 328.871L262.485 328.227L170.582 236.325Z" fill="white"/>
<path d="M174.712 232.184L174.069 232.828L265.972 324.73L266.615 324.087L174.712 232.184Z" fill="white"/>
<path d="M178.832 228.068L178.189 228.711L270.092 320.614L270.735 319.97L178.832 228.068Z" fill="white"/>
<path d="M182.962 223.937L182.319 224.58L274.222 316.483L274.865 315.839L182.962 223.937Z" fill="white"/>
<path d="M187.082 219.83L186.439 220.474L278.342 312.376L278.985 311.733L187.082 219.83Z" fill="white"/>
<path d="M191.212 215.69L190.569 216.333L282.472 308.236L283.115 307.592L191.212 215.69Z" fill="white"/>
<path d="M195.332 211.563L194.689 212.206L286.592 304.109L287.235 303.466L195.332 211.563Z" fill="white"/>
<path d="M216.462 211.572L124.56 303.475L125.203 304.119L217.106 212.216L216.462 211.572Z" fill="white"/>
<path d="M220.603 215.702L128.7 307.605L129.344 308.249L221.246 216.346L220.603 215.702Z" fill="white"/>
<path d="M224.719 219.822L132.817 311.725L133.46 312.369L225.363 220.466L224.719 219.822Z" fill="white"/>
<path d="M228.85 223.952L136.948 315.855L137.591 316.499L229.494 224.596L228.85 223.952Z" fill="white"/>
<path d="M232.967 228.072L141.064 319.975L141.708 320.619L233.61 228.716L232.967 228.072Z" fill="white"/>
<path d="M237.097 232.202L145.195 324.105L145.838 324.749L237.741 232.846L237.097 232.202Z" fill="white"/>
<path d="M241.214 236.323L149.311 328.225L149.955 328.869L241.857 236.966L241.214 236.323Z" fill="white"/>
<path d="M245.345 240.452L153.442 332.355L154.085 332.999L245.988 241.096L245.345 240.452Z" fill="white"/>
<path d="M249.461 244.573L157.559 336.475L158.202 337.119L250.105 245.216L249.461 244.573Z" fill="white"/>
<path d="M253.602 248.702L161.699 340.605L162.343 341.249L254.245 249.346L253.602 248.702Z" fill="white"/>
<path d="M257.719 252.822L165.816 344.725L166.459 345.368L258.362 253.466L257.719 252.822Z" fill="white"/>
<path d="M261.849 256.952L169.947 348.855L170.59 349.499L262.493 257.596L261.849 256.952Z" fill="white"/>
<path d="M265.966 261.072L174.063 352.975L174.707 353.618L266.609 261.716L265.966 261.072Z" fill="white"/>
<path d="M270.097 265.202L178.194 357.105L178.837 357.749L270.74 265.846L270.097 265.202Z" fill="white"/>
<path d="M274.213 269.322L182.31 361.225L182.954 361.868L274.856 269.966L274.213 269.322Z" fill="white"/>
<path d="M278.344 273.452L186.441 365.355L187.085 365.999L278.987 274.096L278.344 273.452Z" fill="white"/>
<path d="M282.47 277.572L190.568 369.475L191.211 370.118L283.114 278.216L282.47 277.572Z" fill="white"/>
<path d="M286.601 281.702L194.698 373.605L195.342 374.249L287.245 282.346L286.601 281.702Z" fill="white"/>
</g>
<path d="M265.4 302.87L261.61 303.23C262.92 316.94 259.01 329.13 250.58 337.55C242.15 345.98 229.96 349.9 216.26 348.58L215.9 352.37C219.31 352.7 222.64 352.72 225.85 352.45L241.36 356.14C241.36 356.14 238.04 352.82 238.65 349.62C244.18 347.53 249.13 344.38 253.27 340.24C257.41 336.1 260.56 331.15 262.65 325.62C265.85 325.01 269.17 328.33 269.17 328.33L265.48 312.82C265.75 309.61 265.73 306.28 265.4 302.87Z" fill="white"/>
<path d="M264.47 297.09C262.27 283.48 254.35 269.02 242.75 257.42C230.39 245.06 215.04 237.15 199.52 235.13C191.91 234.14 184.67 234.63 177.99 236.57C171.03 238.6 165 242.13 160.06 247.06C155.13 251.99 151.6 258.02 149.57 264.99C147.63 271.67 147.14 278.91 148.13 286.52C150.14 302.04 158.06 317.39 170.42 329.75C182.02 341.35 196.48 349.27 210.09 351.47C210.17 351.48 218.29 352.79 228.68 355.11C242.38 358.17 253.8 361.61 261.71 365.05C276.46 371.46 282.88 379.07 282.94 379.14L286.02 376.61C285.74 376.27 279.01 368.23 263.3 361.4C243.67 352.87 212.1 347.76 210.73 347.54C197.92 345.47 184.26 337.96 173.24 326.94C149.14 302.84 144.5 268.28 162.89 249.89C181.28 231.5 215.84 236.15 239.94 260.24C250.96 271.26 258.47 284.93 260.54 297.73C260.76 299.11 265.87 330.68 274.4 350.3C281.23 366.01 289.27 372.74 289.61 373.02L292.14 369.95C292.14 369.95 290.21 368.33 287.53 364.93C285.06 361.79 281.4 356.43 278.05 348.72C274.61 340.81 271.17 329.39 268.11 315.69C265.79 305.3 264.48 297.18 264.47 297.1V297.09Z" fill="white"/>
<g style="mix-blend-mode:multiply">
<path d="M193.97 184.08L185.92 175.37C185.76 175.19 185.59 175.03 185.4 174.87L178.62 169.01C176.07 166.81 172.26 166.95 169.88 169.33L146.27 192.65C145.74 193.17 145.39 193.85 145.27 194.59L144.77 197.62C144.5 199.25 143.15 200.47 141.5 200.57L139.35 200.7C138.5 200.75 137.69 201.11 137.08 201.71L118.28 220.27C118.28 220.27 111.95 227.23 117.07 236.26L115.76 237.56C115.76 237.56 112.83 240.77 116.62 244.56C120.4 248.34 123.65 245.65 123.65 245.65L124.9 244.42C134.33 250.51 141.77 244.35 141.77 244.35L161.35 225.01C161.88 224.48 162.24 223.8 162.35 223.06L162.83 220.05C163.06 218.59 164.18 217.43 165.64 217.15L169.17 216.46C169.85 216.33 170.48 216 170.97 215.51L193.78 192.98C196.22 190.54 196.3 186.61 193.95 184.08H193.97Z" fill="#371B0B"/>
</g>
<path d="M181.08 139.37C169.74 139.37 160.56 147.61 160.56 157.78V178.39C160.56 188.56 169.75 196.8 181.08 196.8C192.41 196.8 201.6 188.56 201.6 178.39V157.78C201.6 147.61 192.41 139.37 181.08 139.37Z" fill="#E7C1BB"/>
<path d="M181.08 162.46C190.298 162.46 197.77 155.758 197.77 147.49C197.77 139.222 190.298 132.52 181.08 132.52C171.863 132.52 164.39 139.222 164.39 147.49C164.39 155.758 171.863 162.46 181.08 162.46Z" fill="#E2A399"/>
<path d="M181.08 159.51C190.298 159.51 197.77 152.808 197.77 144.54C197.77 136.272 190.298 129.57 181.08 129.57C171.863 129.57 164.39 136.272 164.39 144.54C164.39 152.808 171.863 159.51 181.08 159.51Z" fill="#C28379"/>
<path d="M181.08 108.57C169.74 108.57 160.56 116.81 160.56 126.98V138.39C160.56 148.56 169.75 156.8 181.08 156.8C192.41 156.8 201.6 148.56 201.6 138.39V126.98C201.6 116.81 192.41 108.57 181.08 108.57Z" fill="#E7C1BB"/>
<path d="M181.08 134.94C190.298 134.94 197.77 128.238 197.77 119.97C197.77 111.702 190.298 105 181.08 105C171.863 105 164.39 111.702 164.39 119.97C164.39 128.238 171.863 134.94 181.08 134.94Z" fill="#E2A399"/>
<path d="M181.08 132C190.298 132 197.77 125.298 197.77 117.03C197.77 108.762 190.298 102.06 181.08 102.06C171.863 102.06 164.39 108.762 164.39 117.03C164.39 125.298 171.863 132 181.08 132Z" fill="#E7C1BB"/>
<path d="M181.08 122.02C187.205 122.02 192.17 118.21 192.17 113.51C192.17 108.81 187.205 105 181.08 105C174.955 105 169.99 108.81 169.99 113.51C169.99 118.21 174.955 122.02 181.08 122.02Z" fill="#C28379"/>
<path d="M181.08 119.97C187.205 119.97 192.17 116.16 192.17 111.46C192.17 106.76 187.205 102.95 181.08 102.95C174.955 102.95 169.99 106.76 169.99 111.46C169.99 116.16 174.955 119.97 181.08 119.97Z" fill="#E2A399"/>
<path d="M181.08 104.78C179.16 104.78 177.59 106.18 177.59 107.91V109.85C177.59 111.58 179.15 112.98 181.08 112.98C183.01 112.98 184.57 111.58 184.57 109.85V107.91C184.57 106.18 183.01 104.78 181.08 104.78Z" fill="#F1F1F2"/>
<path d="M181.08 109.25C182.643 109.25 183.91 108.113 183.91 106.71C183.91 105.307 182.643 104.17 181.08 104.17C179.517 104.17 178.25 105.307 178.25 106.71C178.25 108.113 179.517 109.25 181.08 109.25Z" fill="white"/>
<path d="M181.9 106.16C181.9 106.56 181.53 106.89 181.08 106.89C180.63 106.89 180.26 106.56 180.26 106.16C180.26 105.76 180.63 105.43 181.08 105.43C181.53 105.43 181.9 105.76 181.9 106.16Z" fill="#404041"/>
<path d="M274.4 350.3C281.23 366.01 289.27 372.74 289.61 373.02L292.14 369.95C292.14 369.95 290.21 368.33 287.53 364.93C285.06 361.79 281.4 356.43 278.05 348.72C274.61 340.81 271.17 329.39 268.11 315.69C267.91 314.8 267.72 313.92 267.54 313.07C266.89 315.98 266.13 318.63 265.25 321.06C267.55 330.73 270.64 341.67 274.4 350.31V350.3Z" fill="#29157C"/>
<path d="M261.72 365.04C276.47 371.45 282.89 379.06 282.95 379.13L286.03 376.6C285.75 376.26 279.02 368.22 263.31 361.39C253.76 357.24 241.4 353.9 231.05 351.54C227.63 352.21 223.86 352.73 219.69 353.21C222.34 353.73 225.4 354.37 228.69 355.1C242.39 358.16 253.81 361.6 261.72 365.04Z" fill="#29157C"/>
<path d="M341.5 415L336.07 411.73L297.27 372.93L285.94 384.26L324.74 423.06L328.01 428.49C328.77 429.75 330.38 430.21 331.69 429.54L338.06 426.26C338.58 425.99 339 425.57 339.27 425.05L342.55 418.68C343.23 417.37 342.77 415.76 341.5 415Z" fill="#C44127"/>
<path d="M297.28 372.93L285.94 384.27L281.7 379.29L292.3 368.69L297.28 372.93Z" fill="white"/>
</g>
</svg>
