<svg width="60" height="60" viewBox="0 0 60 60" fill="none" xmlns="http://www.w3.org/2000/svg">
<g clip-path="url(#clip0_2_5253)">
<path d="M50.63 9H19.7C19.1696 9 18.6609 9.21072 18.2858 9.58579C17.9107 9.96086 17.7 10.4696 17.7 11V19.5H52.7V11C52.7002 10.7314 52.6462 10.4654 52.5414 10.2181C52.4365 9.97079 52.2829 9.74712 52.0897 9.56046C51.8965 9.37379 51.6677 9.22797 51.4169 9.13167C51.1661 9.03538 50.8985 8.9906 50.63 9Z" fill="#2D92D4"/>
<path d="M17.67 40.5601V49.0001C17.67 49.5305 17.8807 50.0392 18.2558 50.4143C18.6308 50.7893 19.1395 51.0001 19.67 51.0001H50.63C51.1604 51.0001 51.6691 50.7893 52.0442 50.4143C52.4193 50.0392 52.63 49.5305 52.63 49.0001V40.5601H17.67Z" fill="#2150A9"/>
<path d="M17.67 19.5H52.67V30H17.67V19.5Z" fill="#2D83D4"/>
<path d="M17.67 30H52.67V40.56H17.67V30Z" fill="#2E70C9"/>
<path d="M27.37 41.67H8C7.46957 41.67 6.96086 41.4593 6.58579 41.0843C6.21071 40.7092 6 40.2005 6 39.67V20.29C6 19.7596 6.21071 19.2509 6.58579 18.8758C6.96086 18.5008 7.46957 18.29 8 18.29H27.37C27.9004 18.29 28.4091 18.5008 28.7842 18.8758C29.1593 19.2509 29.37 19.7596 29.37 20.29V39.71C29.3595 40.2335 29.1442 40.732 28.7703 41.0985C28.3963 41.4649 27.8936 41.6701 27.37 41.67Z" fill="#00488D"/>
<path d="M22.8 24.1699L21 32.6399L19 24.1699H16.45L14.39 32.8999L12.53 24.1699H10.25L13 35.8299H15.73L17.73 26.8299L19.73 35.8299H22.36L25.1 24.1699H22.8Z" fill="white"/>
</g>
<defs>
<clipPath id="clip0_2_5253">
<rect width="46.67" height="42" fill="white" transform="translate(6 9)"/>
</clipPath>
</defs>
</svg>
