<svg width="60" height="60" viewBox="0 0 60 60" fill="none" xmlns="http://www.w3.org/2000/svg">
<g clip-path="url(#clip0_2_5240)">
<path d="M33.75 9H18.5056C17.9737 9 17.4635 9.21437 17.0874 9.59594C16.7113 9.97751 16.5 10.495 16.5 11.0347V19.5H33.75V9Z" fill="#169154"/>
<path d="M16.5 40.563V48.963C16.4997 49.2303 16.5513 49.495 16.6519 49.7421C16.7525 49.9891 16.9001 50.2136 17.0862 50.4028C17.2724 50.592 17.4934 50.7421 17.7368 50.8445C17.9801 50.947 18.241 50.9998 18.5045 51H33.75V40.563H16.5Z" fill="#18482A"/>
<path d="M16.5 19.5H33.75V30H16.5V19.5Z" fill="#0C8045"/>
<path d="M16.5 30.0059H33.75V40.5642H16.5V30.0059Z" fill="#17472A"/>
<path d="M48.9944 9H33.75V19.5H51V11.0347C51 10.495 50.7887 9.97751 50.4126 9.59594C50.0364 9.21437 49.5263 9 48.9944 9V9Z" fill="#29C27F"/>
<path d="M33.75 40.563V51H48.9956C49.5271 50.9997 50.0367 50.7853 50.4126 50.404C50.7884 50.0228 50.9997 49.5057 51 48.9665V40.5665H33.75V40.563Z" fill="#27663F"/>
<path d="M33.75 19.5H51V30H33.75V19.5Z" fill="#19AC65"/>
<path d="M33.75 30.0059H51V40.5642H33.75V30.0059Z" fill="#129652"/>
<path d="M26.0669 41.6666H6.93315C6.42054 41.6663 5.92901 41.4596 5.56654 41.0918C5.20407 40.7241 5.0003 40.2255 5 39.7054L5 20.2944C5.0003 19.7744 5.20407 19.2757 5.56654 18.908C5.92901 18.5403 6.42054 18.3336 6.93315 18.3333H26.0669C26.5795 18.3336 27.071 18.5403 27.4335 18.908C27.7959 19.2757 27.9997 19.7744 28 20.2944V39.7054C27.9997 40.2255 27.7959 40.7241 27.4335 41.0918C27.071 41.4596 26.5795 41.6663 26.0669 41.6666Z" fill="#0C7238"/>
<path d="M11.6781 24.1667H14.422L16.6484 28.5464L19.0013 24.1667H21.56L18.0284 30.0001L21.6405 35.8334H18.9415L16.515 31.2484L14.1 35.8334H11.3549L15.0269 29.9791L11.6781 24.1667Z" fill="white"/>
</g>
<defs>
<clipPath id="clip0_2_5240">
<rect width="46" height="42" fill="white" transform="translate(5 9)"/>
</clipPath>
</defs>
</svg>
