<svg width="160" height="160" viewBox="0 0 160 160" fill="none" xmlns="http://www.w3.org/2000/svg">
<path d="M96.4727 57.289C98.0309 51.291 98.119 44.9633 96.7286 38.918C95.3382 32.8727 92.5163 27.3144 88.5358 22.7809C85.4763 19.3975 81.7961 16.6717 78.9878 13.0505C76.1796 9.42932 74.2878 4.4611 75.7067 0C72.0337 1.7077 68.8159 4.37081 66.3449 7.74814C63.8738 11.1255 62.2274 15.1104 61.5548 19.342C60.6015 25.8157 63.1806 34.5874 62.7077 41.1166C62.7077 45.34 59.3008 53.4064 55.0294 56.3461C57.4829 45.5777 51.4896 33.3671 41.8234 29.4052C45.3559 35.8869 43.6413 44.2465 40.4562 50.9342C37.2711 57.6219 32.7485 63.6123 30.4723 70.7437C28.5805 76.6469 28.3514 83.0335 28.8761 89.2457C29.4155 95.6482 30.7752 102.074 33.8125 107.613C36.7168 112.906 44.1069 121.345 48.9695 124.578C70.3119 138.777 98.2685 133.944 98.2685 133.944C111.888 131.091 118.369 125.061 124.651 115.37C127.77 110.489 129.871 104.944 130.81 99.1134C131.748 93.2826 131.503 87.3033 130.09 81.5834C127.873 72.7009 122.7 64.2778 123.535 55.11C116.788 57.4871 114.031 65.6407 114.187 63.1289C114.342 60.617 115.295 58.2558 115.812 55.8073C117.017 50.1101 115.812 44.0801 113.536 38.787C111.26 33.4939 107.912 28.803 104.609 24.1676C101.091 33.0502 100.781 39.2228 101.498 43.9137C101.702 46.41 101.354 48.9228 100.48 51.2472C99.6071 53.5715 98.2339 55.6418 96.4727 57.289Z" fill="#FE6258"/>
<path d="M63.0962 73.13C62.5675 73.13 62.0995 73.013 61.6922 72.779C61.2935 72.5363 60.9815 72.2113 60.7562 71.804V75.769H59.0142V66.188H60.5352V67.358C60.7952 66.9593 61.1245 66.6473 61.5232 66.422C61.9219 66.188 62.3769 66.071 62.8882 66.071C63.3475 66.071 63.7679 66.162 64.1492 66.344C64.5392 66.526 64.8772 66.7817 65.1632 67.111C65.4492 67.4317 65.6702 67.8043 65.8262 68.229C65.9909 68.645 66.0732 69.0957 66.0732 69.581C66.0732 70.2397 65.9432 70.8377 65.6832 71.375C65.4319 71.9123 65.0809 72.3413 64.6302 72.662C64.1882 72.974 63.6769 73.13 63.0962 73.13ZM62.5112 71.648C62.7799 71.648 63.0225 71.5917 63.2392 71.479C63.4559 71.3663 63.6422 71.2147 63.7982 71.024C63.9629 70.8247 64.0842 70.6037 64.1622 70.361C64.2489 70.1097 64.2922 69.8497 64.2922 69.581C64.2922 69.295 64.2445 69.0307 64.1492 68.788C64.0625 68.5453 63.9325 68.333 63.7592 68.151C63.5859 67.9603 63.3822 67.813 63.1482 67.709C62.9229 67.605 62.6759 67.553 62.4072 67.553C62.2425 67.553 62.0735 67.5833 61.9002 67.644C61.7355 67.696 61.5752 67.774 61.4192 67.878C61.2632 67.982 61.1245 68.1033 61.0032 68.242C60.8905 68.3807 60.8082 68.5323 60.7562 68.697V70.296C60.8602 70.5473 60.9989 70.777 61.1722 70.985C61.3542 71.193 61.5622 71.3577 61.7962 71.479C62.0302 71.5917 62.2685 71.648 62.5112 71.648ZM70.3994 73.13C69.8448 73.13 69.3464 73.039 68.9044 72.857C68.4624 72.6663 68.0854 72.4063 67.7734 72.077C67.4701 71.7477 67.2361 71.3707 67.0714 70.946C66.9068 70.5213 66.8244 70.075 66.8244 69.607C66.8244 69.1303 66.9068 68.6797 67.0714 68.255C67.2361 67.8303 67.4701 67.4533 67.7734 67.124C68.0854 66.7947 68.4624 66.539 68.9044 66.357C69.3464 66.1663 69.8448 66.071 70.3994 66.071C70.9541 66.071 71.4481 66.1663 71.8814 66.357C72.3234 66.539 72.7004 66.7947 73.0124 67.124C73.3244 67.4533 73.5584 67.8303 73.7144 68.255C73.8791 68.6797 73.9614 69.1303 73.9614 69.607C73.9614 70.075 73.8791 70.5213 73.7144 70.946C73.5584 71.3707 73.3244 71.7477 73.0124 72.077C72.7091 72.4063 72.3364 72.6663 71.8944 72.857C71.4524 73.039 70.9541 73.13 70.3994 73.13ZM68.6184 69.607C68.6184 70.0057 68.6964 70.361 68.8524 70.673C69.0084 70.9763 69.2208 71.2147 69.4894 71.388C69.7581 71.5613 70.0614 71.648 70.3994 71.648C70.7288 71.648 71.0278 71.5613 71.2964 71.388C71.5651 71.206 71.7774 70.9633 71.9334 70.66C72.0981 70.348 72.1804 69.9927 72.1804 69.594C72.1804 69.204 72.0981 68.853 71.9334 68.541C71.7774 68.229 71.5651 67.9863 71.2964 67.813C71.0278 67.6397 70.7288 67.553 70.3994 67.553C70.0614 67.553 69.7581 67.644 69.4894 67.826C69.2208 67.9993 69.0084 68.242 68.8524 68.554C68.6964 68.8573 68.6184 69.2083 68.6184 69.607ZM77.6462 73.13C77.0656 73.13 76.5109 73.0347 75.9822 72.844C75.4536 72.6533 74.9986 72.3717 74.6172 71.999L75.2412 70.868C75.6486 71.1973 76.0472 71.44 76.4372 71.596C76.8359 71.752 77.2172 71.83 77.5812 71.83C77.9192 71.83 78.1879 71.7693 78.3872 71.648C78.5952 71.5267 78.6992 71.3447 78.6992 71.102C78.6992 70.9373 78.6429 70.8117 78.5302 70.725C78.4176 70.6297 78.2529 70.5473 78.0362 70.478C77.8282 70.4087 77.5726 70.3307 77.2692 70.244C76.7666 70.0793 76.3462 69.919 76.0082 69.763C75.6702 69.607 75.4146 69.412 75.2412 69.178C75.0766 68.9353 74.9942 68.6277 74.9942 68.255C74.9942 67.8043 75.1069 67.4187 75.3322 67.098C75.5662 66.7687 75.8869 66.513 76.2942 66.331C76.7102 66.149 77.1956 66.058 77.7502 66.058C78.2356 66.058 78.6949 66.136 79.1282 66.292C79.5616 66.4393 79.9559 66.682 80.3112 67.02L79.6092 68.125C79.2626 67.8563 78.9332 67.6613 78.6212 67.54C78.3092 67.41 77.9929 67.345 77.6722 67.345C77.4902 67.345 77.3169 67.3667 77.1522 67.41C76.9962 67.4533 76.8662 67.527 76.7622 67.631C76.6669 67.7263 76.6192 67.865 76.6192 68.047C76.6192 68.2117 76.6626 68.3417 76.7492 68.437C76.8446 68.5237 76.9832 68.6017 77.1652 68.671C77.3559 68.7403 77.5856 68.8183 77.8542 68.905C78.4002 69.061 78.8596 69.2213 79.2322 69.386C79.6136 69.5507 79.8996 69.7543 80.0902 69.997C80.2809 70.231 80.3762 70.556 80.3762 70.972C80.3762 71.648 80.1292 72.1767 79.6352 72.558C79.1412 72.9393 78.4782 73.13 77.6462 73.13ZM85.6431 73.13C85.1144 73.13 84.6464 73.013 84.2391 72.779C83.8404 72.5363 83.5284 72.2113 83.3031 71.804V75.769H81.5611V66.188H83.0821V67.358C83.3421 66.9593 83.6714 66.6473 84.0701 66.422C84.4687 66.188 84.9237 66.071 85.4351 66.071C85.8944 66.071 86.3147 66.162 86.6961 66.344C87.0861 66.526 87.4241 66.7817 87.7101 67.111C87.9961 67.4317 88.2171 67.8043 88.3731 68.229C88.5377 68.645 88.6201 69.0957 88.6201 69.581C88.6201 70.2397 88.4901 70.8377 88.2301 71.375C87.9787 71.9123 87.6277 72.3413 87.1771 72.662C86.7351 72.974 86.2237 73.13 85.6431 73.13ZM85.0581 71.648C85.3267 71.648 85.5694 71.5917 85.7861 71.479C86.0027 71.3663 86.1891 71.2147 86.3451 71.024C86.5097 70.8247 86.6311 70.6037 86.7091 70.361C86.7957 70.1097 86.8391 69.8497 86.8391 69.581C86.8391 69.295 86.7914 69.0307 86.6961 68.788C86.6094 68.5453 86.4794 68.333 86.3061 68.151C86.1327 67.9603 85.9291 67.813 85.6951 67.709C85.4697 67.605 85.2227 67.553 84.9541 67.553C84.7894 67.553 84.6204 67.5833 84.4471 67.644C84.2824 67.696 84.1221 67.774 83.9661 67.878C83.8101 67.982 83.6714 68.1033 83.5501 68.242C83.4374 68.3807 83.3551 68.5323 83.3031 68.697V70.296C83.4071 70.5473 83.5457 70.777 83.7191 70.985C83.9011 71.193 84.1091 71.3577 84.3431 71.479C84.5771 71.5917 84.8154 71.648 85.0581 71.648ZM92.9463 73.13C92.3917 73.13 91.8933 73.039 91.4513 72.857C91.0093 72.6663 90.6323 72.4063 90.3203 72.077C90.017 71.7477 89.783 71.3707 89.6183 70.946C89.4537 70.5213 89.3713 70.075 89.3713 69.607C89.3713 69.1303 89.4537 68.6797 89.6183 68.255C89.783 67.8303 90.017 67.4533 90.3203 67.124C90.6323 66.7947 91.0093 66.539 91.4513 66.357C91.8933 66.1663 92.3917 66.071 92.9463 66.071C93.501 66.071 93.995 66.1663 94.4283 66.357C94.8703 66.539 95.2473 66.7947 95.5593 67.124C95.8713 67.4533 96.1053 67.8303 96.2613 68.255C96.426 68.6797 96.5083 69.1303 96.5083 69.607C96.5083 70.075 96.426 70.5213 96.2613 70.946C96.1053 71.3707 95.8713 71.7477 95.5593 72.077C95.256 72.4063 94.8833 72.6663 94.4413 72.857C93.9993 73.039 93.501 73.13 92.9463 73.13ZM91.1653 69.607C91.1653 70.0057 91.2433 70.361 91.3993 70.673C91.5553 70.9763 91.7677 71.2147 92.0363 71.388C92.305 71.5613 92.6083 71.648 92.9463 71.648C93.2757 71.648 93.5747 71.5613 93.8433 71.388C94.112 71.206 94.3243 70.9633 94.4803 70.66C94.645 70.348 94.7273 69.9927 94.7273 69.594C94.7273 69.204 94.645 68.853 94.4803 68.541C94.3243 68.229 94.112 67.9863 93.8433 67.813C93.5747 67.6397 93.2757 67.553 92.9463 67.553C92.6083 67.553 92.305 67.644 92.0363 67.826C91.7677 67.9993 91.5553 68.242 91.3993 68.554C91.2433 68.8573 91.1653 69.2083 91.1653 69.607ZM101.665 72.649C101.517 72.7097 101.34 72.779 101.132 72.857C100.924 72.935 100.698 72.9957 100.456 73.039C100.222 73.091 99.9832 73.117 99.7406 73.117C99.4199 73.117 99.1252 73.0607 98.8566 72.948C98.5879 72.8353 98.3712 72.6577 98.2066 72.415C98.0506 72.1637 97.9726 71.8387 97.9726 71.44V67.527H97.0756V66.188H97.9726V63.978H99.7146V66.188H101.145V67.527H99.7146V70.855C99.7232 71.089 99.7882 71.258 99.9096 71.362C100.031 71.466 100.183 71.518 100.365 71.518C100.547 71.518 100.724 71.4877 100.898 71.427C101.071 71.3663 101.21 71.3143 101.314 71.271L101.665 72.649ZM52.2939 96.21C51.4399 96.21 50.6839 96.021 50.0259 95.643C49.3819 95.251 48.8779 94.726 48.5139 94.068V100.473H45.6999V84.996H48.1569V86.886C48.5769 86.242 49.1089 85.738 49.7529 85.374C50.3969 84.996 51.1319 84.807 51.9579 84.807C52.6999 84.807 53.3789 84.954 53.9949 85.248C54.6249 85.542 55.1709 85.955 55.6329 86.487C56.0949 87.005 56.4519 87.607 56.7039 88.293C56.9699 88.965 57.1029 89.693 57.1029 90.477C57.1029 91.541 56.8929 92.507 56.4729 93.375C56.0669 94.243 55.4999 94.936 54.7719 95.454C54.0579 95.958 53.2319 96.21 52.2939 96.21ZM51.3489 93.816C51.7829 93.816 52.1749 93.725 52.5249 93.543C52.8749 93.361 53.1759 93.116 53.4279 92.808C53.6939 92.486 53.8899 92.129 54.0159 91.737C54.1559 91.331 54.2259 90.911 54.2259 90.477C54.2259 90.015 54.1489 89.588 53.9949 89.196C53.8549 88.804 53.6449 88.461 53.3649 88.167C53.0849 87.859 52.7559 87.621 52.3779 87.453C52.0139 87.285 51.6149 87.201 51.1809 87.201C50.9149 87.201 50.6419 87.25 50.3619 87.348C50.0959 87.432 49.8369 87.558 49.5849 87.726C49.3329 87.894 49.1089 88.09 48.9129 88.314C48.7309 88.538 48.5979 88.783 48.5139 89.049V91.632C48.6819 92.038 48.9059 92.409 49.1859 92.745C49.4799 93.081 49.8159 93.347 50.1939 93.543C50.5719 93.725 50.9569 93.816 51.3489 93.816ZM64.1125 96.21C63.2305 96.21 62.4325 96.063 61.7185 95.769C61.0045 95.461 60.3955 95.048 59.8915 94.53C59.3875 93.998 58.9955 93.396 58.7155 92.724C58.4495 92.038 58.3165 91.317 58.3165 90.561C58.3165 89.511 58.5475 88.552 59.0095 87.684C59.4855 86.816 60.1575 86.123 61.0255 85.605C61.9075 85.073 62.9435 84.807 64.1335 84.807C65.3375 84.807 66.3665 85.073 67.2205 85.605C68.0745 86.123 68.7255 86.816 69.1735 87.684C69.6355 88.538 69.8665 89.462 69.8665 90.456C69.8665 90.624 69.8595 90.799 69.8455 90.981C69.8315 91.149 69.8175 91.289 69.8035 91.401H61.2985C61.3545 91.961 61.5155 92.451 61.7815 92.871C62.0615 93.291 62.4115 93.613 62.8315 93.837C63.2655 94.047 63.7275 94.152 64.2175 94.152C64.7775 94.152 65.3025 94.019 65.7925 93.753C66.2965 93.473 66.6395 93.109 66.8215 92.661L69.2365 93.333C68.9705 93.893 68.5855 94.39 68.0815 94.824C67.5915 95.258 67.0105 95.601 66.3385 95.853C65.6665 96.091 64.9245 96.21 64.1125 96.21ZM61.2355 89.616H66.9895C66.9335 89.056 66.7725 88.573 66.5065 88.167C66.2545 87.747 65.9185 87.425 65.4985 87.201C65.0785 86.963 64.6095 86.844 64.0915 86.844C63.5875 86.844 63.1255 86.963 62.7055 87.201C62.2995 87.425 61.9635 87.747 61.6975 88.167C61.4455 88.573 61.2915 89.056 61.2355 89.616ZM76.6628 96.21C75.7668 96.21 74.9618 96.063 74.2478 95.769C73.5338 95.461 72.9248 95.041 72.4208 94.509C71.9308 93.977 71.5528 93.368 71.2868 92.682C71.0208 91.996 70.8878 91.275 70.8878 90.519C70.8878 89.749 71.0208 89.021 71.2868 88.335C71.5528 87.649 71.9308 87.04 72.4208 86.508C72.9248 85.976 73.5338 85.563 74.2478 85.269C74.9618 84.961 75.7668 84.807 76.6628 84.807C77.5588 84.807 78.3568 84.961 79.0568 85.269C79.7708 85.563 80.3798 85.976 80.8838 86.508C81.3878 87.04 81.7658 87.649 82.0178 88.335C82.2838 89.021 82.4168 89.749 82.4168 90.519C82.4168 91.275 82.2838 91.996 82.0178 92.682C81.7658 93.368 81.3878 93.977 80.8838 94.509C80.3938 95.041 79.7918 95.461 79.0778 95.769C78.3638 96.063 77.5588 96.21 76.6628 96.21ZM73.7858 90.519C73.7858 91.163 73.9118 91.737 74.1638 92.241C74.4158 92.731 74.7588 93.116 75.1928 93.396C75.6268 93.676 76.1168 93.816 76.6628 93.816C77.1948 93.816 77.6778 93.676 78.1118 93.396C78.5458 93.102 78.8888 92.71 79.1408 92.22C79.4068 91.716 79.5398 91.142 79.5398 90.498C79.5398 89.868 79.4068 89.301 79.1408 88.797C78.8888 88.293 78.5458 87.901 78.1118 87.621C77.6778 87.341 77.1948 87.201 76.6628 87.201C76.1168 87.201 75.6268 87.348 75.1928 87.642C74.7588 87.922 74.4158 88.314 74.1638 88.818C73.9118 89.308 73.7858 89.875 73.7858 90.519ZM90.9102 96.21C90.0562 96.21 89.3002 96.021 88.6422 95.643C87.9982 95.251 87.4942 94.726 87.1302 94.068V100.473H84.3162V84.996H86.7732V86.886C87.1932 86.242 87.7252 85.738 88.3692 85.374C89.0132 84.996 89.7482 84.807 90.5742 84.807C91.3162 84.807 91.9952 84.954 92.6112 85.248C93.2412 85.542 93.7872 85.955 94.2492 86.487C94.7112 87.005 95.0682 87.607 95.3202 88.293C95.5862 88.965 95.7192 89.693 95.7192 90.477C95.7192 91.541 95.5092 92.507 95.0892 93.375C94.6832 94.243 94.1162 94.936 93.3882 95.454C92.6742 95.958 91.8482 96.21 90.9102 96.21ZM89.9652 93.816C90.3992 93.816 90.7912 93.725 91.1412 93.543C91.4912 93.361 91.7922 93.116 92.0442 92.808C92.3102 92.486 92.5062 92.129 92.6322 91.737C92.7722 91.331 92.8422 90.911 92.8422 90.477C92.8422 90.015 92.7652 89.588 92.6112 89.196C92.4712 88.804 92.2612 88.461 91.9812 88.167C91.7012 87.859 91.3722 87.621 90.9942 87.453C90.6302 87.285 90.2312 87.201 89.7972 87.201C89.5312 87.201 89.2582 87.25 88.9782 87.348C88.7122 87.432 88.4532 87.558 88.2012 87.726C87.9492 87.894 87.7252 88.09 87.5292 88.314C87.3472 88.538 87.2142 88.783 87.1302 89.049V91.632C87.2982 92.038 87.5222 92.409 87.8022 92.745C88.0962 93.081 88.4322 93.347 88.8102 93.543C89.1882 93.725 89.5732 93.816 89.9652 93.816ZM97.6047 80.67H100.419V92.472C100.419 92.976 100.503 93.319 100.671 93.501C100.839 93.669 101.07 93.753 101.364 93.753C101.588 93.753 101.819 93.725 102.057 93.669C102.295 93.613 102.505 93.543 102.687 93.459L103.065 95.601C102.687 95.783 102.246 95.923 101.742 96.021C101.238 96.119 100.783 96.168 100.377 96.168C99.4947 96.168 98.8087 95.937 98.3187 95.475C97.8427 94.999 97.6047 94.327 97.6047 93.459V80.67ZM109.394 96.21C108.512 96.21 107.714 96.063 107 95.769C106.286 95.461 105.677 95.048 105.173 94.53C104.669 93.998 104.277 93.396 103.997 92.724C103.731 92.038 103.598 91.317 103.598 90.561C103.598 89.511 103.829 88.552 104.291 87.684C104.767 86.816 105.439 86.123 106.307 85.605C107.189 85.073 108.225 84.807 109.415 84.807C110.619 84.807 111.648 85.073 112.502 85.605C113.356 86.123 114.007 86.816 114.455 87.684C114.917 88.538 115.148 89.462 115.148 90.456C115.148 90.624 115.141 90.799 115.127 90.981C115.113 91.149 115.099 91.289 115.085 91.401H106.58C106.636 91.961 106.797 92.451 107.063 92.871C107.343 93.291 107.693 93.613 108.113 93.837C108.547 94.047 109.009 94.152 109.499 94.152C110.059 94.152 110.584 94.019 111.074 93.753C111.578 93.473 111.921 93.109 112.103 92.661L114.518 93.333C114.252 93.893 113.867 94.39 113.363 94.824C112.873 95.258 112.292 95.601 111.62 95.853C110.948 96.091 110.206 96.21 109.394 96.21ZM106.517 89.616H112.271C112.215 89.056 112.054 88.573 111.788 88.167C111.536 87.747 111.2 87.425 110.78 87.201C110.36 86.963 109.891 86.844 109.373 86.844C108.869 86.844 108.407 86.963 107.987 87.201C107.581 87.425 107.245 87.747 106.979 88.167C106.727 88.573 106.573 89.056 106.517 89.616Z" fill="white"/>
</svg>
