<svg width="51" height="46" viewBox="0 0 51 46" fill="none" xmlns="http://www.w3.org/2000/svg">
<g clip-path="url(#clip0_242_1420)">
<path d="M4.66992 23C4.66992 29.1 7.09313 34.9501 11.4065 39.2635C15.7198 43.5768 21.5699 46 27.6699 46C33.7699 46 39.62 43.5768 43.9334 39.2635C48.2467 34.9501 50.6699 29.1 50.6699 23H4.66992V23Z" fill="#DC4C2C"/>
<path d="M27.6699 0V23H50.6699C50.6699 16.9 48.2467 11.0499 43.9334 6.73654C39.62 2.42321 33.7699 0 27.6699 0V0Z" fill="#F7A278"/>
<path d="M27.6699 0C21.5699 0 15.7198 2.42321 11.4065 6.73654C7.09313 11.0499 4.66992 16.9 4.66992 23H27.6699V0Z" fill="#C06346"/>
<path d="M21.37 34.67H2C1.46957 34.67 0.960859 34.4593 0.585786 34.0843C0.210714 33.7092 0 33.2005 0 32.67V13.29C0 12.7596 0.210714 12.2509 0.585786 11.8758C0.960859 11.5008 1.46957 11.29 2 11.29H21.37C21.9004 11.29 22.4091 11.5008 22.7842 11.8758C23.1593 12.2509 23.37 12.7596 23.37 13.29V32.71C23.3595 33.2335 23.1442 33.732 22.7703 34.0985C22.3963 34.4649 21.8936 34.6701 21.37 34.67Z" fill="#9B341F"/>
<path d="M12.45 17.1802H7V28.8502H9.36V24.7402H12C13.0609 24.7402 14.0783 24.3188 14.8284 23.5687C15.5786 22.8185 16 21.8011 16 20.7402V20.6702C15.9894 19.7375 15.6101 18.8468 14.9449 18.1929C14.2798 17.539 13.3828 17.1749 12.45 17.1802V17.1802ZM13.5 21.0802C13.5013 21.3196 13.4552 21.5569 13.3642 21.7783C13.2732 21.9997 13.1392 22.2009 12.9699 22.3701C12.8006 22.5394 12.5995 22.6734 12.378 22.7644C12.1566 22.8554 11.9194 22.9016 11.68 22.9002H9.36V19.0002H11.68C11.9194 18.9989 12.1566 19.0451 12.378 19.1361C12.5995 19.2271 12.8006 19.3611 12.9699 19.5303C13.1392 19.6996 13.2732 19.9008 13.3642 20.1222C13.4552 20.3436 13.5013 20.5809 13.5 20.8202V21.0802Z" fill="white"/>
</g>
<defs>
<clipPath id="clip0_242_1420">
<rect width="50.67" height="46" fill="white"/>
</clipPath>
</defs>
</svg>
