<svg width="47" height="42" viewBox="0 0 47 42" fill="none" xmlns="http://www.w3.org/2000/svg">
<g clip-path="url(#clip0_242_16)">
<path d="M44.63 -0.000239385H13.7C13.1695 -0.000239385 12.6608 0.210474 12.2857 0.585547C11.9107 0.96062 11.7 1.46933 11.7 1.99976V10.4998H46.7V1.99976C46.7001 1.73112 46.6462 1.4652 46.5413 1.21787C46.4364 0.970543 46.2828 0.746873 46.0896 0.560211C45.8964 0.373549 45.6676 0.227721 45.4168 0.13143C45.166 0.0351388 44.8984 -0.00964181 44.63 -0.000239385Z" fill="#2D92D4"/>
<path d="M11.6699 31.5601V40.0001C11.6699 40.5305 11.8806 41.0392 12.2557 41.4143C12.6308 41.7893 13.1395 42.0001 13.6699 42.0001H44.6299C45.1604 42.0001 45.6691 41.7893 46.0441 41.4143C46.4192 41.0392 46.6299 40.5305 46.6299 40.0001V31.5601H11.6699Z" fill="#2150A9"/>
<path d="M11.6699 10.5H46.6699V21H11.6699V10.5Z" fill="#2D83D4"/>
<path d="M11.6699 21H46.6699V31.56H11.6699V21Z" fill="#2E70C9"/>
<path d="M21.37 32.67H2C1.46957 32.67 0.960859 32.4593 0.585786 32.0843C0.210714 31.7092 0 31.2005 0 30.67V11.29C0 10.7596 0.210714 10.2509 0.585786 9.87583C0.960859 9.50075 1.46957 9.29004 2 9.29004H21.37C21.9004 9.29004 22.4091 9.50075 22.7842 9.87583C23.1593 10.2509 23.37 10.7596 23.37 11.29V30.71C23.3595 31.2335 23.1442 31.732 22.7703 32.0985C22.3963 32.4649 21.8936 32.6701 21.37 32.67Z" fill="#00488D"/>
<path d="M16.8 15.1699L15 23.6399L13 15.1699H10.45L8.39 23.8999L6.53 15.1699H4.25L7 26.8299H9.73L11.73 17.8299L13.73 26.8299H16.36L19.1 15.1699H16.8Z" fill="white"/>
</g>
<defs>
<clipPath id="clip0_242_16">
<rect width="46.67" height="42" fill="white"/>
</clipPath>
</defs>
</svg>
