<svg width="46" height="42" viewBox="0 0 46 42" fill="none" xmlns="http://www.w3.org/2000/svg">
<g clip-path="url(#clip0_242_327)">
<path d="M28.75 0H13.5056C12.9737 0 12.4635 0.214366 12.0874 0.59594C11.7113 0.977514 11.5 1.49504 11.5 2.03467V10.5H28.75V0Z" fill="#169154"/>
<path d="M11.5 31.563V39.963C11.4997 40.2303 11.5513 40.495 11.6519 40.7421C11.7525 40.9891 11.9001 41.2136 12.0862 41.4028C12.2724 41.592 12.4934 41.7421 12.7368 41.8445C12.9801 41.947 13.241 41.9998 13.5045 42H28.75V31.563H11.5Z" fill="#18482A"/>
<path d="M11.5 10.5H28.75V21H11.5V10.5Z" fill="#0C8045"/>
<path d="M11.5 21.0059H28.75V31.5642H11.5V21.0059Z" fill="#17472A"/>
<path d="M43.9944 0H28.75V10.5H46V2.03467C46 1.49504 45.7887 0.977514 45.4126 0.59594C45.0364 0.214366 44.5263 0 43.9944 0V0Z" fill="#29C27F"/>
<path d="M28.75 31.563V42H43.9956C44.5271 41.9997 45.0367 41.7853 45.4126 41.404C45.7884 41.0228 45.9997 40.5057 46 39.9665V31.5665H28.75V31.563Z" fill="#27663F"/>
<path d="M28.75 10.5H46V21H28.75V10.5Z" fill="#19AC65"/>
<path d="M28.75 21.0059H46V31.5642H28.75V21.0059Z" fill="#129652"/>
<path d="M21.0669 32.6668H1.93315C1.42054 32.6665 0.929013 32.4598 0.566543 32.0921C0.204073 31.7244 0.000304672 31.2257 0 30.7057L0 11.2947C0.000304672 10.7746 0.204073 10.276 0.566543 9.90825C0.929013 9.54053 1.42054 9.33381 1.93315 9.3335H21.0669C21.5795 9.33381 22.071 9.54053 22.4335 9.90825C22.7959 10.276 22.9997 10.7746 23 11.2947V30.7057C22.9997 31.2257 22.7959 31.7244 22.4335 32.0921C22.071 32.4598 21.5795 32.6665 21.0669 32.6668Z" fill="#0C7238"/>
<path d="M6.67813 15.1665H9.42203L11.6484 19.5462L14.0013 15.1665H16.5601L13.0284 20.9998L16.6406 26.8332H13.9415L11.515 22.2482L9.10003 26.8332H6.35498L10.0269 20.9788L6.67813 15.1665Z" fill="white"/>
</g>
<defs>
<clipPath id="clip0_242_327">
<rect width="46" height="42" fill="white"/>
</clipPath>
</defs>
</svg>
