<svg width="32" height="32" viewBox="0 0 32 32" fill="none" xmlns="http://www.w3.org/2000/svg">
<path d="M3 4.75C3 3.75544 3.42143 2.80161 4.17157 2.09835C4.92172 1.39509 5.93913 1 7 1L19 1C20.0609 1 21.0783 1.39509 21.8284 2.09835C22.5786 2.80161 23 3.75544 23 4.75V27.25C23 28.2446 22.5786 29.1984 21.8284 29.9016C21.0783 30.6049 20.0609 31 19 31H7C5.93913 31 4.92172 30.6049 4.17157 29.9016C3.42143 29.1984 3 28.2446 3 27.25V4.75ZM15 25.375C15 24.8777 14.7893 24.4008 14.4142 24.0492C14.0391 23.6975 13.5304 23.5 13 23.5C12.4696 23.5 11.9609 23.6975 11.5858 24.0492C11.2107 24.4008 11 24.8777 11 25.375C11 25.8723 11.2107 26.3492 11.5858 26.7008C11.9609 27.0525 12.4696 27.25 13 27.25C13.5304 27.25 14.0391 27.0525 14.4142 26.7008C14.7893 26.3492 15 25.8723 15 25.375Z" fill="#ABB6C5"/>
<rect x="5" y="3" width="16" height="19" rx="2" fill="white"/>
<rect x="12" y="16" width="17" height="15" rx="2" fill="white"/>
<path d="M13.9732 16C13.4499 16 12.948 16.214 12.5779 16.5949C12.2079 16.9759 12 17.4925 12 18.0312V28.9688C12 29.2355 12.051 29.4996 12.1502 29.7461C12.2494 29.9925 12.3947 30.2164 12.5779 30.4051C12.7612 30.5937 12.9787 30.7433 13.2181 30.8454C13.4575 30.9475 13.7141 31 13.9732 31H27.0268C27.2859 31 27.5425 30.9475 27.7819 30.8454C28.0213 30.7433 28.2388 30.5937 28.4221 30.4051C28.6053 30.2164 28.7506 29.9925 28.8498 29.7461C28.949 29.4996 29 29.2355 29 28.9688V18.0312C29 17.4925 28.7921 16.9759 28.4221 16.5949C28.052 16.214 27.5501 16 27.0268 16H13.9732ZM21.7143 21.625C21.7143 21.4592 21.7783 21.3003 21.8921 21.1831C22.006 21.0658 22.1604 21 22.3214 21H25.9643C26.1253 21 26.2797 21.0658 26.3936 21.1831C26.5075 21.3003 26.5714 21.4592 26.5714 21.625C26.5714 21.7908 26.5075 21.9497 26.3936 22.0669C26.2797 22.1842 26.1253 22.25 25.9643 22.25H22.3214C22.1604 22.25 22.006 22.1842 21.8921 22.0669C21.7783 21.9497 21.7143 21.7908 21.7143 21.625ZM22.3214 24.125H25.9643C26.1253 24.125 26.2797 24.1908 26.3936 24.3081C26.5075 24.4253 26.5714 24.5842 26.5714 24.75C26.5714 24.9158 26.5075 25.0747 26.3936 25.1919C26.2797 25.3092 26.1253 25.375 25.9643 25.375H22.3214C22.1604 25.375 22.006 25.3092 21.8921 25.1919C21.7783 25.0747 21.7143 24.9158 21.7143 24.75C21.7143 24.5842 21.7783 24.4253 21.8921 24.3081C22.006 24.1908 22.1604 24.125 22.3214 24.125ZM18.6786 21.625C18.6786 21.9565 18.5506 22.2745 18.3229 22.5089C18.0952 22.7433 17.7863 22.875 17.4643 22.875C17.1422 22.875 16.8334 22.7433 16.6057 22.5089C16.3779 22.2745 16.25 21.9565 16.25 21.625C16.25 21.2935 16.3779 20.9755 16.6057 20.7411C16.8334 20.5067 17.1422 20.375 17.4643 20.375C17.7863 20.375 18.0952 20.5067 18.3229 20.7411C18.5506 20.9755 18.6786 21.2935 18.6786 21.625ZM15.0357 24.4375C15.0357 24.1889 15.1317 23.9504 15.3025 23.7746C15.4732 23.5988 15.7049 23.5 15.9464 23.5H18.9821C19.2237 23.5 19.4553 23.5988 19.6261 23.7746C19.7969 23.9504 19.8929 24.1889 19.8929 24.4375C19.8929 24.4375 19.8929 26.625 17.4643 26.625C15.0357 26.625 15.0357 24.4375 15.0357 24.4375Z" fill="#E95448"/>
</svg>
