<svg width="15" height="15" viewBox="0 0 15 15" fill="none" xmlns="http://www.w3.org/2000/svg">
<path d="M14.109 6.40275C14.2716 6.27919 14.3922 6.10683 14.4539 5.90982C14.5156 5.71281 14.5154 5.50104 14.4531 5.3042C14.3909 5.10737 14.2698 4.93533 14.1069 4.81222C13.944 4.68911 13.7475 4.6211 13.5447 4.61772L9.60779 4.46599C9.58844 4.46463 9.56988 4.45758 9.55436 4.44571C9.53884 4.43383 9.52701 4.41763 9.52031 4.39905L8.15987 0.650488C8.09152 0.459776 7.96737 0.295096 7.80424 0.178748C7.6411 0.0623986 7.44686 0 7.24781 0C7.04876 0 6.85452 0.0623986 6.69139 0.178748C6.52825 0.295096 6.40411 0.459776 6.33575 0.650488L4.97969 4.41244C4.97299 4.43102 4.96116 4.44722 4.94564 4.4591C4.93012 4.47097 4.91156 4.47802 4.8922 4.47938L0.955256 4.63111C0.752549 4.63449 0.555961 4.7025 0.393057 4.82561C0.230152 4.94872 0.1091 5.12075 0.0468747 5.31759C-0.0153511 5.51443 -0.0156302 5.7262 0.0460762 5.92321C0.107783 6.12021 0.228381 6.29258 0.39096 6.41614L3.47928 8.89287C3.49473 8.90528 3.50629 8.92204 3.51251 8.94107C3.51873 8.96011 3.51934 8.98058 3.51427 8.99997L2.4513 12.8422C2.39621 13.0379 2.40155 13.2461 2.46658 13.4386C2.53161 13.631 2.65318 13.7984 2.81474 13.9179C2.97631 14.0373 3.17003 14.1031 3.36955 14.1063C3.56907 14.1095 3.7647 14.0499 3.92984 13.9356L7.19313 11.7043C7.20921 11.693 7.22828 11.6869 7.24781 11.6869C7.26735 11.6869 7.28642 11.693 7.30249 11.7043L10.5658 13.9356C10.7287 14.0538 10.9236 14.1173 11.1235 14.1173C11.3234 14.1173 11.5184 14.0538 11.6813 13.9356C11.8429 13.8172 11.9645 13.6507 12.0296 13.4589C12.0946 13.2671 12.0997 13.0595 12.0443 12.8646L10.9726 9.0089C10.9669 8.98954 10.9672 8.96887 10.9735 8.9497C10.9798 8.93053 10.9917 8.9138 11.0076 8.90179L14.109 6.40275Z" fill="#E95548"/>
</svg>
