<svg width="16" height="14" viewBox="0 0 16 14" fill="none" xmlns="http://www.w3.org/2000/svg">
<path d="M14 1.89999H11.6225L10.6925 0.887494C10.5527 0.734039 10.3825 0.611424 10.1927 0.527484C10.0028 0.443543 9.79757 0.400122 9.59 0.399994H6.41C5.99 0.399994 5.585 0.579994 5.3 0.887494L4.3775 1.89999H2C1.175 1.89999 0.5 2.57499 0.5 3.39999V12.4C0.5 13.225 1.175 13.9 2 13.9H14C14.825 13.9 15.5 13.225 15.5 12.4V3.39999C15.5 2.57499 14.825 1.89999 14 1.89999ZM8 11.65C5.93 11.65 4.25 9.96999 4.25 7.89999C4.25 5.82999 5.93 4.14999 8 4.14999C10.07 4.14999 11.75 5.82999 11.75 7.89999C11.75 9.96999 10.07 11.65 8 11.65Z" fill="#BABABA"/>
</svg>
