<svg width="16" height="16" viewBox="0 0 16 16" fill="none" xmlns="http://www.w3.org/2000/svg">
<circle cx="8" cy="8" r="8" fill="#3182F7"/>
<path d="M11.15 4.85499C11.1037 4.80864 11.0488 4.77186 10.9883 4.74677C10.9278 4.72168 10.863 4.70877 10.7975 4.70877C10.732 4.70877 10.6672 4.72168 10.6067 4.74677C10.5462 4.77186 10.4912 4.80864 10.445 4.85499L7.99999 7.29499L5.55499 4.84999C5.5087 4.8037 5.45374 4.76698 5.39326 4.74193C5.33278 4.71687 5.26796 4.70398 5.20249 4.70398C5.13702 4.70398 5.0722 4.71687 5.01172 4.74193C4.95124 4.76698 4.89628 4.8037 4.84999 4.84999C4.8037 4.89628 4.76698 4.95124 4.74193 5.01172C4.71687 5.0722 4.70398 5.13702 4.70398 5.20249C4.70398 5.26796 4.71687 5.33278 4.74193 5.39326C4.76698 5.45374 4.8037 5.5087 4.84999 5.55499L7.29499 7.99999L4.84999 10.445C4.8037 10.4913 4.76698 10.5462 4.74193 10.6067C4.71687 10.6672 4.70398 10.732 4.70398 10.7975C4.70398 10.863 4.71687 10.9278 4.74193 10.9883C4.76698 11.0487 4.8037 11.1037 4.84999 11.15C4.89628 11.1963 4.95124 11.233 5.01172 11.2581C5.0722 11.2831 5.13702 11.296 5.20249 11.296C5.26796 11.296 5.33278 11.2831 5.39326 11.2581C5.45374 11.233 5.5087 11.1963 5.55499 11.15L7.99999 8.70499L10.445 11.15C10.4913 11.1963 10.5462 11.233 10.6067 11.2581C10.6672 11.2831 10.732 11.296 10.7975 11.296C10.863 11.296 10.9278 11.2831 10.9883 11.2581C11.0487 11.233 11.1037 11.1963 11.15 11.15C11.1963 11.1037 11.233 11.0487 11.2581 10.9883C11.2831 10.9278 11.296 10.863 11.296 10.7975C11.296 10.732 11.2831 10.6672 11.2581 10.6067C11.233 10.5462 11.1963 10.4913 11.15 10.445L8.70499 7.99999L11.15 5.55499C11.34 5.36499 11.34 5.04499 11.15 4.85499Z" fill="white" stroke="white" stroke-width="0.5"/>
</svg>
