<svg width="170" height="41" viewBox="0 0 170 41" fill="none" xmlns="http://www.w3.org/2000/svg">
<g clip-path="url(#clip0_78_455)">
<path d="M20.2103 0C9.06889 0 0 9.19342 0 20.5035C0 31.8136 9.06889 41.007 20.2103 41.007C25.2802 41.007 29.919 39.095 33.4728 35.9552L30.9622 33.5493L28.4307 31.1222C26.1635 32.9284 23.3051 34.015 20.2033 34.015C12.8592 34.015 6.88512 27.9542 6.88512 20.5035C6.88512 13.0528 12.8661 6.99208 20.2103 6.99208C27.5544 6.99208 33.3476 12.8835 33.5146 20.186V35.9059C37.743 32.1452 40.4136 26.6348 40.4136 20.5035C40.4205 9.19342 31.3517 0 20.2103 0Z" fill="#286EF0"/>
<path d="M24.5617 17.672C26.112 20.0333 25.4713 23.2083 23.13 24.7719C20.7887 26.3355 17.6407 25.6893 16.0904 23.328C14.54 20.9667 15.1807 17.7917 17.522 16.2281C19.8633 14.6645 23.0114 15.3107 24.5617 17.672Z" fill="#286EF0"/>
<path d="M122.347 23.9396C119.85 31.094 112.624 35.0239 104.494 31.348C104.494 32.6321 104.529 33.8033 104.487 34.9745C104.438 36.308 103.979 37.4299 102.693 38.0296C100.836 38.8904 98.5199 37.7333 98.4921 35.6519C98.4086 29.8875 98.2 24.0878 98.7146 18.3586C99.1528 13.455 102.345 10.1883 106.984 8.70659C111.581 7.23903 115.705 8.36792 119.14 11.7687C123.425 16.0162 127.611 20.3554 131.861 24.631C134.566 27.3474 138.363 27.3122 140.818 24.6169C142.925 22.3027 142.953 18.7185 140.888 16.3831C138.787 14.0124 135.331 13.6102 132.82 15.4658C132.424 15.7622 132.069 16.122 131.666 16.4113C130.226 17.4555 128.599 17.3073 127.521 16.0585C126.512 14.8943 126.547 12.9893 127.723 11.8322C131.158 8.44553 135.227 7.24608 139.851 8.69248C144.511 10.153 147.411 13.4127 148.267 18.274C149.247 23.862 146.653 28.9702 141.827 31.4679C137.042 33.9444 131.534 32.9707 127.507 28.9561C125.824 27.2769 124.099 25.647 122.34 23.9396H122.347ZM104.543 20.2636C104.431 23.7985 107.109 26.656 110.572 26.6983C113.785 26.7407 116.56 23.9255 116.637 20.5459C116.713 17.265 114.112 14.4851 110.851 14.3511C107.359 14.2099 104.661 16.7429 104.543 20.2636Z" fill="#286EF0"/>
<path d="M159.345 8.10687C161.717 8.10687 164.088 8.09276 166.46 8.10687C168.595 8.12803 169.944 9.30632 169.993 11.1478C170.035 12.9329 168.644 14.2311 166.571 14.3158C165.73 14.3511 164.881 14.4004 164.054 14.3158C162.642 14.1676 162.287 14.8167 162.308 16.1432C162.371 20.2072 162.336 24.2641 162.322 28.3282C162.322 29.0267 162.28 29.7393 162.148 30.4166C161.87 31.8277 160.695 32.752 159.29 32.7802C157.975 32.8014 156.751 31.9406 156.411 30.6283C156.237 29.958 156.209 29.2454 156.202 28.5469C156.181 24.4335 156.118 20.3201 156.23 16.2137C156.271 14.6262 155.687 14.1888 154.255 14.3087C153.274 14.3863 152.272 14.3511 151.299 14.2241C149.581 14.0053 148.413 12.6507 148.482 11.0984C148.552 9.48271 149.88 8.15626 151.64 8.12098C154.206 8.06453 156.779 8.10687 159.352 8.10687H159.345Z" fill="#286EF0"/>
<path d="M95.8075 5.54569C95.8006 3.88763 94.5487 2.80812 93.0604 2.70229C91.141 2.56118 89.8961 3.7324 89.757 5.90552C89.6805 7.07675 89.7431 8.26209 89.7431 9.62382C89.1102 9.39804 88.7903 9.29926 88.4843 9.17226C83.5256 7.20375 79.0885 8.0857 75.1591 11.684C74.874 11.9451 74.6027 12.2132 74.3385 12.4954C73.2605 13.6243 72.4885 15.0143 72.106 16.5383C70.3395 14.8238 68.6774 13.2574 67.0708 11.6347C63.51 8.0222 59.3094 6.66753 54.469 8.21976C49.5729 9.79315 46.8397 13.4127 45.9982 18.4856C45.0106 24.3912 49.6424 30.8893 55.5052 32.0182C59.5737 32.8085 63.1554 31.863 66.2363 29.0831C67.8845 27.6014 68.114 25.7035 66.89 24.3347C65.6451 22.9377 64.0664 22.9659 62.286 24.4053C59.7128 26.5008 57.1882 26.7407 54.7889 25.1179C51.7636 23.0788 51.1029 19.0289 53.3354 16.1643C55.5817 13.2786 59.6154 12.9258 62.2443 15.4941C65.8399 19.0077 69.3589 22.6131 72.8989 26.1833V26.1621C75.2287 30.6142 80.0065 33.3588 84.7218 32.8155C90.4385 32.1523 95.0356 28.1024 95.5433 22.3591C96.0371 16.7852 95.8215 11.1408 95.7936 5.53158L95.8075 5.54569ZM83.623 26.9171C80.2569 26.9171 77.5307 24.1513 77.5307 20.7364C77.5307 17.3215 80.2569 14.5557 83.623 14.5557C86.989 14.5557 89.7153 17.3215 89.7153 20.7364C89.7153 24.1513 86.989 26.9171 83.623 26.9171Z" fill="#286EF0"/>
</g>
<defs>
<clipPath id="clip0_78_455">
<rect width="170" height="41" fill="white"/>
</clipPath>
</defs>
</svg>
