<svg width="72" height="15" viewBox="0 0 72 15" fill="none" xmlns="http://www.w3.org/2000/svg">
<path d="M18.9526 0.177369C18.3329 0.163347 17.7144 0.237871 17.1167 0.398518L16.8667 0.467115C15.7556 0.831154 14.7599 1.46942 13.9762 2.31994L12.2887 4.21855C11.82 2.8373 10.8649 1.66283 9.59301 0.903735C8.32113 0.14464 6.81479 -0.149998 5.34144 0.0721463C3.86809 0.29429 2.52307 1.01887 1.54518 2.11717C0.567302 3.21547 0.0198391 4.61645 0 6.07137V13.353C0 13.7575 0.164614 14.1453 0.457632 14.4313C0.750649 14.7173 1.14807 14.878 1.56246 14.878H1.58589C2.00028 14.878 2.3977 14.7173 2.69072 14.4313C2.98373 14.1453 3.14835 13.7575 3.14835 13.353V11.5383C4.10985 12.0978 5.20855 12.3929 6.32795 12.3923C7.34119 12.3917 8.33939 12.1531 9.2382 11.6965C10.137 11.24 10.91 10.579 11.4919 9.76938L16.3042 4.37101C16.5374 4.13214 16.7998 3.9222 17.0855 3.74582C17.4525 3.44366 17.8888 3.23239 18.3574 3.12998C18.826 3.02756 19.313 3.03701 19.777 3.15753C20.241 3.27804 20.6684 3.50607 21.0228 3.82223C21.3773 4.1384 21.6483 4.53334 21.813 4.97358C21.9776 5.41383 22.031 5.88635 21.9685 6.35102C21.9061 6.81569 21.7297 7.25881 21.4543 7.64273C21.1789 8.02665 20.8126 8.34002 20.3866 8.55627C19.9606 8.77253 19.4874 8.88528 19.0073 8.88492C18.52 8.88373 18.0405 8.76639 17.6102 8.54315C17.18 8.31991 16.8121 7.99753 16.5386 7.60396C16.2759 7.35865 15.9337 7.21041 15.5711 7.18484C15.2084 7.15928 14.848 7.25796 14.5519 7.46388C14.2557 7.66981 14.0425 7.97008 13.9488 8.31297C13.8551 8.65587 13.8869 9.01992 14.0387 9.34239C14.5892 10.111 15.3224 10.738 16.1755 11.1696C17.0286 11.6012 17.9761 11.8245 18.937 11.8205C19.8564 11.8154 20.7642 11.6205 21.601 11.2486C22.6279 10.7855 23.4945 10.0408 24.0952 9.10528C24.6959 8.16972 25.0046 7.08376 24.9837 5.97988C24.8665 2.56397 22.4759 0.245992 18.9526 0.177369ZM3.09366 6.77284V6.1476C3.09219 6.04233 3.07911 5.93754 3.05461 5.835C3.15339 5.03626 3.5602 4.30421 4.1923 3.78779C4.82439 3.27138 5.6343 3.00936 6.45729 3.05501C7.28029 3.10066 8.05457 3.45057 8.62265 4.03356C9.19072 4.61655 9.50992 5.38883 9.51536 6.19335C9.51606 6.79346 9.33978 7.38111 9.00756 7.88608L8.63256 8.31306C8.58397 8.36651 8.54202 8.42536 8.50758 8.48842C7.90324 9.04506 7.10422 9.35592 6.27326 9.35766C5.51732 9.35739 4.78534 9.09869 4.20449 8.6265C3.62364 8.1543 3.2306 7.49844 3.09366 6.77284Z" fill="#BABABA"/>
<path d="M70.1465 0.276504H62.0998C61.7423 0.342657 61.4196 0.52853 61.1875 0.802059C60.9554 1.07559 60.8284 1.41964 60.8284 1.7748C60.8284 2.12996 60.9554 2.47396 61.1875 2.74749C61.4196 3.02102 61.7423 3.20689 62.0998 3.27305H64.5919V10.4785C64.5491 10.6989 64.5567 10.9258 64.614 11.1431C64.6714 11.3603 64.7771 11.5625 64.9237 11.7353C65.0703 11.908 65.2542 12.0471 65.4622 12.1426C65.6702 12.238 65.8972 12.2875 66.127 12.2875C66.3569 12.2875 66.5839 12.238 66.7919 12.1426C66.9999 12.0471 67.1838 11.908 67.3304 11.7353C67.477 11.5625 67.5827 11.3603 67.6401 11.1431C67.6974 10.9258 67.705 10.6989 67.6622 10.4785V3.27305H70.1465C70.3723 3.31483 70.6048 3.30747 70.8274 3.2515C71.0499 3.19552 71.2571 3.09233 71.4341 2.94923C71.6112 2.80614 71.7536 2.62669 71.8514 2.42368C71.9492 2.22067 72 1.99913 72 1.7748C72 1.55047 71.9492 1.32888 71.8514 1.12587C71.7536 0.922864 71.6112 0.743454 71.4341 0.600362C71.2571 0.457271 71.0499 0.354025 70.8274 0.298051C70.6048 0.242077 70.3723 0.234719 70.1465 0.276504Z" fill="#BABABA"/>
<path d="M32.4131 4.88954H28.6945C28.3508 4.88954 28.0695 4.52354 28.0695 4.06605C28.0503 3.88511 28.098 3.70341 28.204 3.5538C28.3101 3.40419 28.4674 3.29652 28.6476 3.25019H33.9131C34.2706 3.18403 34.5933 2.99816 34.8254 2.72463C35.0575 2.45111 35.1845 2.10706 35.1845 1.75189C35.1845 1.39673 35.0575 1.05273 34.8254 0.779202C34.5933 0.505673 34.2706 0.3198 33.9131 0.253647H28.4914C26.7492 0.253647 25.3665 1.90822 25.3665 4.01267C25.3665 6.11711 26.7648 7.89367 28.5539 7.89367H32.2022C32.3024 7.88343 32.4036 7.89389 32.4993 7.92429C32.5951 7.95469 32.6832 8.00436 32.7581 8.07014C32.8329 8.13592 32.8927 8.2163 32.9337 8.30609C32.9746 8.39587 32.9958 8.49308 32.9958 8.59136C32.9958 8.68965 32.9746 8.78681 32.9337 8.8766C32.8927 8.96638 32.8329 9.04677 32.7581 9.11255C32.6832 9.17832 32.5951 9.22804 32.4993 9.25844C32.4036 9.28884 32.3024 9.29925 32.2022 9.28902H26.9289C26.5714 9.35517 26.2487 9.54104 26.0166 9.81457C25.7845 10.0881 25.6575 10.4321 25.6575 10.7873C25.6575 11.1425 25.7845 11.4865 26.0166 11.76C26.2487 12.0335 26.5714 12.2194 26.9289 12.2856H32.3975C34.1318 12.2856 35.5224 10.6463 35.5224 8.54943C35.5224 6.45261 34.1084 4.88954 32.4131 4.88954Z" fill="#BABABA"/>
<path d="M57.1625 0.863625C55.8862 0.266389 54.4345 0.129382 53.0646 0.476893C51.6947 0.824404 50.4951 1.63399 49.6783 2.76219C49.5301 3.0859 49.5022 3.44986 49.5992 3.79152C49.6962 4.13318 49.9122 4.43121 50.2099 4.63428C50.5077 4.83736 50.8687 4.93281 51.2307 4.90425C51.5928 4.87569 51.9334 4.72488 52.1939 4.47777C52.4294 4.15144 52.734 3.87837 53.0872 3.67709C53.4404 3.4758 53.8338 3.35102 54.2407 3.3112C54.3708 3.30365 54.5012 3.30365 54.6313 3.3112C55.0078 3.3112 55.3807 3.38358 55.7285 3.52421C56.0764 3.66484 56.3924 3.87094 56.6587 4.13079C56.9249 4.39063 57.1361 4.6991 57.2802 5.03861C57.4243 5.37811 57.4984 5.74202 57.4984 6.10949C57.4994 6.54394 57.395 6.97246 57.1937 7.35997C57.0016 7.80442 56.6672 8.1762 56.2406 8.41978C55.7661 8.73471 55.2051 8.90217 54.6313 8.90015C54.2734 8.89956 53.9186 8.83496 53.5845 8.70953H53.522C52.9214 8.5065 52.3836 8.15753 51.9595 7.69547L47.5065 2.95281C46.7799 1.84658 45.7095 0.996456 44.452 0.526875C43.1945 0.0572933 41.8161 -0.0070553 40.5184 0.343235C39.2208 0.693526 38.0721 1.44003 37.2406 2.47352C36.4091 3.507 35.9384 4.77315 35.8975 6.0866C35.8975 6.13997 35.8975 6.18573 35.8975 6.2391V13.475C35.8975 13.8795 36.0621 14.2674 36.3551 14.5534C36.6481 14.8394 37.0455 15 37.4599 15H37.5146C37.929 15 38.3264 14.8394 38.6194 14.5534C38.9124 14.2674 39.077 13.8795 39.077 13.475V11.5384C39.8935 12.0094 40.8085 12.2943 41.7536 12.3719C42.6987 12.4495 43.6496 12.3176 44.5352 11.9862C45.4208 11.6549 46.2183 11.1325 46.8681 10.4582C47.5178 9.78387 48.0031 8.97497 48.2877 8.09192L49.7799 9.68553C50.5567 10.5244 51.5413 11.1545 52.6392 11.5155L52.8814 11.5841C53.4369 11.7291 54.0094 11.8034 54.5844 11.8052H54.7016C58.1937 11.7366 60.5608 9.44914 60.5921 6.09423C60.6053 4.99095 60.2877 3.90799 59.6783 2.97864C59.0689 2.04929 58.1945 1.31411 57.1625 0.863625ZM42.2098 9.35767C41.4464 9.35637 40.7078 9.0928 40.1235 8.6132C39.5393 8.1336 39.1467 7.46859 39.0146 6.73473V6.14761C39.0261 6.04881 39.0261 5.94903 39.0146 5.85023C39.0824 5.24277 39.3291 4.6675 39.7247 4.19389C40.1203 3.72028 40.648 3.36859 41.2439 3.18132C41.8399 2.99404 42.4787 2.97923 43.0831 3.13859C43.6875 3.29796 44.2317 3.62472 44.65 4.07941C45.0682 4.5341 45.3427 5.09723 45.4401 5.70084C45.5376 6.30446 45.4539 6.92274 45.1991 7.48093C44.9444 8.03911 44.5295 8.51336 44.0045 8.8464C43.4796 9.17944 42.8671 9.35701 42.241 9.35767H42.2098Z" fill="#BABABA"/>
</svg>
