<svg width="120" height="29" viewBox="0 0 120 29" fill="none" xmlns="http://www.w3.org/2000/svg">
<g clip-path="url(#clip0_215_2039)">
<path d="M14.2661 0C6.40157 0 0 6.48948 0 14.4731C0 22.4567 6.40157 28.9462 14.2661 28.9462C17.8449 28.9462 21.1193 27.5965 23.6279 25.3802L21.8557 23.6819L20.0687 21.9686C18.4683 23.2436 16.4507 24.0106 14.2612 24.0106C9.07707 24.0106 4.86009 19.7324 4.86009 14.4731C4.86009 9.21376 9.08198 4.93559 14.2661 4.93559C19.4502 4.93559 23.5395 9.09423 23.6573 14.249V25.3453C26.6421 22.6908 28.5272 18.8011 28.5272 14.4731C28.5321 6.48948 22.1306 0 14.2661 0Z" fill="white"/>
<path d="M17.3377 12.4743C18.432 14.1412 17.9798 16.3824 16.3271 17.4861C14.6744 18.5898 12.4523 18.1336 11.3579 16.4668C10.2636 14.8 10.7158 12.5588 12.3685 11.4551C14.0212 10.3514 16.2434 10.8075 17.3377 12.4743Z" fill="white"/>
<path d="M86.3622 16.8985C84.5999 21.9487 79.4992 24.7228 73.7604 22.128C73.7604 23.0344 73.7849 23.8612 73.7555 24.6879C73.7211 25.6292 73.3971 26.4211 72.4889 26.8444C71.1782 27.452 69.5434 26.6352 69.5238 25.166C69.4649 21.097 69.3176 17.0031 69.6809 12.959C69.9901 9.49764 72.2435 7.19171 75.5179 6.14583C78.7628 5.1099 81.674 5.90677 84.0991 8.30732C87.1232 11.3055 90.0785 14.3685 93.078 17.3866C94.9877 19.3041 97.6681 19.2792 99.401 17.3767C100.889 15.7431 100.908 13.213 99.4501 11.5645C97.9675 9.8911 95.5277 9.60721 93.7555 10.9171C93.4756 11.1262 93.2253 11.3802 92.9406 11.5844C91.9244 12.3215 90.7756 12.2169 90.0147 11.3354C89.3028 10.5136 89.3274 9.16894 90.157 8.35215C92.5822 5.96155 95.454 5.11488 98.7186 6.13586C102.008 7.16681 104.055 9.46776 104.659 12.8993C105.351 16.8438 103.52 20.4496 100.113 22.2126C96.7353 23.9608 92.8473 23.2735 90.0049 20.4396C88.8168 19.2543 87.5994 18.1038 86.3573 16.8985H86.3622ZM73.7948 14.3037C73.7162 16.7989 75.6062 18.816 78.051 18.8459C80.3191 18.8758 82.2778 16.8886 82.3318 14.503C82.3858 12.1871 80.5498 10.2248 78.2474 10.1302C75.783 10.0305 73.8782 11.8185 73.7948 14.3037Z" fill="white"/>
<path d="M112.479 5.72249C114.153 5.72249 115.827 5.71253 117.501 5.72249C119.008 5.73743 119.961 6.56916 119.995 7.86905C120.025 9.12909 119.043 10.0455 117.58 10.1053C116.986 10.1302 116.387 10.165 115.803 10.1053C114.806 10.0007 114.556 10.4589 114.57 11.3952C114.615 14.2639 114.59 17.1276 114.58 19.9963C114.58 20.4894 114.551 20.9924 114.458 21.4705C114.261 22.4666 113.431 23.1191 112.44 23.139C111.512 23.1539 110.648 22.5463 110.407 21.62C110.285 21.1468 110.265 20.6438 110.26 20.1507C110.245 17.2472 110.201 14.3436 110.28 11.445C110.309 10.3244 109.897 10.0156 108.886 10.1003C108.193 10.1551 107.486 10.1302 106.799 10.0405C105.587 9.88611 104.762 8.92987 104.811 7.83418C104.86 6.69367 105.798 5.75735 107.04 5.73245C108.851 5.69261 110.668 5.72249 112.484 5.72249H112.479Z" fill="white"/>
<path d="M67.6288 3.9146C67.6239 2.74421 66.7403 1.9822 65.6897 1.9075C64.3348 1.80789 63.456 2.63464 63.3579 4.1686C63.3039 4.99535 63.348 5.83206 63.348 6.79328C62.9013 6.63391 62.6755 6.56418 62.4595 6.47453C58.9592 5.085 55.8272 5.70755 53.0535 8.24756C52.8522 8.43184 52.6607 8.62109 52.4742 8.82031C51.7133 9.61717 51.1684 10.5983 50.8983 11.6741C49.6514 10.4638 48.4781 9.35819 47.3441 8.2127C44.8306 5.66273 41.8655 4.70649 38.4487 5.80218C34.9926 6.91281 33.0633 9.46776 32.4693 13.0487C31.7722 17.2173 35.0417 21.8042 39.1801 22.6011C42.052 23.1589 44.5802 22.4915 46.755 20.5293C47.9185 19.4834 48.0805 18.1436 47.2165 17.1774C46.3377 16.1913 45.2233 16.2112 43.9666 17.2272C42.1502 18.7064 40.3682 18.8758 38.6745 17.7303C36.539 16.2909 36.0726 13.4322 37.6485 11.4101C39.2341 9.37313 42.0815 9.12411 43.9371 10.937C46.4752 13.4172 48.9592 15.9622 51.458 18.4823V18.4674C53.1026 21.61 56.4752 23.5474 59.8036 23.1639C63.839 22.6957 67.0839 19.837 67.4423 15.7829C67.7908 11.8484 67.6387 7.86407 67.619 3.90464L67.6288 3.9146ZM59.028 19.0003C56.6519 19.0003 54.7275 17.0479 54.7275 14.6374C54.7275 12.2269 56.6519 10.2746 59.028 10.2746C61.404 10.2746 63.3284 12.2269 63.3284 14.6374C63.3284 17.0479 61.404 19.0003 59.028 19.0003Z" fill="white"/>
</g>
<defs>
<clipPath id="clip0_215_2039">
<rect width="120" height="28.9412" fill="white"/>
</clipPath>
</defs>
</svg>
