<svg width="127" height="22" viewBox="0 0 127 22" fill="none" xmlns="http://www.w3.org/2000/svg">
<g clip-path="url(#clip0_215_1596)">
<path d="M10.9291 0C4.9042 0 0 4.93306 0 11.0019C0 17.0707 4.9042 22.0038 10.9291 22.0038C13.6708 22.0038 16.1793 20.9778 18.1012 19.2931L16.7435 18.0021L15.3745 16.6997C14.1485 17.6689 12.6027 18.2519 10.9254 18.2519C6.95388 18.2519 3.72328 14.9998 3.72328 11.0019C3.72328 7.00396 6.95765 3.75185 10.9291 3.75185C14.9006 3.75185 18.0335 6.9131 18.1237 10.8315V19.2666C20.4103 17.2487 21.8545 14.2919 21.8545 11.0019C21.8583 4.93306 16.9541 0 10.9291 0Z" fill="url(#paint0_angular_215_1596)"/>
<path d="M13.2824 9.48254C14.1207 10.7496 13.7743 12.4533 12.5082 13.2922C11.2421 14.1312 9.53967 13.7845 8.70131 12.5175C7.86294 11.2504 8.20941 9.54675 9.47551 8.70775C10.7416 7.86876 12.444 8.21549 13.2824 9.48254Z" fill="url(#paint1_angular_215_1596)"/>
<path d="M66.1615 12.8456C64.8114 16.6846 60.9038 18.7933 56.5073 16.8209C56.5073 17.5099 56.5261 18.1384 56.5036 18.7668C56.4773 19.4824 56.229 20.0843 55.5333 20.4061C54.5291 20.868 53.2767 20.2471 53.2617 19.1303C53.2166 16.0372 53.1037 12.9251 53.382 9.85097C53.619 7.21975 55.3452 5.46687 57.8537 4.67183C60.3397 3.88436 62.5699 4.4901 64.4278 6.31492C66.7445 8.59404 69.0085 10.9224 71.3064 13.2167C72.7694 14.6742 74.8229 14.6553 76.1505 13.2091C77.29 11.9673 77.3051 10.0441 76.1881 8.79091C75.0523 7.51884 73.1831 7.30304 71.8254 8.29874C71.6111 8.45775 71.4193 8.65083 71.2011 8.80606C70.4226 9.36637 69.5426 9.28687 68.9596 8.61676C68.4143 7.99208 68.4331 6.96988 69.0687 6.34899C70.9266 4.53175 73.1267 3.88814 75.6277 4.66426C78.1475 5.44794 79.7158 7.19704 80.1784 9.80554C80.7087 12.804 79.3059 15.545 76.6958 16.8852C74.1083 18.2141 71.1297 17.6916 68.9521 15.5374C68.042 14.6364 67.1093 13.7618 66.1578 12.8456H66.1615ZM56.5337 10.8732C56.4735 12.7699 57.9214 14.3032 59.7944 14.3259C61.5319 14.3486 63.0325 12.8381 63.0739 11.0246C63.1152 9.26415 61.7087 7.7725 59.9448 7.70057C58.0568 7.62485 56.5976 8.98399 56.5337 10.8732Z" fill="#323639"/>
<path d="M86.1695 4.35004C87.452 4.35004 88.7344 4.34246 90.0169 4.35004C91.1715 4.36139 91.9011 4.99364 91.9274 5.98177C91.95 6.93961 91.1978 7.63622 90.0771 7.68165C89.622 7.70058 89.1632 7.72708 88.7156 7.68165C87.9522 7.60214 87.7604 7.95045 87.7716 8.6622C87.8055 10.8429 87.7867 13.0198 87.7792 15.2005C87.7792 15.5753 87.7566 15.9577 87.6851 16.3211C87.5347 17.0783 86.8991 17.5743 86.1394 17.5894C85.4286 17.6008 84.7667 17.1389 84.5824 16.4347C84.4884 16.075 84.4733 15.6927 84.4696 15.3179C84.4583 13.1107 84.4244 10.9035 84.4846 8.70006C84.5072 7.84823 84.1913 7.6135 83.4165 7.67786C82.8862 7.71951 82.3447 7.70058 81.8182 7.63243C80.8892 7.51507 80.2574 6.78817 80.295 5.95527C80.3326 5.08829 81.0509 4.37654 82.0024 4.35761C83.3902 4.32732 84.7817 4.35004 86.1733 4.35004H86.1695Z" fill="#323639"/>
<path d="M51.81 2.97574C51.8062 2.08605 51.1293 1.5068 50.3245 1.45001C49.2865 1.37429 48.6133 2.00276 48.538 3.16882C48.4967 3.79728 48.5305 4.43332 48.5305 5.164C48.1883 5.04285 48.0153 4.98985 47.8498 4.9217C45.1683 3.86543 42.7688 4.33867 40.6439 6.26949C40.4897 6.40957 40.3431 6.55343 40.2001 6.70487C39.6172 7.31062 39.1997 8.05645 38.9929 8.87421C38.0376 7.95423 37.1388 7.11375 36.27 6.24299C34.3444 4.3046 32.0729 3.5777 29.4553 4.4106C26.8076 5.25486 25.3296 7.19704 24.8745 9.91912C24.3405 13.0879 26.8452 16.5748 30.0157 17.1805C32.2158 17.6045 34.1526 17.0972 35.8187 15.6056C36.71 14.8105 36.8341 13.7921 36.1722 13.0577C35.499 12.308 34.6453 12.3232 33.6825 13.0955C32.291 14.2199 30.9258 14.3486 29.6283 13.4779C27.9923 12.3838 27.635 10.2106 28.8423 8.67355C30.057 7.12511 32.2383 6.93581 33.66 8.31389C35.6043 10.1993 37.5073 12.1339 39.4216 14.0496V14.0382C40.6815 16.4271 43.2653 17.8998 45.8152 17.6083C48.9066 17.2525 51.3926 15.0793 51.6671 11.9976C51.9341 9.00671 51.8175 5.97797 51.8025 2.96817L51.81 2.97574ZM45.2209 14.4433C43.4007 14.4433 41.9264 12.9592 41.9264 11.1268C41.9264 9.29444 43.4007 7.81036 45.2209 7.81036C47.0412 7.81036 48.5155 9.29444 48.5155 11.1268C48.5155 12.9592 47.0412 14.4433 45.2209 14.4433Z" fill="#323639"/>
</g>
<path d="M97.5478 7.25045L106.704 7.08298C106.688 7.19708 106.669 7.31118 106.651 7.4216C106.62 7.60379 106.585 7.78046 106.55 7.94977C106.472 8.2571 106.515 8.5221 106.675 8.73926C106.828 8.94721 107.043 9.08155 107.318 9.14228C107.417 9.16253 107.516 9.17357 107.612 9.17357C107.793 9.17357 107.968 9.13676 108.132 9.06499C108.395 8.94905 108.581 8.73742 108.688 8.43008C108.817 8.01602 108.912 7.53018 108.971 6.98177C109.028 6.44072 109.058 5.82606 109.058 5.15067V3.84221C109.058 3.24043 108.936 2.83188 108.688 2.5908C108.441 2.35157 108.023 2.23563 107.411 2.23563H97.8461C97.5717 2.23563 97.3525 2.34604 97.2107 2.554C97.0818 2.74171 97.0174 2.96623 97.0174 3.21651C97.0174 3.46679 97.0837 3.69131 97.2126 3.8735C97.3544 4.07225 97.5735 4.17715 97.8461 4.17715H106.612C106.776 4.17715 106.828 4.22683 106.828 4.39062V5.25188L97.5072 5.34574C97.1573 5.34574 96.9713 5.52057 96.8774 5.66779C96.7559 5.85918 96.7006 6.0837 96.7153 6.32662C96.7153 6.58242 96.7816 6.80142 96.9124 6.97625C97.0118 7.11243 97.2034 7.26885 97.5478 7.25045Z" fill="#323639"/>
<path d="M111.038 9.82873C110.894 9.6355 110.682 9.53612 110.406 9.53612H103.021V8.60125C103.021 8.27735 102.894 8.02155 102.655 7.86145C102.434 7.71606 102.178 7.64061 101.888 7.64061C101.599 7.64061 101.36 7.71422 101.141 7.86145C100.901 8.02155 100.774 8.27735 100.774 8.60125V9.53612H95.7595C95.4851 9.53612 95.2715 9.63366 95.1279 9.82873C94.9971 10.0054 94.929 10.2244 94.929 10.4784C94.929 10.7323 94.9953 10.9513 95.1242 11.1353C95.266 11.3341 95.4851 11.439 95.7577 11.439H110.406C110.679 11.439 110.898 11.3341 111.039 11.1335C111.17 10.9513 111.235 10.7305 111.235 10.4765C111.235 10.2226 111.168 10.0036 111.038 9.82689V9.82873Z" fill="#323639"/>
<path d="M108.68 17.915H99.4021C99.2824 17.915 99.2824 17.8837 99.2824 17.8138V17.0353C99.2824 16.9672 99.2824 16.9359 99.4021 16.9359H107.426C108.037 16.9359 108.456 16.82 108.702 16.5808C108.951 16.3397 109.072 15.9311 109.072 15.3294V13.927C109.072 13.3253 108.951 12.9167 108.702 12.6775C108.456 12.4382 108.037 12.3223 107.426 12.3223H97.8275C97.4758 12.3223 97.2953 12.4934 97.2069 12.637C97.0946 12.8192 97.0375 13.0235 97.0375 13.2461C97.0375 13.4835 97.0946 13.6915 97.2087 13.8663C97.2971 14.0043 97.4776 14.1681 97.8275 14.1681H106.745C106.844 14.1681 106.864 14.1865 106.864 14.2877V15.0459C106.864 15.1159 106.864 15.1472 106.745 15.1472H98.7207C98.1093 15.1472 97.6913 15.2631 97.4445 15.5023C97.1959 15.7434 97.0761 16.152 97.0761 16.7519V18.1561C97.0761 18.756 97.1977 19.1645 97.4463 19.4075C97.6931 19.6467 98.1111 19.7626 98.7226 19.7626H108.682C109.028 19.7626 109.212 19.6007 109.308 19.4664C109.432 19.2897 109.494 19.078 109.494 18.8406C109.494 18.6161 109.433 18.41 109.31 18.226C109.216 18.0843 109.03 17.9168 108.682 17.9168L108.68 17.915Z" fill="#323639"/>
<path d="M119.252 11.264C119.501 11.023 119.621 10.6144 119.621 10.0145V3.83291C119.621 3.51821 119.501 3.27529 119.267 3.11151C119.053 2.96428 118.81 2.89067 118.547 2.89067C118.284 2.89067 118.059 2.96612 117.843 3.11335C117.608 3.27529 117.49 3.51821 117.49 3.83291V5.79099H114.366V3.83291C114.366 3.52189 114.245 3.27345 114.013 3.11151C113.799 2.96428 113.564 2.89067 113.311 2.89067C113.059 2.89067 112.805 2.96612 112.589 3.11335C112.357 3.27345 112.234 3.52373 112.234 3.83291V10.0126C112.234 10.6144 112.355 11.023 112.602 11.2622C112.847 11.5014 113.265 11.6192 113.878 11.6192H117.976C118.587 11.6192 119.006 11.5033 119.252 11.264ZM117.488 7.73435V9.48264C117.488 9.61514 117.457 9.67771 117.273 9.67771H114.58C114.398 9.67771 114.365 9.61514 114.365 9.48264V7.73435H117.488Z" fill="#323639"/>
<path d="M126.643 2.20979C126.429 2.06993 126.188 2 125.925 2C125.661 2 125.44 2.06993 125.227 2.20979C124.993 2.36438 124.867 2.61098 124.867 2.92383V6.28422H123.206V3.01769C123.206 2.70484 123.083 2.46008 122.849 2.30549C122.635 2.16563 122.394 2.0957 122.131 2.0957C121.867 2.0957 121.645 2.16563 121.433 2.30549C121.199 2.46008 121.074 2.70484 121.074 3.01769V11.7205C121.074 12.0352 121.197 12.2799 121.433 12.4327C121.646 12.5725 121.88 12.6425 122.131 12.6425C122.381 12.6425 122.635 12.5725 122.847 12.4327C123.081 12.2799 123.204 12.0333 123.204 11.7205V8.24599H124.866V11.8143C124.866 12.1272 124.989 12.3738 125.225 12.5284C125.436 12.6682 125.672 12.7382 125.923 12.7382C126.186 12.7382 126.429 12.6682 126.641 12.5284C126.875 12.3738 127 12.1272 127 11.8143V2.92383C127 2.61098 126.877 2.36438 126.641 2.20979H126.643Z" fill="#323639"/>
<path d="M125.355 13.1854H115.604C115.225 13.1854 115.028 13.3639 114.928 13.5148C114.801 13.708 114.737 13.9325 114.737 14.1846C114.737 14.4368 114.801 14.6613 114.928 14.8545C115.072 15.0735 115.298 15.1839 115.604 15.1839H124.521C124.703 15.1839 124.735 15.2465 124.735 15.379V19.0191C124.735 19.4461 124.934 19.6669 125.101 19.7792C125.32 19.9246 125.578 20 125.867 20C126.157 20 126.413 19.9264 126.634 19.7792C126.877 19.6172 127 19.3614 127 19.0191V14.7919C127 14.192 126.878 13.7835 126.63 13.5405C126.383 13.3013 125.965 13.1854 125.354 13.1854H125.355Z" fill="#323639"/>
<defs>
<radialGradient id="paint0_angular_215_1596" cx="0" cy="0" r="1" gradientUnits="userSpaceOnUse" gradientTransform="translate(13.5 13.5) rotate(-146.768) scale(17.3349 36.2525)">
<stop stop-color="#3182F7"/>
<stop offset="0.162692" stop-color="#F23A47"/>
<stop offset="0.469054" stop-color="#ED3180"/>
<stop offset="0.802083" stop-color="#883BE0"/>
</radialGradient>
<radialGradient id="paint1_angular_215_1596" cx="0" cy="0" r="1" gradientUnits="userSpaceOnUse" gradientTransform="translate(7.5 12) rotate(-111.801) scale(8.07775 16.8269)">
<stop offset="0.162692" stop-color="#F23A47"/>
<stop offset="0.469054" stop-color="#ED3180"/>
<stop offset="0.802083" stop-color="#883BE0"/>
<stop offset="0.999768" stop-color="#3182F7"/>
</radialGradient>
<clipPath id="clip0_215_1596">
<rect width="91.9312" height="22" fill="white"/>
</clipPath>
</defs>
</svg>
