<svg width="24" height="24" viewBox="0 0 24 24" fill="none" xmlns="http://www.w3.org/2000/svg">
<path d="M19 10.456V16.5625C19 17.1851 18.746 17.7841 18.2899 18.2367C17.8338 18.6892 17.2102 18.961 16.5472 18.9963L16.4 19H5.6C4.93589 19 4.29694 18.7618 3.81422 18.3342C3.33149 17.9067 3.0416 17.3221 3.004 16.7005L3 16.5625V10.456L10.7216 14.248C10.8075 14.2902 10.903 14.3122 11 14.3122C11.097 14.3122 11.1925 14.2902 11.2784 14.248L19 10.456ZM5.6 7H16.4C17.0445 6.99993 17.666 7.22425 18.144 7.62945C18.6221 8.03465 18.9226 8.59186 18.9872 9.193L11 13.1155L3.0128 9.193C3.07482 8.61573 3.35444 8.07814 3.8014 7.67685C4.24836 7.27556 4.83335 7.03689 5.4512 7.00375L5.6 7H16.4H5.6Z" fill="#A3ABB8"/>
<ellipse cx="16" cy="8" rx="5" ry="5" fill="white"/>
<path fill-rule="evenodd" clip-rule="evenodd" d="M12.9358 11.0638C13.7484 11.8765 14.8506 12.333 15.9999 12.333C17.1492 12.333 18.2514 11.8765 19.064 11.0638C19.8767 10.2511 20.3333 9.14895 20.3333 7.99967C20.3333 6.8504 19.8767 5.7482 19.064 4.93554C18.2514 4.12289 17.1492 3.66634 15.9999 3.66634C14.8506 3.66634 13.7484 4.12289 12.9358 4.93554C12.1231 5.7482 11.6666 6.8504 11.6666 7.99967C11.6666 9.14895 12.1231 10.2511 12.9358 11.0638ZM15.8849 10.2483L15.8297 10.2932L15.7699 10.3279C15.7078 10.3561 15.6394 10.3678 15.5715 10.3617C15.5035 10.3557 15.4383 10.332 15.3822 10.2932L15.3279 10.2483L13.3345 8.25258L13.3046 8.21319L13.2723 8.15016L13.2518 8.08477L13.2439 8.03434V7.96501L13.2518 7.91458L13.2723 7.84919L13.3054 7.78616L13.3337 7.74677L15.3271 5.75107L15.3822 5.70616C15.4581 5.65427 15.5496 5.63052 15.6411 5.63902C15.7326 5.64752 15.8183 5.68774 15.8832 5.75272C15.9482 5.81769 15.9884 5.90333 15.9969 5.99482C16.0054 6.08632 15.9817 6.1779 15.9298 6.25374L15.8849 6.30889L14.5865 7.60652L18.3683 7.60574L18.4392 7.61204C18.5179 7.62642 18.5904 7.66443 18.647 7.72101C18.7035 7.77759 18.7415 7.85005 18.7559 7.92877L18.7622 7.99967L18.7559 8.07058C18.7415 8.1493 18.7035 8.22176 18.647 8.27834C18.5904 8.33492 18.5179 8.37293 18.4392 8.38731L18.3683 8.39361L14.588 8.3944L15.8849 9.69046L15.9298 9.74561C15.9752 9.8114 15.9995 9.88944 15.9995 9.96937C15.9995 10.0493 15.9752 10.1273 15.9298 10.1931L15.8849 10.2483Z" fill="#00A7EE"/>
</svg>
