<svg width="17" height="20" viewBox="0 0 17 20" fill="none" xmlns="http://www.w3.org/2000/svg">
<path d="M13.754 12C14.0495 12 14.342 12.0582 14.6149 12.1713C14.8878 12.2844 15.1358 12.4501 15.3447 12.6591C15.5535 12.868 15.7192 13.1161 15.8321 13.389C15.9451 13.662 16.0032 13.9546 16.003 14.25V15.168C16.0027 15.7411 15.8234 16.2998 15.49 16.766C13.945 18.93 11.42 20.001 8.00003 20.001C4.57903 20.001 2.05603 18.929 0.514028 16.765C0.182154 16.299 0.00387747 15.7411 0.00402842 15.169V14.249C0.00402818 13.6529 0.240701 13.0811 0.662038 12.6594C1.08337 12.2377 1.6549 12.0005 2.25103 12H13.753H13.754ZM8.00003 0.00499725C8.65664 0.00499724 9.30682 0.134326 9.91345 0.385599C10.5201 0.636873 11.0713 1.00517 11.5356 1.46946C11.9999 1.93376 12.3682 2.48495 12.6194 3.09158C12.8707 3.69821 13 4.34839 13 5.005C13 5.66161 12.8707 6.31179 12.6194 6.91841C12.3682 7.52504 11.9999 8.07624 11.5356 8.54053C11.0713 9.00482 10.5201 9.37312 9.91345 9.62439C9.30682 9.87567 8.65664 10.005 8.00003 10.005C6.67395 10.005 5.40218 9.47821 4.46449 8.54053C3.52681 7.60285 3.00003 6.33108 3.00003 5.005C3.00003 3.67891 3.52681 2.40715 4.46449 1.46946C5.40218 0.531781 6.67395 0.00499725 8.00003 0.00499725Z" fill="#35394A"/>
</svg>
