<svg width="18" height="18" viewBox="0 0 18 18" fill="none" xmlns="http://www.w3.org/2000/svg">
<path d="M8.58894 10.2839C8.0153 11.1794 7.71118 12.221 7.71282 13.2846C7.71282 14.6941 8.23575 15.9818 9.09901 16.9626C8.41149 17.0844 7.66309 17.1435 6.85555 17.1435C4.37805 17.1435 2.45949 16.5811 1.11959 15.4288C0.768396 15.127 0.48654 14.7529 0.293307 14.3321C0.100073 13.9112 2.2316e-05 13.4536 0 12.9905V12.2129C0 11.7013 0.203217 11.2106 0.564946 10.8489C0.926675 10.4871 1.41728 10.2839 1.92885 10.2839H8.58894Z" fill="#ABB6C5"/>
<path d="M6.85555 0C7.41844 -8.38849e-09 7.97582 0.110879 8.49586 0.326308C9.0159 0.541737 9.48842 0.857495 9.88644 1.25556C10.2845 1.65362 10.6002 2.12618 10.8156 2.64627C11.031 3.16636 11.1419 3.72379 11.1419 4.28674C11.1419 4.84968 11.031 5.40711 10.8156 5.9272C10.6002 6.44729 10.2845 6.91985 9.88644 7.31791C9.48842 7.71597 9.0159 8.03173 8.49586 8.24716C7.97582 8.46259 7.41844 8.57347 6.85555 8.57347C5.71875 8.57347 4.6285 8.12183 3.82466 7.31791C3.02082 6.514 2.56922 5.42365 2.56922 4.28674C2.56922 3.14982 3.02082 2.05947 3.82466 1.25556C4.6285 0.451637 5.71875 0 6.85555 0Z" fill="#ABB6C5"/>
<path fill-rule="evenodd" clip-rule="evenodd" d="M13.285 8.56918C14.5355 8.56918 15.7348 9.06598 16.619 9.95029C17.5032 10.8346 18 12.034 18 13.2846C18 14.5352 17.5032 15.7346 16.619 16.6189C15.7348 17.5032 14.5355 18 13.285 18C12.0346 18 10.8353 17.5032 9.95106 16.6189C9.06683 15.7346 8.57008 14.5352 8.57008 13.2846C8.57008 12.034 9.06683 10.8346 9.95106 9.95029C10.8353 9.06598 12.0346 8.56918 13.285 8.56918ZM11.1625 11.1618L11.2207 11.1121H11.2216L11.2868 11.0752C11.3543 11.0444 11.4287 11.0317 11.5026 11.0383C11.5766 11.045 11.6475 11.0707 11.7085 11.1129L11.7677 11.1618L13.285 12.6793L14.8041 11.1618L14.8633 11.1129C14.9348 11.0635 15.0198 11.0371 15.1067 11.0371C15.1937 11.0371 15.2786 11.0635 15.3502 11.1129L15.4102 11.1618L15.4599 11.2218C15.5093 11.2934 15.5358 11.3783 15.5358 11.4653C15.5358 11.5523 15.5093 11.6372 15.4599 11.7088L15.4102 11.7688L13.8911 13.2846L15.4076 14.8021L15.4574 14.8613C15.5068 14.9328 15.5332 15.0178 15.5332 15.1047C15.5332 15.1917 15.5068 15.2766 15.4574 15.3482L15.4085 15.4082L15.3485 15.458C15.2769 15.5074 15.192 15.5338 15.105 15.5338C15.018 15.5338 14.9331 15.5074 14.8616 15.458L14.8024 15.4091L13.285 13.8916L11.7711 15.4065L11.7111 15.4563C11.6395 15.5057 11.5546 15.5321 11.4676 15.5321C11.3807 15.5321 11.2958 15.5057 11.2242 15.4563L11.1642 15.4065L11.1144 15.3474C11.0649 15.2757 11.0383 15.1906 11.0383 15.1035C11.0383 15.0163 11.0649 14.9312 11.1144 14.8595L11.1642 14.8004L12.6798 13.2854L11.1625 11.7688L11.1127 11.7088C11.0633 11.6372 11.0369 11.5523 11.0369 11.4653C11.0369 11.3783 11.0633 11.2934 11.1127 11.2218L11.1625 11.1618Z" fill="#E95548"/>
</svg>
