<svg width="36" height="36" viewBox="0 0 36 36" fill="none" xmlns="http://www.w3.org/2000/svg">
<path d="M5 6.75C5 5.75544 5.42143 4.80161 6.17157 4.09835C6.92172 3.39509 7.93913 3 9 3H21C22.0609 3 23.0783 3.39509 23.8284 4.09835C24.5786 4.80161 25 5.75544 25 6.75V29.25C25 30.2446 24.5786 31.1984 23.8284 31.9016C23.0783 32.6049 22.0609 33 21 33H9C7.93913 33 6.92172 32.6049 6.17157 31.9016C5.42143 31.1984 5 30.2446 5 29.25V6.75ZM17 27.375C17 26.8777 16.7893 26.4008 16.4142 26.0492C16.0391 25.6975 15.5304 25.5 15 25.5C14.4696 25.5 13.9609 25.6975 13.5858 26.0492C13.2107 26.4008 13 26.8777 13 27.375C13 27.8723 13.2107 28.3492 13.5858 28.7008C13.9609 29.0525 14.4696 29.25 15 29.25C15.5304 29.25 16.0391 29.0525 16.4142 28.7008C16.7893 28.3492 17 27.8723 17 27.375Z" fill="#A3ABB8"/>
<rect x="7" y="5" width="16" height="19" rx="2" fill="white"/>
<circle cx="23.5" cy="14.5" r="7.5" fill="white"/>
<path fill-rule="evenodd" clip-rule="evenodd" d="M18.9038 19.0962C20.1228 20.3152 21.7761 21 23.5 21C25.2239 21 26.8772 20.3152 28.0962 19.0962C29.3152 17.8772 30 16.2239 30 14.5C30 12.7761 29.3152 11.1228 28.0962 9.90381C26.8772 8.68482 25.2239 8 23.5 8C21.7761 8 20.1228 8.68482 18.9038 9.90381C17.6848 11.1228 17 12.7761 17 14.5C17 16.2239 17.6848 17.8772 18.9038 19.0962ZM23.3275 17.8729L23.2447 17.9403L23.1549 17.9923C23.0618 18.0347 22.9592 18.0522 22.8573 18.0431C22.7554 18.034 22.6576 17.9985 22.5735 17.9403L22.4919 17.8729L19.5019 14.8794L19.457 14.8203L19.4085 14.7257L19.3778 14.6276L19.366 14.552V14.448L19.3778 14.3724L19.4085 14.2743L19.4582 14.1797L19.5007 14.1206L22.4907 11.1271L22.5735 11.0597C22.6872 10.9819 22.8246 10.9463 22.9618 10.959C23.0991 10.9718 23.2275 11.0321 23.325 11.1296C23.4224 11.227 23.4828 11.3555 23.4955 11.4927C23.5083 11.63 23.4727 11.7673 23.3948 11.8811L23.3275 11.9638L21.3798 13.9103L27.0525 13.9091L27.1589 13.9185C27.277 13.9401 27.3857 13.9971 27.4705 14.082C27.5554 14.1669 27.6124 14.2756 27.634 14.3936L27.6435 14.5L27.634 14.6064C27.6124 14.7244 27.5554 14.8331 27.4705 14.918C27.3857 15.0029 27.277 15.0599 27.1589 15.0815L27.0525 15.0909L21.3822 15.0921L23.3275 17.0362L23.3948 17.1189C23.4629 17.2176 23.4994 17.3346 23.4994 17.4545C23.4994 17.5744 23.4629 17.6915 23.3948 17.7902L23.3275 17.8729Z" fill="#17BB7F"/>
</svg>
