<svg width="20" height="20" viewBox="0 0 20 20" fill="none" xmlns="http://www.w3.org/2000/svg">
<rect width="20" height="20" fill="white"/>
<path fill-rule="evenodd" clip-rule="evenodd" d="M15.9133 10.7303C15.2175 10.0286 14.2737 9.63445 13.2897 9.63445C12.3057 9.63445 11.3619 10.0286 10.6661 10.7303C9.9703 11.4319 9.57939 12.3836 9.57939 13.3759C9.57939 14.3681 9.9703 15.3198 10.6661 16.0214C11.3619 16.7231 12.3057 17.1173 13.2897 17.1173C14.2737 17.1173 15.2175 16.7231 15.9133 16.0214C16.6091 15.3198 17 14.3681 17 13.3759C17 12.3836 16.6091 11.4319 15.9133 10.7303ZM13.2897 13.3759H14.6389C14.7284 13.3759 14.8141 13.4117 14.8774 13.4755C14.9407 13.5393 14.9762 13.6258 14.9762 13.716C14.9762 13.8062 14.9407 13.8927 14.8774 13.9565C14.8141 14.0203 14.7284 14.0561 14.6389 14.0561H12.9524C12.8629 14.0561 12.7771 14.0203 12.7139 13.9565C12.6506 13.8927 12.6151 13.8062 12.6151 13.716V11.6752C12.6151 11.585 12.6506 11.4985 12.7139 11.4347C12.7771 11.3709 12.8629 11.3351 12.9524 11.3351C13.0419 11.3351 13.1276 11.3709 13.1909 11.4347C13.2542 11.4985 13.2897 11.585 13.2897 11.6752V13.3759Z" fill="#17BB7F"/>
<path d="M10.1292 9.76846L5.04809 10.6222C4.98968 10.632 4.93486 10.6572 4.88915 10.6952C4.84344 10.7331 4.80845 10.7826 4.7877 10.8385L3.03576 15.5717C2.86846 16.0071 3.31977 16.422 3.73397 16.2125L8.91086 13.6024C8.86726 12.7485 9.07009 11.9002 9.49479 11.1602C9.9195 10.4202 10.5478 9.82025 11.3038 9.43297C12.0597 9.04569 12.9107 8.88771 13.7539 8.97816C14.597 9.06861 15.396 9.40361 16.0542 9.9426C16.0989 9.88276 16.13 9.81375 16.1453 9.74046C16.1606 9.66717 16.1597 9.59139 16.1428 9.51846C16.1259 9.44553 16.0933 9.37724 16.0473 9.31841C16.0014 9.25958 15.9431 9.21165 15.8768 9.17799L3.73397 3.05568C3.31977 2.84685 2.86846 3.2618 3.03576 3.69649L4.78837 8.42971C4.80912 8.48565 4.84411 8.53509 4.88982 8.57306C4.93553 8.61103 4.99035 8.6362 5.04877 8.64603L10.1299 9.49975C10.1616 9.50486 10.1904 9.52119 10.2112 9.54581C10.2321 9.57043 10.2435 9.60174 10.2435 9.63411C10.2435 9.66647 10.2321 9.69778 10.2112 9.7224C10.1904 9.74703 10.1609 9.76335 10.1292 9.76846Z" fill="#4C5866"/>
</svg>
