<svg width="36" height="36" viewBox="0 0 36 36" fill="none" xmlns="http://www.w3.org/2000/svg">
<path d="M5 6.75C5 5.75544 5.42143 4.80161 6.17157 4.09835C6.92172 3.39509 7.93913 3 9 3H21C22.0609 3 23.0783 3.39509 23.8284 4.09835C24.5786 4.80161 25 5.75544 25 6.75V29.25C25 30.2446 24.5786 31.1984 23.8284 31.9016C23.0783 32.6049 22.0609 33 21 33H9C7.93913 33 6.92172 32.6049 6.17157 31.9016C5.42143 31.1984 5 30.2446 5 29.25V6.75ZM17 27.375C17 26.8777 16.7893 26.4008 16.4142 26.0492C16.0391 25.6975 15.5304 25.5 15 25.5C14.4696 25.5 13.9609 25.6975 13.5858 26.0492C13.2107 26.4008 13 26.8777 13 27.375C13 27.8723 13.2107 28.3492 13.5858 28.7008C13.9609 29.0525 14.4696 29.25 15 29.25C15.5304 29.25 16.0391 29.0525 16.4142 28.7008C16.7893 28.3492 17 27.8723 17 27.375Z" fill="#A3ABB8"/>
<rect x="7" y="5" width="16" height="19" rx="2" fill="white"/>
<circle cx="23.5" cy="14.5" r="7.5" fill="white"/>
<path fill-rule="evenodd" clip-rule="evenodd" d="M28.0962 9.90381C26.8772 8.68482 25.2239 8 23.5 8C21.7761 8 20.1228 8.68482 18.9038 9.90381C17.6848 11.1228 17 12.7761 17 14.5C17 16.2239 17.6848 17.8772 18.9038 19.0962C20.1228 20.3152 21.7761 21 23.5 21C25.2239 21 26.8772 20.3152 28.0962 19.0962C29.3152 17.8772 30 16.2239 30 14.5C30 12.7761 29.3152 11.1228 28.0962 9.90381ZM23.6725 11.1271L23.7553 11.0597L23.8451 11.0077C23.9382 10.9653 24.0408 10.9478 24.1427 10.9569C24.2446 10.966 24.3424 11.0015 24.4265 11.0597L24.5081 11.1271L27.4981 14.1206L27.543 14.1797L27.5915 14.2743L27.6222 14.3724L27.634 14.448V14.552L27.6222 14.6276L27.5915 14.7257L27.5418 14.8203L27.4993 14.8794L24.5093 17.8729L24.4265 17.9403C24.3128 18.0181 24.1754 18.0537 24.0382 18.041C23.9009 18.0282 23.7725 17.9679 23.675 17.8704C23.5776 17.773 23.5172 17.6445 23.5045 17.5073C23.4917 17.37 23.5273 17.2327 23.6052 17.1189L23.6725 17.0362L25.6202 15.0897L19.9475 15.0909L19.8411 15.0815C19.723 15.0599 19.6143 15.0029 19.5295 14.918C19.4446 14.8331 19.3876 14.7244 19.366 14.6064L19.3565 14.5L19.366 14.3936C19.3876 14.2756 19.4446 14.1669 19.5295 14.082C19.6143 13.9971 19.723 13.9401 19.8411 13.9185L19.9475 13.9091L25.6178 13.9079L23.6725 11.9638L23.6052 11.8811C23.5371 11.7824 23.5006 11.6654 23.5006 11.5455C23.5006 11.4256 23.5371 11.3085 23.6052 11.2098L23.6725 11.1271Z" fill="#3182F7"/>
</svg>
