<svg width="24" height="24" viewBox="0 0 24 24" fill="none" xmlns="http://www.w3.org/2000/svg">
<path d="M12.013 2.25C12.747 2.258 13.478 2.343 14.194 2.503C14.3465 2.53705 14.4846 2.6179 14.589 2.73426C14.6933 2.85062 14.7587 2.99667 14.776 3.152L14.946 4.679C14.97 4.89441 15.0442 5.10119 15.1627 5.28268C15.2812 5.46416 15.4406 5.61528 15.6282 5.72386C15.8158 5.83244 16.0262 5.89545 16.2426 5.9078C16.459 5.92016 16.6753 5.88152 16.874 5.795L18.274 5.18C18.4163 5.11735 18.5745 5.10044 18.7267 5.13161C18.879 5.16278 19.0178 5.24049 19.124 5.354C20.1359 6.43511 20.8895 7.73162 21.328 9.146C21.374 9.29464 21.3726 9.45389 21.3241 9.60171C21.2755 9.74953 21.1822 9.87858 21.057 9.971L19.815 10.887C19.6402 11.0152 19.4981 11.1829 19.4002 11.3763C19.3023 11.5697 19.2513 11.7835 19.2514 12.0003C19.2515 12.217 19.3026 12.4308 19.4007 12.6241C19.4988 12.8174 19.6411 12.9849 19.816 13.113L21.059 14.028C21.1844 14.1205 21.2778 14.2497 21.3264 14.3977C21.375 14.5458 21.3762 14.7052 21.33 14.854C20.8916 16.2682 20.1384 17.5647 19.127 18.646C19.021 18.7595 18.8824 18.8372 18.7304 18.8686C18.5783 18.8999 18.4202 18.8833 18.278 18.821L16.872 18.204C16.6736 18.1168 16.4573 18.0776 16.2409 18.0895C16.0245 18.1015 15.8139 18.1642 15.6262 18.2727C15.4386 18.3812 15.2791 18.5324 15.1607 18.714C15.0424 18.8956 14.9685 19.1025 14.945 19.318L14.776 20.844C14.759 20.9976 14.6949 21.1423 14.5925 21.2581C14.4901 21.3739 14.3544 21.4553 14.204 21.491C12.7559 21.8355 11.2471 21.8355 9.79901 21.491C9.64861 21.4553 9.51294 21.3739 9.41054 21.2581C9.30815 21.1423 9.24405 20.9976 9.22701 20.844L9.05701 19.32C9.03241 19.1054 8.95787 18.8996 8.83937 18.7191C8.72086 18.5385 8.56169 18.3883 8.37462 18.2803C8.18755 18.1724 7.9778 18.1098 7.76218 18.0976C7.54656 18.0854 7.33107 18.1239 7.13301 18.21L5.72601 18.826C5.58379 18.8883 5.42574 18.9049 5.27367 18.8736C5.1216 18.8422 4.983 18.7645 4.87701 18.651C3.86508 17.5685 3.11185 16.2706 2.67401 14.855C2.6278 14.7062 2.62907 14.5468 2.67763 14.3987C2.7262 14.2507 2.81965 14.1215 2.94501 14.029L4.18901 13.113C4.36386 12.9848 4.50605 12.8173 4.60406 12.6239C4.70207 12.4305 4.75315 12.2168 4.75315 12C4.75315 11.7832 4.70207 11.5695 4.60406 11.3761C4.50605 11.1827 4.36386 11.0152 4.18901 10.887L2.94601 9.973C2.82047 9.88065 2.72682 9.75148 2.67807 9.60345C2.62933 9.45542 2.62791 9.29588 2.67401 9.147C3.11283 7.73253 3.86674 6.43601 4.87901 5.355C4.98512 5.2417 5.12377 5.16412 5.27584 5.13296C5.4279 5.10179 5.58589 5.11858 5.72801 5.181L7.12801 5.796C7.32703 5.88227 7.54351 5.92066 7.76006 5.90809C7.97661 5.89551 8.18719 5.83232 8.37488 5.7236C8.56258 5.61487 8.72216 5.46363 8.8408 5.28204C8.95944 5.10045 9.03384 4.89356 9.05801 4.678L9.22801 3.152C9.24517 2.99635 9.31062 2.84998 9.41517 2.73341C9.51972 2.61684 9.65814 2.53592 9.81101 2.502C10.529 2.343 11.261 2.259 12.013 2.25ZM12 9C11.2044 9 10.4413 9.31607 9.87869 9.87868C9.31608 10.4413 9.00001 11.2044 9.00001 12C9.00001 12.7956 9.31608 13.5587 9.87869 14.1213C10.4413 14.6839 11.2044 15 12 15C12.7957 15 13.5587 14.6839 14.1213 14.1213C14.6839 13.5587 15 12.7956 15 12C15 11.2044 14.6839 10.4413 14.1213 9.87868C13.5587 9.31607 12.7957 9 12 9Z" fill="#35394A"/>
<rect x="12" y="12" width="12" height="12" rx="6" fill="white"/>
<path fill-rule="evenodd" clip-rule="evenodd" d="M18.008 18.2699L14.0116 15.9188C14.0538 15.5955 14.2112 15.2987 14.4544 15.0836C14.6975 14.8686 15.0099 14.75 15.3333 14.75H20.6667C21.0203 14.75 21.3594 14.8917 21.6095 15.1438C21.8595 15.3959 22 15.7379 22 16.0945V16.1026L18.0089 18.2699H18.008ZM18.2107 19.1779L22 17.1208V19.6798C22 20.0364 21.8595 20.3784 21.6095 20.6305C21.3594 20.8827 21.0203 21.0243 20.6667 21.0243H15.3333C14.9797 21.0243 14.6406 20.8827 14.3905 20.6305C14.1405 20.3784 14 20.0364 14 19.6798V16.9496L17.776 19.1707C17.8419 19.2095 17.9166 19.2305 17.9928 19.2318C18.0691 19.2331 18.1436 19.2145 18.2107 19.1779Z" fill="#E95548"/>
</svg>
