<svg width="18" height="16" viewBox="0 0 18 16" fill="none" xmlns="http://www.w3.org/2000/svg">
<path d="M16 7.00003H4.14L7.77 2.64003C7.93974 2.43581 8.0214 2.17253 7.99702 1.90811C7.97264 1.64368 7.84422 1.39977 7.64 1.23003C7.43578 1.06029 7.1725 0.978631 6.90808 1.00301C6.64365 1.02739 6.39974 1.15581 6.23 1.36003L1.23 7.36003C1.19636 7.40776 1.16628 7.45789 1.14 7.51003C1.14 7.56003 1.14 7.59003 1.07 7.64003C1.02467 7.75469 1.00094 7.87674 1 8.00003C1.00094 8.12332 1.02467 8.24537 1.07 8.36003C1.07 8.41003 1.07 8.44003 1.14 8.49003C1.16628 8.54217 1.19636 8.59231 1.23 8.64003L6.23 14.64C6.32402 14.7529 6.44176 14.8437 6.57485 14.9059C6.70793 14.9681 6.85309 15.0003 7 15C7.23365 15.0005 7.46009 14.9191 7.64 14.77C7.74126 14.6861 7.82496 14.583 7.88631 14.4666C7.94766 14.3503 7.98546 14.223 7.99754 14.092C8.00961 13.961 7.99573 13.829 7.95669 13.7034C7.91764 13.5777 7.8542 13.4611 7.77 13.36L4.14 9.00003H16C16.2652 9.00003 16.5196 8.89467 16.7071 8.70714C16.8946 8.5196 17 8.26525 17 8.00003C17 7.73482 16.8946 7.48046 16.7071 7.29292C16.5196 7.10539 16.2652 7.00003 16 7.00003Z" fill="#35394A" stroke="#35394A" stroke-width="0.5"/>
</svg>
