<svg width="60" height="60" viewBox="0 0 60 60" fill="none" xmlns="http://www.w3.org/2000/svg">
<path d="M47.15 5H32.15C29.8294 5 27.6038 5.92187 25.9628 7.56282C24.3219 9.20376 23.4 11.4294 23.4 13.75V23.75C23.4 26.0706 24.3219 28.2962 25.9628 29.9372C27.6038 31.5781 29.8294 32.5 32.15 32.5H40.375L46.875 39C47.1135 39.2393 47.4372 39.3742 47.775 39.375C47.9314 39.4104 48.0937 39.4104 48.25 39.375C48.4783 39.2812 48.6737 39.122 48.8116 38.9173C48.9495 38.7127 49.0238 38.4718 49.025 38.225V32.275C50.9657 31.84 52.7018 30.7604 53.9503 29.2123C55.1988 27.6642 55.886 25.7388 55.9 23.75V13.75C55.9 11.4294 54.9781 9.20376 53.3372 7.56282C51.6963 5.92187 49.4707 5 47.15 5ZM53.4 23.75C53.4169 25.3279 52.8315 26.8528 51.7632 28.0141C50.6948 29.1753 49.2238 29.8856 47.65 30C47.3361 30.0252 47.0433 30.1679 46.8301 30.3997C46.6169 30.6314 46.499 30.9351 46.5 31.25V35L41.75 30.275C41.6384 30.1549 41.5029 30.0595 41.3522 29.9949C41.2015 29.9303 41.039 29.898 40.875 29.9H32.125C30.4674 29.9 28.8777 29.2415 27.7056 28.0694C26.5335 26.8973 25.875 25.3076 25.875 23.65V13.65C25.9013 12.0055 26.5748 10.4376 27.7495 9.28629C28.9242 8.13503 30.5053 7.49321 32.15 7.5H47.15C48.8076 7.5 50.3973 8.15848 51.5694 9.33058C52.7415 10.5027 53.4 12.0924 53.4 13.75V23.75Z" fill="#222222"/>
<path d="M33.4 41.25C33.4 42.9076 32.7415 44.4973 31.5694 45.6694C30.3973 46.8415 28.8076 47.5 27.15 47.5H18.4C18.2323 47.4976 18.0659 47.5296 17.9111 47.5941C17.7563 47.6586 17.6164 47.7542 17.5 47.875L12.775 52.5V48.7C12.776 48.3851 12.6582 48.0814 12.4449 47.8497C12.2317 47.6179 11.9389 47.4752 11.625 47.45C10.0686 47.3188 8.61776 46.6096 7.55815 45.4621C6.49854 44.3146 5.907 42.8119 5.90002 41.25V31.25C5.90002 29.5924 6.5585 28.0027 7.73061 26.8306C8.90271 25.6585 10.4924 25 12.15 25H19.65V22.5H12.15C9.82938 22.5 7.60378 23.4219 5.96284 25.0628C4.3219 26.7038 3.40002 28.9294 3.40002 31.25V41.25C3.40952 43.24 4.09512 45.1676 5.34435 46.7167C6.59358 48.2657 8.33223 49.3441 10.275 49.775V55.625C10.2763 55.8718 10.3505 56.1127 10.4884 56.3173C10.6263 56.522 10.8218 56.6812 11.05 56.775C11.2062 56.8122 11.3689 56.8122 11.525 56.775C11.6978 56.8013 11.8741 56.7904 12.0423 56.743C12.2104 56.6956 12.3665 56.6127 12.5 56.5L18.9 50H27.15C29.4707 50 31.6963 49.0781 33.3372 47.4372C34.9782 45.7962 35.9 43.5706 35.9 41.25V36.25H33.4V41.25Z" fill="#222222"/>
<path d="M42.3 15.65L38.925 19.225L36.925 17.5C36.6871 17.2694 36.3688 17.1404 36.0375 17.1404C35.7062 17.1404 35.3879 17.2694 35.15 17.5C35.0329 17.6162 34.9399 17.7545 34.8764 17.9068C34.8129 18.0591 34.7803 18.2225 34.7803 18.3875C34.7803 18.5525 34.8129 18.7159 34.8764 18.8682C34.9399 19.0205 35.0329 19.1588 35.15 19.275L38.05 21.95C38.2825 22.1613 38.5859 22.2773 38.9 22.275C39.1043 22.3024 39.3122 22.2779 39.5045 22.2036C39.6968 22.1293 39.8672 22.0077 40 21.85L44.125 17.5C44.3538 17.258 44.477 16.935 44.4676 16.6021C44.4583 16.2693 44.317 15.9538 44.075 15.725C43.833 15.4963 43.51 15.373 43.1772 15.3824C42.8443 15.3918 42.5288 15.533 42.3 15.775V15.65Z" fill="#222222"/>
<path d="M17.5 33.025C17.3851 32.9068 17.2481 32.8124 17.0967 32.7472C16.9453 32.682 16.7825 32.6472 16.6177 32.6449C16.4529 32.6426 16.2892 32.6727 16.1361 32.7337C15.9829 32.7946 15.8432 32.8851 15.725 33C15.4864 33.2321 15.3496 33.5494 15.3449 33.8823C15.3426 34.0472 15.3728 34.2108 15.4337 34.364C15.4946 34.5172 15.5851 34.6568 15.7 34.775L17.3 36.4L15.7 38.025C15.4694 38.2629 15.3405 38.5812 15.3405 38.9125C15.3405 39.2438 15.4694 39.5621 15.7 39.8C15.8156 39.9132 15.9524 40.0024 16.1025 40.0625C16.2527 40.1226 16.4133 40.1523 16.575 40.15C16.7465 40.1529 16.9168 40.1212 17.0758 40.0568C17.2347 39.9923 17.379 39.8965 17.5 39.775L19.025 38.2L20.55 39.775C20.7885 40.0143 21.1122 40.1492 21.45 40.15C21.6122 40.1552 21.7736 40.1268 21.9242 40.0666C22.0748 40.0063 22.2113 39.9156 22.325 39.8C22.4422 39.6838 22.5352 39.5455 22.5987 39.3932C22.6621 39.2409 22.6948 39.0775 22.6948 38.9125C22.6948 38.7475 22.6621 38.5841 22.5987 38.4318C22.5352 38.2795 22.4422 38.1412 22.325 38.025L20.75 36.4L22.325 34.775C22.4422 34.6588 22.5352 34.5205 22.5987 34.3682C22.6621 34.2159 22.6948 34.0525 22.6948 33.8875C22.6948 33.7225 22.6621 33.5591 22.5987 33.4068C22.5352 33.2545 22.4422 33.1162 22.325 33C22.0872 32.7694 21.7689 32.6404 21.4375 32.6404C21.1062 32.6404 20.7879 32.7694 20.55 33L19.025 34.575L17.5 33.025Z" fill="#222222"/>
</svg>
