<svg width="105" height="181" viewBox="0 0 105 181" fill="none" xmlns="http://www.w3.org/2000/svg">
<g clip-path="url(#clip0_582_4610)">
<path d="M52.4243 116.563L86.2383 49.606H18.7061L52.4243 116.563Z" fill="#7661CC"/>
<path d="M0 12.4595L18.7065 49.6056H86.2388L105 12.4595H0Z" fill="#D8DBFD"/>
<path d="M54.2789 177.076V99.5332H50.7209V177.076H20.4648V180.633H84.535V177.076H54.2789Z" fill="#7661CC"/>
<path d="M72.2734 0C65.0618 0 59.1228 5.45321 58.3496 12.4596H86.1973C85.4172 5.45321 79.4851 0 72.2734 0Z" fill="#F2614E"/>
<path d="M72.2735 28.0323C80.012 28.0323 86.2863 21.758 86.2863 14.0195C86.2863 13.4926 86.2521 12.9726 86.1973 12.4595H58.3497C58.295 12.9726 58.2607 13.4926 58.2607 14.0195C58.2607 21.758 64.535 28.0323 72.2735 28.0323Z" fill="#B3BDF3"/>
<path d="M52.4728 93.4368C57.8803 93.4368 62.2639 89.0531 62.2639 83.6456C62.2639 78.2381 57.8803 73.8545 52.4728 73.8545C47.0653 73.8545 42.6816 78.2381 42.6816 83.6456C42.6816 89.0531 47.0653 93.4368 52.4728 93.4368Z" fill="#523AB1"/>
<path d="M44.7754 51.6586C44.7754 58.836 50.5981 64.6587 57.7755 64.6587C64.953 64.6587 70.7757 58.836 70.7757 51.6586C70.7757 50.9607 70.7072 50.2765 70.5978 49.606H44.9533C44.8438 50.2765 44.7754 50.9607 44.7754 51.6586Z" fill="#523AB1"/>
<path d="M57.7754 38.6582C51.2958 38.6582 45.9384 43.4067 44.9531 49.6057H70.5976C69.6123 43.4067 64.2549 38.6582 57.7754 38.6582Z" fill="#B3BDF3"/>
</g>
<defs>
<clipPath id="clip0_582_4610">
<rect width="105" height="180.633" fill="white"/>
</clipPath>
</defs>
</svg>
