<svg width="200" height="203" viewBox="0 0 200 203" fill="none" xmlns="http://www.w3.org/2000/svg">
<g clip-path="url(#clip0_582_4591)">
<path d="M74.875 41.9273C59.6889 36.4436 42.3909 36.0202 32.2651 41.9273C22.1394 47.8345 4.84139 68.086 1.0461 86.2257C-2.74919 104.365 3.99966 135.166 17.9207 154.571C31.8418 173.976 53.3584 192.12 67.2844 197.604C81.2105 203.088 89.2244 202.665 92.178 202.665H121.709C121.709 202.665 169.802 174.817 180.351 161.32C190.9 147.817 205.245 123.347 198.073 93.3929C190.9 63.439 136.053 57.5319 125.509 55.8434C114.965 54.155 84.164 46.5594 74.88 41.9224L74.875 41.9273Z" fill="#EAECF9"/>
<path d="M113.411 107.463L101.597 90.0257L88.9409 102.119L55.7496 61.3369L0.0205078 98.9213C0.359195 116.643 6.88391 139.185 17.9211 154.576C31.8422 173.98 53.3588 192.125 67.2849 197.609C81.2059 203.093 89.2248 202.669 92.1784 202.669H121.709C121.709 202.669 169.803 174.822 180.352 161.324C182.732 158.276 185.307 154.665 187.788 150.561L134.504 86.3699L113.411 107.463Z" fill="#D8DBFD"/>
<path d="M113.411 107.463L101.597 90.0257L88.9411 102.119L55.7498 61.3369L25.0886 82.0168C25.0537 87.4756 26.3686 92.3467 30.1539 93.6816C34.9354 95.37 41.4053 93.6816 44.7773 91.7142C48.1542 89.7468 50.1216 86.9327 53.4985 86.9327C56.8754 86.9327 62.7825 90.5886 65.3127 92.277C67.8429 93.9655 82.4712 104.37 83.313 105.217C84.1547 106.059 89.7829 107.184 91.4713 106.059C93.1598 104.933 98.5041 99.5887 100.193 98.7469C101.881 97.9052 104.974 98.1841 106.662 101.277C108.351 104.37 113.695 110.84 113.695 110.84C113.695 110.84 128.319 99.3098 130.291 98.1841C132.258 97.0585 136.477 97.3424 139.291 99.3098C140.173 99.9274 146.269 104.345 154.213 110.113L134.51 86.3749L113.416 107.468L113.411 107.463Z" fill="white"/>
<path d="M42.4362 134.972C40.0504 132.447 37.2463 130.883 31.2197 130.947C31.2695 130.718 31.3043 130.484 31.3043 130.24C31.3043 127.82 28.6197 125.862 25.3126 125.862C23.9628 125.862 22.7176 126.191 21.7165 126.744C21.6418 123.85 19.0319 121.524 15.8193 121.524C12.6068 121.524 9.91223 123.915 9.91223 126.868C9.91223 127.272 9.96702 127.66 10.0567 128.034C9.36436 127.879 8.61725 127.79 7.83528 127.79C6.86404 127.79 5.95258 127.924 5.13574 128.153C5.86292 130.444 6.66482 132.721 7.54142 134.957C7.64103 134.957 7.73567 134.967 7.83528 134.967C7.83528 134.967 42.2967 134.822 42.4412 134.967L42.4362 134.972Z" fill="white"/>
<path d="M72.0364 179.116C68.5649 175.44 64.4807 173.169 55.7097 173.258C55.7844 172.925 55.8342 172.581 55.8342 172.232C55.8342 168.711 51.9294 165.857 47.113 165.857C45.1456 165.857 43.3377 166.34 41.8783 167.142C41.7737 162.928 37.9734 159.542 33.2916 159.542C29.8051 159.542 26.8117 161.424 25.4619 164.124C30.0342 169.448 35.0149 174.508 40.0554 179.051C54.3948 179.011 71.9169 178.991 72.0414 179.111L72.0364 179.116Z" fill="white"/>
<path d="M7.39692 105.102C9.26469 102.806 11.8497 99.2152 10.6991 97.3475C9.9321 96.1023 8.19882 95.6241 5.42457 95.2705L0.0205078 98.9214C0.0952183 102.811 0.46379 106.93 1.12124 111.164C2.38634 110.063 5.88777 106.97 7.4019 105.107L7.39692 105.102Z" fill="white"/>
<path d="M146.988 81.7018C148.532 74.1729 144.266 66.9378 137.459 65.5418C130.653 64.1458 123.883 69.1175 122.339 76.6465C120.795 84.1754 125.061 91.4105 131.868 92.8065C138.674 94.2025 145.444 89.2307 146.988 81.7018Z" fill="#FAB4AD"/>
<path d="M125.977 74.9696V75.9657C125.977 75.9657 121.414 76.9618 118.426 76.9618C116.085 76.9618 113.435 76.658 110.721 75.8063L87.0474 133.244C87.0474 133.244 89.0397 136.73 78.0822 136.73C67.1246 136.73 61.6459 132.746 59.6536 129.259C59.6536 129.259 57.1632 124.278 62.642 117.306L102.986 70.985C104.978 68.9927 108.464 67.9966 111.453 67.9966C114.441 67.9966 127.142 69.2418 127.142 69.2418L125.399 73.4754C123.342 73.2413 119.213 73.2612 118.067 73.9236C118.999 74.4665 124.751 75.0443 125.977 74.9696Z" fill="#FBB5AE"/>
<path d="M128.621 91.6052V98.7375V101.327H137.666H142.662V87.6704L128.621 91.6052Z" fill="#FBB5AE"/>
<path d="M171.969 150.925L177.946 160.887L180.934 196.25L178.16 202.859H187.588L197.864 160.887C198.86 156.404 197.669 152.917 197.017 150.925C196.369 148.933 193.381 143.454 193.381 143.454L171.964 150.925H171.969Z" fill="#FBB5AE"/>
<path d="M92.3615 101.512C99.3893 100.959 116.03 99.4799 122.131 100.586L128.048 97.9956C130.638 100.401 134.518 101.323 136.74 101.323C138.961 101.323 146.542 100.581 149.127 99.8434C155.412 101.507 162.809 104.834 169.283 110.014C175.753 115.194 187.592 127.397 193.136 134.977C198.685 142.558 199.795 145.148 199.795 145.148C200.537 147.18 199.053 147.922 197.021 149.217L194.431 145.706C189.251 145.89 175.201 149.217 172.242 151.807C172.242 151.807 173.537 167.71 173.906 173.075C174.274 178.439 176.68 200.996 177.048 202.66H96.7993C98.0943 191.194 99.9421 172.701 100.311 168.637C100.679 164.573 102.159 137.757 102.159 136.093C102.159 136.093 86.808 139.604 78.8588 139.978C77.7482 134.987 79.2274 124.817 81.2645 118.342C83.2967 111.872 88.8451 104.844 92.3615 101.512Z" fill="#148664"/>
<path d="M156.528 106.597C150.551 109.585 135.584 108.589 132.854 106.597L136.605 82.6897C139.095 80.6974 139.145 76.9719 138.597 75.7167C138.154 74.6957 137.158 73.8191 135.639 73.7743C134.12 73.7294 132.063 75.124 131.888 77.714L130.085 79.1783C127.64 73.7245 127.68 68.0415 127.495 65.6358C127.311 63.2301 128.77 61.975 130.628 61.7708C136.107 60.7746 143.578 60.7746 149.057 63.265C152.996 65.4665 154.784 69.5407 154.849 73.3609C154.914 77.1811 154.232 79.4672 154.107 81.315C152.787 87.4662 155.86 104.55 156.528 106.592V106.597Z" fill="#23130F"/>
<path d="M199.979 145.95C198.271 145.427 196.378 145.526 194.421 145.686C195.148 146.687 195.9 148.281 196.428 149.451C196.627 149.401 196.891 149.277 197.026 149.222C198.356 148.6 200.099 147.409 199.979 145.95Z" fill="#23130F"/>
<path d="M55.0967 0H55.4703C55.8837 0 56.2174 0.333707 56.2174 0.747105V63.1802H54.3496V0.747105C54.3496 0.333707 54.6833 0 55.0967 0Z" fill="#23130F"/>
<path d="M51.9092 7.32155C54.783 4.88101 61.5319 3.73047 65.9797 3.73047C70.4274 3.73047 75.0246 5.16491 77.8985 8.46711C80.9118 12.7754 81.9179 16.506 86.5151 16.9393C91.1123 17.3726 100.586 13.6371 103.604 12.3421C106.622 11.0471 113.227 9.18434 118.825 10.046C111.503 12.631 105.472 18.5182 105.183 21.3871C109.635 18.8021 118.536 18.5132 120.548 18.9465C115.812 20.9587 107.195 24.9781 103.604 28.2803C100.013 31.5825 97.4278 35.602 90.8234 35.7464C84.219 35.8909 81.3451 34.7403 78.7601 33.3059C76.1751 31.8714 75.0246 26.8459 70.7213 26.4126C66.418 25.9793 60.6702 28.5642 57.2236 30.1481C53.7769 31.732 52.4869 31.4381 51.9092 30.0037C51.9092 30.0037 51.9092 7.17213 51.9092 7.31657V7.32155Z" fill="#F2614E"/>
</g>
<defs>
<clipPath id="clip0_582_4591">
<rect width="200" height="202.864" fill="white"/>
</clipPath>
</defs>
</svg>
