<svg width="60" height="60" viewBox="0 0 60 60" fill="none" xmlns="http://www.w3.org/2000/svg">
<g clip-path="url(#clip0_263_1095)">
<path d="M9.67004 30C9.67004 36.1 12.0933 41.9501 16.4066 46.2635C20.7199 50.5768 26.5701 53 32.67 53C38.77 53 44.6202 50.5768 48.9335 46.2635C53.2468 41.9501 55.67 36.1 55.67 30H9.67004Z" fill="#DC4C2C"/>
<path d="M32.67 7V30H55.67C55.67 23.9 53.2468 18.0499 48.9335 13.7365C44.6202 9.42321 38.77 7 32.67 7V7Z" fill="#F7A278"/>
<path d="M32.67 7C26.5701 7 20.7199 9.42321 16.4066 13.7365C12.0933 18.0499 9.67004 23.9 9.67004 30H32.67V7Z" fill="#C06346"/>
<path d="M26.37 41.67H7C6.46957 41.67 5.96086 41.4593 5.58579 41.0842C5.21071 40.7091 5 40.2004 5 39.67V20.29C5 19.7595 5.21071 19.2508 5.58579 18.8758C5.96086 18.5007 6.46957 18.29 7 18.29H26.37C26.9004 18.29 27.4091 18.5007 27.7842 18.8758C28.1593 19.2508 28.37 19.7595 28.37 20.29V39.71C28.3595 40.2334 28.1442 40.7319 27.7703 41.0984C27.3963 41.4649 26.8936 41.6701 26.37 41.67Z" fill="#9B341F"/>
<path d="M17.45 24.18H12V35.85H14.36V31.74H17C18.0609 31.74 19.0783 31.3186 19.8284 30.5684C20.5786 29.8183 21 28.8009 21 27.74V27.67C20.9894 26.7373 20.6101 25.8466 19.9449 25.1927C19.2798 24.5387 18.3828 24.1746 17.45 24.18ZM18.5 28.08C18.5013 28.3194 18.4552 28.5566 18.3642 28.778C18.2732 28.9995 18.1392 29.2006 17.9699 29.3699C17.8006 29.5391 17.5995 29.6732 17.378 29.7642C17.1566 29.8551 16.9194 29.9013 16.68 29.9H14.36V26H16.68C16.9194 25.9987 17.1566 26.0448 17.378 26.1358C17.5995 26.2268 17.8006 26.3608 17.9699 26.5301C18.1392 26.6994 18.2732 26.9005 18.3642 27.1219C18.4552 27.3434 18.5013 27.5806 18.5 27.82V28.08Z" fill="white"/>
</g>
<defs>
<clipPath id="clip0_263_1095">
<rect width="50.67" height="46" fill="white" transform="translate(5 7)"/>
</clipPath>
</defs>
</svg>
