<svg width="60" height="60" viewBox="0 0 60 60" fill="none" xmlns="http://www.w3.org/2000/svg">
<path d="M40 8.825H20C17.0313 8.83146 14.1849 10.0085 12.0786 12.1007C9.97241 14.1929 8.77632 17.0314 8.75 20V40C8.77632 42.9686 9.97241 45.8071 12.0786 47.8993C14.1849 49.9915 17.0313 51.1685 20 51.175H40C42.9687 51.1685 45.8151 49.9915 47.9214 47.8993C50.0276 45.8071 51.2237 42.9686 51.25 40V20C51.2237 17.0314 50.0276 14.1929 47.9214 12.1007C45.8151 10.0085 42.9687 8.83146 40 8.825ZM48.75 40C48.75 42.3206 47.8281 44.5462 46.1872 46.1872C44.5462 47.8281 42.3206 48.75 40 48.75H20C17.6794 48.75 15.4538 47.8281 13.8128 46.1872C12.1719 44.5462 11.25 42.3206 11.25 40V20C11.2698 17.6924 12.2004 15.486 13.8392 13.8612C15.478 12.2365 17.6923 11.3249 20 11.325H40C42.3077 11.3249 44.522 12.2365 46.1608 13.8612C47.7996 15.486 48.7302 17.6924 48.75 20V40Z" fill="#222222"/>
<path d="M30 32.5C31.4834 32.5 32.9334 32.0601 34.1668 31.236C35.4001 30.4119 36.3614 29.2406 36.9291 27.8701C37.4968 26.4997 37.6453 24.9917 37.3559 23.5368C37.0665 22.082 36.3522 20.7456 35.3033 19.6967C34.2544 18.6478 32.918 17.9335 31.4632 17.6441C30.0083 17.3547 28.5003 17.5032 27.1299 18.0709C25.7594 18.6386 24.5881 19.5998 23.764 20.8332C22.9399 22.0666 22.5 23.5166 22.5 25C22.5 26.9891 23.2902 28.8968 24.6967 30.3033C26.1032 31.7098 28.0109 32.5 30 32.5ZM30 20C30.9889 20 31.9556 20.2932 32.7779 20.8426C33.6001 21.3921 34.241 22.1729 34.6194 23.0866C34.9978 24.0002 35.0969 25.0055 34.9039 25.9754C34.711 26.9454 34.2348 27.8363 33.5355 28.5355C32.8363 29.2348 31.9454 29.711 30.9755 29.9039C30.0055 30.0968 29.0002 29.9978 28.0866 29.6194C27.173 29.241 26.3921 28.6001 25.8427 27.7778C25.2932 26.9556 25 25.9889 25 25C25 23.6739 25.5268 22.4021 26.4645 21.4645C27.4021 20.5268 28.6739 20 30 20Z" fill="#222222"/>
<path d="M34.425 35H25.575C24.334 35.0163 23.1083 35.2769 21.968 35.767C20.8277 36.257 19.7951 36.9668 18.9292 37.856C18.0633 38.7451 17.381 39.7961 16.9213 40.949C16.4616 42.1019 16.2335 43.334 16.25 44.575V45H18.75V44.6C18.7301 43.6852 18.891 42.7755 19.2236 41.923C19.5561 41.0706 20.0538 40.2922 20.6879 39.6325C21.322 38.9728 22.0801 38.4449 22.9188 38.0789C23.7574 37.713 24.6601 37.5162 25.575 37.5H28.75V45H31.25V37.5H34.425C35.3377 37.5163 36.2383 37.7122 37.0753 38.0766C37.9123 38.441 38.6693 38.9667 39.3031 39.6237C39.9369 40.2807 40.435 41.0561 40.7691 41.9057C41.1031 42.7552 41.2665 43.6623 41.25 44.575V45H43.75V44.6C43.7698 43.3569 43.5442 42.1221 43.086 40.9663C42.6277 39.8106 41.946 38.7566 41.0797 37.8648C40.2135 36.973 39.1798 36.2609 38.0378 35.7693C36.8959 35.2777 35.6681 35.0163 34.425 35Z" fill="#222222"/>
</svg>
